<?xml version="1.0" encoding="UTF-8" standalone="no"?>
<svg width="544px" height="399px" viewBox="0 0 544 399" version="1.1" xmlns="http://www.w3.org/2000/svg" xmlns:xlink="http://www.w3.org/1999/xlink" xmlns:sketch="http://www.bohemiancoding.com/sketch/ns">
    <!-- Generator: Sketch 3.4.2 (15857) - http://www.bohemiancoding.com/sketch -->
    <title>winners</title>
    <desc>Created with Sketch.</desc>
    <defs></defs>
    <g id="landing" stroke="none" stroke-width="1" fill="none" fill-rule="evenodd" sketch:type="MSPage">
        <g sketch:type="MSArtboardGroup" transform="translate(-442.000000, -2303.000000)" id="winners" fill="#FFFFFF">
            <path d="M850.057258,2382.67804 C849.083391,2384.14112 848.030449,2385.53965 847.035268,2386.70984 C846.907355,2386.72782 846.788449,2386.78712 846.696568,2386.87877 C845.916476,2388.45122 843.871662,2390.20338 843.023109,2390.65445 C842.176358,2391.10552 841.780006,2391.6698 841.383655,2392.12087 C840.989105,2392.57194 840.762103,2392.23409 840.309902,2392.17658 C839.859502,2392.12087 838.012864,2390.57897 836.807595,2389.86553 C836.218472,2389.55643 835.773477,2389.03168 835.564492,2388.4009 C835.687001,2386.44567 835.631151,2384.48325 835.395142,2382.53881 C835.083465,2381.10473 834.858266,2379.65628 834.715939,2378.19704 C834.674502,2377.10621 834.483533,2376.02437 834.150237,2374.98385 C833.570123,2373.76543 832.737784,2372.84173 830.817281,2372.6728 C828.846332,2370.25392 823.809063,2368.50176 822.39661,2368.55927 C820.984157,2368.61498 819.681601,2369.17747 818.384451,2369.68604 C816.570241,2370.39769 815.649624,2371.1309 813.58139,2373.01245 C812.244604,2374.22728 811.433884,2375.09707 810.415981,2377.40812 C809.329618,2379.17107 808.720677,2383.27022 808.720677,2383.38344 C808.720677,2383.49665 807.646925,2386.37199 807.591075,2386.37199 C807.535226,2386.37199 806.459671,2386.31089 805.895771,2386.37199 C804.998575,2386.56787 803.973466,2388.06305 803.917616,2388.28769 C803.861767,2388.51232 802.899713,2390.76767 802.788014,2390.82517 C802.674513,2390.88088 801.398982,2391.44517 800.640509,2391.50088 C799.204635,2391.27085 797.249901,2391.95195 797.419251,2394.43193 C796.593953,2392.95126 795.573421,2391.53994 794.426356,2390.27216 C796.375607,2388.50471 798.396943,2386.85542 800.281607,2385.47944 C803.108315,2383.00485 805.187359,2381.15744 806.552971,2375.78236 C807.515024,2372.00668 806.722321,2364.50923 806.666471,2364.2828 C806.633666,2364.15085 805.937638,2359.99311 804.509747,2354.42516 C804.894262,2354.07947 805.088133,2353.54471 805.21837,2352.94438 C806.200241,2351.68822 808.099126,2350.4069 809.003528,2350.01333 C810.13313,2349.84441 810.925834,2348.88476 810.925834,2348.82905 C810.925834,2348.77334 812.168936,2347.13799 813.354388,2346.63122 C813.869645,2345.96629 814.437149,2345.3445 815.049692,2344.77123 C815.572156,2344.35431 816.181096,2344.09373 816.914346,2344.03802 C817.080093,2343.5582 817.197197,2343.30481 816.858497,2342.51589 C818.431292,2340.33243 819.650974,2337.91714 820.476106,2335.35629 C820.531956,2334.99867 820.362606,2334.56737 820.079755,2334.34274 C819.796904,2334.1163 819.413163,2334.29422 819.119503,2334.45416 C817.858384,2335.98527 816.689147,2337.78056 815.842395,2339.41591 C815.190217,2339.25777 814.258791,2340.5984 814.258791,2340.6559 C814.258791,2340.71161 812.857147,2342.06662 812.055436,2341.44482 C812.168936,2340.24617 812.188754,2339.03852 812.111285,2337.83627 C812.042825,2337.35106 811.824831,2336.89999 811.489734,2336.54057 C811.196073,2336.37344 810.866381,2336.2782 810.529482,2336.25843 C809.581841,2336.42556 809.39988,2336.54057 807.646925,2336.37165 C807.688361,2334.97711 807.873926,2333.04524 807.985625,2332.20061 C808.142364,2331.88073 807.646925,2331.29847 807.421725,2331.29847 C807.194724,2331.29847 806.742522,2331.33262 806.461473,2331.52311 C806.22186,2331.86455 806.050709,2332.24733 805.951621,2332.65168 C805.79308,2335.7858 804.712121,2338.8067 802.843864,2341.33161 C802.190844,2341.8192 801.565876,2342.40332 800.985884,2343.04549 C800.793502,2342.53181 800.595988,2342.01955 800.393306,2341.51012 C800.672554,2341.25313 800.868928,2340.92067 800.959008,2340.55227 C800.782451,2337.13601 797.454899,2332.2659 796.381147,2331.36376 C796.010017,2330.57305 795.928945,2330.35021 795.138044,2329.05271 C795.943358,2329.2468 796.76849,2328.8119 797.060349,2328.03736 C796.788308,2327.32751 796.663998,2326.96809 795.817246,2326.12166 C795.165068,2324.89246 792.538337,2324.59953 791.747436,2325.16382 C791.77446,2325.49448 791.125884,2325.89703 791.070035,2325.89703 C791.012384,2325.89703 789.936829,2325.33993 789.31708,2325.21952 C788.643282,2325.21054 787.962278,2325.50167 787.679427,2326.4038 C787.33352,2326.13244 786.661524,2326.17737 786.378673,2326.62844 C786.322823,2326.62844 785.701272,2327.6995 785.926472,2329.05271 C785.71028,2329.76795 785.793153,2330.5407 786.153473,2331.19484 C786.484967,2331.45721 786.535412,2331.94063 786.266974,2332.2659 C785.088728,2332.36474 783.609616,2331.64591 782.988065,2330.9127 C782.366513,2330.17948 781.2243,2329.44448 780.388358,2328.65915 C779.734378,2327.98884 779.130843,2327.27359 778.581355,2326.51702 C778.208425,2325.915 777.167101,2325.61488 776.4897,2326.12166 C775.812299,2326.62844 776.810384,2327.9511 777.338253,2328.71486 C778.190409,2329.40135 778.966897,2330.17589 779.655108,2331.02591 C780.391962,2332.16527 780.388358,2332.49054 782.480014,2333.95696 C784.135683,2335.40182 785.531922,2336.88801 786.944375,2338.8055 C786.340839,2339.07327 785.681454,2339.19008 785.023871,2339.14335 C784.004166,2338.81089 783.11778,2339.9161 783.667267,2340.83441 C784.405923,2340.70143 785.1698,2340.8416 785.814773,2341.22797 C786.531809,2342.1373 787.283075,2342.75011 788.753179,2343.08796 C789.834138,2344.11409 790.617834,2344.72331 792.707688,2345.17438 C793.724411,2348.79728 794.189637,2352.54705 794.092285,2356.29805 C786.645854,2366.02449 781.428482,2376.04704 779.252869,2382.16651 C779.197299,2382.21875 779.142794,2382.27058 779.089406,2382.32196 C776.295127,2383.35348 772.985591,2384.51979 770.668736,2385.30871 C768.35188,2386.09943 766.312471,2386.35282 764.114521,2386.77514 C761.54364,2387.18847 758.970958,2388.4662 757.106304,2390.21296 C756.41449,2390.08717 755.717271,2389.99372 755.01645,2389.93082 C754.011158,2389.88769 753.005866,2389.96317 752.020392,2390.15725 C750.352112,2390.69458 749.534186,2390.66403 747.952383,2393.48366 C748.064082,2390.75748 748.404584,2388.4662 749.364836,2385.42193 C751.964542,2385.59086 752.133892,2382.82873 752.078043,2382.77303 C752.020392,2382.71732 752.303242,2379.95519 752.303242,2379.89769 C752.303242,2379.84198 752.497815,2378.37016 751.906891,2377.86878 C751.515944,2377.8562 751.211474,2377.52553 751.22949,2377.13556 C751.591611,2376.81209 751.897883,2376.43111 752.133892,2376.00879 C753.041898,2373.4713 753.094144,2369.86455 752.699594,2367.94706 C753.376995,2367.44028 753.094144,2364.84708 753.038295,2364.84708 C752.980643,2364.84708 752.472593,2363.49388 751.795192,2363.10032 C751.827621,2362.3114 752.133892,2361.97175 750.777289,2360.95819 C749.818838,2358.99218 748.004629,2357.57787 745.860727,2357.125 C745.260795,2357.27416 744.448274,2356.95608 744.109573,2356.50501 C743.405148,2356.05394 742.616048,2355.74843 741.792718,2355.60287 C740.706354,2355.62803 739.701062,2355.48965 738.57146,2355.09609 C737.521128,2354.92717 736.465392,2354.79418 735.406052,2354.70073 C734.19718,2354.63784 733.427897,2354.64502 731.901943,2355.65858 C730.651634,2356.21927 729.529238,2357.46286 729.077037,2358.64714 C728.669876,2358.95084 728.307755,2359.31206 728.003285,2359.7182 C727.529464,2360.58619 727.268232,2361.29604 727.268232,2362.59174 C726.489942,2363.84072 726.307981,2366.08707 726.477331,2366.9335 C726.48814,2366.98921 726.307981,2370.13591 726.082781,2371.72454 C725.926042,2372.82256 725.855779,2374.03559 726.02513,2375.05094 C726.124218,2375.64219 725.234228,2376.0645 725.403578,2376.742 C725.481047,2377.0493 724.936964,2377.1733 724.839678,2377.47342 C724.601867,2378.19764 724.762209,2378.99555 724.556827,2379.72876 C724.410898,2380.24632 724.218127,2380.51768 724.218127,2381.3066 C724.218127,2382.09552 724.673931,2382.62926 725.120727,2383.16659 C725.488253,2383.60687 726.198083,2383.55116 726.704332,2383.2798 C726.861071,2383.19534 727.358312,2382.34712 727.212383,2383.44873 C726.929532,2385.59086 727.833934,2390.27047 728.341985,2392.35509 C728.677082,2393.72447 729.077037,2396.07686 728.963536,2397.37256 C728.313159,2397.21981 727.778085,2397.20363 726.987183,2397.71041 C725.96928,2397.82363 726.109805,2398.17945 725.63058,2398.04826 C724.92075,2397.35818 724.046975,2396.18828 723.765925,2395.73721 C723.483074,2395.28614 721.71931,2395.59524 720.714018,2395.79472 C720.168134,2396.00677 719.357414,2396.63935 719.243914,2396.75256 C719.132215,2396.86578 719.132215,2397.20363 718.508861,2396.92149 C718.170161,2396.47042 717.606261,2396.9772 717.606261,2397.03471 C717.606261,2397.09042 717.290981,2397.70502 716.927058,2397.59719 C716.685644,2396.82804 715.006554,2396.58364 714.554353,2397.09042 C710.367439,2396.32845 708.337037,2395.79472 701.838672,2398.21719 C701.950371,2398.05905 702.045856,2397.89012 702.153952,2397.72838 C702.004419,2397.70322 701.854887,2397.67986 701.714362,2397.61876 C702.033245,2397.37256 701.851284,2396.80827 701.487361,2396.63216 C701.123438,2396.45784 700.692856,2396.5441 700.298306,2396.63575 C699.651532,2396.78491 699.004758,2396.93407 698.356183,2397.08323 C698.179626,2397.12276 697.979649,2397.18207 697.905783,2397.3474 C697.851735,2397.4696 697.884164,2397.61516 697.835521,2397.73737 C697.761655,2397.92067 697.543662,2397.99255 697.352693,2398.04107 C696.630252,2398.22617 695.907811,2398.40948 695.18537,2398.59458 C696.05374,2397.57203 696.923912,2396.54949 697.794084,2395.52695 C698.051713,2395.22324 698.312945,2394.91594 698.525533,2394.57809 C698.671463,2394.34447 698.806582,2394.08569 699.044393,2393.94372 C699.190323,2393.85746 699.370483,2393.81972 699.489388,2393.69752 C699.846105,2393.33091 699.462364,2392.45573 699.961407,2392.34072 C700.249663,2392.35509 700.536117,2392.37127 700.822571,2392.38744 C700.826174,2391.52843 700.303711,2390.69099 699.529023,2390.3154 L697.799489,2392.7199 C697.471598,2393.17816 697.129294,2393.6472 696.650069,2393.94551 C696.172646,2394.24203 695.515062,2394.32829 695.055655,2394.00302 C695.237616,2393.60946 695.358323,2393.18894 695.412371,2392.76123 C694.814241,2392.51144 694.073784,2392.64802 693.603567,2393.09369 C693.661218,2393.39561 693.717067,2393.69931 693.774718,2394.00122 L692.84149,2394.18273 C693.045071,2394.95907 691.924477,2395.67431 691.304727,2395.16394 C691.025479,2394.64099 691.18402,2393.92575 691.659642,2393.56992 C691.93889,2393.35966 692.295606,2393.2734 692.58206,2393.07393 C692.888332,2392.86187 693.095516,2392.54019 693.293692,2392.2257 C694.174673,2390.83476 695.053853,2389.44201 695.934835,2388.05107 C695.997891,2387.5407 696.059145,2387.03212 696.122201,2386.52355 C696.262726,2385.36802 696.405052,2384.21069 696.669887,2383.07673 C696.006899,2383.05697 695.646579,2383.82792 695.48984,2384.46948 C695.237616,2385.50819 695.06106,2386.56668 694.965575,2387.63055 C694.879098,2387.30168 694.392667,2387.1705 694.153054,2387.41131 C694.358436,2387.77432 694.477342,2388.18765 694.493556,2388.60457 C694.18188,2388.69982 693.870203,2388.79506 693.560328,2388.89031 C693.51709,2390.16444 692.473964,2391.15104 691.506506,2391.98309 C691.18402,2392.26164 690.677771,2392.53839 690.380507,2392.23469 C690.097656,2391.51226 690.863336,2390.83655 691.102948,2390.09975 C691.383997,2389.23535 690.843518,2388.23257 690.012981,2387.85878 C690.378706,2388.77889 690.016584,2389.93082 689.189651,2390.47893 C688.858157,2390.69997 688.431178,2390.86531 688.299661,2391.2427 C688.193367,2391.5482 688.32128,2391.91301 688.164541,2392.19695 C687.816833,2392.81874 686.690834,2392.2886 686.206204,2392.81155 C686.514277,2393.35607 686.094505,2394.15218 685.471152,2394.20969 C685.809852,2393.50343 685.51439,2392.55996 684.831584,2392.17179 C684.543329,2392.59051 684.43163,2393.12784 684.528916,2393.62743 C684.159588,2393.60227 683.788459,2393.57891 683.419131,2393.55375 C683.293019,2393.96348 682.941708,2394.29774 682.525539,2394.40377 C682.231878,2394.17554 682.421046,2393.7101 682.635436,2393.40818 C684.141572,2391.26606 685.932361,2389.32341 687.942945,2387.64493 C688.254621,2387.38615 688.550083,2386.84163 688.18616,2386.66372 C686.498063,2387.33403 685.586454,2389.35036 683.844309,2389.86613 C683.669553,2389.91824 683.478584,2389.95958 683.352472,2390.09256 C683.179519,2390.27586 683.195733,2390.5634 683.11286,2390.80421 C683.031788,2391.04502 682.694889,2391.24449 682.541753,2391.04142 C682.388617,2390.36033 682.806588,2389.59836 683.465973,2389.36115 C683.280408,2388.63512 683.20294,2387.88214 683.23717,2387.13455 C684.139771,2387.40771 685.082007,2386.23781 684.620797,2385.41654 C684.543329,2385.87839 684.188414,2386.28094 683.741617,2386.41752 C683.529029,2386.48221 683.298424,2386.49299 683.111058,2386.6116 C682.518332,2386.9854 682.840818,2388.05646 682.276918,2388.47159 C682.069734,2388.62434 681.781478,2388.6495 681.604922,2388.8364 C681.352698,2389.10057 681.449984,2389.54265 681.286039,2389.86792 C680.950942,2390.53464 679.716847,2390.4394 679.565513,2391.16901 C679.491647,2391.51765 679.734863,2391.84472 679.848363,2392.18257 C679.961864,2392.52042 679.81053,2393.0272 679.455615,2392.98587 C679.277257,2392.57434 679.098899,2392.16101 678.92054,2391.74947 C678.655705,2391.13307 678.506173,2390.20757 679.136732,2389.97215 C678.823254,2389.83558 678.509776,2389.699 678.196298,2389.56242 C678.698944,2388.62434 679.196185,2387.68267 679.68622,2386.7374 C679.3259,2386.43729 678.790825,2386.85062 678.612467,2387.28371 C678.434109,2387.71681 678.340426,2388.25414 677.924256,2388.46799 C677.699057,2388.5848 677.428817,2388.57222 677.191006,2388.66208 C676.427128,2388.95321 676.443343,2390.05662 676.769432,2390.80421 C677.097323,2391.55179 677.608977,2392.33532 677.371166,2393.11706 C677.313515,2393.30575 677.212625,2393.48366 677.198212,2393.67954 C677.174792,2394.00302 677.38738,2394.29055 677.493674,2394.59606 C677.877415,2395.6833 676.933377,2396.75077 676.074015,2397.52172 C675.81999,2396.35541 675.564163,2395.1873 675.310137,2394.02099 C675.257891,2393.78018 675.203843,2393.52679 675.263296,2393.28778 C675.365987,2392.86367 675.773148,2392.5995 676.077618,2392.2868 C676.382088,2391.97411 676.587471,2391.43139 676.270389,2391.13128 C675.771347,2391.31638 675.33536,2391.66142 675.039898,2392.1035 C675.238073,2391.54461 674.474196,2391.19417 673.973351,2390.87789 C673.411253,2390.52386 673.045528,2389.8805 673.027512,2389.21918 C673.0131,2388.70341 673.193259,2388.17507 673.040123,2387.68267 C672.886988,2387.19026 672.121308,2386.88476 671.874489,2387.33763 C671.872688,2389.09158 672.236611,2390.84374 672.937432,2392.45213 C673.016703,2392.63723 673.103179,2392.83851 673.050933,2393.03259 C673.005893,2393.20511 672.858162,2393.33271 672.778892,2393.49265 C672.548287,2393.9509 672.910408,2394.47026 673.214879,2394.88359 C673.519349,2395.29872 673.764366,2395.93129 673.382427,2396.27454 C673.074354,2394.77577 670.391774,2395.20707 669.735992,2393.82511 C669.433324,2393.18894 669.708968,2392.44854 669.908946,2391.77463 C670.107121,2391.10073 670.175582,2390.24711 669.62069,2389.81401 C668.999138,2390.54902 668.65143,2391.51226 668.660438,2392.4737 C668.379389,2392.51683 668.123562,2392.70193 667.99745,2392.95712 C667.658749,2392.73967 667.379502,2392.43237 667.193937,2392.07654 C667.082238,2392.20953 666.97234,2392.34431 666.860641,2392.47729 C666.85884,2391.95254 666.664267,2391.42959 666.31836,2391.03244 C666.080549,2391.20496 665.842738,2391.37748 665.604927,2391.55 C665.215782,2391.43498 664.985177,2391.04502 664.923923,2390.63887 C664.698723,2390.96594 664.464516,2391.29301 664.259133,2391.62188 C665.277036,2388.86156 664.033934,2387.50835 662.169279,2385.70407 C663.016031,2384.91515 663.779908,2383.93394 664.486135,2383.44873 L661.942278,2380.29305 C667.19754,2374.54237 673.187855,2366.59565 676.070412,2362.53603 C676.706376,2362.03285 677.227038,2361.39848 677.596366,2360.67605 C678.461133,2357.40894 678.781817,2353.8561 678.556617,2350.5854 C679.345718,2349.81625 679.969071,2349.00756 680.534772,2347.9365 C681.071649,2347.35784 681.206769,2346.51141 680.873473,2345.79437 C680.358216,2345.48168 680.477121,2345.28759 679.122319,2345.3433 C679.188979,2344.1698 679.340313,2343.0017 679.574521,2341.84797 C679.931237,2340.56665 680.477121,2339.03014 680.873473,2338.07229 C681.269825,2337.11444 681.511239,2335.73608 681.156324,2334.57696 C680.977966,2334.35412 680.659083,2334.3056 680.421272,2334.46374 C680.282549,2335.046 680.196072,2335.42338 680.026722,2336.2123 C679.030438,2337.24743 678.104416,2338.91692 677.765716,2339.87656 C677.497278,2339.95564 677.20722,2339.86578 677.030664,2339.65013 C676.978417,2339.12179 677.016251,2338.58805 677.144164,2338.07229 C677.520698,2337.21688 677.708065,2336.8323 677.879217,2335.36588 C678.317005,2334.9202 678.75119,2334.46913 679.178169,2334.01267 C679.68622,2333.45557 679.79972,2332.43483 679.347519,2331.75912 C680.138421,2330.79948 680.082571,2329.55949 679.68622,2329.33485 C679.29167,2329.10842 678.590848,2329.59004 678.160266,2329.95485 C677.965693,2330.27473 677.717073,2330.56047 677.427015,2330.79948 C674.881357,2332.2659 672.510454,2336.60587 672.227603,2337.90336 C671.944752,2339.19906 671.027738,2342.05463 670.193598,2344.0476 C669.795445,2344.82035 669.546824,2345.66139 669.458546,2346.52758 C669.809858,2350.66088 669.408101,2354.82473 668.271293,2358.81606 C665.239203,2364.9603 655.105212,2371.10454 652.336156,2371.83775 C651.415539,2367.78712 651.148902,2363.37347 651.770454,2359.26713 C652.024479,2358.54111 652.064114,2357.75937 651.883955,2357.01179 C651.125482,2355.69991 650.662471,2354.23708 650.527351,2352.72753 C650.673281,2351.59177 650.0193,2350.19184 649.170748,2349.57185 C648.323996,2348.95185 647.78712,2347.29494 647.250244,2346.07651 C647.147553,2345.7746 646.920551,2345.5284 646.628692,2345.40081 C645.100937,2345.40261 643.407435,2344.61009 642.445381,2343.53903 C642.539064,2344.00986 642.391333,2344.49687 642.050831,2344.83652 C641.416668,2345.02702 640.186177,2344.72331 640.072676,2344.6676 C639.959175,2344.61009 639.065583,2343.09694 638.433222,2342.41225 C637.934179,2341.98275 637.330643,2341.69162 636.682068,2341.56762 C636.478487,2341.5802 636.300129,2341.71319 636.229867,2341.90548 C636.665854,2343.81578 638.377372,2346.07651 639.395275,2346.86543 C639.41149,2347.37042 639.281774,2347.88079 638.998924,2348.33186 C638.716073,2348.78293 637.869321,2348.66971 637.64232,2349.17649 C637.41712,2349.68327 637.719789,2352.22794 637.530621,2353.74289 C637.341453,2354.56236 637.755821,2355.60287 638.546722,2356.05394 C639.337624,2356.50501 640.80953,2358.6076 641.93733,2359.88713 C642.457992,2360.47837 642.809304,2361.199 642.955233,2361.97175 C642.856145,2363.19916 642.933614,2364.43196 643.180433,2365.63601 C644.255987,2368.63355 644.592886,2373.07774 644.423536,2375.10665 C641.95895,2376.11841 640.150145,2377.88495 638.546722,2380.0109 C638.298102,2380.63629 637.148682,2380.22835 637.07842,2379.55983 C637.566653,2379.38192 637.47297,2378.09341 637.41712,2378.0377 C637.359469,2377.98199 636.705489,2377.99996 636.512718,2377.69985 C636.532535,2377.39794 636.346971,2377.11939 636.060517,2377.02235 C635.736229,2377.13377 635.100265,2377.19307 635.042614,2377.19307 C634.986764,2377.19307 634.138211,2376.50299 633.857162,2376.00879 C633.51666,2374.67535 632.614059,2372.68238 632.331208,2372.1756 C632.331208,2372.1199 631.760102,2371.79822 631.596156,2371.4981 C631.361948,2370.19881 630.841286,2368.96601 630.070202,2367.89135 C629.545937,2367.42411 629.29011,2366.72504 629.392801,2366.03137 C629.540532,2365.83009 629.490088,2365.54615 629.279301,2365.41137 C628.891957,2365.50841 628.513621,2365.6396 628.149699,2365.80493 C627.973142,2365.90557 627.758752,2365.90557 627.583997,2365.80493 C626.780484,2364.44274 625.87428,2363.14165 624.87079,2361.91604 C623.640298,2360.62753 622.397195,2359.3498 621.141481,2358.08285 C620.867638,2357.81149 620.541549,2357.60123 620.181229,2357.46286 C619.761457,2357.39457 619.33628,2357.54372 619.049825,2357.85821 C618.981365,2358.13856 619.001182,2358.43328 619.107477,2358.70285 C619.59571,2359.30307 620.103761,2359.88713 620.63343,2360.45141 C621.70358,2361.51349 622.58276,2362.75348 623.233137,2364.11387 C623.474551,2364.98007 623.571837,2365.18494 623.741187,2366.76458 C622.87642,2366.14458 621.537833,2365.97386 620.575779,2366.31351 C620.026292,2365.91276 618.993976,2365.97386 618.599426,2366.82029 C618.17605,2367.3648 617.779699,2367.92909 617.412173,2368.51134 C617.091488,2369.07563 616.808637,2369.65968 616.56362,2370.25811 C616.333015,2370.94999 616.460929,2371.71016 616.904122,2372.28882 C617.376141,2372.50447 617.813929,2372.79021 618.203074,2373.13345 C618.664283,2373.67797 619.502027,2373.97988 620.237079,2373.81095 C620.606406,2373.92956 620.937901,2374.14341 621.197331,2374.43095 C622.566545,2377.07446 625.153641,2380.17983 626.623745,2381.53304 C626.411156,2382.59691 626.679594,2384.35087 628.092047,2384.35087 C627.528147,2385.08408 630.295402,2385.81729 632.614059,2384.85765 C632.846465,2385.38779 633.404961,2385.92871 634.026512,2386.49299 C631.884412,2386.45705 629.052299,2389.19941 628.713599,2390.10155 C628.657749,2390.10155 626.793095,2391.1151 626.510244,2391.7926 C626.454395,2391.7926 624.193389,2394.72365 624.024038,2394.89258 C623.854688,2395.0615 622.384584,2395.34365 621.480182,2395.56828 C621.017171,2394.64458 619.784878,2393.76401 618.993976,2393.7083 C618.631855,2393.68314 618.511148,2393.16738 618.203074,2392.97509 C617.531078,2392.55637 616.678922,2392.53839 615.886219,2392.52402 C614.113446,2392.49526 612.15691,2392.69294 610.573305,2392.29938 C608.942859,2391.89144 613.963913,2389.31083 614.756617,2389.48155 C615.133151,2389.56062 615.444827,2389.77448 615.603368,2389.42404 C615.997918,2388.55066 613.908064,2388.12834 613.061313,2388.07084 C612.834311,2388.05646 612.86674,2387.6647 612.664961,2387.56406 C611.229087,2386.85601 609.387854,2387.50835 607.8619,2387.45084 C607.170086,2387.42568 606.663837,2386.76435 605.997246,2386.94406 C605.076629,2387.19206 604.455078,2388.05826 603.51104,2388.18405 C602.770583,2388.28289 603.228189,2387.39513 601.305884,2388.57941 C600.392473,2389.1419 601.812133,2386.49479 602.154437,2385.47944 C602.356216,2384.87562 602.485931,2384.25203 602.437288,2383.61766 C602.349009,2382.52323 601.543695,2381.60851 600.797833,2380.79982 C599.983511,2379.91566 597.915276,2380.4458 600.176282,2377.24878 C603.772272,2372.16303 607.469152,2367.32347 614.138669,2364.4661 C615.046674,2363.33394 616.381658,2362.53783 617.821135,2362.32757 C613.744118,2362.69957 609.762586,2364.0959 606.348557,2366.35304 C610.221994,2362.53783 615.450232,2360.12434 618.684101,2355.75742 C617.042845,2355.0907 615.142159,2355.07632 613.490093,2355.71968 C613.34056,2355.24525 612.90097,2354.87325 612.407333,2354.80496 C612.266808,2354.3521 612.834311,2354.02143 613.295521,2353.90283 C615.897028,2353.23251 618.673291,2353.24509 621.269395,2353.93517 C619.831719,2352.90724 617.985081,2352.46516 616.235729,2352.73113 C614.630505,2352.97733 613.109956,2353.78961 611.486716,2353.73749 C610.450797,2353.70335 609.454513,2353.31698 608.422197,2353.23611 C607.38808,2353.15704 606.190017,2353.50926 605.782856,2354.45992 C605.413528,2353.69796 604.456879,2353.27564 603.642557,2353.51825 C603.754256,2352.90365 604.240687,2352.42922 604.734325,2352.04644 C608.362744,2349.2322 613.338759,2349.05069 617.929231,2349.25017 C613.367584,2347.88618 608.258252,2348.46125 604.116377,2350.80285 C603.022807,2351.42105 601.84276,2352.18661 600.61407,2351.92064 C600.731174,2351.00053 601.41398,2350.26552 602.089579,2349.63115 C604.215465,2347.6292 606.626004,2345.92736 609.22571,2344.59212 C607.463747,2345.55895 605.701784,2346.52399 603.938019,2347.48902 C603.03722,2347.98322 602.116603,2348.4918 601.431996,2349.25556 C600.71496,2350.05526 600.205107,2351.16047 599.179998,2351.48574 C600.529395,2347.67053 602.066158,2343.60013 605.406322,2341.30525 L602.745361,2343.02506 C602.734551,2342.38889 602.725543,2341.75452 602.716535,2341.12015 C602.84625,2342.20379 602.172453,2343.20297 601.529282,2344.08534 C600.424902,2345.60388 599.318721,2347.12062 598.214341,2348.63916 C598.846702,2346.53657 599.163783,2344.33873 599.152974,2342.14449 C598.812472,2343.78163 598.473771,2345.41878 598.135071,2347.05593 C597.906268,2348.15754 597.673862,2349.27713 597.151398,2350.27451 C596.697395,2351.1443 596.039812,2351.89548 595.575,2352.75988 C594.382342,2354.97748 594.458009,2357.91932 592.57714,2359.5942 C592.400583,2356.82309 594.630962,2354.22271 594.112102,2351.49653 C593.51217,2353.26486 592.914039,2355.03319 592.314107,2356.80332 C592.144756,2354.97928 592.01324,2352.9953 593.025738,2351.46777 C593.656297,2350.51532 594.690415,2349.82524 595.09037,2348.75597 C594.367929,2349.31846 593.647289,2349.88274 592.924848,2350.44523 C594.571509,2347.89696 593.971577,2344.45734 595.286744,2341.72397 C595.765969,2340.73018 596.511831,2339.74358 596.351488,2338.65275 C592.838372,2343.05921 592.350139,2349.40472 588.482107,2353.50567 C588.220875,2352.32858 587.484022,2351.26291 586.475127,2350.59978 C587.067852,2350.29248 587.66238,2349.98518 588.256907,2349.67788 C588.554171,2349.52333 588.903681,2349.25376 588.799188,2348.93568 C588.746942,2348.77933 588.593806,2348.6787 588.444274,2348.60861 C587.154329,2348.00658 585.668011,2348.78113 584.475352,2349.55927 C583.282694,2350.33741 581.863035,2351.17844 580.524447,2350.69503 C580.740639,2350.26732 581.165816,2350.02112 581.581986,2349.75695 C580.908188,2349.969 580.216374,2350.14512 579.493933,2350.24755 C575.93938,2347.45129 569.772509,2346.52758 566.21255,2347.42972 C562.421988,2347.86282 560.222236,2348.04971 555.984877,2352.55861 C551.005259,2355.75023 547.281355,2363.26924 546.998505,2367.83564 C545.468948,2371.61491 546.998505,2377.81307 548.637959,2379.95519 C547.639874,2382.10451 549.14601,2385.75978 551.915066,2386.26836 C553.831967,2389.26051 557.17213,2391.7351 560.391586,2392.75045 C560.445634,2393.92754 560.233046,2395.10284 559.770035,2396.18828 C559.59528,2396.43088 559.332247,2396.59262 559.036784,2396.63935 C556.222688,2395.97083 552.367267,2395.00579 550.616114,2394.55473 C550.428748,2394.10545 550.023388,2393.78557 549.542361,2393.7083 C549.118986,2393.86285 548.65057,2393.84308 548.243409,2393.65259 C547.735358,2393.10088 547.621858,2392.80616 546.265254,2392.58152 C544.35556,2391.1151 543.099846,2390.27047 539.822738,2389.31083 C539.004813,2386.99079 534.906177,2385.1973 533.607224,2385.30871 C532.30647,2385.42193 531.74257,2384.30774 530.894017,2383.67516 C529.068998,2382.31297 527.229566,2380.97055 525.073053,2380.23554 C523.932641,2379.84737 523.384956,2380.18522 521.795946,2378.71341 C519.421439,2376.51557 517.144219,2376.51377 517.162235,2376.45986 C518.066637,2373.52881 516.030831,2372.90882 513.431125,2372.28882 C513.007749,2371.55381 512.351968,2370.97874 511.566471,2370.65347 C510.408043,2370.57799 510.381019,2370.31562 508.120013,2371.16025 C508.118211,2370.80802 507.921837,2370.48275 507.611962,2370.31562 C506.496773,2370.35695 506.311208,2370.14669 504.390705,2371.21776 C502.756655,2369.958 500.866778,2369.07204 498.852591,2368.62456 C498.79494,2368.62456 493.17035,2366.38719 490.31842,2365.46708 C487.145806,2364.4679 483.254353,2362.76246 481.106848,2361.63389 C481.314032,2360.92584 481.144682,2360.16028 480.656449,2359.60498 C480.09435,2359.40191 479.499822,2359.30667 478.903493,2359.32284 C478.218886,2359.472 476.869489,2359.54927 476.813639,2359.54927 C476.755988,2359.54927 474.433728,2358.68847 473.592382,2357.745 C472.468184,2355.05656 472.079039,2352.12012 472.460978,2349.2322 C472.572677,2348.96803 472.630328,2348.44328 472.630328,2348.38757 C472.630328,2348.33186 472.266405,2347.60943 471.952927,2347.3165 C470.929619,2346.7612 469.980177,2346.08011 469.128021,2345.28759 C468.701042,2344.77722 467.996617,2344.59571 467.375066,2344.83652 C467.218327,2345.07733 467.103024,2345.3451 467.036365,2345.62544 C466.984119,2346.47367 468.731669,2347.48543 468.787519,2347.48543 C468.84517,2347.48543 469.108203,2348.21505 469.128021,2348.6122 C468.974885,2349.40292 468.504668,2350.0948 467.827267,2350.52969 C466.803959,2350.70222 466.189614,2350.81184 464.775359,2349.9097 C464.429453,2349.01475 463.825917,2347.73522 463.420558,2346.86543 C462.970158,2345.97947 462.501742,2345.14922 461.950453,2344.27224 C461.654991,2343.88407 461.442403,2343.59653 460.59385,2343.70975 C459.747099,2343.82117 459.689447,2345.23009 460.141649,2346.41437 C460.123633,2347.48902 460.417293,2348.54751 460.990201,2349.45863 C461.431593,2349.8468 461.745071,2350.35717 461.894604,2350.92326 C461.797317,2353.2397 462.627854,2355.65858 464.267309,2357.46286 C462.847649,2359.02093 463.532257,2363.04281 464.153808,2363.77602 C464.227674,2363.86228 465.213148,2364.39422 465.679762,2364.79138 C466.095931,2365.1454 466.427425,2365.58569 466.811166,2365.97386 C467.22193,2366.39258 467.758806,2366.66035 468.337119,2366.76458 C468.931647,2366.8706 469.407269,2366.65136 470.144122,2366.65136 C470.201774,2366.65136 470.499037,2367.39535 470.653975,2367.77813 C470.805309,2368.20584 471.080954,2368.57784 471.444876,2368.8492 C471.781775,2368.9714 472.291628,2368.96241 472.518629,2368.9067 C472.743829,2368.8492 473.408619,2369.31644 473.875233,2369.46919 C474.970604,2369.74235 476.033547,2370.13951 477.038839,2370.65347 C483.596657,2375.02578 495.856533,2379.39091 498.739091,2380.06661 C499.771407,2379.52569 501.790998,2382.03981 501.790998,2382.09552 C501.790998,2382.15303 501.992777,2383.79018 502.129699,2384.63301 C502.273827,2385.3788 502.603519,2386.07787 503.089951,2386.66192 C504.581674,2387.74197 505.916658,2388.35298 508.402864,2388.18405 C509.393743,2388.97657 510.285534,2389.8841 511.05842,2390.89047 C511.674567,2391.93098 512.699676,2392.66599 513.883326,2392.91938 C515.414685,2392.60489 517.009099,2392.93196 518.291837,2393.82151 C519.167414,2395.21965 520.212341,2396.50636 521.399594,2397.6547 C522.394076,2398.40409 523.264248,2398.83898 525.017204,2398.61255 C526.051321,2400.32697 527.415131,2401.82214 529.029363,2403.01002 C530.049068,2403.48804 530.724667,2403.74143 532.36232,2403.57251 C534.884558,2405.43249 538.057172,2407.59798 540.83884,2409.04104 C545.45994,2410.99088 549.886467,2413.37022 554.062571,2416.14313 C558.013477,2419.33655 561.101416,2423.46446 563.048944,2428.14947 C563.638066,2432.1983 563.522764,2436.31723 562.710243,2440.32653 C562.231018,2441.54854 561.665316,2442.73642 561.014939,2443.87757 C559.802464,2445.68544 561.805841,2449.62645 563.048944,2450.07752 C563.083174,2450.69212 562.987689,2451.30673 562.766093,2451.88179 C561.728372,2453.46503 560.843787,2456.44819 560.732088,2457.17961 C559.105245,2457.57676 558.696282,2461.35244 559.261984,2461.97244 C559.827686,2462.59243 559.941187,2463.66349 559.827686,2465.46597 C559.714185,2467.27025 558.611607,2468.18856 557.849531,2469.46808 C556.467705,2471.42332 554.936347,2473.27072 553.27167,2474.99233 C552.304212,2475.85134 551.416024,2476.79481 550.616114,2477.81196 C549.96934,2478.80395 549.09016,2479.72765 548.185758,2480.40515 C547.281355,2481.08086 545.078001,2480.06551 545.022151,2480.06551 C544.9645,2480.06551 542.478294,2481.13657 541.970244,2481.75656 C541.460391,2482.37656 541.800893,2481.81407 541.743242,2481.81407 C541.687393,2481.81407 540.896491,2481.92729 538.918336,2482.6587 L541.460391,2482.6587 C541.518042,2482.6587 540.500139,2483.9562 539.426387,2484.91405 C540.008303,2484.65706 541.235192,2484.51869 541.291041,2484.51869 C541.348692,2484.51869 539.484038,2485.87189 537.900433,2486.26725 C540.83884,2486.49189 541.235192,2485.81618 541.291041,2485.81618 C541.348692,2485.81618 544.90865,2482.99835 544.9645,2482.99835 C545.022151,2482.99835 545.380669,2482.8474 545.474352,2483.05406 C538.909328,2492.33242 528.294311,2504.13569 523.3219,2508.98423 C518.347687,2513.83097 515.528185,2518.33447 511.510621,2522.90626 C511.274612,2523.16683 510.872855,2523.19199 510.606219,2522.96376 C510.125192,2517.65157 508.685715,2510.7867 507.667812,2507.23566 C506.649909,2503.68462 502.989061,2498.80912 499.756994,2495.22932 C492.970373,2489.6907 482.746303,2477.64303 481.67255,2476.17661 C480.598797,2474.71198 481.029379,2474.5197 481.164499,2473.64092 C482.050886,2472.03432 483.286782,2470.64697 484.780307,2469.5813 C485.814424,2469.1482 486.533262,2468.79238 487.718714,2467.94775 C488.905967,2467.10132 487.765555,2465.5091 487.154814,2464.45242 C484.266852,2462.09823 482.690453,2460.84387 477.435191,2458.92817 C472.178127,2457.01068 466.780538,2453.99696 461.781103,2450.92395 C458.588671,2448.59672 455.18365,2446.57679 451.609279,2444.89113 C449.171717,2444.01235 445.393765,2443.93328 443.867811,2444.18667 C442.341857,2444.44006 442.066213,2445.66208 442.001355,2446.80862 C441.91668,2448.33075 445.817141,2453.40393 448.784373,2455.85515 C448.784373,2456.193 450.139175,2457.46175 450.22385,2458.81495 C448.869048,2459.99923 450.139175,2460.84387 450.139175,2460.92833 C450.139175,2461.01279 450.659837,2462.02455 450.987728,2462.53492 C451.564239,2463.28431 451.967797,2464.1505 452.174981,2465.07241 C452.176783,2466.66463 453.055963,2468.12566 454.463011,2468.87684 C455.212476,2468.8409 455.904289,2468.62345 456.58169,2468.11668 C456.50242,2468.83012 457.938294,2469.72327 458.022969,2469.72327 C458.107644,2469.72327 458.435535,2469.7053 458.615695,2469.80773 C465.595087,2478.37804 471.329574,2487.88463 475.655212,2498.04895 C477.521667,2505.02345 480.018683,2511.81464 483.113829,2518.34166 C486.738644,2524.47871 489.386994,2532.46137 490.31842,2538.46543 C493.359518,2544.24127 498.090515,2548.96042 503.880852,2551.9939 C507.956068,2552.73969 512.155593,2552.44857 516.088482,2551.14747 C517.908097,2549.98117 519.716901,2548.79868 521.513095,2547.59643 C536.731196,2537.20747 558.640433,2518.9329 564.828923,2513.26848 C567.88083,2510.98438 567.100738,2513.70338 568.134856,2513.18402 C568.927559,2512.78327 569.415792,2511.95481 570.253535,2511.66188 C571.266034,2511.30606 573.305443,2511.57742 573.474793,2511.57742 C573.644143,2511.57742 575.254772,2512.59098 575.339447,2512.59098 C575.424123,2512.59098 575.932173,2514.28204 575.932173,2514.3665 C575.932173,2514.45096 577.276166,2514.08615 577.798629,2514.53543 C578.157147,2514.84632 578.268846,2515.3567 578.730055,2515.46632 C579.27594,2515.59571 580.126294,2515.26145 580.256009,2515.80417 C583.109741,2527.69909 588.408242,2550.03328 590.004458,2567.55128 C590.240467,2570.15346 590.247673,2572.77002 590.766534,2575.33087 C591.456546,2578.72916 591.926763,2581.9118 590.597183,2585.73061 C585.595947,2600.10551 587.714626,2613.46505 587.714626,2613.8029 C587.714626,2614.14076 589.273009,2621.68852 590.004458,2625.64032 C591.316021,2633.08205 590.597183,2642.97322 589.325255,2648.29978 C587.885778,2652.61279 585.172571,2653.71261 583.900643,2654.89509 C582.628714,2656.07937 583.151178,2657.6644 583.561942,2659.03917 C584.87891,2660.72664 586.386848,2662.25955 588.055128,2663.60557 C588.514536,2663.8949 588.995563,2664.15009 589.496407,2664.36574 C593.499558,2665.73512 596.344282,2669.29874 596.785674,2673.49674 C594.283254,2678.48904 608.483451,2685.42041 608.652802,2685.33594 C608.822152,2685.25148 613.12617,2686.51843 615.010642,2685.16522 C615.343938,2684.2523 615.518693,2682.4606 615.518693,2682.29168 C615.518693,2682.12275 613.484688,2676.20315 612.128085,2673.49674 C612.128085,2673.41227 609.126622,2668.51701 607.888924,2665.88787 C607.224134,2664.17704 606.872823,2660.56131 606.872823,2660.47684 C606.872823,2660.39238 606.887235,2658.97448 606.449447,2658.36167 C605.519822,2657.82614 604.802786,2656.99229 604.413641,2655.99491 C604.083948,2646.1325 604.595602,2636.2611 605.939595,2626.48495 C606.988125,2621.84307 607.465548,2620.14482 608.060076,2612.36524 C609.53018,2604.87138 610.295859,2597.25533 610.348106,2589.61951 C610.185962,2587.74515 610.357114,2585.85461 610.856156,2584.03955 C612.346078,2580.92161 613.127972,2577.51613 613.145988,2574.06213 C612.872145,2572.81315 612.758644,2571.53542 612.805486,2570.2577 C613.075726,2568.62953 613.315338,2566.87558 613.484688,2565.35345 C614.162089,2565.20608 614.671942,2565.10006 615.518693,2564.93113 C616.367246,2564.76041 616.527588,2565.48104 616.959971,2565.86022 C618.114796,2567.22062 618.485925,2567.80467 621.112656,2569.24234 C623.033159,2573.38103 624.373548,2577.76233 625.097791,2582.26403 C625.865272,2587.0353 628.657749,2594.10144 630.099028,2595.87696 C630.151274,2595.94346 633.489636,2601.37246 634.251712,2602.81013 C634.291347,2602.8856 636.285716,2605.51654 636.370392,2605.51654 C636.456868,2605.51654 641.953545,2610.6616 648.068169,2609.15204 C656.290664,2607.12313 656.022226,2601.29518 658.834521,2596.46821 C661.918857,2588.05425 665.700412,2572.70892 666.123788,2570.59555 C666.547163,2568.48217 668.655033,2561.9875 670.108923,2557.74278 C670.18459,2557.53792 670.431409,2557.45705 670.616974,2557.57386 C671.204295,2562.80697 671.939347,2568.02392 672.820328,2573.2157 C674.079646,2579.53965 674.76065,2585.96423 674.854333,2592.41038 C674.515632,2596.86177 674.857936,2601.33831 675.872236,2605.68546 C677.136958,2608.83396 677.652215,2611.51881 676.636114,2615.83182 C675.618211,2620.14482 675.018278,2623.68329 674.600308,2627.66923 C674.485005,2630.68114 675.025485,2634.18007 675.787561,2636.6313 C675.787561,2638.9154 677.22884,2659.2081 677.482865,2661.82825 C677.73689,2664.4502 676.479375,2666.82056 675.533536,2669.18552 C674.717412,2671.22342 673.513944,2673.0852 672.650978,2675.10333 C671.851069,2676.97949 670.870999,2677.30297 673.243704,2681.19186 C673.288744,2681.26374 674.939008,2684.57398 674.939008,2684.65844 C674.939008,2684.7429 662.73318,2684.91183 663.835758,2686.85628 C663.877195,2686.92996 665.785087,2688.97145 665.869762,2688.97145 C665.954437,2688.97145 670.930452,2691.5952 673.159029,2693.36712 C675.081334,2694.89644 676.56405,2696.90559 678.244941,2698.69549 C679.933039,2700.48898 681.806701,2701.65349 685.027959,2701.65349 C685.366659,2701.65349 694.605255,2699.54012 696.046534,2698.01798 C696.046534,2697.93352 694.697137,2698.41694 694.18188,2697.93352 C694.133236,2697.48245 694.077387,2697.03138 694.012529,2696.58032 C693.852187,2695.59371 691.809175,2694.63587 691.7245,2694.63587 C691.638023,2694.63587 689.103174,2692.88011 688.503242,2691.42268 C688.524861,2687.53019 688.33209,2683.3897 687.993389,2679.75419 C686.638587,2677.64801 686.069282,2675.13388 686.382761,2672.6521 C686.935851,2671.57565 687.254734,2670.39317 687.315988,2669.18552 C687.029534,2667.42438 686.971883,2665.63448 687.146638,2663.85896 C688.454599,2658.20173 689.811202,2652.55528 691.214647,2646.91962 C692.936975,2640.24524 694.435905,2628.09154 694.549406,2626.5137 C694.662906,2624.93586 694.434103,2619.33434 694.322404,2615.74735 C694.207102,2612.91155 694.22692,2610.07036 694.380055,2607.23455 C694.718756,2603.90455 694.888106,2597.25892 694.888106,2597.20142 C694.888106,2597.14571 696.030319,2589.0678 696.300559,2584.97044 C696.35821,2581.46073 696.642863,2577.95821 697.149112,2574.48444 C698.321952,2568.95301 698.957917,2563.88702 699.069616,2557.63136 C699.069616,2560.33598 708.508189,2565.80451 712.801398,2566.70665 C712.801398,2566.76236 720.431167,2569.91984 721.504919,2571.77983 C720.283436,2573.31813 719.116,2574.89777 718.000811,2576.51335 C717.602658,2577.13694 717.148655,2577.721 716.644207,2578.26192 C715.810067,2579.00951 715.219143,2579.99251 714.948903,2581.07975 C714.986737,2581.7303 714.784958,2582.37006 714.385003,2582.88403 C713.959826,2583.14281 713.594101,2583.48965 713.31125,2583.89938 C713.064431,2584.48883 713.084249,2585.36401 714.215653,2585.59044 C713.53645,2586.11339 713.3671,2587.67506 714.610203,2588.12613 C714.049906,2588.20161 714.046302,2589.81719 714.723703,2589.81719 C714.563361,2590.25927 714.667854,2591.00147 715.570455,2590.94396 C715.491184,2591.61248 715.401104,2592.12824 716.474857,2592.74824 C715.966806,2595.22822 717.88731,2596.13035 717.88731,2596.18786 C718.680013,2596.29928 720.845534,2594.95686 721.504919,2593.48145 C721.375204,2592.26662 721.78777,2591.00147 722.917373,2590.09933 C722.917373,2590.04362 726.02513,2584.12402 726.02513,2584.06831 C726.02513,2584.0108 730.071519,2575.40994 733.485548,2572.06017 C734.607944,2571.39345 735.575402,2569.86234 735.802404,2568.90449 C736.027603,2567.94664 735.654673,2566.78932 735.463703,2565.74701 C735.0097,2564.03259 732.184794,2562.76025 730.716492,2563.32453 C729.246387,2562.03962 728.286135,2560.90026 727.439384,2558.47599 C727.381733,2558.42029 727.02862,2556.04274 726.646681,2554.86924 C725.75489,2552.82955 724.273976,2550.92284 722.578672,2549.56963 C722.578672,2549.51392 722.917373,2548.44286 723.765925,2548.44286 C724.48116,2547.59823 724.895527,2546.69429 724.782027,2545.28538 C725.580135,2543.98249 726.082781,2542.57897 726.252131,2540.94541 C727.385336,2539.42867 728.286135,2537.84544 729.021188,2535.98545 C731.309217,2533.56298 733.033347,2529.108 733.316198,2526.96588 C734.409768,2525.89841 734.784501,2525.66838 736.141104,2523.35733 C738.45796,2521.77948 738.429134,2520.17828 739.814563,2518.79272 C740.439718,2518.28954 741.061269,2517.78097 741.679217,2517.27059 C742.259332,2516.78538 743.032218,2516.59668 743.770873,2516.76202 C744.817602,2517.61024 745.64994,2518.69209 746.199427,2519.9195 C746.442643,2521.20621 746.990329,2522.5684 747.613682,2523.58376 C747.253362,2525.49047 747.556031,2528.03694 748.008232,2529.39015 C748.649601,2530.18985 749.163057,2531.083 749.534186,2532.03905 C749.953958,2533.92959 749.991792,2535.88302 749.647687,2537.78793 C749.424288,2538.35042 749.424288,2538.97401 749.647687,2539.5365 C749.836854,2539.73777 749.95576,2539.99475 749.986387,2540.26791 C749.923331,2540.56803 749.941347,2540.88072 750.042237,2541.17005 C750.726844,2542.15845 751.56819,2542.91861 752.811293,2543.4811 C753.537337,2545.06074 754.407509,2546.57029 755.411,2547.99179 C757.205391,2550.09079 758.707924,2552.42341 759.87536,2554.92495 C760.7095,2557.60441 761.053605,2560.40966 760.893263,2563.21132 C760.567174,2564.55913 760.779763,2565.97344 762.022865,2567.21343 C761.967016,2571.04662 762.361566,2571.49769 762.361566,2571.5534 C762.361566,2571.6109 763.168682,2573.81233 763.379469,2574.99302 C763.552422,2577.64193 763.721773,2580.29083 763.88752,2582.93974 C763.945171,2583.85985 764.114521,2584.76917 764.397372,2585.64615 C764.874795,2586.67588 765.130622,2588.91505 765.130622,2588.97256 C765.130622,2589.02827 765.310782,2590.19637 765.526974,2590.77504 C765.871079,2591.40761 766.269233,2592.01143 766.714227,2592.57931 C767.260112,2593.16875 768.067228,2593.44551 768.861733,2593.31252 C769.623809,2592.71948 770.160685,2592.01502 770.443536,2590.88825 C770.94438,2590.93318 771.448828,2590.8559 771.911838,2590.66362 C772.351428,2590.33655 772.873892,2589.8729 773.154941,2589.59255 C773.484634,2589.69499 773.834144,2589.71475 774.172844,2589.64826 C774.799801,2589.35354 775.190747,2588.35256 774.963746,2587.73257 C775.356494,2587.86735 775.79068,2587.82602 776.150999,2587.61935 C776.680669,2586.87715 776.99775,2586.37936 776.8284,2584.97044 C777.203133,2585.17891 777.664342,2585.15734 778.015653,2584.91294 C778.401196,2584.0126 778.298504,2582.77081 777.846303,2581.98189 C777.394102,2581.19297 777.394102,2579.68881 777.167101,2578.54406 C777.006758,2577.73358 776.722106,2576.95364 776.320349,2576.23301 C775.570885,2575.27157 775.048421,2574.15378 774.794396,2572.96231 C774.82142,2571.40603 774.850245,2570.48233 773.212592,2568.56664 C772.203697,2565.98063 771.855989,2565.24023 770.557037,2560.67383 C774.958341,2555.56292 777.394102,2548.44286 776.8284,2541.45219 C776.815789,2541.28327 777.846303,2540.88791 778.071503,2540.43863 C778.321925,2539.46641 778.262472,2538.44207 777.902153,2537.50579 C777.776041,2537.34765 777.714787,2537.14637 777.732803,2536.9433 C778.085916,2536.25681 777.972415,2535.42476 777.449952,2534.85688 C776.941901,2534.74367 776.507716,2534.4148 776.2645,2533.95475 C776.226666,2533.29881 776.341969,2532.64287 776.6032,2532.03905 C777.276998,2531.13152 776.99775,2529.27693 776.43385,2528.65693 C776.396017,2523.97732 776.376199,2516.14202 776.376199,2514.61989 C776.967123,2513.81839 776.99775,2512.47776 776.376199,2511.63313 C776.09515,2509.91512 776.09515,2508.16475 776.376199,2506.44674 C776.666256,2505.58953 776.686074,2504.66583 776.43385,2503.79783 C775.981649,2503.11853 775.817704,2502.28648 775.981649,2501.48678 C776.520327,2500.69067 776.646439,2499.6843 776.320349,2498.78037 C775.752846,2498.24663 775.534853,2497.44154 775.754648,2496.69575 C776.293326,2496.21233 776.716701,2495.62468 776.09515,2494.55362 C776.423041,2492.98656 775.642949,2490.83365 774.794396,2489.93151 C774.695308,2489.29714 774.67549,2488.65378 774.738546,2488.01402 C774.897087,2487.31495 775.190747,2487.33832 774.511545,2485.87189 C774.583609,2483.75313 773.776493,2480.96764 773.099092,2479.67194 C773.043242,2479.67194 772.315396,2479.2676 771.96949,2478.99444 C771.486661,2478.50384 771.257858,2477.81735 771.347938,2477.13446 C773.068465,2474.53767 774.286345,2476.68339 773.776493,2468.11668 C773.030631,2463.37955 772.36404,2460.50601 771.178588,2453.96641 C772.324404,2448.74767 771.120937,2440.21331 770.385885,2437.95797 C770.447139,2436.26511 770.330035,2434.40692 770.104835,2432.88479 C770.652521,2431.37524 770.160685,2428.99589 769.594983,2428.09376 C769.665245,2427.18084 769.821984,2426.79806 768.861733,2425.44485 C769.829191,2420.50286 770.499385,2414.84743 770.726387,2409.99889 C770.951587,2405.15215 773.00721,2405.23661 774.963746,2403.46109 C774.963746,2403.46109 778.651257,2401.54945 782.669187,2399.20066 C785.538611,2404.58154 789.013934,2409.56286 791.174911,2411.93375 C790.816393,2413.29954 791.279404,2414.74799 792.360363,2415.65552 C792.686452,2415.69865 792.953089,2415.93227 793.039566,2416.24676 C792.589166,2417.62693 792.78554,2419.29103 793.632292,2420.55977 C793.907936,2421.22829 793.996214,2421.9579 793.886317,2422.67314 C792.733294,2425.24657 792.870215,2429.01506 793.716967,2431.12844 C791.490191,2436.25193 790.580384,2444.48798 790.751536,2447.61671 C790.432653,2447.93479 790.175024,2448.30679 789.987658,2448.71473 C789.614727,2450.16857 789.479607,2451.84346 789.564283,2453.19666 C788.88508,2453.70344 788.674293,2454.5337 788.88508,2455.31004 C789.029208,2455.43943 789.06524,2455.64969 788.969755,2455.81861 C788.189663,2456.1331 787.596937,2456.78724 787.360928,2457.59413 C787.478032,2458.28961 787.220403,2458.99586 786.681725,2459.45412 C785.640401,2459.6536 784.732396,2460.21429 784.30902,2461.56749 C783.883843,2463.51194 785.912443,2462.59543 786.173675,2463.51194 C785.95388,2464.53448 785.919649,2464.78068 785.409797,2466.55621 C786.343025,2468.07834 791.259587,2466.89406 791.598287,2466.89406 C791.936988,2466.89406 792.43603,2465.92543 793.039566,2465.71158 C794.594345,2465.71337 795.496946,2465.71158 797.702102,2465.62711 C797.212067,2473.93504 796.684199,2487.69534 796.599524,2490.57068 C796.514849,2490.65514 795.496946,2490.39995 795.581621,2490.39995 C795.666296,2490.39995 794.142144,2495.38867 794.142144,2495.38867 C794.315097,2495.49469 794.387161,2495.70855 794.311494,2495.89724 C787.753676,2499.36023 782.613716,2505.36609 784.901746,2516.02102 C783.446055,2518.10564 782.613716,2523.20757 782.613716,2523.29203 C782.613716,2523.3765 782.534446,2525.34251 782.273214,2526.3363 C781.732735,2527.61223 781.334581,2528.94567 781.087763,2530.30966 C780.98327,2531.8264 780.727443,2533.32696 780.323885,2534.79159 C777.933164,2540.97357 777.017952,2552.46414 777.102627,2554.40859 C777.524201,2554.67815 778.459231,2554.83091 778.543906,2554.83091 C778.628581,2554.83091 777.592662,2559.76211 777.527804,2562.27084 C777.758409,2565.02039 778.960075,2567.59741 780.918412,2569.54365 C784.312623,2571.10173 788.800405,2576.98359 788.969755,2577.32145 C789.140907,2577.6611 794.774505,2584.64098 798.210153,2587.80745 C803.443796,2591.71072 809.145855,2600.2361 810.415981,2603.11144 C810.415981,2603.28036 810.756483,2604.6767 810.754682,2605.4782 C810.397965,2607.96357 810.246631,2609.79121 810.415981,2613.0044 C809.457531,2614.88056 808.974703,2617.06222 809.059378,2619.1756 C808.603573,2619.46313 808.720677,2618.92221 807.958601,2620.35988 C807.194724,2621.79755 807.909958,2621.88201 807.958601,2622.64397 C808.04688,2623.35023 807.958601,2623.4886 808.636002,2624.67288 C808.425215,2627.29663 809.554817,2628.61929 810.754682,2630.25284 C811.711331,2631.55213 813.702097,2631.56651 815.247868,2631.09927 C817.512477,2630.41278 818.49615,2627.66324 819.910404,2625.7709 C821.535446,2623.59823 822.45246,2620.27541 822.792962,2618.16204 C823.131662,2616.04867 825.965576,2610.40042 828.302249,2606.91587 C829.747131,2604.75937 831.015456,2602.49144 831.100131,2599.89825 C831.145171,2598.49832 829.997553,2597.53148 828.386924,2596.68506 C826.776296,2595.83863 825.221516,2595.27614 822.735311,2596.74077 C818.780802,2594.09186 815.019065,2586.44166 813.298539,2583.2698 C812.273429,2581.37747 811.477123,2579.37192 810.925834,2577.29449 C809.989003,2570.68121 801.883612,2562.52603 799.001054,2561.17282 C799.112754,2559.60756 799.339755,2558.46641 800.357658,2556.66214 C801.784524,2556.71245 803.21139,2556.5615 804.595017,2556.21107 C805.236386,2555.95049 805.746239,2555.44191 806.009272,2554.80215 C805.991256,2552.54501 806.41283,2550.30404 807.252375,2548.20684 C808.007244,2547.03874 808.634201,2545.79156 809.117029,2544.48687 C810.026836,2540.84418 811.716735,2536.76479 813.242689,2534.00267 C815.305519,2533.33775 817.182785,2532.19839 818.723151,2530.67626 C818.926732,2530.34919 819.357314,2530.24856 819.683403,2530.45163 C819.811316,2530.98356 819.962651,2531.51011 820.135604,2532.02947 C820.492321,2532.94958 820.587805,2533.32517 821.661558,2534.56695 C821.976838,2536.10886 822.56596,2537.72264 823.245163,2539.01834 C823.245163,2539.24477 824.657616,2541.18922 825.109817,2542.40225 C825.556613,2544.50484 826.199784,2546.56251 827.030321,2548.54649 C828.183344,2550.70479 828.327472,2553.26025 827.426673,2555.53536 C827.114996,2555.83188 827.066353,2556.30991 827.313172,2556.66214 C828.498624,2556.96764 829.516527,2557.22642 830.87313,2557.56427 C831.031671,2558.78809 831.296506,2559.99573 831.664032,2561.17282 C833.065675,2564.57112 834.458311,2567.9712 835.845541,2571.37489 C836.679681,2573.43075 837.212955,2575.59445 837.429146,2577.80127 C837.148097,2583.83768 838.129968,2589.86511 840.309902,2595.50078 C841.358432,2597.11276 841.949356,2600.96931 841.949356,2601.02502 C841.949356,2601.08253 843.414056,2607.579 844.435562,2610.77781 C845.552553,2613.66753 845.792166,2617.59775 845.395814,2620.02202 C844.628333,2620.56474 844.096862,2621.2063 843.871662,2622.38879 C843.814011,2622.38879 844.096862,2626.27948 845.622815,2627.80161 C845.622815,2627.85732 846.075017,2628.19517 846.130866,2628.42161 C846.188517,2628.64624 846.075017,2631.95827 845.905666,2633.71942 C845.467878,2636.63969 845.001264,2634.00156 845.509315,2642.57007 C846.019167,2651.13858 848.053172,2651.25 848.109021,2651.30751 C848.164871,2651.36322 851.454589,2651.74779 853.139084,2651.64536 C855.958585,2651.10803 858.430378,2649.43494 859.976149,2647.02325 C860.172523,2645.82999 860.286024,2644.62414 860.31485,2643.4147 C860.150904,2639.62644 859.347391,2635.8903 857.942145,2632.36621 C857.498951,2631.64019 857.1026,2630.88721 856.754891,2630.11267 C856.464834,2629.33632 856.311698,2628.51685 856.30269,2627.6884 C856.502668,2626.48255 856.190991,2625.15091 855.398288,2624.13735 C855.293795,2623.17951 855.311811,2622.21447 855.455939,2621.26201 C855.758607,2620.20173 855.699155,2619.07137 855.286589,2618.04882 C854.956896,2617.66964 854.706474,2617.22935 854.551537,2616.75312 C854.301114,2614.60021 854.263281,2612.42933 854.438036,2610.26923 C854.789348,2608.32838 855.052381,2606.37315 855.228938,2604.40714 C855.306406,2602.71248 855.437923,2601.02143 855.625289,2599.33396 C856.477445,2593.41795 856.875598,2587.44264 856.812542,2581.46553 C856.464834,2577.51014 855.511788,2573.63203 853.985835,2569.96597 C853.193131,2568.66488 852.638239,2567.2326 852.348182,2565.73742 C852.317555,2563.61327 852.234681,2561.34175 852.12118,2559.36855 C853.409323,2559.3398 854.834388,2558.57963 855.56944,2557.62178 C854.974912,2556.70527 854.607386,2555.66296 854.495687,2554.57752 C854.672244,2553.26385 854.63441,2551.9322 854.382186,2550.63111 C854.011057,2549.62834 853.816484,2547.53114 853.816484,2547.47543 C853.816484,2547.41792 854.854205,2541.52887 854.776736,2538.51156 C854.665037,2537.80531 854.607386,2536.42694 854.607386,2536.36943 C854.607386,2536.31372 855.192906,2526.92215 853.647134,2522.4474 C852.742732,2521.11217 852.593199,2519.40673 853.250783,2517.93671 C854.097534,2517.30594 854.746109,2516.44513 855.117238,2515.45673 C855.232541,2513.88428 855.342438,2512.86354 853.364283,2511.05926 C853.077829,2507.5226 850.878078,2503.33718 848.957574,2501.36398 C848.680128,2498.388 848.053172,2494.88189 847.373969,2494.14868 L846.583067,2493.69761 L846.696568,2490.93549 C846.577662,2490.93549 846.469567,2490.87079 846.413717,2490.76656 C846.752418,2483.0894 846.019167,2474.36455 844.774263,2467.76924 C848.849478,2468.18976 850.533972,2462.70685 846.921768,2460.77857 C846.790251,2460.94031 846.613694,2461.05712 846.413717,2461.11642 C845.768745,2461.11283 845.257091,2460.5755 845.284115,2459.93394 C845.811932,2459.46761 846.286753,2458.92079 846.700074,2458.31731 C846.700728,2458.31817 846.701382,2458.31902 846.702035,2458.31987 C847.065958,2458.7961 847.804613,2459.67308 847.889288,2459.67308 C847.973964,2459.67308 848.440577,2459.95343 848.651364,2460.17986 C849.202654,2460.7711 849.600807,2461.48814 850.261993,2461.95538 C851.292508,2462.6832 851.787947,2461.02629 852.719373,2464.83072 C853.811142,2469.2821 856.495524,2473.18537 859.671741,2476.4992 C862.464219,2479.41408 866.957405,2482.4206 868.740987,2484.53218 C870.097591,2486.13878 875.522203,2491.97212 880.269415,2494.25442 C880.541456,2496.6104 879.718126,2500.51188 879.420862,2501.31517 C879.420862,2501.3583 878.94524,2501.63326 878.700223,2501.78062 C878.530872,2501.87587 878.419173,2502.05018 878.40476,2502.24606 C878.622754,2502.73667 878.592127,2503.30275 878.320085,2503.7682 C877.275158,2504.43492 877.471533,2507.06585 877.810233,2507.44504 C878.150735,2507.82602 877.810233,2507.98955 877.725558,2508.24833 C877.563414,2508.53048 877.503961,2508.85934 877.556208,2509.17923 C877.678716,2509.39847 877.723756,2509.65006 877.684121,2509.89806 C877.415683,2510.40304 877.31119,2510.97991 877.386857,2511.54599 C877.619264,2512.033 877.70574,2512.57572 877.640883,2513.11125 C877.448112,2513.56412 877.361635,2514.05652 877.386857,2514.54892 C877.532787,2515.0539 877.718352,2515.5499 877.938147,2516.02792 C878.165148,2516.43586 878.07687,2516.94623 877.725558,2517.25354 C877.462525,2517.26612 877.215706,2517.38832 877.048157,2517.59139 C876.96168,2517.89869 876.963482,2518.18443 877.260746,2518.52228 C877.120221,2519.40285 876.756298,2520.23311 876.199604,2520.93217 C876.010436,2521.07414 875.887928,2521.288 875.860904,2521.52341 C875.920356,2521.7157 875.949182,2521.91518 875.945579,2522.11645 C875.886126,2522.46149 875.183503,2522.79216 875.140264,2522.79216 C875.098828,2522.79216 874.547539,2523.46786 874.929477,2523.76438 C874.630412,2525.11579 874.590777,2527.0207 874.675452,2527.90846 C874.235862,2527.90307 873.796272,2527.93183 873.360285,2527.99293 C873.174721,2528.03246 873.008974,2528.13669 872.895473,2528.28765 C872.834219,2528.48892 872.900878,2528.70637 873.064823,2528.83756 C873.697184,2528.89327 874.33495,2528.92202 874.970914,2528.92202 C874.924073,2529.11611 874.970914,2529.31918 875.098828,2529.47193 C875.713173,2529.7397 876.377962,2529.87088 877.048157,2529.85291 C877.85167,2529.64984 878.693016,2529.99308 879.1254,2530.69754 C878.278649,2540.4683 877.925535,2550.27501 878.06606,2560.07991 C878.503848,2566.8711 879.81361,2573.57783 881.964719,2580.03476 C882.82228,2581.81208 884.276169,2583.23358 886.075966,2584.05125 C887.119091,2584.13571 889.16931,2584.17884 889.212549,2584.17884 C889.253985,2584.17884 892.495061,2583.3414 893.875085,2582.36019 C895.085759,2580.94229 895.878462,2579.21349 896.163115,2577.37148 C895.982955,2575.93561 898.917759,2574.11696 899.045672,2574.11696 C899.171784,2574.11696 901.04905,2570.69171 901.841753,2568.87485 C903.881162,2562.98221 903.580295,2554.1621 902.520955,2550.18695 C902.371423,2548.81397 902.647067,2546.8246 902.71733,2546.38791 C902.809211,2546.13272 903.816305,2542.46127 904.003671,2539.70274 C905.363878,2537.8769 906.588964,2536.06724 907.817654,2534.03833 C907.950973,2537.08619 908.149148,2540.13045 908.412182,2543.16932 C908.651794,2545.39771 908.567119,2547.64766 908.158156,2549.8491 C905.972818,2556.24493 906.970903,2568.74726 907.309604,2570.10047 C907.67713,2570.80672 908.199593,2572.17251 908.242832,2572.2983 C908.284268,2572.4259 909.85346,2576.1872 909.85346,2576.23033 C909.85346,2576.27346 910.530861,2578.89361 910.530861,2579.02121 C910.530861,2579.147 911.970339,2581.74739 913.072917,2582.82564 C913.748516,2583.25334 914.47456,2583.59479 915.234835,2583.84099 C917.358919,2584.23995 919.53525,2584.29745 921.67735,2584.00992 C923.749188,2583.38273 925.703922,2580.37261 925.873273,2579.06254 C926.498427,2578.02742 927.134391,2576.99769 927.781165,2575.97694 C928.319843,2575.14489 928.7216,2574.23017 928.966617,2573.27053 C929.029673,2572.57506 929.128761,2571.88497 929.263881,2571.19849 C930.454737,2566.53145 931.193392,2561.76019 931.467235,2556.95118 C931.272663,2552.00201 931.400576,2547.04564 931.849174,2542.11264 C932.517567,2537.85714 933.077864,2531.5853 933.205778,2529.25987 C932.957157,2527.89229 933.166143,2526.48158 933.798504,2525.24518 C934.387626,2524.67011 936.00366,2524.31429 936.088335,2524.31429 C936.17301,2524.31429 939.35103,2522.66456 939.902319,2521.48208 C939.435705,2519.91682 938.842979,2519.83236 938.79974,2519.83236 C938.758304,2519.83236 936.34236,2517.59139 933.249016,2518.77567 C933.072459,2515.08625 932.313987,2511.44895 931.002423,2507.99495 C930.836676,2507.70741 930.721374,2507.39292 930.661921,2507.06585 C930.651111,2505.23821 929.561144,2502.83731 928.797267,2501.90821 C929.433231,2501.43378 929.009855,2499.58278 928.966617,2499.53965 C928.92518,2499.49832 928.590083,2499.53067 928.417129,2499.45519 C927.984746,2499.26829 927.781165,2498.76511 927.653252,2498.31404 C927.296535,2497.04709 927.318154,2495.70467 926.552475,2494.6354 C926.350696,2494.35506 926.085861,2494.04416 926.339887,2493.62185 C926.593912,2493.19773 926.447982,2492.54539 926.339887,2492.01525 C925.815621,2489.46339 924.941846,2485.08029 924.983283,2484.32012 C924.988688,2484.22488 925.426476,2482.44397 925.916511,2481.61371 C928.366685,2477.46244 929.096332,2469.45822 928.119866,2467.32508 C927.719911,2466.45169 927.545156,2465.49205 927.611815,2464.5342 C928.555852,2461.65886 928.984633,2458.63975 928.881942,2455.61346 C928.532432,2453.96373 929.222444,2451.04886 929.433231,2450.58341 C929.433231,2450.54028 930.705159,2439.50617 930.620484,2438.44949 C930.746596,2437.82769 931.002423,2437.22387 930.917748,2436.46191 C931.679824,2435.7862 932.551798,2433.16066 933.459803,2431.55766 C934.528151,2429.82886 935.873945,2428.28696 937.444939,2426.99306 C940.403163,2425.28043 943.42084,2420.77873 944.013566,2419.12901 C944.492791,2419.27277 945.326931,2418.4533 945.326931,2418.41017 C945.326931,2418.36884 945.526909,2417.31754 945.962895,2416.9725 C947.269054,2415.93918 948.3356,2414.73872 947.319499,2413.42146 C947.137537,2413.18604 946.732178,2413.32442 946.555621,2413.08361 C946.332223,2412.77451 946.589852,2412.32164 946.76821,2411.98379 C948.274346,2409.13361 951.556858,2404.75411 951.89736,2403.78188 C952.046893,2403.35058 952.617999,2402.64073 952.659436,2402.64073 C952.702675,2402.64073 953.17109,2402.12317 953.634101,2401.58405 C956.475221,2398.27741 957.999374,2395.36972 960.966606,2390.76199 C963.669003,2386.56579 966.474092,2381.84844 968.468461,2377.27485 C969.313411,2374.59899 970.601554,2372.08307 972.282445,2369.83492 C972.644566,2369.48987 973.060735,2369.20414 973.512937,2368.98849 C974.757841,2368.62188 976.352256,2368.31278 977.32692,2368.18519 C977.708859,2367.80421 977.579144,2367.27946 977.878209,2366.91645 C979.297869,2365.93524 980.755362,2365.00435 982.243482,2364.12737 C982.969526,2363.73201 983.758626,2363.46065 984.57475,2363.32407 C985.030555,2363.32227 985.439517,2363.03474 985.590852,2362.60524 C985.477351,2362.19909 985.295389,2361.8864 984.785537,2361.63301 C984.911649,2361.34907 984.863006,2361.0202 984.659425,2360.78658 C983.974818,2360.58351 983.472172,2360.49006 982.538944,2361.0831 C982.497507,2361.0831 982.254292,2361.32571 982.074132,2361.37783 C981.531851,2361.37783 980.993173,2361.43533 980.463503,2361.54855 C978.971779,2362.03196 977.487262,2362.53874 976.013555,2363.06888 C974.615515,2363.59723 971.646481,2363.87218 971.605044,2363.87218 C971.561806,2363.87218 971.255534,2364.10401 971.053755,2364.0429 C970.655602,2363.54691 970.077289,2363.22703 969.443126,2363.15514 C969.194505,2363.22523 968.92967,2363.22523 968.68105,2363.15514 C968.335143,2362.94309 968.086522,2362.13979 968.086522,2362.09666 C968.086522,2362.05533 967.301026,2361.42994 966.816396,2361.25203 C966.569577,2361.22328 966.322758,2361.30055 966.137193,2361.46409 C965.805699,2362.18472 965.629142,2363.74639 965.629142,2363.78772 C965.629142,2363.83085 965.290442,2364.37177 965.077853,2364.63415 C964.75897,2364.95403 964.739153,2365.6495 965.121092,2365.98735 C965.121092,2366.02869 965.95343,2366.35396 966.180431,2366.74752 C966.333567,2368.32716 964.611239,2371.18632 964.569803,2371.22945 C964.526564,2371.27079 960.179308,2377.84273 957.660673,2380.91036 C954.533098,2384.23497 951.618112,2387.75007 948.930128,2391.4377 C947.605953,2393.51513 945.326931,2397.77961 945.285494,2397.86408 C945.242256,2397.94854 945.022461,2398.69074 944.775642,2399.04836 C942.269619,2401.49599 939.181679,2404.83857 937.57105,2406.70035 C936.639624,2405.93839 936.081129,2406.24389 935.409132,2406.44517 C935.061424,2406.70934 934.843431,2407.11009 934.816407,2407.54498 C935.086646,2408.24585 934.773168,2409.03657 934.095767,2409.36364 C933.690408,2409.24143 933.121103,2409.48943 932.951752,2409.91354 C932.782402,2410.33586 932.908514,2410.54612 933.967854,2411.34942 C933.342699,2411.42489 932.697727,2411.98379 932.528377,2412.57683 C931.510474,2412.4079 931.467235,2412.86975 930.959185,2413.08361 C930.144862,2413.51491 929.561144,2414.52127 929.771931,2415.57796 C929.272889,2415.49709 928.763036,2415.63547 928.373891,2415.95894 C928.062215,2416.59871 927.950515,2416.67778 927.69649,2417.98786 C925.394047,2419.0086 921.508,2422.2146 921.464762,2422.25773 C921.423325,2422.29907 919.812696,2421.87675 919.812696,2421.91988 C919.812696,2421.96121 918.753356,2423.39888 918.753356,2423.61094 C918.753356,2423.8212 918.414656,2424.55621 917.904803,2424.54003 C917.322887,2423.8176 916.982385,2422.92984 916.930139,2422.00434 C917.38234,2420.27195 917.232807,2418.43892 916.506763,2416.80358 C916.000514,2416.26445 916.01853,2415.41802 916.550001,2414.90046 C916.989591,2414.90046 917.481428,2414.0127 917.481428,2413.97137 C917.481428,2413.92824 917.654381,2408.66277 916.930139,2406.10731 C916.591438,2405.46036 916.323,2404.78106 916.124824,2404.0784 C915.645599,2401.25518 911.759552,2398.11747 910.318273,2397.73648 C910.276836,2397.69515 907.241143,2394.72996 903.625335,2394.35257 C903.153316,2394.3957 902.675893,2394.40828 902.202072,2394.43883 C901.821935,2394.46399 901.349916,2394.5826 901.281456,2394.95639 C901.26344,2395.05164 901.277853,2395.15407 901.247225,2395.24572 C901.146336,2395.55662 900.697738,2395.52068 900.386061,2395.42363 C900.387863,2395.09656 900.674317,2394.80004 901.000406,2394.78567 C900.816643,2393.75594 901.059859,2392.65792 901.663395,2391.8043 C901.103098,2391.90853 900.623872,2392.35601 900.479745,2392.90412 C900.382458,2393.28151 900.431101,2393.69124 900.286973,2394.05425 C900.141044,2394.41547 899.654612,2394.69222 899.364555,2394.43164 C899.416802,2395.04445 899.323118,2395.66983 899.094315,2396.24131 C898.296207,2395.73812 897.721498,2394.89529 897.550346,2393.96979 C897.458464,2393.47559 897.449456,2392.90592 897.072922,2392.56986 C896.5973,2392.14575 895.85324,2392.3614 895.262316,2392.59861 C895.18845,2392.62737 895.10918,2392.66151 895.067743,2392.7298 C895.006489,2392.83403 895.060537,2392.96522 895.114585,2393.07304 C895.383023,2393.60498 895.651461,2394.13692 895.919899,2394.66886 C896.128885,2395.08398 896.343275,2395.54584 896.222568,2395.99151 C896.100059,2396.43899 895.453285,2396.73012 895.159625,2396.3707 C895.101974,2395.96096 894.819123,2395.58897 894.438985,2395.42184 C894.147126,2395.29245 893.729156,2395.18282 893.743568,2394.86474 C893.759783,2394.46399 894.511049,2394.21779 894.280445,2393.88892 C893.975975,2393.97338 893.682314,2393.75594 893.412074,2393.59061 C893.141835,2393.42707 892.74188,2393.33003 892.549109,2393.57982 C892.379759,2393.79547 892.500466,2394.10637 892.624776,2394.35077 C892.943659,2394.97257 893.269748,2395.60514 893.761584,2396.10293 C894.022816,2396.3671 894.356112,2396.65644 894.314675,2397.02484 C894.156134,2397.03023 894.010205,2397.15782 893.984983,2397.31417 C893.876887,2397.38426 893.714743,2397.34472 893.653489,2397.2333 C893.595837,2397.13266 893.62106,2397.00327 893.592234,2396.89006 C893.500353,2396.51626 892.970683,2396.52345 892.597752,2396.6187 C892.554514,2396.26108 892.358139,2395.78844 892.008629,2395.87291 C891.844684,2395.91244 891.741993,2396.06699 891.641103,2396.19818 C891.471753,2396.41922 891.25376,2396.58635 891.01775,2396.72293 C890.999734,2396.90623 890.961901,2397.09313 890.949289,2397.27104 C890.907853,2397.31417 890.050292,2397.42199 889.635924,2397.61069 C889.13508,2397.95213 888.789173,2399.13282 888.789173,2399.21728 C888.789173,2399.30175 888.83061,2399.59647 888.789173,2399.59647 C888.745935,2399.59647 887.855945,2400.3153 888.194646,2401.45645 C887.953232,2402.90311 886.839844,2404.04785 885.396764,2404.33179 C883.10513,2403.33621 879.1254,2408.39141 879.1254,2408.43274 C879.1254,2408.47587 877.514771,2410.58925 874.124163,2412.19584 C873.987241,2411.86338 874.293513,2411.18049 874.33495,2411.13916 C874.378188,2411.09603 873.682771,2411.11939 873.360285,2411.18049 C873.086442,2411.27574 872.808996,2411.04571 872.852235,2410.75818 C873.277412,2410.58206 873.547651,2410.15975 873.529635,2409.70149 C873.306237,2409.40497 873.034196,2409.14799 872.724321,2408.93952 C871.955039,2408.59089 872.980148,2408.26382 870.223703,2408.51721 C868.211317,2405.23752 865.435054,2400.94968 863.993776,2398.79317 C863.993776,2397.61069 863.698314,2395.11633 863.357811,2394.18544 C863.357811,2394.16721 863.262963,2393.8793 863.102726,2393.40747 C866.386095,2388.4219 869.128529,2383.09727 871.279377,2377.52134 C871.82346,2375.21927 872.718854,2373.01425 873.934933,2370.98174 C874.569095,2370.21798 875.082551,2369.36257 875.460887,2368.44605 C875.709507,2367.4271 875.878857,2366.39018 875.968937,2365.34608 C876.068025,2354.20414 870.600174,2334.34274 869.865122,2332.48275 C869.652534,2331.48896 869.639922,2330.00097 869.695772,2329.43849 C870.038076,2329.3073 870.317323,2329.04313 870.317323,2328.53635 C870.317323,2328.02957 869.92998,2328.24163 869.809273,2328.02957 C869.733606,2327.72766 869.65974,2327.42755 869.584073,2327.12743 C869.465167,2326.66199 869.484985,2326.17138 869.639922,2325.71852 C870.488475,2324.51806 871.01274,2323.11993 871.165876,2321.6589 C871.048772,2320.88975 871.086606,2320.10262 871.279377,2319.34784 C871.673927,2318.53017 872.050461,2317.70351 872.408979,2316.86786 C873.540383,2314.06621 874.520452,2311.20524 875.347386,2308.29936 C875.462688,2307.79078 875.122186,2307.11508 874.556484,2306.94615 C873.990782,2306.77722 873.702527,2307.39722 873.426882,2307.79258 C873.115206,2308.8295 872.738671,2309.84665 872.295478,2310.83684 C871.546013,2312.25654 870.486674,2314.33038 870.092124,2315.1211 C869.780447,2315.04023 869.301222,2314.83895 869.187721,2314.78145 C869.074221,2314.72574 870.198418,2312.13973 869.639922,2310.83684 C868.922886,2310.29412 867.95723,2310.20606 867.153717,2310.61041 C866.973557,2310.90513 866.305164,2311.11898 866.249314,2311.11898 C866.193465,2311.11898 866.072758,2309.83946 865.627763,2309.37042 C865.18457,2309.18712 864.327009,2309.08828 864.21531,2309.08828 C864.101809,2309.08828 863.029858,2309.74421 862.689356,2310.32827 C862.510998,2311.39034 862.406505,2312.24576 862.350656,2313.54146 C862.293005,2313.54146 861.507508,2313.7589 861.219252,2313.43004 C861.294919,2311.38136 861.332753,2307.34151 861.332753,2307.2858 C861.332753,2307.22829 861.765136,2305.1886 861.615604,2304.12832 C861.458864,2303.72577 861.049902,2303.39511 860.541851,2303.39511 C860.0338,2303.39511 859.071747,2302.26833 858.338496,2308.91935 C858.075463,2310.15754 857.942145,2312.63932 857.942145,2312.69683 C857.942145,2312.75254 857.715143,2316.53001 857.264744,2318.10785 C856.650399,2317.57053 856.100911,2316.96491 855.625289,2316.30358 C855.079405,2315.32956 854.349758,2314.46875 853.477784,2313.76789 C852.818399,2313.42105 852.068934,2313.28268 851.330279,2313.37253 C850.883482,2313.5756 850.50875,2313.90986 850.256526,2314.33038 C850.168248,2314.70238 850.326789,2315.08875 850.652878,2315.29002 C851.238397,2315.25049 851.800496,2315.53083 852.12118,2316.02144 C852.153609,2316.71871 852.290531,2317.26322 853.081432,2317.88322 C853.362482,2318.47626 853.571467,2319.09985 853.702984,2319.7432 C853.778651,2320.65612 853.364283,2320.86998 855.003738,2322.16568 C855.99822,2323.33199 857.016123,2324.47853 858.055645,2325.6053 C858.801507,2326.38344 859.354598,2327.35207 859.637449,2328.42313 C858.902396,2328.59206 859.044723,2329.11861 858.902396,2329.5517 C858.875373,2330.01535 858.960048,2330.56526 859.862648,2330.56526 C859.502329,2330.67129 859.185247,2331.01633 859.185247,2331.4674 C859.185247,2331.91847 859.581599,2331.80525 860.20315,2331.91847 C860.20315,2331.97418 860.767051,2336.93593 860.767051,2337.16057 C860.767051,2337.387 861.563357,2341.61375 861.729104,2343.86909 C861.742306,2347.83556 861.958351,2353.30157 862.185569,2357.90998 C860.934598,2357.91681 859.666036,2358.4659 858.781752,2359.77303 C858.697077,2359.81436 858.356575,2360.44873 858.145788,2360.49006 C857.933199,2360.53319 857.72061,2360.70212 857.679174,2360.74525 C857.635935,2360.78658 855.98387,2360.77041 855.347905,2360.78658 C854.857871,2360.82253 854.367836,2360.70392 853.949865,2360.44873 C853.126535,2359.49628 852.169886,2358.63008 851.151983,2357.91124 C850.658345,2356.57421 849.24409,2355.29109 848.143314,2354.86878 C847.53077,2354.20385 846.70744,2353.77076 845.812046,2353.64137 C845.446321,2353.71505 845.091406,2353.93789 845.132843,2354.52913 C844.790539,2354.15893 843.311427,2353.51557 843.057402,2353.81029 C842.79617,2354.114 842.760138,2354.48779 842.888052,2354.74118 C842.136785,2354.68368 841.389122,2355.26593 841.998062,2356.09439 C842.87544,2357.28945 844.370767,2359.7299 844.370767,2359.85749 C844.370767,2359.98329 844.455442,2360.61766 844.455442,2360.66079 C844.455442,2360.70212 843.862716,2360.87105 843.819478,2360.87105 C843.778041,2360.87105 839.751469,2358.9266 839.072266,2358.79901 C838.394865,2358.67321 838.632676,2359.18179 838.351627,2359.26445 C838.351627,2359.26445 838.407477,2359.77842 838.564216,2359.98329 C839.50465,2360.56195 840.437878,2361.15319 841.362098,2361.75881 C841.944014,2362.15237 842.459271,2362.63938 842.888052,2363.19648 C843.738406,2364.7833 844.923858,2366.16886 846.363335,2367.2543 C847.062355,2367.57777 847.519961,2368.26246 847.548786,2369.03162 C847.118204,2369.79358 847.296563,2370.75502 847.973964,2371.31392 C848.327077,2371.31212 848.582904,2371.65177 848.482014,2371.98962 C847.975765,2372.17652 848.058639,2373.51175 848.651364,2373.59622 C848.202767,2373.89633 847.973964,2374.86496 848.820715,2375.20281 C849.203075,2377.69915 849.615834,2380.19128 850.057258,2382.67804 Z M856.713853,2373.1676 C856.883042,2372.95988 857.053246,2372.75298 857.224461,2372.54689 C857.113044,2372.55981 857.02891,2372.56884 857.001773,2372.58266 C856.943591,2372.61047 856.768791,2372.8994 856.713853,2373.1676 Z M857.916881,2371.7244 C858.112601,2371.49496 858.309592,2371.26657 858.507846,2371.03925 C859.520345,2370.06163 861.729104,2368.38855 861.784954,2368.38855 C861.840803,2368.38855 863.092914,2367.1234 862.689356,2366.58607 C862.617983,2365.70674 862.440688,2362.87962 862.257542,2359.3354 C862.003281,2359.51222 861.782668,2359.72071 861.705746,2359.94195 C861.404879,2360.4092 860.518493,2361.03997 860.518493,2361.0831 C860.518493,2361.12444 859.925767,2362.57648 859.246564,2362.77416 C858.866427,2363.61879 857.844921,2364.75096 856.789184,2365.22539 C856.744144,2365.43385 856.915296,2365.62614 857.127885,2365.60637 C857.740428,2365.98915 858.017874,2366.73494 857.807087,2367.42502 C857.77646,2367.57777 857.762047,2367.73412 857.763849,2367.88867 C857.922389,2368.12229 858.207042,2368.2391 858.484488,2368.18519 C858.661045,2368.60391 858.134978,2368.96513 857.807087,2368.65064 C857.807087,2369.32634 857.522435,2370.18714 857.043209,2370.76401 C857.010781,2370.89699 857.043209,2371.03717 857.127885,2371.14499 C857.366612,2371.37025 857.631335,2371.56381 857.916881,2371.7244 Z M856.707039,2405.39302 C855.973148,2406.52258 854.437889,2408.6667 853.194933,2409.9336 C853.081432,2411.51144 853.003964,2413.69131 853.025583,2415.57106 C852.623826,2416.42288 851.854544,2417.04647 850.933927,2417.26212 C850.878078,2418.72674 850.706926,2420.24708 850.425876,2421.7153 C850.209685,2422.47187 849.926834,2423.20688 849.579125,2423.91313 C849.182774,2425.19086 848.993606,2426.5225 849.013423,2427.85954 C848.786422,2429.46434 848.308998,2431.02241 847.60097,2432.48164 C847.65682,2434.62377 847.939671,2440.43016 847.99552,2440.43016 C848.109021,2441.44372 848.499968,2447.34715 848.336022,2450.519 C848.380576,2450.71774 848.417587,2450.919 848.447251,2451.12225 C849.426196,2449.9114 850.826296,2447.82292 850.854719,2447.75121 C851.449247,2446.22907 851.247468,2444.4212 851.110546,2442.76249 C851.020466,2441.67885 850.894354,2440.48379 851.449247,2439.5493 C852.553626,2437.68572 854.182271,2436.24985 855.940631,2434.9829 C856.870256,2434.31439 857.832309,2433.65845 858.569163,2432.78507 C860.669827,2430.2979 863.12,2427.86105 864.078451,2424.75209 C863.824425,2423.65227 863.93072,2422.83819 864.247801,2421.96121 C864.137904,2421.51733 863.40105,2421.11658 863.316375,2421.11658 C863.2317,2421.11658 862.044446,2421.36997 861.875096,2420.86319 C861.705746,2420.35462 861.745381,2419.80112 861.959771,2419.34106 C861.828254,2418.48026 861.194092,2417.78119 860.349142,2417.56554 C859.484375,2416.79998 859.042984,2415.66782 859.161889,2414.52127 C859.417716,2414.08279 859.8501,2413.77369 860.349142,2413.67485 C859.311051,2411.63493 858.022716,2408.7259 856.707039,2405.39302 Z M916.05276,2412.05028 C915.969887,2412.07544 915.901426,2411.98738 915.861791,2411.9119 C914.607878,2409.511 913.598983,2406.99328 912.503612,2404.51869 C912.235173,2403.91127 911.961331,2403.30745 911.687488,2402.70363 C911.334374,2401.9219 910.975856,2401.13478 910.485822,2400.43032 C910.302058,2400.16615 910.098478,2399.91455 909.896699,2399.66296 C910.680394,2399.73844 911.638844,2399.48146 912.132482,2400.09247 C912.273007,2400.26319 912.343269,2400.47884 912.418936,2400.6873 C912.745026,2401.58405 913.204433,2402.43227 913.779143,2403.19603 C914.081812,2403.59678 914.431322,2404.01551 914.451139,2404.51689 C914.467354,2404.93921 914.247559,2405.39207 914.44033,2405.76946 C914.532211,2405.94917 914.705165,2406.07317 914.847491,2406.21873 C915.242041,2406.61589 915.416796,2407.17478 915.550114,2407.7175 C915.88341,2409.0743 916.041951,2410.47424 916.023935,2411.87057 L916.002316,2411.95503 C916.022133,2411.87057 916.135634,2412.02332 916.05276,2412.05028 Z M718.283662,2482.15192 C717.952168,2482.94803 716.528905,2484.46298 716.363158,2483.61835 C715.345255,2478.43195 712.293347,2469.86344 712.293347,2469.86344 C712.399642,2469.78617 711.727645,2467.49668 712.406848,2469.52559 C713.084249,2471.5545 716.161379,2473.39652 718.283662,2475.04984 C719.238509,2475.79383 719.851052,2476.89185 719.978966,2478.0941 L718.283662,2482.15192 Z M710.372844,2457.23711 C710.372844,2457.46175 707.659637,2460.3928 707.546136,2460.3928 C707.434437,2460.3928 705.085153,2456.6261 703.251125,2455.31962 C702.444009,2455.00693 701.782823,2453.29071 701.782823,2453.17749 C701.782823,2453.06607 704.494228,2451.2618 707.093935,2448.55539 C700.950484,2446.81401 699.183116,2446.18862 688.445591,2444.15971 C689.159024,2444.18847 689.85444,2444.1669 690.535445,2444.1076 C690.495809,2444.00337 690.477793,2443.89374 690.513825,2443.78771 C690.634533,2443.43908 691.027281,2443.26476 691.389402,2443.19468 C691.706484,2443.13358 692.045184,2443.12279 692.340646,2443.24859 C692.544227,2443.33485 692.718982,2443.48041 692.924364,2443.56128 C693.023452,2443.60082 693.126143,2443.59363 693.227032,2443.59902 C693.468447,2443.53433 693.715266,2443.47502 693.951275,2443.39775 C694.199896,2443.23421 694.412484,2443.00598 694.525985,2442.73642 C694.785415,2442.12361 694.688129,2441.42275 694.524183,2440.77759 C694.203499,2439.52682 693.659416,2438.12869 694.331412,2437.02528 C694.956567,2436.98934 695.273648,2437.75669 695.36553,2438.37309 C695.457411,2438.98949 695.639373,2439.76044 696.253718,2439.87725 C696.338393,2439.32555 696.433877,2438.74509 696.781586,2438.3066 C697.131096,2437.86811 697.819307,2437.64707 698.264301,2437.98852 C698.446263,2438.12869 698.568771,2438.34614 698.777757,2438.44318 C698.95071,2438.52405 699.154291,2438.50787 699.34526,2438.4899 C700.006447,2438.42521 700.667633,2438.36051 701.32882,2438.29761 C701.341431,2438.28144 701.355844,2438.26706 701.368455,2438.25269 C701.45313,2437.78185 701.604465,2437.24812 702.047658,2437.08278 C702.123325,2437.05583 702.204397,2437.04864 702.285469,2437.03965 C702.678217,2436.47717 703.04214,2435.89491 703.375436,2435.28929 C703.308777,2435.04489 703.197078,2434.82385 702.9971,2434.6657 C702.656598,2434.39973 702.166563,2434.40692 701.808045,2434.16611 C701.29459,2433.82467 701.211716,2433.09864 701.321614,2432.49302 C701.42971,2431.88741 701.681933,2431.29616 701.645901,2430.68156 C701.611671,2430.06696 701.134247,2429.40563 700.521704,2429.47572 C700.768523,2429.27983 700.678443,2428.87369 700.473061,2428.63468 C700.267679,2428.39746 699.977621,2428.23573 699.810073,2427.96976 C699.642524,2427.70379 699.692969,2427.25631 700.001042,2427.18802 C700.444235,2427.37492 700.757713,2427.83318 700.770325,2428.313 C701.622481,2428.72094 702.674614,2428.67781 703.488936,2428.20338 C703.629461,2428.12251 703.768184,2428.02187 703.834843,2427.87631 C704.033019,2427.44501 703.510556,2427.03348 703.05295,2426.90588 C702.595344,2426.78009 702.024237,2426.65429 701.898125,2426.19783 C701.791831,2425.82224 702.081888,2425.44126 702.416985,2425.24178 C702.753884,2425.04051 703.146633,2424.94706 703.47092,2424.72781 C704.332084,2424.14376 704.402347,2422.83368 703.903304,2421.92256 C703.404261,2421.01144 702.496256,2420.40941 701.620679,2419.84872 C701.343233,2419.67261 701.056779,2419.48751 700.885627,2419.20716 C700.714475,2418.92861 700.698261,2418.52607 700.937873,2418.30143 C701.215319,2418.04265 701.654909,2418.14149 702.035047,2418.11813 C702.683622,2418.08039 703.238514,2417.65268 703.861867,2417.47657 C703.996987,2417.43883 704.142917,2417.42625 704.288846,2417.42805 C704.852746,2416.66968 708.49738,2417.97795 708.337037,2418.68062 C707.735304,2421.33851 708.850493,2429.74348 709.354941,2447.3154 C709.396377,2448.74049 710.079183,2450.07392 710.259343,2451.48643 C710.500757,2453.38955 710.372844,2457.01068 710.372844,2457.23711 Z M704.932017,2516.10428 C704.692404,2516.57692 704.306862,2516.97587 704.157329,2517.48445 C703.816827,2518.63997 704.805905,2519.90512 704.391537,2521.03549 C704.209576,2521.53508 703.773589,2521.92145 703.634866,2522.43542 C703.506952,2522.90985 703.654683,2523.41483 703.604239,2523.90364 C703.469119,2525.2227 701.935959,2526.30814 702.34312,2527.5697 C701.926951,2527.11683 701.501774,2526.64959 701.263963,2526.07991 C701.027953,2525.51203 701.011739,2524.81117 701.38467,2524.32056 C701.490964,2524.18039 701.626084,2524.05819 701.68914,2523.89465 C701.845879,2523.48851 701.49817,2523.07518 701.177486,2522.77866 C701.81345,2522.52527 702.222413,2521.88192 702.379152,2521.22059 C702.537693,2520.55746 702.485446,2519.86559 702.451216,2519.18629 C702.370144,2517.58508 702.389961,2515.98208 702.505264,2514.38447 C702.498057,2514.38267 702.492653,2514.38267 702.487248,2514.38267 L702.508867,2514.28024 C702.507065,2514.31438 702.507065,2514.35033 702.505264,2514.38447 C703.002505,2514.40963 703.501548,2514.43659 703.998789,2514.46175 C704.274433,2514.47612 704.564491,2514.49589 704.786087,2514.65583 C705.216669,2514.96673 705.173431,2515.63345 704.932017,2516.10428 Z M644.706387,2535.47688 C644.418131,2537.71964 644.342464,2539.98397 644.481187,2542.24111 C644.102852,2542.85751 643.380411,2543.172 642.672382,2543.03003 C642.000386,2543.89084 643.576785,2545.17216 643.688484,2545.17216 C643.349783,2553.62745 642.373317,2563.66239 640.863578,2572.79338 C640.474433,2573.17796 639.768206,2573.60747 639.281774,2573.35767 C637.925171,2571.77983 633.350913,2566.91152 629.787351,2564.56452 C628.544249,2562.30918 629.634216,2557.93327 632.048357,2556.5603 C632.116818,2556.40036 632.069976,2556.21706 631.934857,2556.10923 C633.630161,2555.99602 634.343594,2554.79556 634.421062,2553.62745 C630.951184,2549.17068 624.687027,2548.00796 619.842529,2550.92284 C618.109391,2551.58057 614.351257,2552.59054 614.416115,2551.9364 C614.981817,2546.30073 614.868316,2521.94841 614.416115,2508.41994 C614.35486,2506.56894 617.655388,2506.66419 619.163326,2507.74424 C620.746931,2505.26246 615.311509,2503.31981 614.416115,2504.92461 C613.400013,2503.79783 614.371075,2501.14174 615.772718,2500.86678 C616.363642,2499.78134 615.821361,2498.42634 614.643116,2498.04895 C614.868316,2496.80717 614.949388,2495.4917 614.868316,2494.21577 C614.769228,2493.4538 614.617894,2492.70082 614.416115,2491.96042 C614.342249,2491.39973 613.511712,2490.94507 614.416115,2490.26936 C615.320517,2489.59186 615.28989,2488.58549 614.868316,2487.9008 C614.403503,2486.1163 614.480972,2484.23115 615.095317,2482.48978 C615.095317,2480.34765 615.246651,2478.56494 615.547518,2476.62768 C617.695024,2472.56986 618.352607,2469.06554 618.258924,2465.12812 C619.163326,2461.97244 619.103873,2461.01099 619.049825,2458.92817 C620.85863,2459.60388 626.21298,2462.21504 629.33515,2464.56383 C629.918868,2465.42644 630.691754,2465.80562 630.126052,2467.49668 C629.562152,2469.18774 632.048357,2474.37233 631.934857,2474.59877 C636.682068,2491.39614 645.931474,2501.71321 658.38232,2509.20886 C650.696701,2517.66415 646.879115,2525.85168 644.706387,2535.47688 Z M619.502027,2436.83119 C619.892974,2431.98984 619.954228,2426.8933 620.406429,2422.28737 C620.788368,2418.41105 630.014353,2413.03956 635.583093,2409.10035 C638.865605,2406.77851 642.220181,2404.36143 645.272089,2401.5436 C646.133253,2400.74749 647.17818,2402.90759 647.531293,2404.02358 C648.078979,2405.74698 647.192593,2409.09675 647.192593,2409.4346 C647.192593,2409.77425 647.306093,2413.38101 647.192593,2413.49422 C647.080894,2413.60744 648.096995,2425.107 648.549196,2427.24913 C648.646482,2427.70559 648.340211,2428.3759 647.871795,2428.3759 C640.524877,2428.3759 625.944542,2435.5912 621.990034,2444.49756 C621.943192,2444.6 620.06953,2447.58137 618.390441,2448.31997 C618.426472,2448.43318 618.440885,2448.56078 618.485925,2448.6686 L618.372425,2448.33075 C618.377829,2448.32716 618.385036,2448.32356 618.390441,2448.31997 C617.410371,2445.35657 619.195755,2440.63383 619.502027,2436.83119 Z M882.148482,2411.43568 C881.190031,2412.38813 880.685584,2413.49514 879.957738,2414.63269 C879.671284,2415.08376 879.408251,2415.76486 879.280337,2415.87448 C878.950645,2416.15123 878.864168,2416.70294 878.748866,2417.11807 C878.601135,2417.65 877.981385,2418.52339 877.415683,2418.35446 C877.076983,2417.9591 877.26615,2416.94554 876.804941,2416.4819 C876.413994,2416.08833 875.938372,2415.66242 875.385282,2415.72532 C876.320311,2415.46834 876.855386,2414.52667 877.496755,2413.80244 C877.84086,2413.41427 878.23541,2413.07462 878.628159,2412.73677 C880.141501,2411.43568 881.656645,2410.13279 883.178996,2408.84068 L883.396989,2409.23784 C883.51049,2410.10583 882.770033,2410.81748 882.148482,2411.43568 Z" sketch:type="MSShapeGroup"></path>
        </g>
    </g>
</svg>