<?xml version="1.0" encoding="UTF-8"?>
<!DOCTYPE svg PUBLIC "-//W3C//DTD SVG 1.1//EN" "http://www.w3.org/Graphics/SVG/1.1/DTD/svg11.dtd">
<svg version="1.1" xmlns="http://www.w3.org/2000/svg" xmlns:xlink="http://www.w3.org/1999/xlink" x="0" y="0" width="300" height="300" viewBox="0, 0, 300, 300">
  <defs>
    <radialGradient id="Gradient_1" gradientUnits="userSpaceOnUse" cx="99.226" cy="65.691" r="233.428">
      <stop offset="0" stop-color="#FFF6FF"/>
      <stop offset="0.503" stop-color="#0D8AFF"/>
      <stop offset="1" stop-color="#000537"/>
    </radialGradient>
    <linearGradient id="Gradient_2" gradientUnits="userSpaceOnUse" x1="110.909" y1="65.151" x2="114.696" y2="289.089">
      <stop offset="0.368" stop-color="#FFFFFF"/>
      <stop offset="1" stop-color="#ABABAB"/>
    </linearGradient>
  </defs>
  <g id="ball6" transform="translate(0, 0)">
    <path d="M0.726,149.998 C0.726,232.844 67.72,300 150.363,300 L150.363,300 C233.004,300 300,232.844 300,149.998 L300,149.998 C300,67.164 233.004,-0 150.363,-0 L150.363,-0 C67.72,-0 0.726,67.164 0.726,149.998 z" fill="url(#Gradient_1)"/>
    <path d="M6.093,188.93 C-4.224,150.664 3.204,111.761 35.38,90.873 L35.38,90.873 C112.104,41.069 217.08,142.47 200.102,222.941 L200.102,222.941 C192.017,261.231 154.297,298.292 111.022,292.434 L111.022,292.434 C78.023,285.766 50.35,265.461 31.111,239.781 L31.111,239.781 C48.735,263.885 73.501,283.564 104.501,293.17 L104.501,293.17 C182.656,316.397 218.927,238.517 222.838,222.22 L222.838,222.22 C242.052,142.007 150.696,59.407 95.505,56.543 L95.505,56.543 C93.079,56.417 90.688,56.355 88.361,56.354 L88.361,56.354 C10.939,56.346 -12.62,124.702 6.093,188.93 z M47.177,253.135 C106.772,309.051 163.141,272.905 170.611,222.181 L170.611,222.181 C177.65,174.39 137.789,111.386 77.742,104.847 L77.742,104.847 C-3.552,104.958 -11.363,198.221 47.177,253.135 z M31.111,239.781 C19.697,224.171 11.273,206.709 6.093,188.93 L6.093,188.93 C10.866,206.634 19.433,224.194 31.111,239.781 z" fill="url(#Gradient_2)"/>
  </g>
</svg>
