<?xml version="1.0" encoding="UTF-8"?>
<!DOCTYPE svg PUBLIC "-//W3C//DTD SVG 1.1//EN" "http://www.w3.org/Graphics/SVG/1.1/DTD/svg11.dtd">
<svg version="1.1" xmlns="http://www.w3.org/2000/svg" xmlns:xlink="http://www.w3.org/1999/xlink" x="0" y="0" width="300" height="300" viewBox="0, 0, 300, 300">
  <defs>
    <radialGradient id="Gradient_1" gradientUnits="userSpaceOnUse" cx="72.069" cy="61.894" r="260.646">
      <stop offset="0" stop-color="#FFFFFF"/>
      <stop offset="0.517" stop-color="#9600C5"/>
      <stop offset="1" stop-color="#170021"/>
    </radialGradient>
    <linearGradient id="Gradient_2" gradientUnits="userSpaceOnUse" x1="111.366" y1="61.778" x2="115.169" y2="288.06">
      <stop offset="0.368" stop-color="#FFFFFF"/>
      <stop offset="1" stop-color="#ABABAB"/>
    </linearGradient>
  </defs>
  <g id="ball1" transform="translate(0, -0)">
    <path d="M0,149.998 C0,232.839 67.16,300 150,300 L150,300 C232.84,300 300,232.839 300,149.998 L300,149.998 C300,67.159 232.84,0 150,0 L150,0 C67.16,0 0,67.159 0,149.998 z" fill="url(#Gradient_1)"/>
    <path d="M2.187,170.983 C-1.938,137.41 8.327,105.234 37.377,86.906 L37.377,86.906 C119.613,35.029 215.045,146.508 200.771,218.851 L200.771,218.851 C192.951,258.484 154.341,296.898 109.321,290.895 L109.321,290.895 C86.005,286.148 65.491,274.722 48.783,259.441 L48.783,259.441 C61.515,271.754 76.598,281.989 93.855,289.028 L93.855,289.028 C189.843,325.098 223.528,219.254 223.77,218.153 L223.77,218.153 C241.491,137.873 165.527,56.846 97.633,53.103 L97.633,53.103 C95.018,52.96 92.453,52.889 89.949,52.889 L89.949,52.889 C18.142,52.886 -8.226,111.117 2.187,170.983 z M45.04,249.905 C104.021,307.181 163.446,271.598 170.994,218.041 L170.994,218.041 C177.75,170.099 138.252,107.039 79.073,100.631 L79.073,100.631 C-1.739,100.855 -11.796,194.71 45.04,249.905 z M48.783,259.441 C23.695,235.179 7.73,202.853 2.187,170.983 L2.187,170.983 C6.088,202.734 22.857,235.73 48.783,259.441 z" fill="url(#Gradient_2)"/>
  </g>
</svg>
