<?xml version="1.0" encoding="UTF-8"?>
<!DOCTYPE svg PUBLIC "-//W3C//DTD SVG 1.1//EN" "http://www.w3.org/Graphics/SVG/1.1/DTD/svg11.dtd">
<svg version="1.1" xmlns="http://www.w3.org/2000/svg" xmlns:xlink="http://www.w3.org/1999/xlink" x="0" y="0" width="300" height="300" viewBox="0, 0, 300, 300">
  <defs>
    <radialGradient id="Gradient_1" gradientUnits="userSpaceOnUse" cx="76.493" cy="31.513" r="279.827">
      <stop offset="0" stop-color="#FFFFFF"/>
      <stop offset="0.517" stop-color="#00CCFF"/>
      <stop offset="1" stop-color="#275259"/>
    </radialGradient>
    <linearGradient id="Gradient_2" gradientUnits="userSpaceOnUse" x1="180.264" y1="44.664" x2="184.223" y2="281.882">
      <stop offset="0.368" stop-color="#FFFFFF"/>
      <stop offset="1" stop-color="#ABABAB"/>
    </linearGradient>
  </defs>
  <g id="ball2" transform="translate(0, -0)">
    <path d="M-0,149.995 C-0,232.844 67.079,300 149.819,300 L149.819,300 C232.559,300 299.637,232.844 299.637,149.995 L299.637,149.995 C299.637,67.159 232.559,0 149.819,0 L149.819,0 C67.079,0 -0,67.159 -0,149.995 z" fill="url(#Gradient_1)"/>
    <path d="M132.985,55.867 C57.467,100.609 26.171,228.713 134.302,280.577 L134.302,280.577 C217.101,320.296 303.665,236.773 299.88,150.206 L299.88,150.206 C296.853,81.229 253.695,49.995 216.192,38.637 L216.192,38.637 C208.516,36.52 201.046,35.346 193.354,35.346 L193.354,35.346 C176.027,35.345 157.56,41.301 132.985,55.867 z M123.337,89.474 C210.337,-10.25 295.102,92.36 296.229,154.391 L296.229,154.391 C297.182,216.616 256.044,268.943 198.419,278.829 L198.419,278.829 C195.115,279.111 191.846,279.249 188.632,279.249 L188.632,279.249 C100.45,279.255 48.235,175.566 123.337,89.474 z M188.373,72.926 C114.953,95.556 84.402,209.449 159.03,251.092 L159.03,251.092 C217.133,283.522 288.501,231.956 286.308,159.147 L286.308,159.147 C284.844,110.585 245.655,71.633 202.081,71.628 L202.081,71.628 C197.544,71.628 192.968,72.049 188.373,72.926 z" fill="url(#Gradient_2)"/>
  </g>
</svg>
