<?xml version="1.0" encoding="UTF-8"?>
<!DOCTYPE svg PUBLIC "-//W3C//DTD SVG 1.1//EN" "http://www.w3.org/Graphics/SVG/1.1/DTD/svg11.dtd">
<svg version="1.1" xmlns="http://www.w3.org/2000/svg" xmlns:xlink="http://www.w3.org/1999/xlink" x="0" y="0" width="300" height="300" viewBox="0, 0, 300, 300">
  <defs>
    <radialGradient id="Gradient_1" gradientUnits="userSpaceOnUse" cx="91.144" cy="66.954" r="250.278">
      <stop offset="0" stop-color="#FFFFFF"/>
      <stop offset="0.451" stop-color="#F01000"/>
      <stop offset="1" stop-color="#8F1000"/>
    </radialGradient>
    <linearGradient id="Gradient_2" gradientUnits="userSpaceOnUse" x1="195.013" y1="38.32" x2="198.447" y2="278.89">
      <stop offset="0.368" stop-color="#FFFFFF"/>
      <stop offset="1" stop-color="#ABABAB"/>
    </linearGradient>
  </defs>
  <g id="ball5" transform="translate(0, -0)">
    <path d="M-0,149.995 C-0,232.843 67.158,300 149.997,300 L149.997,300 C232.844,300 300,232.843 300,149.995 L300,149.995 C300,67.157 232.844,0 149.997,0 L149.997,0 C67.158,0 -0,67.157 -0,149.995 z" fill="url(#Gradient_1)"/>
    <path d="M184.109,32.536 C89.116,68.448 49.738,245.261 166.259,284.362 L166.259,284.362 C198.286,295.112 230.763,280.09 255.4,255.114 L255.4,255.114 C179.746,324.447 63.231,213.911 147.883,94.376 L147.883,94.376 C218.862,-5.862 293.447,74.93 298.873,136.194 L298.873,136.194 C295.05,72.431 247.348,28.865 204.634,28.869 L204.634,28.869 C197.585,28.869 190.667,30.057 184.109,32.536 z M212.399,72.858 C136.856,105.363 124.908,227.89 194.641,254.945 L194.641,254.945 C242.961,273.696 296.211,221.405 296.387,155.02 L296.387,155.02 C296.516,106.965 265.462,70.439 228.768,70.44 L228.768,70.44 C223.406,70.44 217.922,71.22 212.399,72.858 z M284.871,213.345 C287.01,208.944 288.908,204.495 290.541,200.05 L290.541,200.05 C288.742,204.719 286.851,209.146 284.871,213.345 z M255.4,255.114 C266.317,245.11 276.384,231.353 284.871,213.345 L284.871,213.345 C277.552,228.409 267.405,242.944 255.4,255.114 z" fill="url(#Gradient_2)"/>
  </g>
</svg>
