<?xml version="1.0" encoding="UTF-8"?>
<!DOCTYPE svg PUBLIC "-//W3C//DTD SVG 1.1//EN" "http://www.w3.org/Graphics/SVG/1.1/DTD/svg11.dtd">
<svg version="1.1" xmlns="http://www.w3.org/2000/svg" xmlns:xlink="http://www.w3.org/1999/xlink" x="0" y="0" width="300" height="300" viewBox="0, 0, 300, 300">
  <defs>
    <radialGradient id="Gradient_1" gradientUnits="userSpaceOnUse" cx="94.941" cy="65.691" r="240.804">
      <stop offset="0" stop-color="#FFFFFF"/>
      <stop offset="0.5" stop-color="#04C304"/>
      <stop offset="1" stop-color="#000037"/>
    </radialGradient>
    <linearGradient id="Gradient_2" gradientUnits="userSpaceOnUse" x1="163.049" y1="52.392" x2="167.445" y2="287.755">
      <stop offset="0.368" stop-color="#FFFFFF"/>
      <stop offset="1" stop-color="#ABABAB"/>
    </linearGradient>
  </defs>
  <g id="ball7" transform="translate(0, 0)">
    <path d="M-0,149.998 C-0,232.848 67.162,300 150.002,300 L150.002,300 C232.842,300 300,232.848 300,149.998 L300,149.998 C300,67.159 232.842,-0 150.002,-0 L150.002,-0 C67.162,-0 -0,67.159 -0,149.998 z" fill="url(#Gradient_1)"/>
    <path d="M156.954,44.096 C51.842,60.615 -21.094,195.343 89.51,271.984 L89.51,271.984 C187.53,339.896 287.561,252.955 295.2,181.542 L295.2,181.542 C304.703,92.685 224.968,43.152 169.663,43.146 L169.663,43.146 C165.248,43.145 161,43.46 156.954,44.096 z M88.122,98.961 C178.224,15.168 283.15,97.93 283.875,170.979 L283.875,170.979 C283.923,175.165 283.793,180.774 283.271,184.935 L283.271,184.935 C276.169,240.995 225.751,285.593 165.998,288.656 L165.998,288.656 C69.044,286.255 7.09,174.323 88.122,98.961 z M159.617,88.947 C72.385,103.757 43.699,206.812 113.118,256.023 L113.118,256.023 C175.08,299.942 256.97,252.433 263.629,188.279 L263.629,188.279 C269.121,135.353 222.679,88.714 166.538,88.711 L166.538,88.711 C164.245,88.711 161.941,88.789 159.617,88.947 z" fill="url(#Gradient_2)"/>
  </g>
</svg>
