<svg xmlns="http://www.w3.org/2000/svg" width="512" height="167" viewBox="0 0 512 167">
  <defs>
    <linearGradient id="a" x1="66.932" x2="66.932" y1="34.145" y2="144.054" gradientUnits="userSpaceOnUse" gradientTransform="translate(.26 .074)">
      <stop offset="0" stop-color="#257CB0"/>
      <stop offset=".286" stop-color="#4A93B5"/>
      <stop offset=".767" stop-color="#78BCBB"/>
      <stop offset="1" stop-color="#89CFBD"/>
    </linearGradient>
    <linearGradient id="b" x1="40.316" x2="110.844" y1="61.43" y2="61.43" gradientUnits="userSpaceOnUse" gradientTransform="translate(.26 .074)">
      <stop offset="0" stop-color="#52C1AD"/>
      <stop offset="1" stop-color="#DEE89A"/>
    </linearGradient>
    <linearGradient id="c" x1="75.34" x2="75.34" y1="88.863" y2="144.222" gradientUnits="userSpaceOnUse" gradientTransform="translate(.26 .074)">
      <stop offset="0" stop-color="#EC413D"/>
      <stop offset=".167" stop-color="#DA4452"/>
      <stop offset=".575" stop-color="#B0487A"/>
      <stop offset=".862" stop-color="#954A92"/>
      <stop offset="1" stop-color="#8A4A9D"/>
    </linearGradient>
    <linearGradient id="d" x1="115.193" x2="115.193" y1="73.646" y2="104.078" gradientUnits="userSpaceOnUse" gradientTransform="translate(.26 .074)">
      <stop offset="0" stop-color="#F58879"/>
      <stop offset=".119" stop-color="#F69079"/>
      <stop offset=".713" stop-color="#FCB877"/>
      <stop offset="1" stop-color="#FEC874"/>
    </linearGradient>
  </defs>
  <path d="M512 144.43c0 12.463-10.13 22.57-22.628 22.57H22.632C10.136 167 0 156.894 0 144.43V22.568C0 10.106 10.135 0 22.633 0H489.37C501.87 0 512 10.106 512 22.568V144.43z"/>
  <path fill="url(#a)" d="M40.576 34.22L95.76 88.936 40.096 144.13c-1.132-.332-1.365-1.294-1.472-2.332V37.126c.147-1.92.284-2.162 1.95-2.907z"/>
  <path fill="url(#b)" d="M40.91 34.07c2.055.262 1.198-.024 2.63.642l44.5 25.693 23.064 13.315L95.76 88.937 40.575 34.22l.333-.15z"/>
  <path fill="url(#c)" d="M95.76 88.937l15.343 15.215-19.424 11.215-3.64 2.1s-43.37 25.04-45.51 26.28c-.73.37-1.64.79-2.44.382l55.67-55.2z"/>
  <path fill="url(#d)" d="M111.104 73.72l.01.005c7.468 4.24 14.784 8.754 22.314 12.885 2.533 1.583 2.08 3.19-.146 4.738l-22.18 12.804L95.76 88.937l15.344-15.217z"/>
  <path fill="#F9F9F9" d="M398.318 111.085c-2.146 0-4.104-.396-5.877-1.187-1.77-.792-3.26-2.01-4.46-3.652h-.36c.24 1.924.36 3.748.36 5.47v13.56h-4.99V77.533h4.06l.69 4.51h.24c1.29-1.805 2.78-3.106 4.48-3.908 1.71-.802 3.66-1.203 5.86-1.203 4.37 0 7.74 1.494 10.12 4.48 2.37 2.986 3.56 7.176 3.56 12.566 0 5.412-1.21 9.615-3.62 12.614-2.41 2.996-5.77 4.493-10.06 4.493zm-.722-29.914c-3.367 0-5.802.94-7.305 2.8-1.5 1.87-2.27 4.83-2.31 8.9v1.11c0 4.63.77 7.95 2.32 9.94 1.55 2 4.02 2.99 7.43 2.99 2.85 0 5.08-1.15 6.69-3.45 1.62-2.3 2.42-5.48 2.42-9.53 0-4.11-.8-7.26-2.42-9.45-1.61-2.19-3.88-3.29-6.81-3.29zm25.957 29.32h-4.99V63.71h4.99v46.78zm28.693 0l-.993-4.69h-.24c-1.644 2.07-3.282 3.47-4.916 4.2-1.633.74-3.673 1.1-6.117 1.1-3.267 0-5.827-.84-7.682-2.52-1.855-1.68-2.78-4.07-2.78-7.18 0-6.65 5.32-10.14 15.963-10.46l5.6-.18V88.7c0-2.586-.55-4.496-1.67-5.727-1.11-1.233-2.89-1.85-5.33-1.85-2.74 0-5.85.843-9.32 2.526l-1.53-3.82c1.63-.88 3.4-1.58 5.34-2.08s3.88-.76 5.82-.76c3.93 0 6.84.87 8.74 2.62 1.89 1.74 2.84 4.54 2.84 8.39v22.48h-3.7zm-11.274-3.51c3.105 0 5.545-.85 7.32-2.55 1.772-1.7 2.66-4.09 2.66-7.15V94.3l-4.992.21c-3.968.14-6.827.755-8.583 1.85-1.753 1.092-2.63 2.79-2.63 5.096 0 1.8.545 3.175 1.64 4.115 1.092.95 2.62 1.42 4.585 1.42zm17.868-29.44h5.35l7.217 18.79c1.583 4.29 2.566 7.39 2.948 9.29h.24c.26-1.02.808-2.77 1.638-5.25.832-2.47 3.554-10.08 8.162-22.83h5.354l-14.17 37.52c-1.4 3.71-3.04 6.34-4.92 7.9-1.88 1.55-4.18 2.33-6.9 2.33-1.53 0-3.03-.17-4.52-.51v-4c1.1.24 2.33.36 3.7.36 3.43 0 5.87-1.92 7.33-5.77l1.83-4.69-13.29-33.13zM305.87 80.6c1.583 1.31 4.89 4.065 4.89 9.306 0 5.1-2.894 7.516-5.79 9.787-.895.895-1.93 1.863-1.93 3.38 0 1.514 1.034 2.34 1.795 2.963l2.482 1.925c3.032 2.55 5.786 4.9 5.786 9.66 0 6.48-6.272 13.03-18.124 13.03-10 0-14.82-4.75-14.82-9.85 0-2.48 1.23-5.99 5.3-8.41 4.27-2.62 10.06-2.96 13.16-3.17-.97-1.24-2.07-2.55-2.07-4.68 0-1.17.34-1.86.69-2.69-.76.07-1.52.14-2.21.14-7.3 0-11.44-5.44-11.44-10.81 0-3.17 1.45-6.69 4.41-9.23 3.93-3.24 8.61-3.79 12.34-3.79h14.19l-4.41 2.48h-4.27zm-4.896 30.602c-.55-.074-.897-.074-1.583-.074-.62 0-4.34.14-7.23 1.108-1.51.547-5.93 2.2-5.93 7.097 0 4.89 4.76 8.41 12.14 8.41 6.61 0 10.13-3.173 10.13-7.442 0-3.52-2.27-5.37-7.51-9.09zm2-13.1c1.583-1.585 1.72-3.79 1.72-5.03 0-4.96-2.963-12.68-8.682-12.68-1.794 0-3.722.895-4.825 2.275-1.17 1.447-1.518 3.306-1.518 5.1 0 4.617 2.68 12.268 8.61 12.268 1.72 0 3.58-.825 4.68-1.93zm-40.494 11.996c-10.94 0-16.788-8.533-16.788-16.24 0-9.016 7.36-16.72 17.824-16.72 10.11 0 16.44 7.91 16.44 16.24.002 8.115-6.257 16.72-17.476 16.72zm8.6-5.573c1.654-2.202 2.067-4.953 2.067-7.64 0-6.056-2.89-17.614-11.423-17.614-2.27 0-4.54.9-6.19 2.35-2.685 2.41-3.17 5.44-3.17 8.4 0 6.81 3.373 18.02 11.7 18.02 2.684 0 5.437-1.3 7.016-3.5zm-45.895 5.574c-10.94 0-16.79-8.54-16.79-16.24 0-9.02 7.363-16.72 17.823-16.72 10.113 0 16.443 7.91 16.443 16.24.01 8.11-6.25 16.72-17.47 16.72zm8.602-5.58c1.65-2.2 2.065-4.96 2.065-7.64 0-6.06-2.892-17.62-11.425-17.62-2.27 0-4.54.89-6.19 2.34-2.685 2.4-3.166 5.43-3.166 8.39 0 6.8 3.37 18.02 11.7 18.02 2.69 0 5.44-1.31 7.02-3.51zm-30.65 4.49l-9.893 2.28c-4.014.62-7.61 1.17-11.413 1.17-19.09 0-26.35-14.04-26.35-25.04 0-13.42 10.31-25.87 27.95-25.87 3.74 0 7.33.55 10.58 1.45 5.19 1.45 7.61 3.25 9.14 4.29l-5.75 5.47-2.42.55 1.73-2.77c-2.35-2.28-6.64-6.5-14.8-6.5-10.93 0-19.16 8.3-19.16 20.41 0 13 9.41 25.24 24.48 25.24 4.44 0 6.71-.9 8.79-1.73V96.84l-10.44.553 5.54-2.978h14.67l-1.8 1.73c-.49.416-.55.556-.69 1.104-.07.62-.14 2.63-.14 3.32v8.44z"/>
  <path fill="#F9F9F9" d="M327.734 107.023c-2.284-.208-2.762-.62-2.762-3.322V64.55c.014-.15.023-.302.037-.446.27-2.42.97-2.834 3.11-4.08h-9.9l-5.19 2.49h5.29v.03l-.01-.024v42.71c0 1.38-.28 1.59-1.87 3.663h12.25l2.56-1.52c-1.18-.14-2.36-.21-3.53-.346zm28.15.637c-.753.412-1.51.895-2.262 1.236-2.27 1.03-4.606 1.306-6.67 1.306-2.194 0-5.632-.142-9.14-2.68-4.873-3.44-7.003-9.347-7.003-14.498 0-10.647 8.65-15.868 15.73-15.868 2.47 0 5.02.617 7.08 1.925 3.43 2.27 4.32 5.22 4.8 6.8l-16.14 6.53-5.29.41c1.71 8.73 7.62 13.81 14.15 13.81 3.5 0 6.04-1.23 8.38-2.4l-3.64 3.44zm-6.456-20.477c1.303-.48 1.99-.893 1.99-1.854 0-2.75-3.09-5.91-6.803-5.91-2.75 0-7.9 2.13-7.9 9.55 0 1.16.138 2.4.21 3.64l12.503-5.43zm13.087-9.557v4.533h-.55v-4.54h-1.5v-.47h3.55v.47h-1.5zm6.18 4.534v-4.576h-.025l-1.396 4.575h-.43l-1.41-4.58h-.017v4.57h-.5v-5h.857l1.274 4.04h.018l1.255-4.05h.87v5h-.49z"/>
  <path fill="#F9F9FA" d="M169.214 48.09h-3.438c0-.474-.326-1.813-.978-4.02h-4.963c-.673 2.17-1.01 3.51-1.01 4.02h-3.233c0-.28.836-2.572 2.508-6.876 1.672-4.304 2.508-6.675 2.508-7.11h4.06c0 .407.758 2.743 2.273 7.008 1.52 4.265 2.28 6.59 2.28 6.977zm-4.963-6.07c-1.22-3.696-1.83-5.694-1.83-5.995h-.17c0 .28-.63 2.277-1.9 5.994h3.91zm18.82 6.07h-2.65c0-.295-.98-1.845-2.95-4.652-2.06-2.958-3.24-4.98-3.52-6.07h-.17c.18 1.57.27 2.987.27 4.255 0 1.77.05 3.925.15 6.467h-2.64c.11-2.22.16-4.658.16-7.315 0-2.614-.05-4.838-.16-6.67h3.19c0 .38.88 1.894 2.65 4.543 1.89 2.814 2.97 4.723 3.25 5.726h.16c-.17-1.597-.25-3.03-.25-4.297 0-1.94-.05-3.932-.15-5.973h2.69c-.1 1.776-.15 4-.15 6.67 0 2.692.05 5.13.15 7.315zm15.57-7.478c0 2.034-.65 3.81-1.95 5.328-1.3 1.52-3.13 2.277-5.48 2.277-1.06 0-2.52-.043-4.38-.13.09-2.162.14-4.6.14-7.314 0-2.606-.05-4.83-.14-6.67h1.88c.31 0 .77-.012 1.38-.033.61-.02 1.01-.032 1.19-.032 2.59 0 4.46.645 5.63 1.934 1.16 1.29 1.75 2.835 1.75 4.64zm-2.93.462c0-1.375-.4-2.533-1.2-3.476-.8-.94-2.02-1.412-3.67-1.412-.31 0-.73.032-1.27.097.07 1.433.11 2.93.11 4.49 0 1.712.04 3.41.11 5.092.47.093.93.14 1.4.14 1.54 0 2.68-.48 3.42-1.435.74-.956 1.12-2.12 1.12-3.496zM213 48.09h-3.18c-.83-2.536-1.47-4.1-1.914-4.695-.443-.595-1.16-.892-2.147-.892-.42 0-.82.004-1.2.01 0 1.842.03 3.7.1 5.576h-2.99c.09-2.17.14-4.61.14-7.32 0-2.61-.05-4.83-.14-6.67h1.86c.21 0 .66-.01 1.34-.04.68-.02 1.31-.03 1.89-.03 3.28 0 4.93 1.12 4.93 3.37 0 1.78-.94 3.02-2.82 3.73v.16c.72.2 1.35.76 1.9 1.69.54.93 1.28 2.62 2.2 5.1zm-4.03-9.884c0-1.425-.917-2.138-2.75-2.138-.673 0-1.268.05-1.783.15.08 1.11.12 2.557.12 4.34.394.015.727.02 1 .02 2.276.002 3.415-.79 3.415-2.372zm19.426 2.632c0 2.198-.672 4.02-2.02 5.468-1.346 1.446-3.01 2.17-4.994 2.17-1.89 0-3.474-.664-4.75-1.993-1.273-1.328-1.91-3.017-1.91-5.064 0-2.2.673-4.03 2.02-5.47 1.346-1.45 3.01-2.17 4.995-2.17 1.89 0 3.474.66 4.75 1.98 1.274 1.32 1.91 3.01 1.91 5.07zm-2.963.31c0-1.496-.383-2.71-1.15-3.64-.766-.932-1.71-1.397-2.835-1.397-1.044 0-1.932.47-2.662 1.41s-1.097 2.13-1.097 3.56c0 1.49.38 2.7 1.15 3.64.77.94 1.71 1.41 2.83 1.41 1.04 0 1.93-.47 2.66-1.41.73-.94 1.09-2.12 1.09-3.55zm9.038 6.942h-3.04c.1-2.22.14-4.66.14-7.316 0-2.614-.04-4.838-.14-6.67h3.04c-.09 1.804-.14 4.027-.14 6.67 0 2.7.05 5.138.14 7.315zm15.57-7.478c0 2.034-.65 3.81-1.95 5.328-1.3 1.52-3.13 2.277-5.48 2.277-1.06 0-2.52-.043-4.38-.13.1-2.162.14-4.6.14-7.314 0-2.606-.04-4.83-.14-6.67h1.88c.31 0 .77-.012 1.38-.033.61-.02 1.01-.032 1.2-.032 2.59 0 4.46.645 5.63 1.934 1.17 1.29 1.75 2.835 1.75 4.64zm-2.93.462c0-1.375-.4-2.533-1.2-3.476-.8-.94-2.03-1.412-3.67-1.412-.31 0-.73.032-1.27.097.07 1.433.11 2.93.11 4.49 0 1.712.04 3.41.11 5.092.47.093.94.14 1.4.14 1.54 0 2.68-.48 3.42-1.435.74-.956 1.12-2.12 1.12-3.496zm23.59 7.016h-3.43c0-.474-.32-1.813-.98-4.02h-4.96c-.67 2.17-1.01 3.51-1.01 4.02h-3.23c0-.28.84-2.572 2.51-6.876 1.68-4.304 2.51-6.675 2.51-7.11h4.06c0 .407.76 2.743 2.28 7.008 1.52 4.265 2.28 6.59 2.28 6.977zm-4.96-6.07c-1.22-3.696-1.83-5.694-1.83-5.995h-.17c0 .28-.63 2.277-1.9 5.994h3.91zm17.5-4.255c0 1.712-.63 2.976-1.9 3.792-1.27.816-2.83 1.225-4.68 1.225-.33 0-.57-.007-.72-.02 0 1.346.04 3.12.12 5.327h-3.02c.1-2.07.14-4.51.14-7.32 0-2.58-.04-4.8-.14-6.67h1.87c.27 0 .78-.01 1.53-.04.75-.02 1.4-.03 1.96-.03 1.36 0 2.51.3 3.45.92.94.61 1.41 1.55 1.41 2.8zm-2.77.59c0-1.53-1.01-2.298-3.05-2.298-.51 0-1.04.054-1.61.16.08 1.355.12 2.887.12 4.6.18.014.39.02.63.02 2.61 0 3.92-.826 3.92-2.48zm15.66-.59c0 1.712-.63 2.976-1.9 3.792-1.27.816-2.83 1.225-4.68 1.225-.33 0-.57-.007-.72-.02 0 1.346.04 3.12.12 5.327h-3.02c.1-2.07.14-4.51.14-7.32 0-2.58-.04-4.8-.14-6.67h1.87c.27 0 .77-.01 1.53-.04.76-.02 1.41-.03 1.96-.03 1.36 0 2.51.3 3.45.92.94.61 1.41 1.55 1.41 2.8zm-2.77.59c0-1.53-1.02-2.298-3.05-2.298-.51 0-1.04.054-1.61.16.08 1.355.12 2.887.12 4.6.18.014.39.02.62.02 2.62 0 3.92-.826 3.92-2.48zm23.84 2.483c0 2.198-.67 4.02-2.02 5.468-1.35 1.447-3.01 2.17-4.99 2.17-1.89 0-3.47-.664-4.74-1.993-1.272-1.328-1.91-3.017-1.91-5.064 0-2.2.674-4.03 2.02-5.47s3.01-2.17 4.996-2.17c1.89 0 3.47.66 4.75 1.98s1.916 3.01 1.916 5.07zm-2.96.31c0-1.496-.38-2.71-1.15-3.64-.76-.932-1.71-1.397-2.83-1.397-1.05 0-1.93.47-2.66 1.41s-1.1 2.13-1.1 3.56c0 1.49.388 2.7 1.158 3.64s1.71 1.41 2.83 1.41c1.046 0 1.93-.47 2.66-1.41.73-.94 1.1-2.12 1.1-3.55zm17.53 6.942h-2.66c0-.295-.98-1.845-2.95-4.652-2.06-2.958-3.24-4.98-3.52-6.07h-.17c.18 1.57.27 2.987.27 4.255 0 1.77.05 3.925.15 6.467h-2.643c.104-2.22.16-4.658.16-7.315 0-2.614-.056-4.838-.16-6.67h3.19c0 .38.88 1.894 2.65 4.543 1.885 2.814 2.966 4.723 3.245 5.726h.16c-.17-1.597-.26-3.03-.26-4.297 0-1.94-.05-3.932-.15-5.973h2.687c-.104 1.776-.15 4-.15 6.67 0 2.692.05 5.13.15 7.315z"/>
</svg>
