<svg xmlns="http://www.w3.org/2000/svg" width="252" height="106" viewBox="0 0 252 106">
  <defs>
    <linearGradient id="a" x1="126" x2="126" y1="35.296" y2="105.296" gradientUnits="userSpaceOnUse">
      <stop offset="0" stop-color="#FE8600"/>
      <stop offset="1" stop-color="#E75D00"/>
    </linearGradient>
  </defs>
  <path fill="url(#a)" d="M0 39.3c0-2.212 1.796-4.004 4.01-4.004h243.98c2.215 0 4.01 1.8 4.01 4.003v61.99c0 2.21-1.796 4-4.01 4H4.01c-2.215 0-4.01-1.8-4.01-4V39.3zm45.006 10.115c2.33 0 4.22-1.896 4.22-4.236s-1.89-4.24-4.22-4.24-4.22 1.89-4.22 4.23c0 2.34 1.89 4.23 4.22 4.23zm161.74 0c2.33 0 4.22-1.896 4.22-4.236s-1.89-4.24-4.22-4.24-4.22 1.89-4.22 4.23c0 2.34 1.89 4.23 4.22 4.23z"/>
  <path fill="#E6E6E6" d="M46.754 0v26.673c-.003.372.003.833.025 1.376.05.53.01.29.09.71 1.15-.38 2.4-.49 3.61-.5 1.133.08 2.02.34 2.56.98.73.86.396 1.9-.695 3-.185.19-.73.72-.825.81-3.452 3.345-3.714 10.703-2.31 13.53-.7 1.41-2.81 2.82-2.81 2.82l-.06-.25-.24.25c-2.77-1.55-4.25-4.817-4.92-9.39-.37-2.524-.443-3.467-.386-6.536.02-1.124.02-1.15.014-1.295.01-1.63 1.598-2.124 2.93-2.398-.084-.82-.03-.26-.12-1.687-.02-.57-.026-1.056-.024-1.41V0h3.152zM44.1 32.01c-.133.017-.258.086-.392.084.013.218.013.172-.01 1.43-.056 2.982.017 3.847.37 6.255.213 1.78.723 3.49 1.487 5.11-.238-3.04-.274-6.41 1.17-9.21l-.313.31c-1.407-.82-2.014-2.46-2.312-3.99zm6.41-1.54c-1.19-.075-2.34.133-3.498.36.073.903.46 1.854 1.057 2.543.92-1.25.44-.682 1.42-1.716.1-.094 1.04-1.014 1.13-1.182l-.127-.004zM208.494 0v26.673c-.003.372.004.833.025 1.376.05.53.01.29.09.71 1.15-.38 2.4-.49 3.61-.5 1.14.08 2.02.34 2.56.98.73.86.396 1.9-.695 3-.184.19-.728.72-.825.81-3.45 3.345-3.714 10.703-2.31 13.53-.7 1.41-2.81 2.82-2.81 2.82l-.063-.25-.235.25c-2.773-1.55-4.25-4.816-4.92-9.39-.37-2.523-.444-3.466-.387-6.535.02-1.124.022-1.15.013-1.295.005-1.63 1.594-2.122 2.93-2.396-.088-.82-.034-.26-.12-1.687-.024-.57-.03-1.056-.027-1.41V0h3.154zm-2.654 32.01c-.133.017-.257.086-.392.084.013.218.014.172-.01 1.43-.055 2.982.018 3.847.37 6.255.213 1.78.723 3.49 1.488 5.11-.24-3.04-.275-6.41 1.168-9.21l-.31.31c-1.408-.82-2.016-2.46-2.314-3.99zm6.41-1.54c-1.19-.075-2.34.133-3.498.36.073.903.46 1.853 1.058 2.543.925-1.25.443-.682 1.427-1.716.097-.094 1.04-1.014 1.136-1.182l-.123-.004z"/>
</svg>
