<svg xmlns="http://www.w3.org/2000/svg" width="500" height="102" viewBox="0 0 500 102">
  <defs>
    <linearGradient id="a" x1="703" x2="703" y1="45.225" y2="115" gradientUnits="userSpaceOnUse" gradientTransform="translate(-453 -18)">
      <stop offset="0" stop-color="#FCEE21"/>
      <stop offset="1" stop-color="#F7931E"/>
    </linearGradient>
  </defs>
  <path fill="#81010F" d="M424.994 54.92c-1.25.08-2.267 1.047-2.423 2.307l-2.31 18.58c-.01.134-.02.274-.02.41.05 1.798.7 3.173 1.95 4.126 1.31.99 2.76 1.488 4.35 1.488 2.1 0 3.86-.44 5.27-1.32.69-.42 1.36-.89 2.01-1.38.56-.42 1.27-.6 1.96-.49.69.11 1.31.5 1.72 1.08l8.71 12.39c.78 1.11.61 2.63-.4 3.53-2.19 1.94-4.62 3.27-7.31 3.99-3.4.92-6.73 1.38-9.99 1.38-3.33 0-6.62-.58-9.86-1.76-3.25-1.17-6.18-2.77-8.81-4.79-2.62-2.02-4.84-4.39-6.64-7.11-1.76-2.65-2.87-5.49-3.32-8.5-.02-.13-.03-.26-.03-.4V59.19c0-1.253-.86-2.335-2.07-2.59l-8.7-1.823c-1.09-.228-1.91-1.132-2.05-2.25l-1.95-15.37c-.1-.793.16-1.59.71-2.167.55-.577 1.32-.873 2.11-.803l46.4 4.072c.76.06 1.457.46 1.9 1.09.444.63.59 1.42.407 2.17L433.9 52.51c-.27 1.12-1.23 1.92-2.363 2l-6.48.4zM377.38 33.76c1.242.083 2.253 1.046 2.412 2.298l1.91 15.026c.1.8-.163 1.605-.72 2.183-.555.578-1.34.866-2.133.782l-6.39-.68c-.73-.08-1.46.16-2 .65-.55.49-.87 1.19-.88 1.93l-.57 38.58c-.02 1.44-1.18 2.6-2.61 2.6h-10.9c-1.35 0-2.48-1.05-2.6-2.42l-3.52-41.52c-.11-1.24-1.05-2.24-2.26-2.4l-6.52-.86c-.87-.12-1.63-.67-2.01-1.47l-3.97-13.8c-.4-.85-.33-1.85.19-2.63s1.4-1.22 2.33-1.16l40.21 2.86zm90.825 35.27c0 1.04.202 2.027.606 2.956.41.93.97 1.734 1.69 2.415.72.68 1.56 1.23 2.53 1.64.97.41 1.99.62 3.06.62 1.08 0 2.1-.2 3.07-.61.97-.41 1.8-.95 2.49-1.63.7-.68 1.26-1.48 1.69-2.41.43-.93.64-1.91.64-2.95s-.21-2.03-.64-2.96c-.42-.92-.98-1.73-1.68-2.41-.69-.68-1.52-1.22-2.49-1.63-.96-.41-1.98-.61-3.06-.61s-2.09.2-3.06.61c-.96.41-1.8.95-2.52 1.63-.71.68-1.28 1.49-1.68 2.42-.4.93-.6 1.92-.6 2.96zm.295 21.284c-4.047 0-7.873-.754-11.477-2.263-3.606-1.5-6.735-3.54-9.392-6.1-2.65-2.57-4.75-5.6-6.3-9.09-1.55-3.49-2.32-7.2-2.32-11.11 0-3.98.78-7.7 2.33-11.16s3.65-6.49 6.31-9.09c2.66-2.6 5.79-4.63 9.4-6.11 3.61-1.47 7.43-2.21 11.48-2.21 4.11 0 7.96.74 11.53 2.22 3.57 1.48 6.69 3.51 9.35 6.11 2.66 2.6 4.76 5.63 6.31 9.09 1.55 3.47 2.32 7.19 2.32 11.17 0 3.91-.77 7.62-2.32 11.11-1.54 3.5-3.65 6.53-6.3 9.1-2.653 2.57-5.77 4.6-9.34 6.11-3.575 1.51-7.416 2.26-11.527 2.26zM308.43 53.838c0-1.008-.194-1.962-.586-2.86-.39-.9-.933-1.68-1.627-2.337-.696-.65-1.51-1.18-2.444-1.57-.934-.39-1.92-.59-2.964-.59s-2.03.2-2.97.6c-.94.4-1.74.92-2.41 1.58-.68.66-1.22 1.44-1.63 2.34-.42.9-.62 1.86-.62 2.86 0 1.01.2 1.97.62 2.87.41.9.95 1.68 1.63 2.34.67.66 1.47 1.19 2.41 1.58.93.4 1.92.59 2.96.59s2.03-.19 2.96-.59c.93-.39 1.75-.92 2.44-1.58.69-.65 1.23-1.43 1.63-2.33.39-.9.58-1.85.58-2.86zm-.284-20.597c3.916 0 7.618.73 11.107 2.19 3.488 1.46 6.517 3.43 9.088 5.92 2.57 2.49 4.61 5.42 6.11 8.8 1.5 3.39 2.25 6.97 2.25 10.76 0 3.85-.75 7.45-2.25 10.81-1.5 3.36-3.53 6.29-6.1 8.8-2.57 2.52-5.6 4.49-9.08 5.92-3.49 1.43-7.19 2.15-11.1 2.15-3.98 0-7.69-.71-11.15-2.14-3.45-1.42-6.47-3.4-9.04-5.91-2.57-2.51-4.6-5.45-6.1-8.8-1.5-3.35-2.25-6.95-2.25-10.8 0-3.78.75-7.37 2.25-10.75s3.54-6.32 6.11-8.8c2.57-2.48 5.58-4.45 9.04-5.91 3.46-1.46 7.18-2.19 11.16-2.19zm-34.452 39.23c1.12-.26 2.278.26 2.846 1.27l9.837 17.48c.46.82.457 1.82-.01 2.64-.465.82-1.323 1.32-2.252 1.32h-39.5c-1.39 0-2.538-1.11-2.6-2.52l-3.67-81.86c-.032-.72.227-1.42.72-1.94.49-.52 1.17-.81 1.882-.81h21.356c.696 0 1.362.28 1.852.79.488.5.76 1.18.752 1.89l-.592 60.63c-.008.81.35 1.58.972 2.09.623.51 1.44.7 2.218.52l6.19-1.45zM217.78 76c1.432 0 2.6 1.183 2.6 2.642v13.88c0 1.46-1.168 2.643-2.606 2.643h-40.622c-1.438 0-2.604-1.182-2.604-2.642V34.87c0-.733.3-1.434.83-1.934s1.237-.754 1.96-.7l40.62 2.926c1.362.098 2.42 1.248 2.42 2.635v12.537c0 .736-.304 1.437-.837 1.938-.53.5-1.24.752-1.96.696l-20.32-1.585c-.59-.045-1.17.16-1.61.57-.43.407-.68.98-.68 1.582 0 1.114.84 2.046 1.93 2.147l16.99 1.58c1.34.126 2.37 1.266 2.37 2.632v9.273c0 1.458-1.17 2.64-2.6 2.64h-16.62c-1.14 0-2.06.938-2.06 2.094s.93 2.1 2.07 2.1h20.75zm-53.63-1.765c.72-.055 1.435.196 1.97.697.53.5.83 1.2.83 1.937v15.65c0 1.46-1.165 2.64-2.603 2.64H126.76c-1.35 0-2.474-1.05-2.593-2.41l-4.76-54.74c-.064-.71.157-1.41.613-1.95.454-.54 1.104-.88 1.802-.92l42.35-2.93c.72-.05 1.428.2 1.955.7.53.49.828 1.19.828 1.93v13.7c0 1.46-1.165 2.64-2.603 2.64H143.63c-1.15 0-2.084.94-2.084 2.11 0 .57.228 1.12.632 1.51.405.4.952.61 1.516.6l16.452-.51c.704-.02 1.386.24 1.893.74.5.5.79 1.18.79 1.9v9.85c0 1.36-1.03 2.5-2.37 2.63l-17.04 1.59c-1.07.1-1.88 1-1.88 2.09 0 .58.24 1.14.66 1.54.42.39.99.6 1.56.55l20.38-1.59zm-75.9-23.44c-1.35-.166-2.595.743-2.867 2.09l-.87 4.322c-.156.775.038 1.58.528 2.193.49.613 1.23.975 2.01.982 2.88.023 4.06-.088 5.42-1.46 1.74-1.772 3.37-7.2-4.21-8.13zm29.93 40.29c.52.812.56 1.85.104 2.7-.456.853-1.334 1.383-2.29 1.383H100.22c-.85 0-1.645-.42-2.132-1.126C90.44 82.982 86.253 77.716 86.06 80.2c-.014.16-.04.323-.083.478l-3.315 12.527c-.304 1.154-1.335 1.956-2.514 1.956H62.643c-.734 0-1.433-.31-1.927-.86-.495-.55-.735-1.29-.664-2.03l5.375-56.2c.12-1.24 1.083-2.23 2.31-2.37 13.496-1.48 45.897-7.15 45.897 22.02 0 5.4-1.86 11.1-5.782 15.86-.734.89-.81 2.17-.185 3.14l10.51 16.37zM59.16 10.43c1.334.132 2.35 1.27 2.35 2.63v16.336c0 1.46-1.166 2.642-2.605 2.642H38.013c-1.29 0-2.386.96-2.575 2.256l-.53 3.64c-.112.762.108 1.534.603 2.115.5.58 1.22.91 1.98.91H55.4c.747 0 1.46.33 1.956.9.493.57.722 1.33.626 2.08l-1.93 15.1c-.17 1.31-1.273 2.3-2.58 2.3H35.48c-1.322 0-2.432 1-2.586 2.33l-3.367 29.15c-.154 1.33-1.266 2.33-2.587 2.33H7.66c-1.402 0-2.552-1.13-2.603-2.55L2.002 7.73c-.028-.76.272-1.5.82-2.02.547-.52 1.29-.78 2.038-.7l54.3 5.414z"/>
  <path fill="none" stroke="#81010F" stroke-width="2" d="M424.994 54.92c-1.25.08-2.267 1.047-2.423 2.307l-2.31 18.58c-.01.134-.02.274-.02.41.05 1.798.7 3.173 1.95 4.126 1.31.99 2.76 1.488 4.35 1.488 2.1 0 3.86-.44 5.27-1.32.69-.42 1.36-.89 2.01-1.38.56-.42 1.27-.6 1.96-.49.69.11 1.31.5 1.72 1.08l8.71 12.39c.78 1.11.61 2.63-.4 3.53-2.19 1.94-4.62 3.27-7.31 3.99-3.4.92-6.73 1.38-9.99 1.38-3.33 0-6.62-.58-9.86-1.76-3.25-1.17-6.18-2.77-8.81-4.79-2.62-2.02-4.84-4.39-6.64-7.11-1.76-2.65-2.87-5.49-3.32-8.5-.02-.13-.03-.26-.03-.4V59.19c0-1.253-.86-2.335-2.07-2.59l-8.7-1.823c-1.09-.228-1.91-1.132-2.05-2.25l-1.95-15.37c-.1-.793.16-1.59.71-2.167.55-.577 1.32-.873 2.11-.803l46.4 4.072c.76.06 1.457.46 1.9 1.09.444.63.59 1.42.407 2.17L433.9 52.51c-.27 1.12-1.23 1.92-2.363 2l-6.48.4zM377.38 33.76c1.242.083 2.253 1.046 2.412 2.298l1.91 15.026c.1.8-.163 1.605-.72 2.183-.555.578-1.34.866-2.133.782l-6.39-.68c-.73-.08-1.46.16-2 .65-.55.49-.87 1.19-.88 1.93l-.57 38.58c-.02 1.44-1.18 2.6-2.61 2.6h-10.9c-1.35 0-2.48-1.05-2.6-2.42l-3.52-41.52c-.11-1.24-1.05-2.24-2.26-2.4l-6.52-.86c-.87-.12-1.63-.67-2.01-1.47l-3.97-13.8c-.4-.85-.33-1.85.19-2.63s1.4-1.22 2.33-1.16l40.21 2.86zm90.825 35.27c0 1.04.202 2.027.606 2.956.41.93.97 1.734 1.69 2.415.72.68 1.56 1.23 2.53 1.64.97.41 1.99.62 3.06.62 1.08 0 2.1-.2 3.07-.61.97-.41 1.8-.95 2.49-1.63.7-.68 1.26-1.48 1.69-2.41.43-.93.64-1.91.64-2.95s-.21-2.03-.64-2.96c-.42-.92-.98-1.73-1.68-2.41-.69-.68-1.52-1.22-2.49-1.63-.96-.41-1.98-.61-3.06-.61s-2.09.2-3.06.61c-.96.41-1.8.95-2.52 1.63-.71.68-1.28 1.49-1.68 2.42-.4.93-.6 1.92-.6 2.96zm.295 21.284c-4.047 0-7.873-.754-11.477-2.263-3.606-1.5-6.735-3.54-9.392-6.1-2.65-2.57-4.75-5.6-6.3-9.09-1.55-3.49-2.32-7.2-2.32-11.11 0-3.98.78-7.7 2.33-11.16s3.65-6.49 6.31-9.09c2.66-2.6 5.79-4.63 9.4-6.11 3.61-1.47 7.43-2.21 11.48-2.21 4.11 0 7.96.74 11.53 2.22 3.57 1.48 6.69 3.51 9.35 6.11 2.66 2.6 4.76 5.63 6.31 9.09 1.55 3.47 2.32 7.19 2.32 11.17 0 3.91-.77 7.62-2.32 11.11-1.54 3.5-3.65 6.53-6.3 9.1-2.653 2.57-5.77 4.6-9.34 6.11-3.575 1.51-7.416 2.26-11.527 2.26zM308.43 53.838c0-1.008-.194-1.962-.586-2.86-.39-.9-.933-1.68-1.627-2.337-.696-.65-1.51-1.18-2.444-1.57-.934-.39-1.92-.59-2.964-.59s-2.03.2-2.97.6c-.94.4-1.74.92-2.41 1.58-.68.66-1.22 1.44-1.63 2.34-.42.9-.62 1.86-.62 2.86 0 1.01.2 1.97.62 2.87.41.9.95 1.68 1.63 2.34.67.66 1.47 1.19 2.41 1.58.93.4 1.92.59 2.96.59s2.03-.19 2.96-.59c.93-.39 1.75-.92 2.44-1.58.69-.65 1.23-1.43 1.63-2.33.39-.9.58-1.85.58-2.86zm-.284-20.597c3.916 0 7.618.73 11.107 2.19 3.488 1.46 6.517 3.43 9.088 5.92 2.57 2.49 4.61 5.42 6.11 8.8 1.5 3.39 2.25 6.97 2.25 10.76 0 3.85-.75 7.45-2.25 10.81-1.5 3.36-3.53 6.29-6.1 8.8-2.57 2.52-5.6 4.49-9.08 5.92-3.49 1.43-7.19 2.15-11.1 2.15-3.98 0-7.69-.71-11.15-2.14-3.45-1.42-6.47-3.4-9.04-5.91-2.57-2.51-4.6-5.45-6.1-8.8-1.5-3.35-2.25-6.95-2.25-10.8 0-3.78.75-7.37 2.25-10.75s3.54-6.32 6.11-8.8c2.57-2.48 5.58-4.45 9.04-5.91 3.46-1.46 7.18-2.19 11.16-2.19zm-34.452 39.23c1.12-.26 2.278.26 2.846 1.27l9.837 17.48c.46.82.457 1.82-.01 2.64-.465.82-1.323 1.32-2.252 1.32h-39.5c-1.39 0-2.538-1.11-2.6-2.52l-3.67-81.86c-.032-.72.227-1.42.72-1.94.49-.52 1.17-.81 1.882-.81h21.356c.696 0 1.362.28 1.852.79.488.5.76 1.18.752 1.89l-.592 60.63c-.008.81.35 1.58.972 2.09.623.51 1.44.7 2.218.52l6.19-1.45zM217.78 76c1.432 0 2.6 1.183 2.6 2.642v13.88c0 1.46-1.168 2.643-2.606 2.643h-40.622c-1.438 0-2.604-1.182-2.604-2.642V34.87c0-.733.3-1.434.83-1.934s1.237-.754 1.96-.7l40.62 2.926c1.362.098 2.42 1.248 2.42 2.635v12.537c0 .736-.304 1.437-.837 1.938-.53.5-1.24.752-1.96.696l-20.32-1.585c-.59-.045-1.17.16-1.61.57-.43.407-.68.98-.68 1.582 0 1.114.84 2.046 1.93 2.147l16.99 1.58c1.34.126 2.37 1.266 2.37 2.632v9.273c0 1.458-1.17 2.64-2.6 2.64h-16.62c-1.14 0-2.06.938-2.06 2.094s.93 2.1 2.07 2.1h20.75zm-53.63-1.765c.72-.055 1.435.196 1.97.697.53.5.83 1.2.83 1.937v15.65c0 1.46-1.165 2.64-2.603 2.64H126.76c-1.35 0-2.474-1.05-2.593-2.41l-4.76-54.74c-.064-.71.157-1.41.613-1.95.454-.54 1.104-.88 1.802-.92l42.35-2.93c.72-.05 1.428.2 1.955.7.53.49.828 1.19.828 1.93v13.7c0 1.46-1.165 2.64-2.603 2.64H143.63c-1.15 0-2.084.94-2.084 2.11 0 .57.228 1.12.632 1.51.405.4.952.61 1.516.6l16.452-.51c.704-.02 1.386.24 1.893.74.5.5.79 1.18.79 1.9v9.85c0 1.36-1.03 2.5-2.37 2.63l-17.04 1.59c-1.07.1-1.88 1-1.88 2.09 0 .58.24 1.14.66 1.54.42.39.99.6 1.56.55l20.38-1.59zm-75.9-23.44c-1.35-.166-2.595.743-2.867 2.09l-.87 4.322c-.156.775.038 1.58.528 2.193.49.613 1.23.975 2.01.982 2.88.023 4.06-.088 5.42-1.46 1.74-1.772 3.37-7.2-4.21-8.13zm29.93 40.29c.52.812.56 1.85.104 2.7-.456.853-1.334 1.383-2.29 1.383H100.22c-.85 0-1.645-.42-2.132-1.126C90.44 82.982 86.253 77.716 86.06 80.2c-.014.16-.04.323-.083.478l-3.315 12.527c-.304 1.154-1.335 1.956-2.514 1.956H62.643c-.734 0-1.433-.31-1.927-.86-.495-.55-.735-1.29-.664-2.03l5.375-56.2c.12-1.24 1.083-2.23 2.31-2.37 13.496-1.48 45.897-7.15 45.897 22.02 0 5.4-1.86 11.1-5.782 15.86-.734.89-.81 2.17-.185 3.14l10.51 16.37zM59.16 10.43c1.334.132 2.35 1.27 2.35 2.63v16.336c0 1.46-1.166 2.642-2.605 2.642H38.013c-1.29 0-2.386.96-2.575 2.256l-.53 3.64c-.112.762.108 1.534.603 2.115.5.58 1.22.91 1.98.91H55.4c.747 0 1.46.33 1.956.9.493.57.722 1.33.626 2.08l-1.93 15.1c-.17 1.31-1.273 2.3-2.58 2.3H35.48c-1.322 0-2.432 1-2.586 2.33l-3.367 29.15c-.154 1.33-1.266 2.33-2.587 2.33H7.66c-1.402 0-2.552-1.13-2.603-2.55L2.002 7.73c-.028-.76.272-1.5.82-2.02.547-.52 1.29-.78 2.038-.7l54.3 5.414z"/>
  <path fill="url(#a)" d="M424.994 50.92c-1.25.08-2.267 1.047-2.423 2.307l-2.31 18.58c-.01.134-.02.274-.02.41.05 1.798.7 3.173 1.95 4.126 1.31.99 2.76 1.488 4.35 1.488 2.1 0 3.86-.44 5.27-1.32.69-.42 1.36-.89 2.01-1.38.56-.42 1.27-.6 1.96-.49.69.11 1.31.5 1.72 1.08l8.71 12.39c.78 1.11.61 2.63-.4 3.53-2.19 1.94-4.62 3.27-7.31 3.99-3.4.92-6.73 1.38-9.99 1.38-3.33 0-6.62-.58-9.86-1.76-3.25-1.17-6.18-2.77-8.81-4.79-2.62-2.02-4.84-4.39-6.64-7.11-1.76-2.65-2.87-5.49-3.32-8.5-.02-.13-.03-.26-.03-.4V55.19c0-1.253-.86-2.335-2.07-2.59l-8.7-1.823c-1.09-.228-1.91-1.132-2.05-2.25l-1.95-15.37c-.1-.793.16-1.59.71-2.167.55-.577 1.32-.873 2.11-.803l46.4 4.072c.76.06 1.457.46 1.9 1.09.444.63.59 1.42.407 2.17L433.9 48.51c-.27 1.12-1.23 1.92-2.363 2l-6.48.4zM377.38 29.76c1.242.083 2.253 1.046 2.412 2.298l1.91 15.026c.1.8-.163 1.605-.72 2.183-.555.578-1.34.866-2.133.782l-6.39-.68c-.73-.08-1.46.16-2 .65-.55.49-.87 1.19-.88 1.93l-.57 38.58c-.02 1.44-1.18 2.6-2.61 2.6h-10.9c-1.35 0-2.48-1.05-2.6-2.42l-3.52-41.52c-.11-1.24-1.05-2.24-2.26-2.4l-6.52-.86c-.87-.12-1.63-.67-2.01-1.47l-3.97-13.8c-.4-.85-.33-1.85.19-2.63s1.4-1.22 2.33-1.16l40.21 2.86zm90.825 35.27c0 1.04.202 2.027.606 2.956.41.93.97 1.734 1.69 2.415.72.68 1.56 1.23 2.53 1.64.97.41 1.99.62 3.06.62 1.08 0 2.1-.2 3.07-.61.97-.41 1.8-.95 2.49-1.63.7-.68 1.26-1.48 1.69-2.41.43-.93.64-1.91.64-2.95s-.21-2.03-.64-2.96c-.42-.92-.98-1.73-1.68-2.41-.69-.68-1.52-1.22-2.49-1.63-.96-.41-1.98-.61-3.06-.61s-2.09.2-3.06.61c-.96.41-1.8.95-2.52 1.63-.71.68-1.28 1.49-1.68 2.42-.4.93-.6 1.92-.6 2.96zm.295 21.284c-4.047 0-7.873-.754-11.477-2.263-3.606-1.5-6.735-3.54-9.392-6.1-2.65-2.57-4.75-5.6-6.3-9.09-1.55-3.49-2.32-7.2-2.32-11.11 0-3.98.78-7.7 2.33-11.16s3.65-6.49 6.31-9.09c2.66-2.6 5.79-4.63 9.4-6.11 3.61-1.47 7.43-2.21 11.48-2.21 4.11 0 7.96.74 11.53 2.22 3.57 1.48 6.69 3.51 9.35 6.11 2.66 2.6 4.76 5.63 6.31 9.09 1.55 3.47 2.32 7.19 2.32 11.17 0 3.91-.77 7.62-2.32 11.11-1.54 3.5-3.65 6.53-6.3 9.1-2.653 2.57-5.77 4.6-9.34 6.11-3.575 1.51-7.416 2.26-11.527 2.26zM308.43 49.838c0-1.008-.194-1.962-.586-2.86-.39-.9-.933-1.68-1.627-2.337-.696-.65-1.51-1.18-2.444-1.57-.934-.39-1.92-.59-2.964-.59s-2.03.2-2.97.6c-.94.4-1.74.92-2.41 1.58-.68.66-1.22 1.44-1.63 2.34-.42.9-.62 1.86-.62 2.86 0 1.01.2 1.97.62 2.87.41.9.95 1.68 1.63 2.34.67.66 1.47 1.19 2.41 1.58.93.4 1.92.59 2.96.59s2.03-.19 2.96-.59c.93-.39 1.75-.92 2.44-1.58.69-.65 1.23-1.43 1.63-2.33.39-.9.58-1.85.58-2.86zm-.284-20.597c3.916 0 7.618.73 11.107 2.19 3.488 1.46 6.517 3.43 9.088 5.92 2.57 2.49 4.61 5.42 6.11 8.8 1.5 3.39 2.25 6.97 2.25 10.76 0 3.85-.75 7.45-2.25 10.81-1.5 3.36-3.53 6.29-6.1 8.8-2.57 2.52-5.6 4.49-9.08 5.92-3.49 1.43-7.19 2.15-11.1 2.15-3.98 0-7.69-.71-11.15-2.14-3.45-1.42-6.47-3.4-9.04-5.91-2.57-2.51-4.6-5.45-6.1-8.8-1.5-3.35-2.25-6.95-2.25-10.8 0-3.78.75-7.37 2.25-10.75s3.54-6.32 6.11-8.8c2.57-2.48 5.58-4.45 9.04-5.91 3.46-1.46 7.18-2.19 11.16-2.19zm-34.452 39.23c1.12-.26 2.278.26 2.846 1.27l9.837 17.48c.46.82.457 1.82-.01 2.64-.465.82-1.323 1.32-2.252 1.32h-39.5c-1.39 0-2.538-1.11-2.6-2.52l-3.67-81.86c-.032-.72.227-1.42.72-1.94.49-.52 1.17-.81 1.882-.81h21.356c.696 0 1.362.28 1.852.79.488.5.76 1.18.752 1.89l-.592 60.63c-.008.81.35 1.58.972 2.09.623.51 1.44.7 2.218.52l6.19-1.45zM217.78 72c1.432 0 2.6 1.183 2.6 2.642v13.88c0 1.46-1.168 2.643-2.606 2.643h-40.622c-1.438 0-2.604-1.182-2.604-2.642V30.87c0-.733.3-1.434.83-1.934s1.237-.754 1.96-.7l40.62 2.926c1.362.098 2.42 1.248 2.42 2.635v12.537c0 .736-.304 1.437-.837 1.938-.53.5-1.24.752-1.96.696l-20.32-1.585c-.59-.045-1.17.16-1.61.57-.43.407-.68.98-.68 1.582 0 1.114.84 2.046 1.93 2.147l16.99 1.58c1.34.126 2.37 1.266 2.37 2.632v9.273c0 1.458-1.17 2.64-2.6 2.64h-16.62c-1.14 0-2.06.938-2.06 2.094s.93 2.1 2.07 2.1h20.75zm-53.63-1.765c.72-.055 1.435.196 1.97.697.53.5.83 1.2.83 1.937v15.65c0 1.46-1.165 2.64-2.603 2.64H126.76c-1.35 0-2.474-1.05-2.593-2.41l-4.76-54.74c-.064-.71.157-1.41.613-1.95.454-.54 1.104-.88 1.802-.92l42.35-2.93c.72-.05 1.428.2 1.955.7.53.49.828 1.19.828 1.93v13.7c0 1.46-1.165 2.64-2.603 2.64H143.63c-1.15 0-2.084.94-2.084 2.11 0 .57.228 1.12.632 1.51.405.4.952.61 1.516.6l16.452-.51c.704-.02 1.386.24 1.893.74.5.5.79 1.18.79 1.9v9.85c0 1.36-1.03 2.5-2.37 2.63l-17.04 1.59c-1.07.1-1.88 1-1.88 2.09 0 .58.24 1.14.66 1.54.42.39.99.6 1.56.55l20.38-1.59zm-75.9-23.44c-1.35-.166-2.595.743-2.867 2.09l-.87 4.322c-.156.775.038 1.58.528 2.193.49.613 1.23.975 2.01.982 2.88.023 4.06-.088 5.42-1.46 1.74-1.772 3.37-7.2-4.21-8.13zm29.93 40.29c.52.812.56 1.85.104 2.7-.456.853-1.334 1.383-2.29 1.383H100.22c-.85 0-1.645-.42-2.132-1.126C90.44 78.982 86.253 73.716 86.06 76.2c-.014.16-.04.323-.083.478l-3.315 12.527c-.304 1.154-1.335 1.956-2.514 1.956H62.643c-.734 0-1.433-.31-1.927-.86-.495-.55-.735-1.29-.664-2.03l5.375-56.2c.12-1.24 1.083-2.23 2.31-2.37 13.496-1.48 45.897-7.15 45.897 22.02 0 5.4-1.86 11.1-5.782 15.86-.734.89-.81 2.17-.185 3.14l10.51 16.37zM59.16 6.427c1.335.132 2.35 1.27 2.35 2.63v16.336c0 1.46-1.165 2.642-2.604 2.642H38.013c-1.29 0-2.386.96-2.575 2.256l-.53 3.64c-.112.77.108 1.54.603 2.12.5.58 1.22.92 1.98.92H55.4c.747 0 1.46.33 1.956.9.493.57.722 1.33.626 2.09l-1.93 15.1c-.17 1.32-1.273 2.3-2.58 2.3H35.48c-1.322 0-2.432 1.01-2.586 2.34l-3.367 29.15c-.154 1.33-1.266 2.33-2.587 2.33H7.66c-1.402 0-2.552-1.12-2.603-2.54L2.002 3.74c-.028-.76.272-1.497.82-2.02.547-.52 1.29-.78 2.038-.703l54.3 5.413z"/>
  <path fill="none" stroke="#F6A623" stroke-width="2" d="M424.994 50.92c-1.25.08-2.267 1.047-2.423 2.307l-2.31 18.58c-.01.134-.02.274-.02.41.05 1.798.7 3.173 1.95 4.126 1.31.99 2.76 1.488 4.35 1.488 2.1 0 3.86-.44 5.27-1.32.69-.42 1.36-.89 2.01-1.38.56-.42 1.27-.6 1.96-.49.69.11 1.31.5 1.72 1.08l8.71 12.39c.78 1.11.61 2.63-.4 3.53-2.19 1.94-4.62 3.27-7.31 3.99-3.4.92-6.73 1.38-9.99 1.38-3.33 0-6.62-.58-9.86-1.76-3.25-1.17-6.18-2.77-8.81-4.79-2.62-2.02-4.84-4.39-6.64-7.11-1.76-2.65-2.87-5.49-3.32-8.5-.02-.13-.03-.26-.03-.4V55.19c0-1.253-.86-2.335-2.07-2.59l-8.7-1.823c-1.09-.228-1.91-1.132-2.05-2.25l-1.95-15.37c-.1-.793.16-1.59.71-2.167.55-.577 1.32-.873 2.11-.803l46.4 4.072c.76.06 1.457.46 1.9 1.09.444.63.59 1.42.407 2.17L433.9 48.51c-.27 1.12-1.23 1.92-2.363 2l-6.48.4zM377.38 29.76c1.242.083 2.253 1.046 2.412 2.298l1.91 15.026c.1.8-.163 1.605-.72 2.183-.555.578-1.34.866-2.133.782l-6.39-.68c-.73-.08-1.46.16-2 .65-.55.49-.87 1.19-.88 1.93l-.57 38.58c-.02 1.44-1.18 2.6-2.61 2.6h-10.9c-1.35 0-2.48-1.05-2.6-2.42l-3.52-41.52c-.11-1.24-1.05-2.24-2.26-2.4l-6.52-.86c-.87-.12-1.63-.67-2.01-1.47l-3.97-13.8c-.4-.85-.33-1.85.19-2.63s1.4-1.22 2.33-1.16l40.21 2.86zm90.825 35.27c0 1.04.202 2.027.606 2.956.41.93.97 1.734 1.69 2.415.72.68 1.56 1.23 2.53 1.64.97.41 1.99.62 3.06.62 1.08 0 2.1-.2 3.07-.61.97-.41 1.8-.95 2.49-1.63.7-.68 1.26-1.48 1.69-2.41.43-.93.64-1.91.64-2.95s-.21-2.03-.64-2.96c-.42-.92-.98-1.73-1.68-2.41-.69-.68-1.52-1.22-2.49-1.63-.96-.41-1.98-.61-3.06-.61s-2.09.2-3.06.61c-.96.41-1.8.95-2.52 1.63-.71.68-1.28 1.49-1.68 2.42-.4.93-.6 1.92-.6 2.96zm.295 21.284c-4.047 0-7.873-.754-11.477-2.263-3.606-1.5-6.735-3.54-9.392-6.1-2.65-2.57-4.75-5.6-6.3-9.09-1.55-3.49-2.32-7.2-2.32-11.11 0-3.98.78-7.7 2.33-11.16s3.65-6.49 6.31-9.09c2.66-2.6 5.79-4.63 9.4-6.11 3.61-1.47 7.43-2.21 11.48-2.21 4.11 0 7.96.74 11.53 2.22 3.57 1.48 6.69 3.51 9.35 6.11 2.66 2.6 4.76 5.63 6.31 9.09 1.55 3.47 2.32 7.19 2.32 11.17 0 3.91-.77 7.62-2.32 11.11-1.54 3.5-3.65 6.53-6.3 9.1-2.653 2.57-5.77 4.6-9.34 6.11-3.575 1.51-7.416 2.26-11.527 2.26zM308.43 49.838c0-1.008-.194-1.962-.586-2.86-.39-.9-.933-1.68-1.627-2.337-.696-.65-1.51-1.18-2.444-1.57-.934-.39-1.92-.59-2.964-.59s-2.03.2-2.97.6c-.94.4-1.74.92-2.41 1.58-.68.66-1.22 1.44-1.63 2.34-.42.9-.62 1.86-.62 2.86 0 1.01.2 1.97.62 2.87.41.9.95 1.68 1.63 2.34.67.66 1.47 1.19 2.41 1.58.93.4 1.92.59 2.96.59s2.03-.19 2.96-.59c.93-.39 1.75-.92 2.44-1.58.69-.65 1.23-1.43 1.63-2.33.39-.9.58-1.85.58-2.86zm-.284-20.597c3.916 0 7.618.73 11.107 2.19 3.488 1.46 6.517 3.43 9.088 5.92 2.57 2.49 4.61 5.42 6.11 8.8 1.5 3.39 2.25 6.97 2.25 10.76 0 3.85-.75 7.45-2.25 10.81-1.5 3.36-3.53 6.29-6.1 8.8-2.57 2.52-5.6 4.49-9.08 5.92-3.49 1.43-7.19 2.15-11.1 2.15-3.98 0-7.69-.71-11.15-2.14-3.45-1.42-6.47-3.4-9.04-5.91-2.57-2.51-4.6-5.45-6.1-8.8-1.5-3.35-2.25-6.95-2.25-10.8 0-3.78.75-7.37 2.25-10.75s3.54-6.32 6.11-8.8c2.57-2.48 5.58-4.45 9.04-5.91 3.46-1.46 7.18-2.19 11.16-2.19zm-34.452 39.23c1.12-.26 2.278.26 2.846 1.27l9.837 17.48c.46.82.457 1.82-.01 2.64-.465.82-1.323 1.32-2.252 1.32h-39.5c-1.39 0-2.538-1.11-2.6-2.52l-3.67-81.86c-.032-.72.227-1.42.72-1.94.49-.52 1.17-.81 1.882-.81h21.356c.696 0 1.362.28 1.852.79.488.5.76 1.18.752 1.89l-.592 60.63c-.008.81.35 1.58.972 2.09.623.51 1.44.7 2.218.52l6.19-1.45zM217.78 72c1.432 0 2.6 1.183 2.6 2.642v13.88c0 1.46-1.168 2.643-2.606 2.643h-40.622c-1.438 0-2.604-1.182-2.604-2.642V30.87c0-.733.3-1.434.83-1.934s1.237-.754 1.96-.7l40.62 2.926c1.362.098 2.42 1.248 2.42 2.635v12.537c0 .736-.304 1.437-.837 1.938-.53.5-1.24.752-1.96.696l-20.32-1.585c-.59-.045-1.17.16-1.61.57-.43.407-.68.98-.68 1.582 0 1.114.84 2.046 1.93 2.147l16.99 1.58c1.34.126 2.37 1.266 2.37 2.632v9.273c0 1.458-1.17 2.64-2.6 2.64h-16.62c-1.14 0-2.06.938-2.06 2.094s.93 2.1 2.07 2.1h20.75zm-53.63-1.765c.72-.055 1.435.196 1.97.697.53.5.83 1.2.83 1.937v15.65c0 1.46-1.165 2.64-2.603 2.64H126.76c-1.35 0-2.474-1.05-2.593-2.41l-4.76-54.74c-.064-.71.157-1.41.613-1.95.454-.54 1.104-.88 1.802-.92l42.35-2.93c.72-.05 1.428.2 1.955.7.53.49.828 1.19.828 1.93v13.7c0 1.46-1.165 2.64-2.603 2.64H143.63c-1.15 0-2.084.94-2.084 2.11 0 .57.228 1.12.632 1.51.405.4.952.61 1.516.6l16.452-.51c.704-.02 1.386.24 1.893.74.5.5.79 1.18.79 1.9v9.85c0 1.36-1.03 2.5-2.37 2.63l-17.04 1.59c-1.07.1-1.88 1-1.88 2.09 0 .58.24 1.14.66 1.54.42.39.99.6 1.56.55l20.38-1.59zm-75.9-23.44c-1.35-.166-2.595.743-2.867 2.09l-.87 4.322c-.156.775.038 1.58.528 2.193.49.613 1.23.975 2.01.982 2.88.023 4.06-.088 5.42-1.46 1.74-1.772 3.37-7.2-4.21-8.13zm29.93 40.29c.52.812.56 1.85.104 2.7-.456.853-1.334 1.383-2.29 1.383H100.22c-.85 0-1.645-.42-2.132-1.126C90.44 78.982 86.253 73.716 86.06 76.2c-.014.16-.04.323-.083.478l-3.315 12.527c-.304 1.154-1.335 1.956-2.514 1.956H62.643c-.734 0-1.433-.31-1.927-.86-.495-.55-.735-1.29-.664-2.03l5.375-56.2c.12-1.24 1.083-2.23 2.31-2.37 13.496-1.48 45.897-7.15 45.897 22.02 0 5.4-1.86 11.1-5.782 15.86-.734.89-.81 2.17-.185 3.14l10.51 16.37zM59.16 6.427c1.335.132 2.35 1.27 2.35 2.63v16.336c0 1.46-1.165 2.642-2.604 2.642H38.013c-1.29 0-2.386.96-2.575 2.256l-.53 3.64c-.112.77.108 1.54.603 2.12.5.58 1.22.92 1.98.92H55.4c.747 0 1.46.33 1.956.9.493.57.722 1.33.626 2.09l-1.93 15.1c-.17 1.32-1.273 2.3-2.58 2.3H35.48c-1.322 0-2.432 1.01-2.586 2.34l-3.367 29.15c-.154 1.33-1.266 2.33-2.587 2.33H7.66c-1.402 0-2.552-1.12-2.603-2.54L2.002 3.74c-.028-.76.272-1.497.82-2.02.547-.52 1.29-.78 2.038-.703l54.3 5.413z"/>
</svg>
