<?xml version="1.0" encoding="UTF-8" standalone="no"?>
<svg width="133px" height="133px" viewBox="0 0 133 133" version="1.1" xmlns="http://www.w3.org/2000/svg" xmlns:xlink="http://www.w3.org/1999/xlink" xmlns:sketch="http://www.bohemiancoding.com/sketch/ns">
    <!-- Generator: Sketch 3.4.4 (17249) - http://www.bohemiancoding.com/sketch -->
    <title>ico-btnStart</title>
    <desc>Created with Sketch.</desc>
    <defs>
        <linearGradient x1="50%" y1="0.155372268%" x2="50%" y2="100%" id="linearGradient-1">
            <stop stop-color="#FF2300" offset="0.051817602%"></stop>
            <stop stop-color="#C20E00" offset="100%"></stop>
        </linearGradient>
        <rect id="path-2" x="0" y="0" width="133" height="133"></rect>
    </defs>
    <g id="landing" stroke="none" stroke-width="1" fill="none" fill-rule="evenodd" sketch:type="MSPage">
        <g sketch:type="MSArtboardGroup" transform="translate(-1040.000000, -580.000000)" id="iphone">
            <g sketch:type="MSLayerGroup" transform="translate(905.000000, 197.000000)">
                <g id="ico-btnStart" transform="translate(135.000000, 383.000000)">
                    <g id="red_btn">
                        <use fill="url(#linearGradient-1)" fill-rule="evenodd" sketch:type="MSShapeGroup" xlink:href="#path-2"></use>
                        <use fill="none" xlink:href="#path-2"></use>
                        <use fill="none" xlink:href="#path-2"></use>
                    </g>
                    <path d="M51.1227409,47.1962397 C50.7064413,45.8711463 50.306699,44.5438296 50.006301,43.2720956 C48.0312431,42.1737799 46.6877307,40.1750232 46.6877307,37.8650029 C46.6877307,34.3899677 49.6940763,31.5663625 53.3887354,31.5663625 C57.0833945,31.5663625 60.0897401,34.392191 60.0897401,37.8650029 C60.0897401,38.3430148 60.0211453,38.8032402 59.914705,39.2501258 C60.5557118,40.5774425 61.073721,42.0715076 61.5278661,43.5900291 C62.805149,41.9892451 63.5904414,40.0216147 63.5904414,37.8650029 C63.5904414,32.5668525 59.0253377,28.2758621 53.3887354,28.2758621 C47.7521332,28.2758621 43.1893947,32.5668525 43.1893947,37.8650029 C43.1893947,42.4272374 46.5836558,46.2268761 51.1227409,47.1962397 Z M44.0763968,69.8984696 C46.5907518,67.3438851 49.412601,68.3443751 53.190047,68.8846397 C56.4352917,69.3537584 59.6308644,68.4977836 59.4179839,66.85031 C59.0821058,64.18456 58.609038,62.9928653 57.5328089,59.5400631 C56.6741909,56.7942738 55.0444725,51.8451833 53.5614051,47.1139772 C51.5745206,40.7842104 50.9997433,37.8449931 53.644192,37.1113005 C56.4944252,36.3309183 58.1288743,40.1372269 59.6095763,45.4153675 C61.2960629,51.4227542 62.1830649,54.0751643 62.679786,53.9350957 C63.5549614,53.6994248 62.3581,51.1292771 64.6477479,50.4956334 C67.5098078,49.7130279 68.063297,51.8162802 68.8651469,51.6050657 C69.6669967,51.3782879 69.3949827,49.2483559 71.6775346,48.6213822 C73.9719132,47.998855 75.1238332,50.6534885 76.0699687,50.3889145 C77.0066428,50.1287871 76.9853548,49.17054 78.3998274,48.7903538 C79.8166653,48.3946044 85.1481388,50.6379253 88.1994258,60.4360575 C92.0289092,72.7554244 87.7145314,75.0454348 89.0225637,79.2163665 L71.9282605,85.3260255 C70.5445374,82.1978267 66.2585436,81.9666024 62.4669055,79.9722923 C58.6468835,77.9513025 56.0521068,74.0138185 46.0963961,74.2050232 C42.3520648,74.2761692 42.5294652,71.4703506 44.0763968,69.8984696 Z M48.8515532,92.5976677 C49.4621869,92.9107004 50.0081399,93.3011758 50.4894131,93.7690945 C50.9707408,94.2371373 51.3540797,94.758809 51.6394262,95.3341204 C51.9247571,95.909548 52.0884948,96.523185 52.130646,97.1750138 C52.1728076,97.8268869 52.0600385,98.4931827 51.7923275,99.1738974 L49.2944866,97.8933603 C49.4679066,97.1777724 49.4147787,96.5471361 49.135106,96.0014504 C48.8554867,95.4558661 48.3992675,95.0208352 47.7664486,94.6963577 C47.1781016,94.3948344 46.6223483,94.247426 46.0991896,94.2541304 C45.576137,94.2608953 45.0923973,94.3816606 44.6479705,94.6164263 C44.203576,94.8512749 43.8024995,95.1719875 43.4447401,95.5785662 C43.0870861,95.9852731 42.7794593,96.4376903 42.52186,96.9358169 C42.2752559,97.4128854 42.0937692,97.9065134 41.9774011,98.4167013 C41.861061,98.9270171 41.837388,99.4277902 41.9063826,99.9190197 C41.9753862,100.410368 42.1590891,100.869933 42.4574924,101.297713 C42.755901,101.725658 43.1992963,102.090404 43.787677,102.391949 C44.6535941,102.835913 45.4306922,102.969446 46.1189713,102.792547 C46.8072776,102.615778 47.3957703,102.149798 47.8844469,101.394605 L45.2534957,100.045826 L46.2153177,98.1855016 L51.2109419,100.746425 L48.0377554,106.883809 L46.3725127,106.030152 L46.7719361,104.605681 C46.0097808,104.939128 45.286683,105.074669 44.6026419,105.012301 C43.9186684,104.949993 43.2880292,104.770831 42.7107245,104.474817 C41.8004266,104.008249 41.0597798,103.437501 40.488783,102.762575 C39.9178688,102.087795 39.5196193,101.357321 39.2940325,100.571154 C39.0685296,99.7851445 39.0075191,98.9660607 39.1110009,98.1139035 C39.2145101,97.2619047 39.4799873,96.4224726 39.9074325,95.5956072 C40.3459014,94.7476823 40.8860446,94.0289234 41.5278618,93.4393304 C42.1697416,92.8498949 42.8802223,92.4129037 43.6593015,92.1283593 C44.4383637,91.8438958 45.270934,91.7342983 46.157001,91.7995861 C47.0430991,91.8650119 47.9412832,92.1310391 48.8515532,92.5976677 Z M60.9173972,98.6252678 L61.632932,99.0242202 C62.0523902,99.3427503 62.3741968,99.7299643 62.5983506,100.185837 C62.8225325,100.641871 62.9620505,101.141393 63.0169028,101.684408 C63.0718069,102.227615 63.0597873,102.777845 62.9808449,103.335095 C62.9052392,103.868695 62.7673283,104.376718 62.5671122,104.859165 C62.3669543,105.341764 62.0972609,105.761182 61.7580214,106.117414 C61.4187856,106.473694 61.0050232,106.735623 60.5167442,106.903209 C60.0284571,107.070922 59.4592395,107.100729 58.8090914,106.992631 C58.1590388,106.88466 57.624315,106.671396 57.2049209,106.35284 C56.7854927,106.034411 56.4632542,105.650171 56.2381942,105.200117 C56.0132465,104.750126 55.8720709,104.262461 55.8146669,103.737123 C55.7572683,103.211802 55.7663641,102.682344 55.8419333,102.14874 C55.9209021,101.591488 56.0617469,101.062699 56.2644575,100.562366 C56.467169,100.062086 56.7385518,99.6308254 57.0786275,99.268593 C57.4187096,98.9064574 57.8328699,98.6415438 58.3211087,98.4738512 C58.8094345,98.3062485 59.3786521,98.2764411 60.0287615,98.3844289 L60.9173972,98.6252678 L60.9173972,98.6252678 Z M61.7872271,96.405535 L60.3613201,96.0366021 C59.3555034,95.8695468 58.4265328,95.8911407 57.5743881,96.101399 C56.7222349,96.3118139 55.9773127,96.6735034 55.3396156,97.1864525 C54.7020165,97.6994683 54.1784792,98.3375967 53.7690019,99.1008419 C53.3595632,99.8641705 53.0876448,100.720101 52.953236,101.668627 C52.8222226,102.593516 52.8472052,103.480553 53.0281739,104.329732 C53.2091964,105.179101 53.5336918,105.946071 54.0016496,106.630637 C54.4696459,107.315231 55.0814252,107.893237 55.8369878,108.364654 C56.5925384,108.836125 57.4732053,109.155409 58.4789785,109.322502 C59.4971064,109.491745 60.4287699,109.47362 61.273958,109.268123 C62.1191106,109.062758 62.8596787,108.709492 63.4956625,108.208327 C64.1316094,107.70724 64.6534568,107.080955 65.0611951,106.329465 C65.4690077,105.578092 65.7384426,104.73997 65.8694777,103.81509 C66.0038542,102.86655 65.9813929,101.961679 65.8020723,101.100469 C65.6227538,100.23942 65.2999427,99.4606463 64.8336286,98.7641423 C64.367346,98.0677641 63.7599033,97.4813716 63.011311,97.0049698 L61.7872271,96.405535 L61.7872271,96.405535 Z M87.17155,91.4643469 L84.5173041,92.4105732 L85.9027589,101.477815 L85.8683527,101.490159 L80.3634688,93.8911847 L77.8298566,94.7943046 L79.0532209,103.802872 L79.0187559,103.815065 L73.7106395,96.2626705 L71.0046195,97.2272132 L79.1992604,108.181544 L81.9398398,107.204605 L80.630248,98.2267998 L80.6646069,98.2145568 L86.110725,105.717873 L88.7995891,104.759401 L87.17155,91.4643469 L87.17155,91.4643469 Z M89.3171449,88.7351993 L86.9911773,90.3653649 L94.98619,100.903969 L97.3121575,99.273803 L89.3171449,88.7351993 L89.3171449,88.7351993 Z M98.1307817,79.6699794 L96.4046938,81.6667662 L103.296363,87.357836 L103.272851,87.385011 L92.8821339,85.7418129 L91.0503697,87.8608859 L101.323036,96.3440518 L103.049124,94.347265 L96.1719468,88.6680136 L96.1954119,88.64094 L106.560057,90.2858046 L108.403554,88.1531947 L98.1307817,79.6699794 L98.1307817,79.6699794 Z M109.381818,80.1854401 L108.14855,82.7103563 L110.740077,83.9712617 L111.973392,81.4462441 L109.381818,80.1854401 L109.381818,80.1854401 Z M99.9219854,75.8145402 L98.7595028,78.1948523 L101.990405,79.7667397 L107.471917,81.6772865 L108.029542,80.5354245 L103.152946,77.3865784 L99.9219854,75.8145402 L99.9219854,75.8145402 Z" id="Shape" fill="#FFFFFF" sketch:type="MSShapeGroup"></path>
                </g>
            </g>
        </g>
    </g>
</svg>