<?xml version="1.0" encoding="UTF-8" standalone="no"?>
<svg width="73px" height="84px" viewBox="0 0 73 84" version="1.1" xmlns="http://www.w3.org/2000/svg" xmlns:xlink="http://www.w3.org/1999/xlink" xmlns:sketch="http://www.bohemiancoding.com/sketch/ns">
    <!-- Generator: Sketch 3.4.2 (15857) - http://www.bohemiancoding.com/sketch -->
    <title>ico_gowin</title>
    <desc>Created with Sketch.</desc>
    <defs></defs>
    <g id="landing" stroke="none" stroke-width="1" fill="none" fill-rule="evenodd" sketch:type="MSPage">
        <g sketch:type="MSArtboardGroup" transform="translate(-1132.000000, -566.000000)" id="Group" fill="#FFFFFF">
            <g sketch:type="MSLayerGroup" transform="translate(1005.000000, 473.000000)">
                <g id="btn_default" transform="translate(96.000000, 72.000000)" sketch:type="MSShapeGroup">
                    <path d="M43.1227409,40.5961054 C42.7064413,39.2236872 42.306699,37.8489663 42.006301,36.5318133 C40.0312431,35.394272 38.6877307,33.3241312 38.6877307,30.9316102 C38.6877307,27.3324665 41.6940763,24.4080183 45.3887354,24.4080183 C49.0833945,24.4080183 52.0897401,27.3347692 52.0897401,30.9316102 C52.0897401,31.4266939 52.0211453,31.903356 51.914705,32.3662017 C52.5557118,33.7409226 53.073721,35.2883471 53.5278661,36.8611015 C54.805149,35.2031467 55.5904414,33.1652438 55.5904414,30.9316102 C55.5904414,25.4442401 51.0253377,21 45.3887354,21 C39.7521332,21 35.1893947,25.4442401 35.1893947,30.9316102 C35.1893947,35.6567816 38.5836558,39.5921216 43.1227409,40.5961054 Z M36.0763968,64.1091292 C38.5907518,61.4633096 41.412601,62.4995314 45.190047,63.0590911 C48.4352917,63.544964 51.6308644,62.6584187 51.4179839,60.9521068 C51.0821058,58.1911514 50.609038,56.9568962 49.5328089,53.3807796 C48.6741909,50.5369265 47.0444725,45.4110827 45.5614051,40.510905 C43.5745206,33.9550751 42.9997433,30.9108858 45.644192,30.1509898 C48.4944252,29.3427368 50.1288743,33.284985 51.6095763,38.7516306 C53.2960629,44.9735668 54.1830649,47.7207059 54.679786,47.5756349 C55.5549614,47.3315471 54.3581,44.6696084 56.6477479,44.0133346 C59.5098078,43.2027789 60.063297,45.3811474 60.8651469,45.1623895 C61.6669967,44.9275125 61.3949827,42.7215115 63.6775346,42.0721458 C65.9719132,41.4273856 67.1238332,44.1768274 68.0699687,43.9028043 C69.0066428,43.6333866 68.9853548,42.6409164 70.3998274,42.2471521 C71.8166653,41.8372689 77.1481388,44.1607084 80.1994258,54.3087738 C84.0289092,67.0681181 79.7145314,69.4399147 81.0225637,73.7598082 L63.9282605,80.0876692 C62.5445374,76.8477491 58.2585436,76.6082667 54.4669055,74.5427313 C50.6468835,72.4495633 48.0521068,68.3714549 38.0963961,68.5694884 C34.3520648,68.6431752 34.5294652,65.7371488 36.0763968,64.1091292 Z M40.9523539,87.6094731 C41.5626006,87.9233357 42.1066947,88.3177977 42.584637,88.7928595 C43.0626325,89.2680482 43.4412805,89.7997797 43.7205772,90.3880647 C43.9998568,90.9764696 44.1562447,91.6058682 44.1897482,92.2762421 C44.2232615,92.9466614 44.1006586,93.634046 43.8219282,94.3383919 L41.325671,93.0544584 C41.509986,92.3155062 41.4651459,91.6670966 41.1911539,91.1092287 C40.9172141,90.5514644 40.4640358,90.1099125 39.8316189,89.7845727 C39.2436436,89.4822524 38.6863617,89.338122 38.1597742,89.3521796 C37.6332926,89.366298 37.1448152,89.4972232 36.6943421,89.7449553 C36.2439003,89.9927724 35.8358783,90.3283797 35.4702751,90.7517796 C35.1047762,91.1753099 34.7889983,91.6452071 34.5229418,92.1614702 C34.2682387,92.6559072 34.0788418,93.1664986 33.9547523,93.693245 C33.8306894,94.2201226 33.8000151,94.73591 33.8627301,95.2406061 C33.9254525,95.7454246 34.1040407,96.2159583 34.3984956,96.6522053 C34.6929537,97.0886226 35.1341878,97.4580027 35.7221968,97.7603451 C36.5875642,98.2054881 37.3677927,98.3323078 38.062882,98.1408043 C38.7579969,97.9494342 39.3566179,97.4617336 39.8587421,96.6777026 L37.229459,95.3253465 L38.2228644,93.3972909 L43.2153228,95.9650038 L39.9379397,102.325838 L38.2737523,101.469917 L38.6952094,99.9981949 C37.9236311,100.35185 37.1940667,100.501258 36.5065154,100.446418 C35.8190313,100.391638 35.1868203,100.215848 34.6098823,99.9190475 C33.7001602,99.451244 32.9625964,98.873885 32.3971898,98.1869701 C31.8318645,97.5002047 31.4410671,96.7537497 31.2247956,95.9476061 C31.0086063,95.1416237 30.9584112,94.2993462 31.0742101,93.420775 C31.1900344,92.5423665 31.4686878,91.6746776 31.9101706,90.8177085 C32.3630355,89.9389114 32.9164563,89.1916785 33.5704328,88.5760099 C34.2244701,87.9605025 34.9454606,87.500973 35.7334018,87.1974241 C36.5213247,86.8939586 37.360705,86.769757 38.251531,86.8248392 C39.1423864,86.880063 40.0426607,87.1416077 40.9523539,87.6094731 Z M52.9825797,93.8673885 L53.6972213,94.2682563 C54.1149979,94.5903927 54.4335604,94.9845637 54.652908,95.4507433 C54.8722816,95.9170884 55.0058565,96.4293558 55.0536305,96.9875497 C55.1014541,97.5459418 55.081831,98.1124775 54.9947622,98.6871546 C54.911375,99.2374418 54.7656349,99.7622547 54.5575421,100.261593 C54.3495059,100.761087 54.0723548,101.196498 53.7260783,101.567821 C53.3798049,101.939193 52.9598201,102.214467 52.4661341,102.393647 C51.9724381,102.57296 51.3991818,102.611428 50.7463652,102.509052 C50.0936431,102.406806 49.5584257,102.194602 49.140714,101.872437 C48.7229663,101.550404 48.4039284,101.159301 48.1835892,100.699122 C47.9633623,100.239008 47.8279571,99.7389681 47.7773732,99.1990048 C47.7267945,98.6590581 47.743191,98.1139439 47.8265416,97.5636523 C47.913637,96.9889735 48.0626137,96.4427453 48.2734616,95.9249615 C48.4843096,95.4072328 48.7633229,94.9596086 49.110523,94.5820979 C49.4577282,94.2046868 49.8781542,93.9263363 50.3718013,93.7470455 C50.8655347,93.5678462 51.438791,93.5293778 52.0915701,93.6316404 L52.9825797,93.8673885 L52.9825797,93.8673885 Z M53.8883473,91.5706874 L52.4583914,91.2104373 C51.4484441,91.0522403 50.5132524,91.0871754 49.6527958,91.3152585 C48.7923286,91.5435029 48.037707,91.9259928 47.3889254,92.4627128 C46.7402414,92.9995001 46.2046354,93.6635101 45.7821054,94.4547468 C45.3596131,95.2460689 45.0742516,96.1308277 44.9260102,97.1090183 C44.7815092,98.0628312 44.794517,98.9755486 44.9650239,99.8471634 C45.1355823,100.718972 45.451656,101.504003 45.9132343,102.202249 C46.374851,102.900524 46.982626,103.487118 47.7365595,103.962028 C48.4904802,104.436995 49.3723971,104.753599 50.3823002,104.911835 C51.4046073,105.072115 52.3424617,105.040714 53.1958521,104.817627 C54.049205,104.594676 54.7993295,104.220917 55.4462258,103.696349 C56.0930838,103.171864 56.6268271,102.520068 57.0474462,101.740955 C57.4681385,100.961962 57.750757,100.095567 57.8952796,99.141763 C58.0434887,98.1635587 58.0332623,97.2324503 57.8645786,96.3484291 C57.6958949,95.464574 57.3816778,94.6673703 56.9219168,93.9568128 C56.462186,93.2463845 55.85889,92.6510994 55.1120395,92.1709623 L53.8883473,91.5706874 L53.8883473,91.5706874 Z M79.3113171,86.4065583 L76.6271966,87.416851 L77.8974548,96.7311325 L77.8626602,96.7443097 L72.4266109,88.9977188 L69.8644833,89.9619903 L70.9724197,99.2180934 L70.9375681,99.2311161 L65.6989042,91.5297798 L62.9624288,92.5596345 L71.0594933,103.723218 L73.8309182,102.680131 L72.6357834,93.4568719 L72.670529,93.4437998 L78.0487461,101.09273 L80.7678732,100.069359 L79.3113171,86.4065583 L79.3113171,86.4065583 Z M81.3822945,83.6961848 L79.0191905,85.4059898 L86.9210403,96.144382 L89.2841443,94.4345769 L81.3822945,83.6961848 L81.3822945,83.6961848 Z M90.2346457,74.3046367 L88.4702326,76.383612 L95.3280124,82.1473584 L95.3039783,82.1756522 L84.869459,80.6263885 L82.9970228,82.832683 L93.219172,91.4241832 L94.9835851,89.3452078 L88.1402284,83.5934283 L88.1642135,83.5652394 L98.5724721,85.1165751 L100.456901,82.8961863 L90.2346457,74.3046367 L90.2346457,74.3046367 Z M101.40338,74.7848561 L100.127706,77.4007123 L102.718515,78.6631565 L103.994238,76.0471953 L101.40338,74.7848561 L101.40338,74.7848561 Z M91.9424202,70.3066387 L90.7399611,72.7726805 L93.9699701,74.3464833 L99.4603128,76.2380932 L100.037114,75.0551062 L95.1724861,71.8805959 L91.9424202,70.3066387 L91.9424202,70.3066387 Z" id="ico_gowin"></path>
                </g>
            </g>
        </g>
    </g>
</svg>