<?xml version="1.0" encoding="UTF-8" standalone="no"?>
<svg width="31px" height="27px" viewBox="0 0 31 27" version="1.1" xmlns="http://www.w3.org/2000/svg" xmlns:xlink="http://www.w3.org/1999/xlink" xmlns:sketch="http://www.bohemiancoding.com/sketch/ns">
    <!-- Generator: Sketch 3.4.2 (15857) - http://www.bohemiancoding.com/sketch -->
    <title>ico_send</title>
    <desc>Created with Sketch.</desc>
    <defs></defs>
    <g id="landing" stroke="none" stroke-width="1" fill="none" fill-rule="evenodd" sketch:type="MSPage">
        <g sketch:type="MSArtboardGroup" transform="translate(-834.000000, -421.000000)" id="ico_send" fill="#FFFFFF">
            <path d="M862.72641,421.200427 L835.147749,432.275392 C833.598781,432.897557 833.620481,433.852782 835.195627,434.39883 L842.133434,436.802438 L844.82837,445.526684 C845.15077,446.627355 846.054938,446.862499 846.837861,446.048788 L850.533064,442.208233 C850.548909,442.191794 850.563376,442.175713 850.578531,442.159632 L857.345838,447.468225 C858.671261,448.508145 860.029063,447.97532 860.363174,446.284646 L864.935334,423.143397 C865.269446,421.452724 864.275378,420.57862 862.72641,421.200427 L862.72641,421.200427 Z M858.246216,427.391701 L846.77035,438.558508 L846.770005,438.558865 L846.768972,438.559938 C846.567472,438.756843 846.401449,439.135288 846.377683,439.421534 L846.377683,439.421534 L846.07216,443.088412 C845.917849,444.912739 845.64126,444.277709 845.303359,443.182041 L843.107524,436.165621 L857.491538,426.607294 C859.716307,425.168918 859.716307,425.996922 858.246216,427.391701 L858.246216,427.391701 Z" sketch:type="MSShapeGroup"></path>
        </g>
    </g>
</svg>