<?xml version="1.0" encoding="UTF-8"?>
<!DOCTYPE svg PUBLIC "-//W3C//DTD SVG 1.1//EN" "http://www.w3.org/Graphics/SVG/1.1/DTD/svg11.dtd">
<svg version="1.1" xmlns="http://www.w3.org/2000/svg" xmlns:xlink="http://www.w3.org/1999/xlink" x="0" y="0" width="51" height="62" viewBox="0, 0, 51, 62">
  <g id="Layer_1" transform="translate(0, 0)">
    <path d="M8.526,14.521 C8.228,13.503 7.959,12.499 7.747,11.569 C6.311,10.729 5.414,9.154 5.396,7.438 C5.533,4.848 7.588,2.822 10.076,2.822 C12.564,2.822 14.618,4.848 14.755,7.438 C14.752,7.796 14.709,8.152 14.628,8.5 C15.085,9.576 15.464,10.686 15.76,11.821 C16.691,10.549 17.189,8.992 17.176,7.393 C17.165,3.298 13.97,-0.012 10.041,0 C6.112,0.012 2.936,3.342 2.947,7.438 C3.004,10.862 5.314,13.796 8.526,14.521 z M3.571,31.861 C5.326,29.913 7.294,30.68 9.941,31.049 C12.207,31.403 14.444,30.754 14.288,29.5 C14.029,27.595 13.588,25.721 12.971,23.906 C12.377,21.811 11.23,18.003 10.14,14.418 C8.724,9.577 8.356,7.335 10.14,6.773 C11.923,6.213 13.269,9.091 14.302,13.119 C15.605,17.768 16.213,19.774 16.554,19.671 C17.162,19.495 16.327,17.532 17.969,17.044 C19.965,16.439 20.348,18.048 20.914,17.886 C21.48,17.724 21.282,16.085 22.883,15.613 C24.482,15.141 25.289,17.162 25.954,16.97 C26.62,16.779 26.592,16.042 27.583,15.746 C28.574,15.451 32.297,17.222 34.421,24.6 C37.097,34.016 34.081,35.756 35.001,38.944 L23.066,43.608 C22.104,41.217 19.102,41.04 16.454,39.52 C13.807,38 11.98,34.96 5.014,35.093 C2.367,35.211 2.48,33.07 3.571,31.861 z M6.968,49.201 C7.391,49.427 7.778,49.72 8.116,50.071 C8.443,50.414 8.711,50.813 8.909,51.252 C9.311,52.191 9.311,53.265 8.909,54.203 L7.237,53.185 C7.37,52.694 7.325,52.169 7.11,51.709 C6.904,51.285 6.572,50.943 6.161,50.736 C5.807,50.526 5.408,50.414 5,50.41 C4.643,50.421 4.293,50.523 3.981,50.706 C3.658,50.897 3.37,51.147 3.132,51.443 C2.872,51.759 2.648,52.107 2.466,52.476 C2.29,52.838 2.157,53.219 2.07,53.613 C2.006,53.989 2.006,54.374 2.07,54.749 C2.11,55.124 2.237,55.483 2.437,55.797 C2.674,56.144 2.99,56.423 3.358,56.609 C3.846,56.917 4.429,57.016 4.986,56.889 C5.522,56.71 5.973,56.324 6.246,55.811 L4.405,54.809 L5.1,53.333 L8.526,55.369 L6.26,60.062 L5.1,59.427 L5.396,58.336 C4.922,58.58 4.396,58.693 3.868,58.66 C3.404,58.627 2.951,58.497 2.537,58.276 C1.944,57.964 1.417,57.526 0.994,56.993 C0.613,56.512 0.332,55.954 0.172,55.354 C0.009,54.75 -0.039,54.119 0.031,53.495 C0.118,52.826 0.314,52.177 0.612,51.577 C0.905,50.96 1.298,50.402 1.772,49.924 C2.208,49.484 2.722,49.138 3.287,48.905 C3.846,48.679 4.445,48.583 5.043,48.625 C5.716,48.671 6.374,48.867 6.968,49.201 z M15.364,53.819 L15.86,54.115 C16.145,54.346 16.373,54.644 16.525,54.986 C16.683,55.343 16.779,55.728 16.808,56.121 C16.855,56.538 16.855,56.959 16.808,57.377 C16.75,57.777 16.646,58.167 16.497,58.542 C16.359,58.895 16.162,59.22 15.916,59.501 C15.674,59.774 15.373,59.981 15.039,60.106 C14.652,60.244 14.237,60.274 13.835,60.195 C13.43,60.14 13.044,59.977 12.716,59.722 C12.432,59.492 12.204,59.193 12.051,58.852 C11.896,58.503 11.799,58.129 11.768,57.745 C11.722,57.343 11.722,56.937 11.768,56.534 C11.826,56.12 11.93,55.714 12.08,55.325 C12.215,54.962 12.411,54.628 12.659,54.336 C12.899,54.058 13.201,53.845 13.538,53.716 C13.925,53.579 14.339,53.549 14.741,53.627 L15.364,53.805 z M16.001,52.123 L14.996,51.857 C14.347,51.738 13.682,51.763 13.042,51.931 C12.461,52.086 11.919,52.373 11.456,52.772 C10.995,53.183 10.615,53.684 10.338,54.247 C10.042,54.839 9.842,55.477 9.743,56.137 C9.632,56.806 9.632,57.489 9.743,58.158 C9.853,58.778 10.079,59.37 10.408,59.9 C10.741,60.422 11.175,60.864 11.683,61.198 C12.248,61.561 12.88,61.797 13.538,61.892 C14.186,62.036 14.857,62.036 15.506,61.892 C16.081,61.739 16.617,61.457 17.077,61.065 C17.541,60.657 17.922,60.155 18.195,59.59 C18.498,58.991 18.699,58.342 18.79,57.671 C18.902,56.987 18.902,56.289 18.79,55.606 C18.686,54.976 18.464,54.375 18.14,53.834 C17.813,53.308 17.384,52.861 16.878,52.521 L16.03,52.079 z M33.755,48.315 L31.886,49.067 L32.779,55.945 L28.956,50.234 L27.172,50.942 L27.95,57.774 L24.298,52.093 L22.387,52.846 L28.05,61.08 L29.989,60.313 L29.154,53.509 L32.878,59.088 L34.775,58.336 L33.755,48.315 z M35.171,46.323 L33.515,47.577 L39.037,55.501 L40.693,54.247 L35.171,46.323 z M41.359,39.387 L40.127,40.862 L44.912,45.112 L37.621,43.976 L36.318,45.6 L43.397,51.945 L44.628,50.47 L39.844,46.22 L47.107,47.371 L48.423,45.732 L41.345,39.387 z M49.159,39.742 L48.296,41.674 L50.107,42.604 L51,40.671 L49.188,39.742 z M42.548,36.436 L41.712,38.25 L43.963,39.417 L47.8,40.818 L48.168,39.903 L44.771,37.557 L42.519,36.391 z" fill="#FFFFFF"/>
  </g>
</svg>
