<svg xmlns="http://www.w3.org/2000/svg" width="340" height="354" viewBox="0 0 340 354">
  <defs>
    <linearGradient id="a" x1="131.948" x2="143.272" y1="108.854" y2="204.331" gradientUnits="userSpaceOnUse" gradientTransform="translate(34.633 35.843)">
      <stop offset="0" stop-color="#FFF" stop-opacity=".72"/>
      <stop offset="1" stop-color="#FFF" stop-opacity="0"/>
    </linearGradient>
    <linearGradient id="b" x1="92.074" x2="141.876" y1="57.512" y2="102.384" gradientUnits="userSpaceOnUse" gradientTransform="translate(34.633 35.843)">
      <stop offset="0" stop-color="#FFF" stop-opacity=".87"/>
      <stop offset="1" stop-color="#FFF" stop-opacity="0"/>
    </linearGradient>
    <linearGradient id="c" x1="170.002" x2="170.002" y1="317.874" y2="218.765" gradientUnits="userSpaceOnUse">
      <stop offset="0" stop-color="#FBE8C4"/>
      <stop offset="1" stop-color="#F7BF32"/>
    </linearGradient>
    <linearGradient id="d" x1="154.002" x2="154.002" y1="34.72" y2="105.297" gradientUnits="userSpaceOnUse" gradientTransform="translate(16 211.577)">
      <stop offset="0" stop-color="#FCEE21"/>
      <stop offset="1" stop-color="#F7931E"/>
    </linearGradient>
    <linearGradient id="e" x1="165.283" x2="162.141" y1="8.311" y2="65.615" gradientUnits="userSpaceOnUse" gradientTransform="translate(16 211.577)">
      <stop offset="0" stop-color="#FFF"/>
      <stop offset="1" stop-color="#FFF" stop-opacity="0"/>
    </linearGradient>
  </defs>
  <path fill="#F00" d="M121.683 70.813c-4.053-5.317-11.616-6.316-16.89-2.23-5.277 4.084-6.268 11.706-2.215 17.022 4.053 5.317 11.615 6.316 16.89 2.23 5.277-4.083 6.268-11.705 2.215-17.022"/>
  <path fill="#4D4D4D" fill-opacity=".68" d="M112.122 66.068c-2.562 0-5.143.82-7.33 2.514-5.276 4.084-6.267 11.706-2.214 17.023 2.372 3.11 5.947 4.744 9.56 4.744 2.562 0 5.143-.82 7.33-2.52 5.278-4.09 6.27-11.71 2.215-17.03-2.372-3.11-5.947-4.75-9.56-4.75m0 .8c3.528 0 6.783 1.61 8.93 4.43 1.832 2.4 2.626 5.38 2.235 8.38-.39 3-1.918 5.67-4.302 7.52-1.984 1.53-4.352 2.34-6.847 2.34-3.53 0-6.79-1.62-8.94-4.43-1.83-2.41-2.63-5.38-2.24-8.39.39-3.01 1.92-5.68 4.3-7.52 1.98-1.54 4.35-2.35 6.84-2.35"/>
  <path fill="#4D4D4D" fill-opacity=".36" d="M112.082 87.67c-4.267 0-7.725-2.95-7.725-6.594 0-3.642 3.458-6.594 7.725-6.594 4.266 0 7.725 2.952 7.725 6.594 0 3.643-3.46 6.595-7.725 6.595"/>
  <path fill="#FFF" d="M112.082 87.67c-4.008 0-7.256-2.773-7.256-6.194 0-3.422 3.248-6.195 7.256-6.195s7.256 2.78 7.256 6.2c0 3.42-3.248 6.2-7.256 6.2"/>
  <path d="M111.49 80.345q.424 0 .73-.25.306-.247.306-.712 0-.355-.244-.61-.244-.256-.658-.256-.28 0-.463.08-.18.077-.28.206-.1.13-.2.33l-.17.383q-.04.097-.16.152-.12.055-.27.055-.18 0-.34-.15-.15-.15-.15-.397 0-.24.15-.504.15-.265.43-.504.28-.24.7-.385.41-.145.93-.145.45 0 .81.122.37.122.64.352.27.23.41.534.14.304.14.654 0 .46-.2.79-.2.328-.57.64.36.195.6.443.25.25.37.55.13.3.13.65 0 .42-.17.81-.16.393-.49.7-.32.305-.77.477-.44.173-.99.173t-.99-.198q-.43-.198-.72-.495t-.42-.614q-.14-.318-.14-.525 0-.26.17-.43.18-.16.43-.16.13 0 .25.08t.16.18q.24.64.51.95.27.31.77.31.28 0 .55-.14.26-.14.44-.41.17-.27.17-.64 0-.54-.3-.84-.29-.3-.82-.3-.09 0-.28.02-.19.02-.25.02-.25 0-.39-.13-.14-.12-.14-.35 0-.22.17-.35.17-.13.49-.13z"/>
  <path fill="#07DCC6" d="M226.692 37.632c-5.59-7.333-16.02-8.71-23.295-3.076-7.276 5.632-8.643 16.144-3.053 23.476 5.59 7.332 16.02 8.71 23.296 3.077 7.275-5.64 8.642-16.15 3.052-23.48"/>
  <path fill="#4D4D4D" fill-opacity=".68" d="M213.506 31.09c-3.532 0-7.09 1.13-10.11 3.466-7.274 5.633-8.642 16.143-3.052 23.476 3.272 4.292 8.202 6.543 13.186 6.543 3.532 0 7.092-1.13 10.11-3.466 7.276-5.64 8.642-16.15 3.052-23.48-3.27-4.29-8.2-6.55-13.186-6.55m0 1.1c4.868 0 9.357 2.22 12.32 6.11 5.212 6.84 3.933 16.68-2.853 21.93-2.737 2.12-6 3.24-9.443 3.24-4.867 0-9.357-2.23-12.318-6.12-5.214-6.84-3.934-16.68 2.852-21.93 2.735-2.12 6-3.24 9.442-3.24"/>
  <path fill="#4D4D4D" fill-opacity=".36" d="M213.45 60.88c-5.882 0-10.652-4.07-10.652-9.093 0-5.024 4.77-9.095 10.653-9.095 5.89 0 10.66 4.07 10.66 9.095 0 5.023-4.77 9.094-10.65 9.094"/>
  <path fill="#FFF" d="M213.45 60.88c-5.526 0-10.006-3.824-10.006-8.542 0-4.72 4.48-8.543 10.007-8.543 5.53 0 10.01 3.824 10.01 8.543 0 4.718-4.48 8.543-10.01 8.543"/>
  <path d="M211.1 48.338h4.227q.61 0 .883.19.272.19.272.628 0 .267-.32.705-.32.44-.73.97t-.844 1.32q-.435.79-.797 1.93-.15.5-.21.83-.06.33-.14.86-.07.53-.13.81-.13.65-.37.9t-.65.25q-.39 0-.62-.27t-.23-.79q0-.4.17-1.1t.56-1.67q.39-.97.97-2t1.38-2.04h-3.4q-.53 0-.79-.19t-.26-.6q0-.44.28-.56.28-.12.78-.12z"/>
  <path fill="#0086FF" d="M85.915 87.487c-3.593-4.712-10.295-5.597-14.97-1.977-4.677 3.62-5.555 10.375-1.963 15.087 3.592 4.712 10.295 5.598 14.97 1.978 4.676-3.62 5.555-10.376 1.963-15.088"/>
  <path fill="#4D4D4D" fill-opacity=".68" d="M77.44 83.282c-2.27 0-4.557.727-6.496 2.228-4.676 3.62-5.554 10.375-1.962 15.087 2.102 2.758 5.27 4.205 8.474 4.205 2.27 0 4.557-.726 6.496-2.228 4.677-3.62 5.555-10.375 1.962-15.087-2.1-2.758-5.27-4.205-8.473-4.205m0 .71c3.13 0 6.02 1.43 7.92 3.927 1.63 2.12 2.33 4.76 1.98 7.42-.34 2.66-1.7 5.03-3.81 6.66-1.76 1.36-3.85 2.08-6.07 2.08-3.13 0-6.01-1.43-7.91-3.93-1.62-2.13-2.32-4.77-1.98-7.43.35-2.66 1.7-5.03 3.82-6.67 1.76-1.36 3.86-2.08 6.07-2.08"/>
  <path fill="#4D4D4D" fill-opacity=".36" d="M77.405 102.428c-3.78 0-6.846-2.617-6.846-5.844 0-3.228 3.06-5.845 6.84-5.845s6.84 2.61 6.84 5.84c0 3.22-3.07 5.84-6.85 5.84"/>
  <path fill="#FFF" d="M77.405 102.428c-3.552 0-6.43-2.458-6.43-5.49 0-3.033 2.878-5.49 6.43-5.49 3.552 0 6.432 2.457 6.432 5.49 0 3.032-2.88 5.49-6.432 5.49"/>
  <path d="M74.35 99.065h2.128q.318 0 .485.13.168.13.168.355 0 .2-.13.34-.13.137-.4.137h-3q-.3 0-.47-.17-.17-.168-.17-.397 0-.147.11-.39.11-.242.24-.38.54-.564.98-.965.44-.402.63-.53.34-.235.56-.474.23-.23.34-.48.12-.25.12-.49 0-.26-.12-.46t-.34-.32q-.21-.11-.46-.11-.53 0-.84.47-.04.06-.13.34t-.21.42q-.12.15-.35.15-.2 0-.34-.13-.13-.14-.13-.37 0-.28.13-.59.13-.3.38-.55.25-.25.64-.4.39-.15.91-.15.62 0 1.06.2.29.13.5.36.22.23.34.53.12.3.12.62 0 .51-.25.92-.25.42-.51.65-.26.24-.88.74-.61.5-.84.78-.1.11-.2.27zm4.963 0h2.13q.317 0 .485.13.167.13.167.355 0 .2-.133.34-.132.137-.402.137h-3.002q-.306 0-.477-.17-.17-.168-.17-.397 0-.147.11-.39.11-.242.24-.38.55-.564.98-.965.44-.402.63-.53.34-.235.56-.474.23-.23.34-.48.12-.25.12-.49 0-.26-.12-.46t-.34-.32q-.21-.11-.46-.11-.53 0-.84.47-.04.06-.13.34t-.21.42q-.12.15-.35.15-.2 0-.34-.13-.13-.13-.13-.37 0-.28.13-.59.13-.3.38-.55.25-.25.64-.4.39-.15.91-.15.63 0 1.07.2.29.13.51.36.22.23.34.53.12.3.12.62 0 .51-.25.92-.25.42-.51.65-.26.24-.87.74t-.84.78q-.1.11-.2.27z"/>
  <path fill="#D100FF" d="M266.908 110.487c-3.438-4.51-9.854-5.358-14.33-1.893-4.476 3.466-5.317 9.932-1.878 14.442 3.44 4.51 9.855 5.36 14.33 1.893 4.476-3.47 5.317-9.94 1.878-14.45"/>
  <path fill="#4D4D4D" fill-opacity=".68" d="M258.797 106.462c-2.173 0-4.363.695-6.22 2.133-4.474 3.464-5.315 9.93-1.877 14.44 2.013 2.64 5.045 4.026 8.112 4.026 2.172 0 4.362-.69 6.218-2.13 4.477-3.46 5.317-9.93 1.88-14.44-2.014-2.64-5.047-4.02-8.113-4.02m0 .68c2.994 0 5.756 1.37 7.578 3.76 1.553 2.04 2.226 4.57 1.895 7.11-.33 2.55-1.627 4.82-3.65 6.38-1.683 1.31-3.69 2-5.808 2-2.995 0-5.757-1.37-7.578-3.76-1.554-2.04-2.227-4.56-1.895-7.11.33-2.54 1.62-4.81 3.64-6.37 1.68-1.3 3.69-1.99 5.81-1.99"/>
  <path fill="#4D4D4D" fill-opacity=".36" d="M258.763 124.79c-3.62 0-6.553-2.506-6.553-5.596 0-3.09 2.934-5.595 6.553-5.595 3.62 0 6.553 2.5 6.553 5.59s-2.934 5.59-6.553 5.59"/>
  <path fill="#FFF" d="M258.763 124.79c-3.4 0-6.156-2.354-6.156-5.257 0-2.903 2.756-5.256 6.156-5.256s6.156 2.353 6.156 5.256-2.76 5.256-6.16 5.256"/>
  <path d="M256.6 118.71q.36 0 .618-.21.26-.21.26-.606 0-.3-.207-.517-.2-.217-.55-.217-.24 0-.39.067-.15.066-.24.175-.09.11-.17.28-.08.173-.14.326-.04.082-.14.128-.1.047-.23.047-.16 0-.29-.127-.13-.127-.13-.337 0-.21.12-.43.13-.23.36-.43.24-.21.59-.33.35-.13.79-.13.38 0 .69.1.31.1.54.3.23.19.35.45.12.25.12.55 0 .39-.17.67t-.48.54q.31.16.51.37.21.21.32.46.11.25.11.55 0 .36-.14.69-.14.33-.42.59-.28.26-.66.4t-.84.14q-.46 0-.84-.17-.37-.17-.61-.42t-.36-.52q-.12-.27-.12-.45 0-.23.15-.37.15-.14.37-.14.11 0 .21.06.1.06.14.15.21.54.44.8.23.27.66.27.24 0 .47-.12.23-.12.37-.35.15-.24.15-.55 0-.46-.25-.72-.25-.26-.69-.26-.08 0-.24.01-.17.01-.21.01-.22 0-.33-.1-.12-.11-.12-.3t.14-.3q.14-.12.42-.12zm4.318 2.92v-3.552q-.992.76-1.336.76-.164 0-.29-.13-.127-.13-.127-.302 0-.2.124-.293.12-.094.44-.242.47-.22.75-.46.28-.24.5-.55.22-.3.28-.37.06-.07.25-.07.2 0 .33.16.12.16.12.44v4.47q0 .79-.54.79-.24 0-.39-.16-.15-.16-.15-.47z"/>
  <path fill="#FF9700" d="M168.418 45.65c-4.668-6.124-13.378-7.274-19.454-2.57-6.075 4.704-7.217 13.482-2.55 19.604 4.67 6.123 13.378 7.274 19.454 2.57 6.076-4.704 7.217-13.482 2.55-19.605"/>
  <path fill="#4D4D4D" fill-opacity=".68" d="M157.406 40.185c-2.95 0-5.92.944-8.44 2.895-6.077 4.704-7.22 13.482-2.55 19.604 2.73 3.585 6.848 5.464 11.01 5.464 2.95 0 5.923-.943 8.442-2.895 6.076-4.703 7.218-13.48 2.55-19.604-2.733-3.59-6.85-5.47-11.012-5.47m0 .92c4.065 0 7.815 1.86 10.287 5.1 4.354 5.71 3.286 13.92-2.38 18.31-2.286 1.77-5.013 2.7-7.887 2.7-4.064 0-7.814-1.86-10.286-5.11-4.354-5.71-3.286-13.93 2.38-18.32 2.286-1.77 5.013-2.71 7.886-2.71"/>
  <path fill="#4D4D4D" fill-opacity=".36" d="M157.36 65.064c-4.913 0-8.895-3.4-8.895-7.595s3.982-7.6 8.895-7.6c4.914 0 8.896 3.4 8.896 7.59s-3.982 7.59-8.896 7.59"/>
  <path fill="#FFF" d="M157.36 65.064c-4.615 0-8.356-3.195-8.356-7.134 0-3.94 3.74-7.135 8.356-7.135s8.357 3.194 8.357 7.135c0 3.94-3.74 7.134-8.357 7.134"/>
  <path d="M159.19 54.882h-2.52l-.3 1.717q.75-.41 1.388-.41.508 0 .95.19.444.19.777.53.334.33.525.8.19.46.19.99 0 .77-.344 1.4-.344.63-.993 1-.65.37-1.498.37-.948 0-1.54-.35-.59-.35-.837-.81-.246-.46-.246-.79 0-.21.172-.4.172-.19.432-.19.445 0 .662.51.212.47.573.73.36.26.81.26.41 0 .72-.21t.48-.58q.17-.37.17-.85 0-.51-.18-.87t-.48-.54q-.3-.18-.67-.18-.45 0-.65.11t-.56.39q-.37.27-.61.27-.26 0-.46-.19-.2-.18-.2-.42 0-.03.06-.36l.45-2.54q.08-.45.28-.66.2-.21.66-.21h2.8q.83 0 .83.63 0 .28-.2.45-.2.17-.59.17z"/>
  <path fill="#0BD310" d="M237.918 87.097c-4.36-5.72-12.497-6.794-18.173-2.4-5.676 4.395-6.742 12.594-2.382 18.314 4.36 5.72 12.497 6.8 18.173 2.4 5.676-4.39 6.742-12.59 2.382-18.31"/>
  <path fill="#4D4D4D" fill-opacity=".68" d="M227.63 81.992c-2.755 0-5.53.882-7.885 2.705-5.676 4.394-6.742 12.593-2.38 18.313 2.55 3.348 6.396 5.105 10.285 5.105 2.755 0 5.532-.882 7.886-2.705 5.676-4.393 6.742-12.593 2.38-18.313-2.55-3.348-6.396-5.105-10.285-5.105m0 .86c3.8 0 7.3 1.738 9.61 4.768 4.07 5.336 3.07 13.01-2.22 17.11-2.13 1.65-4.68 2.525-7.36 2.525-3.79 0-7.3-1.738-9.61-4.768-4.06-5.335-3.07-13.01 2.23-17.108 2.14-1.66 4.68-2.53 7.37-2.53"/>
  <path fill="#4D4D4D" fill-opacity=".36" d="M227.588 105.233c-4.59 0-8.31-3.177-8.31-7.094 0-3.92 3.72-7.1 8.31-7.1s8.31 3.17 8.31 7.09c0 3.91-3.72 7.09-8.31 7.09"/>
  <path fill="#FFF" d="M227.588 105.233c-4.31 0-7.807-2.984-7.807-6.664 0-3.69 3.5-6.67 7.81-6.67s7.81 2.98 7.81 6.66-3.49 6.66-7.8 6.66"/>
  <path d="M224.05 100.938v-4.506q-1.257.966-1.693.966-.208 0-.37-.166-.16-.166-.16-.384 0-.252.16-.37.157-.12.558-.308.6-.282.958-.594.36-.312.637-.7.277-.385.36-.474.085-.09.318-.09.262 0 .42.204.16.203.16.56v5.67q0 .994-.68.994-.3 0-.484-.203t-.184-.6zm3.843-4.738q0-.496.27-.934.27-.438.792-.7.522-.263 1.22-.263.59 0 1.035.154.446.153.743.423t.44.61q.144.338.144.72 0 .485-.25.866-.25.38-.745.624.42.163.698.428.277.265.418.614.142.35.142.775 0 .624-.302 1.13-.303.51-.887.796-.58.287-1.37.287-.82 0-1.4-.287t-.88-.79q-.29-.502-.29-1.126 0-1.332 1.26-1.827-1.01-.476-1.01-1.5zm3.55 3.277q0-.386-.16-.673-.157-.287-.444-.44-.29-.154-.65-.154-.51 0-.85.336-.34.337-.34.94 0 .387.16.682.16.295.44.456.27.16.62.16t.62-.163q.27-.16.43-.46.16-.29.16-.68zm-1.238-4.228q-.465 0-.75.28-.285.29-.285.74 0 .42.292.7.292.28.753.28.233 0 .423-.08.19-.08.327-.21.136-.13.21-.31.075-.18.075-.4 0-.29-.13-.53-.133-.24-.37-.37-.238-.14-.545-.14z"/>
  <path fill="#FFF" d="M259.912 107.535l.445.037c2.09.433 3.914 1.535 5.265 3.18.214.205.126.093.27.33 1.025 1.012 1.644 2.306 1.863 3.72 0 1.724-2.29 2.388-3.163.77-.768-2.653-2.577-4.857-4.98-6.09-.335-.165-.54-.495-.54-.913.19-.79-.018-.4.84-1.04zm-6.837 2.015c-.55-.02-1.517.5-1.075 1.358.566 1.1 1.67.244 1.835-.396.07-.27-.01-.526-.143-.682-.127-.15-.355-.27-.617-.28zm4.16-2.315c-1.012.096-2.53.182-2.66 1.484.13 1.56 2.85.77 3.677-.01.347-.33.412-.68.3-.92-.11-.23-.426-.45-.896-.53l-.42-.04zm-28.19-23.614c-1.088.81-.825.32-1.066 1.32 0 .53.26.95.68 1.16 3.05 1.57 5.34 4.36 6.31 7.73 1.1 2.05 4.01 1.21 4.01-.97-.16-1.8-1.14-3.42-2.36-4.72-.19-.3-.08-.16-.35-.42-1.71-2.08-4.03-3.48-6.68-4.03l-.57-.04zm-150.44.83c-.896.67-.68.26-.878 1.08 0 .44.215.78.565.96 2.51 1.29 4.4 3.59 5.202 6.37.912 1.69 3.305 1 3.305-.8-.13-1.48-.94-2.82-1.95-3.88-.15-.24-.06-.13-.29-.34-1.41-1.71-3.32-2.87-5.5-3.32l-.47-.04zm141.77 1.73c-.7-.02-1.923.64-1.363 1.73.717 1.4 2.12.31 2.328-.5.087-.34-.015-.66-.183-.86-.16-.18-.45-.34-.783-.35zm-148.913.38c-.576-.02-1.583.53-1.122 1.42.592 1.15 1.745.26 1.917-.41.072-.28-.01-.55-.15-.71-.132-.15-.37-.28-.645-.29zm4.346-2.42c-1.056.1-2.644.19-2.777 1.55.14 1.64 2.98.81 3.84 0 .37-.34.44-.7.32-.95-.11-.23-.44-.46-.93-.55l-.44-.04zm149.842-.89c-1.283.13-3.21.23-3.372 1.89.164 1.98 3.612.98 4.662 0 .44-.41.523-.86.38-1.16-.14-.28-.54-.56-1.136-.67l-.534-.05zM113.436 67.52c-1.01.752-.767.29-.99 1.22 0 .492.24.88.636 1.074 2.834 1.454 4.966 4.05 5.87 7.18 1.03 1.907 3.73 1.124 3.73-.907-.144-1.676-1.06-3.182-2.194-4.384-.174-.282-.068-.15-.324-.394-1.59-1.94-3.742-3.24-6.203-3.75l-.52-.04zm-8.06 2.374c-.65-.024-1.788.59-1.266 1.6.667 1.296 1.97.288 2.164-.47.08-.312-.014-.62-.17-.8-.15-.176-.418-.32-.727-.33zm4.904-2.727c-1.192.113-2.984.214-3.134 1.75.152 1.842 3.358.91 4.333-.005.4-.382.48-.797.35-1.076-.13-.265-.5-.522-1.06-.622l-.5-.044zM158.92 42c-1.164.866-.884.332-1.14 1.403 0 .567.278 1.016.733 1.24 3.262 1.672 5.717 4.665 6.76 8.27 1.184 2.192 4.294 1.29 4.294-1.048 0-2.003-3.062-8.357-10.042-9.815l-.605-.05zm56.763-8.56c-1.047.18-1.646.537-1.73 1.7 0 .68.333 1.216.88 1.483 3.905 2.004 6.846 5.59 8.093 9.903 1.42 2.628 5.143 1.548 5.143-1.253 0-2.398-3.67-10.007-12.03-11.754l-.36-.08zM149.64 44.735c-.75-.027-2.06.68-1.46 1.845.768 1.49 2.268.33 2.492-.54.093-.364-.016-.714-.196-.926-.172-.202-.48-.367-.838-.38zm5.645-3.14c-1.373.13-3.436.245-3.61 2.013.176 2.122 3.868 1.048 4.992-.004.47-.44.56-.92.405-1.24-.147-.308-.577-.603-1.216-.717l-.57-.053zm48.92-4.86c-.898-.033-2.466.815-1.748 2.21.92 1.784 2.716.395 2.984-.646.12-.44-.01-.86-.23-1.11-.2-.25-.57-.44-1-.46zm6.76-3.762c-1.643.156-4.113.295-4.32 2.413.21 2.54 4.63 1.254 5.975-.006.565-.53.67-1.1.486-1.486-.176-.368-.69-.72-1.456-.86l-.684-.062z" opacity=".538"/>
  <path d="M202.373 136.17c-20.384 9.964-43.723 11.795-66.782 2.594-.04.548.32 6.378 1.02 8.595 21.59 5.64 52.71 7 64.6-2.6"/>
  <path fill="#FFC96F" d="M38.188 112.21c-2.04 4.73-2.875 4.894 1.41 9.936-.282-2.61-.87-6.306-1.41-9.935zm33.102 17.61c-1.73-2.884-6.173-7.1-12.85-12.193-1.082-.825-.996-5.392-4.78-4.7.22.526.545 1.207.7 1.533.503 1.058 1.746 5.346 2.194 6.342.275.44 3.628 3.613 4.01 3.995.288.29.355.74.158 1.1-.224.41-.532.972-7.547-.588-1.313-.3-6.035-4.34-7.215-5.05-1.412-.85-3.116-9.5-3.13-9.59-.152-.92-1.527-6.42-1.533-6.95-.657-1.35-.106-2.71-2.43-2.58.09.91.312 2.7.563 6.56.253.57 2.51 16.89 2.298 17.94.346 3.07-.25 1.21 3.67 5.9 6.015 7.18 2.895 1.6 18.516 12.1 2.278 1.53 3.157 9.62 4.027 13.35l10.26-11.2c-9.68-6.48-2.7-9.01-6.9-16zm-25.775-27.1c-.577.265-1.63 1.252-2.152 1.622.014.064.4 1.975.594 2.815.785-1.233 1.683-2.183 1.7-2.2.23-.323.128-1.695-.142-2.237"/>
  <path d="M72.798 135.386c-.336-.77-.74-1.23-1.14-1.03-8.85 4.425-18.83 1.086-30.12-11.455.157 1.48.24 2.53.19 2.77.346 3.07-.25 1.22 3.67 5.9 6.015 7.19 2.895 1.6 18.516 12.1 1.27.85 2.102 3.74 2.742 6.78 1.75-2.6 5.064-7.43 6.225-8.41.23-.19.39-.5.5-.87-1.04-2-.61-3.73-.58-5.77" opacity=".1"/>
  <path d="M45.515 102.72c.27.542.373 1.914.142 2.238-.017.016-.915.966-1.7 2.2-.193-.84-.58-2.752-.594-2.816.52-.37 1.575-1.357 2.152-1.622m-5.917 19.426c-4.285-5.042-3.45-5.205-1.41-9.935.54 3.63 1.128 7.33 1.41 9.94m34.88 15.13c.875-6.64-1.692-10.98-14.75-20.97-1.003-2.12-1.947-6.57-7.422-4.93-1.435.44-.265 2.49.396 3.88.126.27.228.48.24.5.172.69 1.732 5.41 1.964 5.87.205.41.83 1.07 2.374 2.57-4.346-.7-3.454-.22-7.864-3.63-1.066-.82-1.922-1.48-2.416-1.79-.64-.94-2.25-7.33-2.356-8.41.213-1.44 1.392-3.16 2.31-4.08 1.117-1.12.74-4.45-.543-5.22-1.16-.69-2.56.53-3.62 1.42-.57-2.2-1.5-3.52-4.91-3.05-1.34.19-.7 1.42-.22 9.25-.27 1.04-2.79 6.29-2.98 7.65-.34 2.49 1.9 5.12 3.7 7.23 1.56 1.83 1.51 1.72 1.58 2.84.18 2.87.93 2.65 4.05 6.37 6.38 7.62 3.9 2.37 18.82 12.39 2.04 2.2 2.69 10.87 3.75 13.74.42 1.13 2.15.51 1.73-.63-1-2.73-1.79-12.84-4.36-14.57-15.62-10.5-12.5-4.91-18.51-12.1-3.92-4.69-3.32-2.83-3.67-5.9.21-1.05-2.04-17.37-2.3-17.94-.25-3.86-.47-5.65-.56-6.57 2.33-.13 1.77 1.23 2.43 2.58.01.53 1.38 6.03 1.54 6.95.02.09 1.72 8.74 3.13 9.59 1.18.71 5.91 4.75 7.22 5.04 7.02 1.56 7.32 1 7.55.59.2-.36.13-.81-.15-1.1-.38-.38-3.73-3.56-4.01-3.99-.44-.99-1.69-5.28-2.19-6.34-.16-.32-.48-1.01-.7-1.53 3.78-.69 3.7 3.88 4.78 4.7 6.68 5.09 11.12 9.31 12.85 12.19 4.21 7.02-2.84 9.55 7 16.07.66.44 1.13.85 1.71.28 1.87-1.86-6.25-3.33-5.52-8.89"/>
  <path fill="#FFD6A1" d="M274.988 142.44c-.296.925-.956 2.122-2.276 3.628-4.408 5.026-6.826 9.283-7.186 12.656-.46 4.306-3.393 4.384-6.498 4.47-1.654.043-3.506.092-5.525.647.497 4.15 2.247 13.12 5.74 15.11.896.51 1.858.51 2.947 0 5.45-2.56 8.635-5.6 11.713-8.55 1.875-1.79 3.646-3.49 5.82-4.96 3.223-2.19 6.965-3.69 9.97-4.9 2.588-1.04 4.823-1.94 5.77-2.86.566-.55 1.116-.9 1.648-1.24 1.65-1.05 3.36-2.13 5.44-11.09.26-1.12 1.08-2.77 1.5-3.56-.1-.14-.23-.25-.36-.27-.43-.06-1.15.5-1.42.8-.09.11-.22.18-.35.23l-.2.4-.56 1.08-.59 1.13-.62 1.15-.65 1.14-.74 1.06-.59.73-.41.45-.42.41-.42.37-.21.17c-.08.1-.21.11-.28.02-.07-.08-.07-.24.02-.33l.13-.23.26-.5.25-.52.25-.53.38-.82.52-1.13.57-1.14.56-1.16.55-1.15.53-1.11.11-.22c-.35-.26-.71-.45-.9-.41-.06.02-.22.17-.36.64-.01.04-.03.08-.05.12-.02.08-.02.16-.06.24l-.28.61-.6 1.22-.64 1.2-.68 1.17-.74 1.13-.84 1.05-.94.96-1.02.86-.55.39c-.1.11-.25.11-.33.01-.08-.11-.06-.28.04-.39l.35-.59.66-1.16.62-1.13.6-1.11.61-1.09.58-1.11.55-1.15.53-1.2.13-.12c-.49-.54-.75-.38-.76-.38 0 0-.26-.1-.57.83-.01.04-.03-.04-.04 0-.01.03-.01.01-.02.04l-.1.25-.23.56-.26.546-.27.52-.43.725-.63.91-.67.87-.75.81-.83.78-.66.59-.47.4-.24.21c-.08.11-.21.13-.29.04-.08-.08-.08-.24 0-.35l.15-.32.3-.61.45-.84.59-1.01.58-.89.56-.81.5-.813.34-.63.21-.43.19-.45.11-.31c-.304-.33-.59-.3-.7-.29-.44.06-.9.46-1.02.9-.37 1.39-7.47 11.56-12.68 14.09l.34.11.46.12.71.14.97.11.99.02.99-.04.983-.11.974-.17.95-.21.92-.25.88-.28.82-.3.76-.31.35-.16c.16-.07.27-.02.245.13-.024.143-.175.32-.34.396l-.38.19-.804.37-.87.36-.93.35-.98.316-1.02.28-1.05.23-1.06.17-1.07.11-1.07.03-1.06-.06-.78-.11-.51-.1-.51-.13-.495-.16-.48-.19-.47-.22-.46-.25-.44-.28-.43-.32-.09-.08-.12-.11-.19-.166-.19-.186c-.02-.024-.03-.063-.04-.096-.29-.35-.55-.76-.75-1.22-.7-1.58-.76-3.63-.14-4.77.2-.36.49-.74.83-1.18 1.35-1.75 2.38-3.33 1.34-4.98-.32-.5-.7-.95-1.07-1.32"/>
  <path d="M259.244 178.945c.895.508 1.857.506 2.945-.005 5.45-2.562 8.63-5.606 11.71-8.55 1.87-1.795 3.64-3.488 5.82-4.966 3.22-2.19 6.96-3.695 9.97-4.904 2.59-1.04 4.82-1.938 5.77-2.866.56-.556 1.11-.905 1.65-1.242 1.65-1.048 3.35-2.13 5.43-11.095.06-.255.15-.54.25-.832-.3.1-.78.64-.78.64s-.81 5.28-7.35 10.327c-2.12 1.636-18.59 5.623-35.69 16.868 0 0-1.25 2.7-1.48 4.925.52.747 1.09 1.34 1.72 1.7" opacity=".1"/>
  <path d="M302.547 145.316c-2.082 8.965-3.787 10.048-5.436 11.095-.53.34-1.08.69-1.64 1.25-.94.93-3.18 1.83-5.77 2.87-3 1.21-6.74 2.72-9.97 4.91-2.17 1.48-3.94 3.17-5.82 4.97-3.08 2.95-6.26 5.99-11.71 8.55-1.09.51-2.05.52-2.94.01-3.49-1.99-5.24-10.96-5.74-15.1 2.02-.55 3.87-.6 5.53-.64 3.11-.08 6.04-.16 6.5-4.47.36-3.37 2.78-7.63 7.19-12.65 1.32-1.51 1.98-2.7 2.28-3.63.37.37.75.82 1.07 1.32 1.04 1.65.01 3.23-1.34 4.98-.34.44-.63.83-.83 1.18-.62 1.14-.56 3.19.14 4.77.21.46.46.87.76 1.22.01.03.02.07.04.1l.19.19.19.17c.04.04.09.07.13.11l.09.08.42.32.45.29.46.25.47.22.48.19.5.16.51.13.52.1.78.11 1.06.06 1.07-.03 1.08-.1 1.06-.17 1.05-.23 1.02-.28.98-.31.93-.35.88-.36.81-.37.38-.19c.16-.08.31-.25.34-.4.03-.14-.08-.2-.24-.12l-.35.15-.76.32-.82.3-.87.28-.92.25-.95.22-.97.17-.98.11-.99.05-.98-.02-.97-.11-.71-.14-.46-.12-.34-.11c5.21-2.54 12.31-12.7 12.69-14.09.12-.44.58-.84 1.02-.9.11-.01.39-.04.7.29l-.12.31-.19.45-.2.43-.34.63-.5.81-.56.81-.58.89-.59 1.01-.45.84-.29.61-.15.33c-.08.11-.08.27 0 .35.08.09.21.07.29-.04l.25-.21.48-.4.67-.59.82-.78.748-.81.68-.87.63-.91.44-.73.27-.52.26-.55.236-.57.104-.27c.01-.03.01-.05.02-.08s.03.13.04.1c.3-.93.563-.83.565-.83.01 0 .263-.16.76.38l-.13.22-.53 1.15-.55 1.13-.58 1.11-.607 1.09-.6 1.11-.62 1.13-.66 1.15-.34.59c-.1.11-.11.28-.03.39.08.11.23.11.33 0l.55-.39 1.02-.86.94-.95.84-1.042.74-1.13.68-1.17.64-1.2.6-1.22.28-.61c.04-.08.04-.16.06-.242.02-.04.04-.07.05-.11.14-.47.3-.62.37-.63.19-.044.55.14.9.4l-.11.22-.53 1.12-.55 1.156-.56 1.16-.57 1.15-.52 1.14-.38.827-.25.53-.25.52-.253.49-.13.24c-.08.1-.09.25-.02.34.07.082.2.073.28-.02l.21-.178.42-.37.41-.41.41-.45.59-.73.74-1.06.66-1.135.62-1.15.59-1.13.57-1.08.21-.4c.14-.05.26-.13.35-.23.28-.3.99-.86 1.43-.8.14.02.26.13.37.27-.42.79-1.24 2.45-1.5 3.56m3.38-3.97c-.57-1.23-1.39-1.6-1.97-1.68-.926-.14-1.79.33-2.36.76-.63-.516-1.605-1.1-2.6-.88-.31.07-.67.23-1 .57-.54-.5-1.26-.94-2.09-.81-.575.09-1.06.43-1.45 1.03-.51-.31-1.08-.44-1.7-.36-1.17.15-2.25 1.09-2.56 2.22-.19.56-2.38 3.87-5.29 7.22-3.21 3.692-6.03 5.95-7.6 6.09-.38-.11-.68-.33-.93-.57l-.05-.05-.154-.18c-.21-.25-.37-.52-.48-.76-.555-1.25-.47-2.66-.206-3.15.13-.23.4-.575.68-.94 1.215-1.575 3.246-4.21 1.44-7.08-1.156-1.83-2.92-2.98-2.99-3.03-.38-.24-.87-.18-1.174.145-.284.31-.325.76-.11 1.11.12.32-.016 1.59-2.006 3.86-4.66 5.32-7.23 9.92-7.63 13.67-.28 2.59-1.35 2.74-4.72 2.83-1.88.05-4.21.116-6.76.957-.41.13-.67.53-.62.96.05.58 1.43 14.24 6.74 17.27.73.41 1.5.62 2.3.62.75 0 1.53-.19 2.33-.57 5.72-2.69 9.16-5.98 12.2-8.88 1.82-1.74 3.534-3.39 5.58-4.78 3.06-2.08 6.55-3.48 9.624-4.72 2.88-1.16 5.16-2.08 6.37-3.26.43-.42.87-.7 1.35-1 1.96-1.25 3.99-2.54 6.24-12.23.24-1.03 1.2-2.92 1.56-3.55.14-.26.15-.57.03-.83"/>
  <path fill="#FF3E00" d="M262.315 207.314c3.318-11.643 4.095-24.116 2.243-36.077-.434-6.548-4.837-11.077-10.762-8.044-6.48 3.315-29.946 11.147-46.002 11.27-.44.014-.856-.34-.917-.798-.234-1.772-.498-3.51-.76-5.227-17.077 6.513-56.62 9.244-69.803-3.07-.034.013-.06.042-.096.05-.075.014-7.05 1.477-12.007 5.222 6.54 2.404 15 6.016 14.76 14.305.01.056-.01.398-.01.456l.02-.45c-.56-11.94-22.86-13.15-35.44-20.83 17.75 22.32 17.45 39.39 18.46 44.88h-.25c-2.41-26.54-23.78-48.1-24.18-49.01-7.29-5.5-9.88-8.09-17.32-13.43-1.46-1.05-2.73-1.89-4.21-3.13-10.31-8.59-28.01 70.35-4.29 67.63 8.5-.99 24.88-8.25 37.65-7.52l-.23.01c-4.83 1-1.02-.53-24.69 6.27 5.53 4.78 19.08 11.1 29.22 10.72 2.12-.03 17.15 28.97 19.41 51.98 10.4 3.94 19.43 7.03 27.59 9.48-2.02-4.85-6.78-14.15-10.44-25.29-.09-.17.3-.29-.62-.35v-.23c.92.2.56.39.62.58 1.24 2.31 7.54 14.04 12.5 25.97 7.37 2.15 14.14 3.77 20.47 5 10.37-17.5-1.34-38.29-4.89-45.78-.19-.33-.33-.83-.52-.83h.2v-.09c0 .23.24.49.36.76 9.32 15.88 15.45 29.87 6.61 46.25 4.85.9 9.52 1.58 14.19 2.11 3.84-8 8.7-22.85 14.88-30.81.21-.43.58-.86.58-1.31v.49h.36c-.29 0-.58.58-.87.96-8.37 17.18-6.45 16.75-13.25 30.92 9.25.97 18.57 1.33 29.3 1.67-.35-25.12-1.47-43.09-1.47-43.09-2.5-19.02 1.91-46.43-4.51-57.37-.03-.04-.06-.09-.1-.13l-.44-.21c-.25-.02-.77-.02.15-.02v-.06c0-.02.06-.04.05-.06.04-.2.07-.23.07.05.08.13.18.28.26.41 6.89 8.16 4.85 42.73 6.06 55.14 5.49-7.69 7.48-11.11 10.03-15.91.02-.12.07-.22.14-.33 1.16-1.7 1.22-3.02 2.43-3.65 4.33-6.77 10.7-19.58 12.37-27.87-.01-.21-.01.05-.03-.87h.16c-.03.92-.09.66-.13.87.44 8.17-4.76 18.61-9.05 25.89 8.31-5 12.29-10.13 16.25-17.44zm-129.712-60.488c3.157 6.94 4.742 13.637 4.503 16.766 11.715 11.94 51.122 9.96 68.723 2.982-1.28-8.33-2.36-16.172-.13-24.458-15.43 13.95-51.1 12.023-73.11 4.71z"/>
  <path fill="#FFF" d="M85.697 180l-4.447-8.274-9.045-5.055 6.158-2.13-2.01-7.8 8.253 6.96 7.804.23-1.057 6.44 6.832 7.95-8.906-2.98-3.59 4.69zm52.9 26.733l-1.31-7.434-6.316-3.44 6.04-3.2.68-7.4 5.04 5.46 6.73-1.14-2.92 6.57 3.49 6.69-6.84-1.4-4.57 5.27zm15.447 52.657l6.442-7.215-1.557-9.08 8 3.533 7.97-5.193-1.5 9.4 6.48 5.87-8.93 2.275-3.97 8.82-4.03-7.99-8.94-.42zm94.852-95.652l.064 1.11 5.995 3.442-6.51 3.26-1.575 7.478-4.452-5.492-6.97 1.18 3.76-6.654-.23-.564c3.4-1 6.708-2.264 9.918-3.76zm-46.868 61.91l.005-9.876-6.606-5.336 7.63-3.358 2.29-9.56 4.712 7.802 8.02-.573-4.72 8.18 2.66 9.207-7.63-2.748-6.37 6.263zm24.035 34.11l3.78 6.312c-.13 9.36-.147 9.502-.168 9.69l-2.076.244-6.61 2.665.65-6.96-6.07-5.58 7.63-.27 2.85-6.11zm-47.234-101.18l5.51 7.365 11.45 1.02-8.4 5.76c-3.31 0-9.66 1.083-11.75 1.158l-11.02-7.89 9.52.11 4.67-7.52zm9.8 14.146l6.92 6.263-11.84-1.885-8.51 4.306v-7.268c14.4-.95 12.35-1.22 13.42-1.416zm-95.76 39.668l1.23-5.877 6.08-1.837 2.03 4.27 5.58 4.04-4.78.595.07 4.905-4.69-5.09-5.54-1.006zm29.84 16.837l3.26-2.22-.36-6.15 3.54 4.96 3.88-.44-1.07 5.28 2.75 5.88-4.21-1.69-2.19 4.07-1.53-6.33-4.11-3.37zm113.49-10.75l-.35 6.15 3.26 2.22-4.11 3.36-1.53 6.33-2.19-4.07-2.22.89-.06-1.52c-.02-.99-.01-.4-.02-1.77l.84-1.79-1.07-5.29 3.88.43 3.54-4.96z"/>
  <path fill="url(#a)" d="M73.936 142.12c7.207 1.054 22.353 17.463 31.022 22.744 5.413 3.298 12.012 4.145 18.06 5.935 4.655-4.11 11.743-5.89 13.183-6.22 8.91 4.89 10.46 12.84 11.83 26.33 1.56-4.61 2.07-19.06.69-19.52 21.12 4.59 37.64 2.99 57.38-4.58 1.62 1.48.53 3.1.61 6.42 15.65-.12 40.55-7.5 47.13-10.87 5.27-2.7 9.55.01 11.28 4.8-.57.4-1.21.73-1.83 1.06-16.91 8.82-26.93 27.53-25.28 34.37.67 2.75 3.12 5.15 5.43 3.51 5.59-3.97 13.85-16.82 14.5-29.21.5 17.21-5.1 31.48-12.12 39.24-6.65 7.34-17.9 19.96-18.29-1.53.85 21.72-13.7 43.49-23.47 64.14 2.26-17.86-3.46-36.58-15.32-50.12.72 12.95.42 25.96-.92 38.87-7.23-26.29-20.65-50.84-38.88-71.11-.75 14.02 1.82 28.21 7.43 41.09-4.7-2.89-8.03-7.89-8.9-13.34.53 18 4.93 35.87 12.83 52.05-23.61-38.66-36.37-92.25-55.76-107.17 7.3 10.74 18.21 28.45 17.14 40.2-4.9-11.76-21.2-12.14-26.6-19.78-5.39-7.64-8.3-16.8-9.78-26.04.35 3.44-14.63-15.28-25.83 32.46-.24 1.02-.42-12.7-.85-11.75 1.12-11.2 10.44-43.2 15.36-42.04"/>
  <path d="M262.315 207.314c-3.958 7.31-7.938 12.562-16.243 17.566 4.293-7.275 9.49-17.596 9.05-25.766-1.663 8.283-8.035 20.855-12.364 27.628-1.207.636-1.27 1.95-2.423 3.653-.072.106-.118.21-.14.327-2.556 4.803-4.537 8.223-10.024 15.915-1.21-12.417.85-46.986-6.04-55.144 6.42 10.94 2.02 38.336 4.52 57.36 0 0 1.13 17.952 1.48 43.08-10.73-.346-20.04-.742-29.3-1.707 6.8-14.174 4.88-13.808 13.25-30.99-6.18 7.954-11.1 22.806-14.94 30.808-4.66-.523-9.33-1.204-14.18-2.103 8.85-16.37 2.72-30.36-6.6-46.24 3.56 7.5 15.32 28.44 4.95 45.94-6.33-1.23-13-2.85-20.36-5-4.96-11.92-11.04-23.66-12.28-25.96 3.67 11.14 8 20.44 10.02 25.29-8.16-2.45-17.19-5.54-27.59-9.47-2.26-23.01-17.28-52.01-19.4-51.97-10.14.38-23.69-5.94-29.22-10.72 23.67-6.8 19.87-5.26 24.7-6.26h.23c-12.77-.73-29.15 6.55-37.65 7.54-23.72 2.72-6.02-76.18 4.29-67.6 1.49 1.24 2.76 2.15 4.22 3.21 7.44 5.34 10.03 7.8 17.32 13.31.4.92 21.78 22.48 24.19 49.02h.26c-1.01-5.49-.71-22.56-18.46-44.87 12.59 7.68 34.88 8.77 35.45 20.71.24-8.29-8.22-11.84-14.76-14.24 4.96-3.74 11.94-5.17 12.01-5.19.04-.01.07-.02.1-.03 13.19 12.32 52.73 9.59 69.81 3.08.26 1.72.52 3.46.76 5.23.06.46.47.82.91.8 16.06-.12 39.52-7.95 46-11.26 5.93-3.03 10.33 1.5 10.76 8.05 1.86 11.96 1.08 24.44-2.24 36.08m-129.72-60.5c22.01 7.32 57.68 9.24 73.11-4.71-2.24 8.29-1.15 16.13.13 24.46-17.6 6.98-57.01 8.96-68.72-2.98.24-3.13-1.34-9.82-4.5-16.76m133.77 24.2c-.51-7.86-6.34-13.1-13.42-9.48-6.07 3.11-28.85 10.69-44.37 11.06-1.7-12.41-4.41-22.48.21-33.91.4-.98-.93-1.75-1.58-.9-13.1 17.17-53.37 14.82-76.06 6.58-.78-.28-1.51.54-1.14 1.28 2.65 5.31 5.52 13.1 5.17 18.12-2.05.49-8.33 2.24-12.83 6-23.82-7.26-20.5-9.83-41.06-24.59-1.44-1.03-2.68-1.92-4.12-3.12C63.44 130.63 45 216.1 72 212.97c4.25-.492 7.43-1.11 11.06-1.93 5.64 5.04 19.427 11.59 30.23 11.4 6.65 9.98 16.47 32.83 18.08 50.87.03.35.26.73.59.86 35.32 13.37 60.67 19.84 99.12 19.84.4 0 .93-.45.92-1.044-.29-21.87-.67-28.61-1.412-41.77.375-.444.2-.59-.02-1.84 9.636-13.37 8.26-12.97 13.527-21.21 10.717-5.745 15.467-11.715 19.936-19.99.49-.92 5.42-17.6 2.4-37.06"/>
  <path fill="#FF3E00" d="M127.572 123.595c-1.07 2.236-1.147 4.502-.234 6.925 4.538 9.734 26.53 15.656 49.01 13.133 15.453-1.734 27.908-7.252 31.728-14.058 1.428-2.543 1.555-5.112.38-7.636-3.414-6.49-9.983-8.74-16.012-10.55.94 5.54 2.387 10.27 4.505 13.61.27.43.15 1.01-.27 1.3-7.86 5.34-17.79 7.65-27.59 7.65-11.77 0-23.34-3.34-30.84-8.79-.34-.25-.48-.68-.35-1.08 1.28-3.81 2.65-7.5 4.09-11.09-4.26 1.62-11.85 5.16-14.44 10.56zm17.174-12.26c.012.288-.092.563-.303.753-1.584 3.857-3.094 7.842-4.496 11.968 13.194 9.1 38.91 11.453 54.908 1.19-2.115-3.704-3.544-8.73-4.463-14.514-.322-.23-.485-.64-.365-1.04.035-.115.094-.216.162-.305-3.4-23.833 1.35-59.36 2.84-69.456-7.11 6.69-31.84 31.77-48.29 71.41z"/>
  <path fill="url(#b)" d="M152.865 143.283c-12.666-1.91-22.636-6.563-25.526-12.762-.92-2.42-.84-4.68.23-6.92 2.58-5.39 10.17-8.94 14.43-10.56-1.44 3.59-2.82 7.28-4.1 11.09-.13.4 0 .83.34 1.08 4.25 3.09 9.8 5.49 15.96 7-.56 3.72-1.01 7.42-1.35 11.09zm1.652-13.037c-5.578-1.358-10.632-3.473-14.57-6.19 1.402-4.126 2.912-8.112 4.496-11.97.21-.187.315-.463.303-.75 14.334-34.525 34.944-58.01 44.718-67.91-11.16 15.774-20.535 34.28-27.206 54.812-3.488 10.736-6.053 21.458-7.74 32.008z"/>
  <path fill="#FFF" d="M152.94 129.98c-2.15-.79-5.056-1.908-6.884-2.335l-5.6-6.125 9.278 1.31 5.736-4.822 2.317 6.83 7.577 1.675-8.96 3.71c.205.015.415.03.63.043v5.922l-6.933-3.508-9.64 1.535 5.64-5.102c.76.136-.39.32 6.84.866zm27.318-57.283l4.47 4.845 4.188-.708v3.723l-.803 1.808.803 1.542v3.932l-3.78-.78-4.06 4.68-1.162-6.6-5.608-3.05 5.355-2.84.6-6.57z"/>
  <path d="M208.076 129.595c-3.82 6.806-16.275 12.325-31.73 14.058-22.477 2.524-44.47-3.4-49.008-13.132-.913-2.42-.836-4.68.235-6.92 2.585-5.39 10.176-8.94 14.432-10.56-1.438 3.59-2.813 7.28-4.093 11.09-.132.4.006.83.345 1.08 7.506 5.45 19.07 8.79 30.838 8.79 9.793 0 19.73-2.31 27.586-7.65.43-.29.55-.86.27-1.3-2.12-3.34-3.56-8.07-4.5-13.61 6.03 1.82 12.6 4.07 16.01 10.55 1.18 2.53 1.05 5.1-.37 7.64m-15.05-89.68c-1.49 10.1-6.24 45.63-2.84 69.46-.07.09-.12.19-.16.31-.12.4.04.81.37 1.04.92 5.79 2.35 10.81 4.47 14.52-16 10.27-41.71 7.91-54.91-1.19 1.41-4.12 2.92-8.11 4.5-11.97.21-.19.32-.46.31-.75 16.46-39.64 41.19-64.72 48.29-71.4m17.13 81.18c-3.97-7.54-11.74-9.91-18.04-11.79-3.89-27.21 3.13-71.21 3.22-71.76.06-.39-.13-.79-.48-.98-.35-.19-.78-.15-1.09.11-.34.29-31.31 27.05-50.79 73.97-3.78 1.3-13.86 5.3-17.13 12.12-1.29 2.7-1.39 5.53-.27 8.49 4.15 8.91 21.27 14.87 40.56 14.87 3.43 0 6.92-.19 10.42-.58 16.29-1.83 29.01-7.58 33.18-15.02 1.72-3.06 1.88-6.31.43-9.42"/>
  <path fill="#FF3E00" d="M214.577 327.934c-4.835-.13-9.405-1.184-13.645-3.09-4.172-1.843-7.882-4.408-10.995-7.565-3.113-3.16-5.497-6.85-7.22-10.99-1.655-4.01-2.45-8.22-2.45-12.7-.928.06-1.855.13-2.782.13h-1.06c-3.974-.13-7.683-.99-11.128-2.5-.927 1.05-1.39 2.3-2.053 3.55-1.92 3.81-4.504 7.23-7.617 10.06-3.18 2.83-6.89 5.06-11.062 6.57-3.775 1.38-7.75 2.04-11.922 2.04h-1.26c-4.635-.13-9.007-1.12-13.048-2.96-2.318-1.06-4.504-2.31-6.49-3.75-.2.2-.332.39-.53.59-1.723 1.77-4.107 2.83-6.624 2.89 0 0-22.32.39-22.38.39-5.16 0-9.34-4.08-9.47-9.21l-.26-12.63c-1.39.79-2.98 1.25-4.63 1.25s-3.04-.33-4.37-.99l.27 12.49c.07 2.5-.93 4.94-2.65 6.71-1.72 1.78-4.1 2.83-6.62 2.9 0 0-22.32.39-22.38.39-5.17 0-9.34-4.08-9.47-9.21l-6.16-80.91c-.06-2.5.93-4.94 2.65-6.71 1.72-1.78 4.11-2.83 6.63-2.9 0 0 27.09 4.28 27.16 4.28 2.92 0 5.7 1.31 7.49 3.62l6.49 8.35 6.3-4.41c1.72-2.37 4.5-3.82 7.49-3.88 0 0 22.32 1.44 22.39 1.44 5.17 0 9.34 4.07 9.48 9.2l.53 23.42c2.25-1.51 4.64-2.7 7.29-3.69 3.77-1.45 7.81-2.11 12.05-2.11h1.26c4.57.13 9.01 1.18 13.05 3.02 1.59.72 3.11 1.58 4.57 2.5 1.65-3.22 3.77-6.05 6.42-8.35 2.65-2.37 5.83-4.21 9.27-5.53 3.25-1.19 6.69-1.84 10.27-1.84h1.06c3.91.13 7.69.98 11.13 2.56 3.45 1.51 6.43 3.62 8.94 6.18 2.59 2.57 4.57 5.66 5.97 9.08.73 1.78 1.26 3.62 1.59 5.46 3.05-.85 6.29-1.25 9.6-1.25h1.32c4.77.13 9.41 1.18 13.65 3.16 4.18 1.9 7.36 3.96 6.63-2.83l-1.45-17.43c-.2-2.5.59-4.94 2.18-6.84 1.59-1.91 3.91-3.1 6.42-3.29l25.57-2.11c5.697-.06 9.8 3.62 10.2 8.55l.067.46c1.32-.72 2.78-1.38 4.24-1.97 3.24-1.18 6.69-1.84 10.265-1.84h1.06c3.91.13 7.68.99 11.13 2.57 3.447 1.51 6.43 3.62 8.945 6.18 2.58 2.56 4.57 5.65 5.96 9.07 1.452 3.55 2.12 7.3 1.982 11.12-.13 3.95-1.06 7.63-2.78 11.05-1.66 3.29-3.84 6.18-6.56 8.55-2.714 2.43-5.89 4.34-9.47 5.59-3.24 1.18-6.62 1.78-10.13 1.78h-1.06c-3.776-.13-7.42-.92-10.797-2.37-.33 1.64-.73 3.22-1.26 4.8-1.52 4.47-3.84 8.55-6.82 12.04-2.98 3.48-6.62 6.44-10.79 8.68-4.31 2.3-9.01 3.68-14.11 4.14l-6.827.59c-1.72 0-2.65-.13-3.51-.4-3.31 2.89-7.15 5.19-11.46 6.77-3.77 1.25-7.95 1.97-12.25 1.97h-1.32z"/>
  <path fill="none" stroke="#000" stroke-width="2" d="M214.577 327.934c-4.835-.13-9.405-1.184-13.645-3.09-4.172-1.843-7.882-4.408-10.995-7.565-3.113-3.16-5.497-6.85-7.22-10.99-1.655-4.01-2.45-8.22-2.45-12.7-.928.06-1.855.13-2.782.13h-1.06c-3.974-.13-7.683-.99-11.128-2.5-.927 1.05-1.39 2.3-2.053 3.55-1.92 3.81-4.504 7.23-7.617 10.06-3.18 2.83-6.89 5.06-11.062 6.57-3.775 1.38-7.75 2.04-11.922 2.04h-1.26c-4.635-.13-9.007-1.12-13.048-2.96-2.318-1.06-4.504-2.31-6.49-3.75-.2.2-.332.39-.53.59-1.723 1.77-4.107 2.83-6.624 2.89 0 0-22.32.39-22.38.39-5.16 0-9.34-4.08-9.47-9.21l-.26-12.63c-1.39.79-2.98 1.25-4.63 1.25s-3.04-.33-4.37-.99l.27 12.49c.07 2.5-.93 4.94-2.65 6.71-1.72 1.78-4.1 2.83-6.62 2.9 0 0-22.32.39-22.38.39-5.17 0-9.34-4.08-9.47-9.21l-6.16-80.91c-.06-2.5.93-4.94 2.65-6.71 1.72-1.78 4.11-2.83 6.63-2.9 0 0 27.09 4.28 27.16 4.28 2.92 0 5.7 1.31 7.49 3.62l6.49 8.35 6.3-4.41c1.72-2.37 4.5-3.82 7.49-3.88 0 0 22.32 1.44 22.39 1.44 5.17 0 9.34 4.07 9.48 9.2l.53 23.42c2.25-1.51 4.64-2.7 7.29-3.69 3.77-1.45 7.81-2.11 12.05-2.11h1.26c4.57.13 9.01 1.18 13.05 3.02 1.59.72 3.11 1.58 4.57 2.5 1.65-3.22 3.77-6.05 6.42-8.35 2.65-2.37 5.83-4.21 9.27-5.53 3.25-1.19 6.69-1.84 10.27-1.84h1.06c3.91.13 7.69.98 11.13 2.56 3.45 1.51 6.43 3.62 8.94 6.18 2.59 2.57 4.57 5.66 5.97 9.08.73 1.78 1.26 3.62 1.59 5.46 3.05-.85 6.29-1.25 9.6-1.25h1.32c4.77.13 9.41 1.18 13.65 3.16 4.18 1.9 7.36 3.96 6.63-2.83l-1.45-17.43c-.2-2.5.59-4.94 2.18-6.84 1.59-1.91 3.91-3.1 6.42-3.29l25.57-2.11c5.697-.06 9.8 3.62 10.2 8.55l.067.46c1.32-.72 2.78-1.38 4.24-1.97 3.24-1.18 6.69-1.84 10.265-1.84h1.06c3.91.13 7.68.99 11.13 2.57 3.447 1.51 6.43 3.62 8.945 6.18 2.58 2.56 4.57 5.65 5.96 9.07 1.452 3.55 2.12 7.3 1.982 11.12-.13 3.95-1.06 7.63-2.78 11.05-1.66 3.29-3.84 6.18-6.56 8.55-2.714 2.43-5.89 4.34-9.47 5.59-3.24 1.18-6.62 1.78-10.13 1.78h-1.06c-3.776-.13-7.42-.92-10.797-2.37-.33 1.64-.73 3.22-1.26 4.8-1.52 4.47-3.84 8.55-6.82 12.04-2.98 3.48-6.62 6.44-10.79 8.68-4.31 2.3-9.01 3.68-14.11 4.14l-6.827.59c-1.72 0-2.65-.13-3.51-.4-3.31 2.89-7.15 5.19-11.46 6.77-3.77 1.25-7.95 1.97-12.25 1.97h-1.32z"/>
  <path fill="none" stroke="#000" stroke-width="1.53" d="M214.577 327.934c-4.835-.13-9.405-1.184-13.645-3.09-4.172-1.843-7.882-4.408-10.995-7.565-3.113-3.16-5.497-6.85-7.22-10.99-1.655-4.01-2.45-8.22-2.45-12.7-.928.06-1.855.13-2.782.13h-1.06c-3.974-.13-7.683-.99-11.128-2.5-.927 1.05-1.39 2.3-2.053 3.55-1.92 3.81-4.504 7.23-7.617 10.06-3.18 2.83-6.89 5.06-11.062 6.57-3.775 1.38-7.75 2.04-11.922 2.04h-1.26c-4.635-.13-9.007-1.12-13.048-2.96-2.318-1.06-4.504-2.31-6.49-3.75-.2.2-.332.39-.53.59-1.723 1.77-4.107 2.83-6.624 2.89 0 0-22.32.39-22.38.39-5.16 0-9.34-4.08-9.47-9.21l-.26-12.63c-1.39.79-2.98 1.25-4.63 1.25s-3.04-.33-4.37-.99l.27 12.49c.07 2.5-.93 4.94-2.65 6.71-1.72 1.78-4.1 2.83-6.62 2.9 0 0-22.32.39-22.38.39-5.17 0-9.34-4.08-9.47-9.21l-6.16-80.91c-.06-2.5.93-4.94 2.65-6.71 1.72-1.78 4.11-2.83 6.63-2.9 0 0 27.09 4.28 27.16 4.28 2.92 0 5.7 1.31 7.49 3.62l6.49 8.35 6.3-4.41c1.72-2.37 4.5-3.82 7.49-3.88 0 0 22.32 1.44 22.39 1.44 5.17 0 9.34 4.07 9.48 9.2l.53 23.42c2.25-1.51 4.64-2.7 7.29-3.69 3.77-1.45 7.81-2.11 12.05-2.11h1.26c4.57.13 9.01 1.18 13.05 3.02 1.59.72 3.11 1.58 4.57 2.5 1.65-3.22 3.77-6.05 6.42-8.35 2.65-2.37 5.83-4.21 9.27-5.53 3.25-1.19 6.69-1.84 10.27-1.84h1.06c3.91.13 7.69.98 11.13 2.56 3.45 1.51 6.43 3.62 8.94 6.18 2.59 2.57 4.57 5.66 5.97 9.08.73 1.78 1.26 3.62 1.59 5.46 3.05-.85 6.29-1.25 9.6-1.25h1.32c4.77.13 9.41 1.18 13.65 3.16 4.18 1.9 7.36 3.96 6.63-2.83l-1.45-17.43c-.2-2.5.59-4.94 2.18-6.84 1.59-1.91 3.91-3.1 6.42-3.29l25.57-2.11c5.697-.06 9.8 3.62 10.2 8.55l.067.46c1.32-.72 2.78-1.38 4.24-1.97 3.24-1.18 6.69-1.84 10.265-1.84h1.06c3.91.13 7.68.99 11.13 2.57 3.447 1.51 6.43 3.62 8.945 6.18 2.58 2.56 4.57 5.65 5.96 9.07 1.452 3.55 2.12 7.3 1.982 11.12-.13 3.95-1.06 7.63-2.78 11.05-1.66 3.29-3.84 6.18-6.56 8.55-2.714 2.43-5.89 4.34-9.47 5.59-3.24 1.18-6.62 1.78-10.13 1.78h-1.06c-3.776-.13-7.42-.92-10.797-2.37-.33 1.64-.73 3.22-1.26 4.8-1.52 4.47-3.84 8.55-6.82 12.04-2.98 3.48-6.62 6.44-10.79 8.68-4.31 2.3-9.01 3.68-14.11 4.14l-6.827.59c-1.72 0-2.65-.13-3.51-.4-3.31 2.89-7.15 5.19-11.46 6.77-3.77 1.25-7.95 1.97-12.25 1.97h-1.32z"/>
  <path fill="#81010F" d="M216.6 270.523c3.757.138 7.25.907 10.438 2.322 3.223 1.43 6.04 3.34 8.456 5.74 2.4 2.454 4.233 5.207 5.51 8.346 1.335 3.28 1.93 6.58 1.796 10.09-.143 3.69-.952 7.03-2.487 10.01-1.53 3.11-3.54 5.77-6.053 8-2.444 2.23-5.386 3.95-8.808 5.2-3.374 1.23-6.882 1.78-10.58 1.64-3.812-.13-7.307-.9-10.503-2.32-3.25-1.44-6.07-3.36-8.4-5.74-2.35-2.4-4.21-5.21-5.51-8.34-1.33-3.19-1.94-6.56-1.8-10.09.14-3.59.94-6.93 2.42-9.94 1.53-3.1 3.54-5.76 6.05-7.99 2.42-2.21 5.36-3.94 8.73-5.19 3.42-1.29 6.92-1.84 10.72-1.7zm6.985 10.287c-1 0-1.935.174-2.81.52-.985.393-1.702.804-2.322 1.36-.523.427-.962 1.003-1.473 1.872-.375.69-.542 1.38-.542 2.22 0 .706.197 1.475.542 2.22.39.72.902 1.36 1.473 1.872.708.575 1.464 1.007 2.267 1.273.947.314 1.898.476 2.865.476 1.002 0 1.936-.174 2.81-.52.986-.393 1.703-.804 2.322-1.36.585-.476 1.104-1.14 1.474-1.872.37-.67.55-1.41.55-2.22 0-.8-.17-1.55-.57-2.27-.32-.69-.8-1.29-1.44-1.81-.7-.57-1.46-1-2.26-1.27-.94-.31-1.89-.47-2.86-.47zm44.035-39.687l-19.68 1.71h.007c-2.21.176-3.834 2.122-3.562 4.28l.99 11.472c.176 2.19 2.05 3.782 4.254 3.607 1.06-.088 2.01.71 2.1 1.78l1.72 19.544c.05.964-.06 1.888-.35 2.75-.4.986-.82 1.75-1.34 2.373-.6.71-1.3 1.27-2.16 1.73-.84.48-1.76.75-2.71.8l-.88.06-.78.06-.14.76-2.85 16.24c-.45 2.56 1.68 4.85 4.26 4.58l2.96-.26c3.88-.35 7.45-1.39 10.71-3.14 3.24-1.75 6-3.98 8.37-6.75 2.31-2.78 4.07-5.93 5.22-9.35 1.22-3.44 1.65-7.13 1.31-11.06l-3.25-37.62c-.18-2.19-2.05-3.78-4.25-3.61zM138.343 271.73c1.045.003 1.914.17 2.806.524.8.32 1.5.752 2.25 1.36.57.466 1.03 1.056 1.39 1.778.29.582.42 1.254.42 2.116 0 .65-.2 1.33-.59 1.993-.39.66-.89 1.23-1.56 1.77-.64.47-1.42.86-2.27 1.15-.97.32-1.89.47-2.74.41-1.05 0-1.92-.17-2.81-.52-.82-.35-1.59-.82-2.16-1.33-.61-.49-1.07-1.08-1.43-1.81-.36-.6-.49-1.24-.49-2.11 0-.65.2-1.33.59-1.99.39-.65.89-1.23 1.56-1.77.64-.46 1.41-.86 2.26-1.14.96-.32 1.88-.46 2.73-.41zm-5.085-12.784c-3.48-.066-6.845.45-9.944 1.5-3.19 1.17-5.95 2.815-8.3 4.94-2.394 2.108-4.267 4.577-5.723 7.537-1.38 2.957-2.14 6.112-2.28 9.41-.07 3.437.51 6.658 1.74 9.574 1.23 2.92 3.02 5.596 5.24 7.874 2.16 2.21 4.81 4.01 7.92 5.41 2.97 1.34 6.26 2.06 9.91 2.2 3.61.07 6.89-.43 9.99-1.57 3.17-1.16 5.93-2.8 8.28-4.93 2.34-2.05 4.23-4.56 5.72-7.52 1.39-2.9 2.16-6.05 2.29-9.42.07-3.35-.5-6.51-1.73-9.5-1.2-2.93-2.96-5.55-5.24-7.88-2.39-2.3-5.02-4.1-7.99-5.41-2.95-1.33-6.23-2.05-9.83-2.19h-.02zm-104.6-36.18l-.113.004c-2.216.088-3.962 1.875-3.874 4.065l6.3 75.093c.09 2.165 1.89 3.898 4.08 3.81l16.28-.328c2.24-.09 3.98-1.876 3.9-4.066l-.59-27.54c-.04-1.856 2.37-2.69 3.51-1.212l6.36 8.162c1.67 2.092 4.85 2.034 6.38-.1l6.16-8.547c1.1-1.525 3.51-.785 3.55 1.083l.6 27.69c.09 2.226 1.89 3.96 4.09 3.87l16.28-.327c2.24-.088 3.98-1.876 3.9-4.066l-1.52-64.18v.024c0-2.12-1.73-3.82-3.93-4.08l-17.85-1.52H82c-1.11.2-2.24.56-2.94 1.53l-10.54 10.2-.1.12c-.805 1.07-2.394 1.1-3.17.07L54.3 228.57c-.8-.83-1.778-1.5-2.988-1.484l.003-.003-22.52-4.273-.114-.02zm144.72 36.403c.746 0 1.435.11 2.136.34.624.2 1.186.52 1.757.96.46.35.84.82 1.11 1.37.3.64.43 1.14.43 1.72l.01.08c.05.61-.05 1.15-.29 1.63-.22.54-.57 1.02-1.07 1.51-.39.39-.92.73-1.62 1.04-.64.29-1.29.43-1.97.43-.74 0-1.43-.11-2.13-.34-.56-.2-1.13-.53-1.69-.96-.45-.35-.83-.82-1.11-1.37-.35-.64-.48-1.13-.48-1.72-.05-.65.05-1.25.29-1.72.31-.61.65-1.1 1.07-1.52.4-.39.93-.73 1.63-1.05.64-.29 1.29-.44 1.97-.44zm4.594-10.55c-2.87-.07-5.506.33-8.16 1.23-2.443.87-4.682 2.22-6.634 3.94-1.912 1.76-3.435 3.77-4.603 6.09-1.196 2.37-1.825 4.89-1.895 7.59-.068 2.66.404 5.23 1.397 7.7.986 2.44 2.393 4.59 4.197 6.38 1.79 1.78 3.936 3.23 6.385 4.34 2.62 1.08 5.25 1.66 8 1.73 2.69.13 5.32-.29 8.03-1.24 2.57-.9 4.81-2.22 6.7-3.96 1.89-1.75 3.42-3.76 4.58-6.08 1.18-2.28 1.82-4.86 1.89-7.59.07-2.61-.41-5.18-1.4-7.64-.99-2.45-2.4-4.6-4.2-6.39-1.85-1.83-3.95-3.27-6.4-4.35-2.47-1.12-5.12-1.73-7.93-1.79zm121.918 5.48c.748 0 1.428.11 2.045.33.608.2 1.08.47 1.715.97.446.39.8.81 1.043 1.3.288.57.423 1.07.423 1.59 0 .62-.12 1.12-.36 1.48l-.097.18c-.2.47-.55.94-.99 1.33-.43.37-1 .72-1.68 1.02-.7.24-1.27.37-1.91.37-.75 0-1.43-.11-2.05-.34-.6-.22-1.16-.55-1.61-.94-.49-.43-.85-.86-1.09-1.34-.29-.57-.43-1.08-.43-1.59 0-.61.11-1.1.35-1.59.31-.62.64-1.08 1.02-1.41.43-.38 1-.72 1.67-1.03.69-.25 1.27-.37 1.91-.37zm-4.48-7.99c-2.826-.07-5.526.34-8.162 1.23-2.44.87-4.68 2.22-6.632 3.94-1.913 1.75-3.435 3.76-4.603 6.08-1.197 2.38-1.825 4.89-1.895 7.59-.07 2.66.403 5.23 1.396 7.7.986 2.44 2.393 4.59 4.198 6.38 1.79 1.78 3.936 3.23 6.385 4.34 2.62 1.08 5.257 1.66 8.006 1.73 2.695.13 5.324-.29 8.037-1.24 2.578-.9 4.816-2.22 6.706-3.96 1.898-1.75 3.42-3.76 4.588-6.08 1.184-2.28 1.825-4.86 1.895-7.6.06-2.61-.41-5.18-1.4-7.64-.99-2.44-2.39-4.59-4.2-6.38-1.85-1.83-3.95-3.27-6.4-4.35-2.47-1.12-5.12-1.73-7.93-1.79z"/>
  <path fill="url(#c)" d="M216.6 266.523c3.757.138 7.25.907 10.438 2.322 3.223 1.43 6.04 3.34 8.456 5.74 2.4 2.454 4.233 5.207 5.51 8.346 1.335 3.28 1.93 6.58 1.796 10.09-.143 3.69-.952 7.03-2.487 10.01-1.53 3.11-3.54 5.77-6.053 8-2.444 2.23-5.386 3.95-8.808 5.2-3.375 1.23-6.882 1.78-10.58 1.64-3.812-.13-7.307-.9-10.503-2.32-3.25-1.44-6.07-3.36-8.4-5.74-2.35-2.4-4.21-5.21-5.51-8.34-1.33-3.19-1.94-6.56-1.8-10.09.14-3.59.94-6.93 2.42-9.94 1.53-3.1 3.54-5.76 6.05-7.99 2.42-2.21 5.36-3.94 8.73-5.19 3.42-1.29 6.92-1.84 10.72-1.7zm6.985 10.287c-1 0-1.935.174-2.81.52-.985.393-1.702.804-2.322 1.36-.523.427-.962 1.003-1.473 1.872-.375.69-.542 1.38-.542 2.22 0 .706.197 1.475.542 2.22.39.72.902 1.36 1.473 1.872.708.575 1.464 1.007 2.267 1.273.947.314 1.898.476 2.865.476 1.002 0 1.936-.174 2.81-.52.986-.393 1.703-.804 2.322-1.36.585-.476 1.104-1.14 1.474-1.872.37-.67.55-1.41.55-2.22 0-.8-.17-1.55-.57-2.27-.32-.69-.8-1.29-1.44-1.81-.7-.57-1.46-1-2.26-1.27-.94-.31-1.89-.47-2.86-.47zm44.035-39.687l-19.68 1.71h.007c-2.21.176-3.834 2.122-3.562 4.28l.99 11.472c.176 2.19 2.05 3.782 4.254 3.607 1.06-.088 2.01.71 2.1 1.78l1.72 19.543c.05.965-.06 1.89-.35 2.752-.4.985-.82 1.748-1.34 2.372-.6.71-1.3 1.27-2.16 1.73-.84.48-1.76.75-2.71.8l-.88.06-.78.06-.14.76-2.85 16.24c-.45 2.56 1.68 4.85 4.26 4.58l2.96-.26c3.88-.35 7.45-1.39 10.71-3.14 3.24-1.75 6-3.98 8.37-6.75 2.31-2.78 4.07-5.93 5.22-9.35 1.22-3.44 1.65-7.13 1.31-11.06l-3.25-37.62c-.18-2.19-2.05-3.78-4.25-3.61zM138.343 267.73c1.045.003 1.914.17 2.806.524.8.32 1.5.752 2.25 1.36.57.466 1.03 1.055 1.39 1.778.29.582.42 1.254.42 2.116 0 .65-.2 1.33-.59 1.993-.39.66-.89 1.23-1.56 1.77-.64.47-1.42.86-2.27 1.15-.97.32-1.89.47-2.74.41-1.05 0-1.92-.17-2.81-.52-.82-.35-1.59-.82-2.16-1.33-.61-.49-1.07-1.08-1.43-1.81-.36-.6-.49-1.24-.49-2.11 0-.65.2-1.33.59-1.99.39-.65.89-1.23 1.56-1.77.64-.46 1.41-.86 2.26-1.14.96-.32 1.88-.46 2.73-.41zm-5.085-12.784c-3.48-.066-6.845.45-9.944 1.5-3.19 1.17-5.95 2.815-8.3 4.94-2.394 2.108-4.267 4.577-5.723 7.537-1.38 2.957-2.14 6.112-2.28 9.41-.07 3.437.51 6.658 1.74 9.574 1.23 2.92 3.02 5.596 5.24 7.874 2.16 2.21 4.81 4.01 7.92 5.41 2.97 1.34 6.26 2.06 9.91 2.2 3.61.07 6.89-.43 9.99-1.57 3.17-1.16 5.93-2.8 8.28-4.93 2.34-2.05 4.23-4.56 5.72-7.52 1.39-2.9 2.16-6.05 2.29-9.42.07-3.35-.5-6.51-1.73-9.5-1.2-2.93-2.96-5.55-5.24-7.88-2.39-2.3-5.02-4.1-7.99-5.41-2.95-1.33-6.23-2.05-9.83-2.19h-.02zm-104.6-36.18l-.113.004c-2.216.088-3.962 1.875-3.874 4.065l6.3 75.093c.09 2.165 1.89 3.898 4.09 3.81l16.28-.328c2.24-.09 3.98-1.876 3.9-4.066l-.59-27.54c-.04-1.856 2.37-2.69 3.51-1.212l6.36 8.162c1.67 2.092 4.85 2.034 6.38-.1l6.16-8.547c1.1-1.525 3.51-.785 3.56 1.083l.6 27.69c.09 2.226 1.89 3.96 4.09 3.87l16.28-.327c2.24-.088 3.98-1.876 3.9-4.066l-1.52-64.18v.024c0-2.12-1.73-3.82-3.92-4.08L82.2 226.6H82c-1.112.2-2.24.56-2.94 1.53l-10.53 10.2-.1.12c-.806 1.07-2.395 1.1-3.173.07l-10.94-13.96c-.8-.83-1.776-1.5-2.986-1.48h.01L28.8 218.8l-.114-.02zm144.72 36.403c.746 0 1.435.11 2.136.34.624.2 1.186.52 1.757.96.46.35.84.82 1.11 1.37.3.64.43 1.14.43 1.72l.01.08c.05.61-.05 1.15-.29 1.63-.22.54-.57 1.02-1.07 1.51-.39.39-.92.73-1.62 1.04-.64.29-1.29.43-1.97.43-.74 0-1.43-.11-2.13-.34-.56-.2-1.13-.53-1.69-.96-.45-.35-.83-.82-1.11-1.37-.35-.64-.48-1.13-.48-1.72-.05-.65.05-1.25.29-1.72.31-.61.65-1.1 1.07-1.52.4-.39.93-.73 1.63-1.05.64-.29 1.29-.44 1.97-.44zm4.594-10.55c-2.87-.07-5.506.33-8.16 1.23-2.443.87-4.682 2.22-6.634 3.94-1.912 1.76-3.435 3.77-4.603 6.09-1.196 2.37-1.825 4.89-1.895 7.59-.068 2.66.404 5.23 1.397 7.7.986 2.44 2.393 4.59 4.197 6.38 1.79 1.78 3.936 3.23 6.385 4.34 2.62 1.08 5.25 1.66 8 1.73 2.69.13 5.32-.29 8.03-1.24 2.57-.9 4.81-2.22 6.7-3.96 1.89-1.75 3.42-3.76 4.58-6.08 1.18-2.28 1.82-4.86 1.89-7.59.07-2.61-.41-5.18-1.4-7.64-.99-2.45-2.4-4.6-4.2-6.39-1.85-1.83-3.95-3.27-6.4-4.35-2.47-1.12-5.12-1.73-7.93-1.79zm121.918 5.48c.748 0 1.428.11 2.045.33.608.2 1.08.47 1.715.97.446.39.8.81 1.043 1.3.288.57.423 1.07.423 1.59 0 .62-.12 1.12-.36 1.48l-.097.18c-.2.47-.55.94-.99 1.33-.43.37-1 .72-1.68 1.02-.7.24-1.27.37-1.91.37-.75 0-1.43-.11-2.05-.34-.6-.22-1.16-.55-1.61-.94-.49-.43-.85-.86-1.09-1.34-.29-.57-.43-1.08-.43-1.59 0-.61.11-1.1.35-1.59.31-.62.64-1.08 1.02-1.41.43-.38 1-.72 1.67-1.03.69-.25 1.27-.37 1.91-.37zm-4.48-7.99c-2.826-.07-5.526.34-8.162 1.23-2.44.87-4.68 2.22-6.632 3.94-1.913 1.75-3.435 3.76-4.603 6.08-1.197 2.38-1.825 4.89-1.895 7.59-.07 2.66.403 5.23 1.396 7.7.986 2.44 2.393 4.59 4.198 6.38 1.79 1.78 3.936 3.23 6.385 4.34 2.62 1.08 5.257 1.66 8.006 1.73 2.695.13 5.324-.29 8.037-1.24 2.578-.9 4.816-2.22 6.706-3.96 1.898-1.75 3.42-3.76 4.588-6.08 1.184-2.28 1.825-4.86 1.895-7.6.06-2.61-.41-5.18-1.4-7.64-.99-2.44-2.39-4.59-4.2-6.38-1.85-1.83-3.95-3.27-6.4-4.35-2.47-1.12-5.12-1.73-7.93-1.79z"/>
  <path fill="url(#d)" d="M102.902 232.2l1.524 64.198c.066 1.644-1.26 2.96-2.915 3.026l-16.29.33c-1.65.064-2.98-1.25-3.04-2.896l-.59-27.69c-.06-2.83-3.71-3.948-5.36-1.646l-6.16 8.55c-1.12 1.58-3.51 1.646-4.77.067l-6.36-8.16c-1.72-2.24-5.36-.99-5.3 1.84l.6 27.56c.07 1.64-1.25 2.96-2.91 3.02l-16.29.33c-1.65.06-2.98-1.25-3.04-2.9l-6.3-75.05c-.06-1.65 1.26-2.96 2.92-3.03l22.52 4.27c.93 0 1.86.39 2.39 1.12l10.93 13.94c1.19 1.58 3.58 1.51 4.77-.07l10.53-10.2c.53-.72 1.39-1.18 2.32-1.25l17.82 1.51c1.66.19 3.05 1.44 3.05 3.09zm75.046 13.42c2.716.065 5.233.657 7.55 1.71 2.386 1.052 4.373 2.433 6.095 4.143 1.722 1.71 3.047 3.75 3.974 6.05.928 2.304 1.39 4.737 1.325 7.237-.066 2.565-.662 5-1.788 7.17-1.126 2.236-2.584 4.143-4.372 5.788-1.788 1.644-3.908 2.894-6.36 3.75-2.45.854-4.966 1.314-7.682 1.183-2.716-.06-5.233-.65-7.617-1.64-2.32-1.05-4.372-2.43-6.094-4.14-1.73-1.71-3.05-3.75-3.98-6.05-.93-2.3-1.39-4.73-1.33-7.3.06-2.56.66-4.93 1.78-7.17 1.12-2.23 2.58-4.14 4.37-5.78 1.78-1.58 3.9-2.89 6.29-3.75 2.51-.85 5.03-1.25 7.81-1.18zm1.855 13.943c0-.79-.2-1.447-.53-2.17-.33-.658-.795-1.25-1.39-1.71-.597-.46-1.26-.855-2.054-1.12-.8-.262-1.59-.393-2.46-.393-.86 0-1.66.197-2.39.526-.73.33-1.39.724-1.92 1.25s-.93 1.118-1.26 1.776c-.33.657-.47 1.447-.4 2.17 0 .79.2 1.447.59 2.17.33.66.79 1.25 1.39 1.71.59.462 1.26.856 1.99 1.12.79.262 1.59.394 2.45.394.86 0 1.65-.197 2.38-.526.73-.33 1.39-.724 1.92-1.25s.99-1.118 1.26-1.776c.33-.658.46-1.38.4-2.17zm115.583-16.444c2.716.06 5.232.65 7.55 1.71 2.385 1.05 4.372 2.43 6.095 4.14 1.73 1.71 3.05 3.75 3.98 6.05.93 2.3 1.39 4.73 1.33 7.23-.06 2.56-.66 5-1.79 7.17-1.12 2.23-2.58 4.14-4.37 5.78-1.79 1.64-3.9 2.89-6.36 3.75-2.45.85-4.96 1.31-7.68 1.18-2.71-.07-5.23-.66-7.61-1.65-2.31-1.05-4.37-2.43-6.09-4.14-1.72-1.71-3.04-3.75-3.97-6.05-.92-2.31-1.39-4.74-1.32-7.31.07-2.57.66-4.94 1.79-7.17 1.13-2.24 2.58-4.15 4.37-5.79 1.79-1.58 3.91-2.9 6.29-3.75 2.52-.86 5.1-1.25 7.82-1.19zm10.73 11.18c0-.73-.2-1.38-.53-2.04-.33-.66-.795-1.19-1.324-1.65-.597-.46-1.193-.86-1.988-1.12-.728-.27-1.523-.4-2.384-.4-.86 0-1.59.19-2.318.46-.73.33-1.39.72-1.92 1.18-.53.46-.93 1.05-1.26 1.71-.33.65-.463 1.31-.463 2.04 0 .72.19 1.38.52 2.04.33.65.79 1.18 1.32 1.64.53.46 1.19.85 1.92 1.11.73.26 1.52.39 2.38.39.86 0 1.59-.2 2.31-.46.73-.33 1.39-.73 1.92-1.19.53-.46.99-1.05 1.26-1.71.39-.59.53-1.32.53-2.04zm-172.876 1.64c3.373.13 6.552.79 9.47 2.1 2.98 1.31 5.494 3.09 7.68 5.19 2.12 2.17 3.842 4.67 5.034 7.56 1.192 2.89 1.722 5.92 1.656 9.08-.132 3.22-.86 6.25-2.185 9.01-1.39 2.76-3.18 5.19-5.498 7.23-2.253 2.04-4.9 3.62-7.95 4.74-3.046 1.12-6.225 1.58-9.603 1.51-3.445-.13-6.624-.79-9.538-2.11-2.916-1.32-5.5-3.03-7.62-5.2-2.12-2.17-3.84-4.74-5.033-7.57-1.192-2.83-1.722-5.92-1.655-9.15.13-3.16.86-6.18 2.184-9.01 1.39-2.83 3.18-5.2 5.498-7.24 2.252-2.04 4.902-3.62 7.948-4.74 2.915-.99 6.16-1.52 9.605-1.45zm12.98 17.56c0-.92-.13-1.78-.53-2.57-.4-.79-.93-1.52-1.66-2.11-.727-.59-1.522-1.12-2.516-1.52-.993-.4-1.987-.6-3.113-.6-1.06-.07-2.12.13-3.11.46-.99.33-1.85.79-2.58 1.32-.73.59-1.32 1.25-1.79 2.03-.46.79-.73 1.64-.73 2.5 0 .92.13 1.77.6 2.56.4.79.93 1.52 1.66 2.11.67.59 1.53 1.12 2.45 1.51 1 .4 1.99.59 3.12.59 1.06.07 2.12-.13 3.12-.46s1.86-.79 2.59-1.31c.73-.59 1.32-1.25 1.79-2.04s.73-1.65.73-2.5zm70.34-5.99c3.577.13 6.955.85 10.07 2.23 3.112 1.38 5.83 3.22 8.146 5.52 2.25 2.3 4.04 4.93 5.298 8.02 1.26 3.09 1.855 6.24 1.722 9.67-.132 3.42-.86 6.64-2.384 9.6-1.457 2.96-3.378 5.52-5.83 7.7-2.383 2.17-5.232 3.81-8.477 5-3.247 1.18-6.625 1.71-10.202 1.57-3.643-.13-7.02-.86-10.134-2.24-3.11-1.38-5.83-3.23-8.08-5.53-2.25-2.3-4.04-5-5.3-8.03-1.26-3.03-1.86-6.25-1.72-9.67.13-3.36.86-6.58 2.32-9.54 1.45-2.96 3.37-5.53 5.82-7.7 2.38-2.17 5.23-3.82 8.41-5 3.31-1.25 6.69-1.78 10.33-1.65zm15.17 15.13c0-.92-.2-1.85-.66-2.7-.4-.86-.996-1.58-1.725-2.17-.73-.6-1.59-1.12-2.583-1.45-.994-.33-2.054-.53-3.18-.53-1.126 0-2.185.19-3.18.59-.993.39-1.854.85-2.582 1.51-.73.59-1.26 1.38-1.72 2.17-.464.85-.663 1.71-.663 2.69 0 .92.265 1.84.663 2.7.466.85 1.06 1.58 1.725 2.17.728.59 1.59 1.12 2.583 1.45.994.33 2.053.52 3.18.52 1.125 0 2.185-.2 3.18-.59.992-.4 1.853-.86 2.582-1.51.73-.6 1.324-1.38 1.72-2.17.465-.86.663-1.78.663-2.7zm16.294-42.82l19.672-1.71c1.655-.13 3.046 1.05 3.178 2.69l3.246 37.62c.33 3.75-.065 7.3-1.26 10.65-1.124 3.35-2.846 6.38-5.032 9.01-2.25 2.63-4.9 4.8-8.08 6.51-3.18 1.71-6.625 2.69-10.334 3.02l-2.98.26c-1.922.19-3.512-1.52-3.18-3.42l2.848-16.25.86-.06c1.127-.07 2.187-.4 3.114-.92.993-.53 1.787-1.19 2.45-1.98.662-.79 1.126-1.71 1.523-2.7.33-.99.46-2.04.4-3.16l-1.73-19.54c-.14-1.64-1.59-2.82-3.18-2.69-1.66.13-3.05-1.05-3.18-2.7l-1-11.51c-.2-1.58.99-3.03 2.65-3.16z"/>
  <path fill="url(#e)" d="M146.354 276.14c.198-.593.33-1.25.33-1.91.067-.985-.132-1.972-.53-2.893-.397-.92-.926-1.71-1.655-2.368-.73-.66-1.53-1.25-2.52-1.65-1-.4-1.99-.66-3.12-.73-1.06-.07-2.12.13-3.12.46s-1.86.85-2.59 1.51c-.73.66-1.33 1.38-1.79 2.23-.47.85-.73 1.84-.73 2.83v.85c-7.22-.92-14.17-2.04-20.93-3.42.26-.6.53-1.25.79-1.85 1.39-2.83 3.24-5.2 5.49-7.24s4.9-3.55 7.95-4.74c2.98-1.12 6.22-1.64 9.67-1.51 3.38.13 6.56.86 9.47 2.17 2.98 1.32 5.5 3.09 7.62 5.26s3.77 4.67 4.97 7.57c.79 1.91 1.26 3.88 1.52 5.92-3.58 0-7.29-.26-10.86-.53zm80.742-6.184c-3.113-1.38-6.49-2.17-10.068-2.302-3.643-.132-7.02.395-10.2 1.58-3.18 1.182-6.028 2.827-8.413 4.997-.794.66-1.457 1.39-2.12 2.18 12.188-.79 23.846-2.23 34.908-4.21-1.325-.85-2.65-1.58-4.107-2.23zm68.886-26.442c-2.716-.066-5.3.33-7.684 1.184-2.384.92-4.504 2.17-6.358 3.75-1.79 1.578-3.312 3.55-4.372 5.788-.86 1.776-1.39 3.617-1.656 5.525 10.664-4.27 19.937-9.2 27.422-14.6-2.318-.98-4.77-1.58-7.352-1.64zm-192.484-11.51c0-1.645-1.39-2.895-3.046-2.895l-17.818-1.52c-.927 0-1.788.46-2.318 1.18l-10.532 10.2c-1.192 1.58-3.51 1.64-4.77.06l-10.862-13.94c-.596-.73-1.457-1.19-2.384-1.12l-22.683-4.1c-3.02 0-3.02 2.44-3.02 4.09v3.94c11.062 18.09 40.407 33.68 78.228 42.04l-.795-37.95zm69.748 45.187c-3.18 0-6.36-.06-9.538-.13-.067-.06-.133-.13-.2-.13-1.72-1.77-3.046-3.75-3.973-6.05-.928-2.3-1.39-4.73-1.26-7.3.067-2.56.663-4.93 1.79-7.17 1.126-2.23 2.583-4.14 4.37-5.79 1.79-1.58 3.91-2.83 6.36-3.75 2.384-.92 4.968-1.31 7.683-1.18 2.716.07 5.233.66 7.55 1.71 2.386 1.05 4.373 2.44 6.095 4.21 1.722 1.71 3.047 3.75 3.974 6.05.928 2.31 1.39 4.74 1.325 7.24-.066 2.57-.662 5-1.788 7.17-.862 1.71-1.92 3.23-3.18 4.61-6.292.33-12.717.53-19.208.53zm-1.79-12.36c.73.33 1.458.53 2.253.53.79 0 1.52-.06 2.25-.39.73-.26 1.32-.66 1.92-1.12.53-.46.99-1.05 1.32-1.71.33-.66.46-1.38.53-2.17 0-.79-.07-1.51-.4-2.17-.27-.66-.67-1.31-1.2-1.77-.53-.52-1.13-.92-1.79-1.25-.73-.33-1.46-.52-2.26-.52s-1.53.07-2.25.4c-.73.27-1.33.66-1.86 1.12-.53.46-1 1.06-1.33 1.71-.33.66-.53 1.38-.53 2.17s.13 1.52.4 2.17c.26.66.66 1.32 1.19 1.78.4.53.99.92 1.72 1.25zm100.018-23.68c-.132-1.64-1.59-2.83-3.18-2.69l-19.67 1.65c-1.657.13-2.85 1.58-2.717 3.16l.994 11.52c.14 1.64 1.59 2.83 3.18 2.7 1.66-.13 3.05 1.05 3.18 2.7l.6 6.91c6.83-1.84 13.25-3.95 19.28-6.25l-1.65-19.66z"/>
</svg>
