<svg xmlns="http://www.w3.org/2000/svg" width="344" height="344" viewBox="0 0 344 344">
  <defs>
    <radialGradient id="a" cx="171.072" cy="171.587" r="144.111" gradientUnits="userSpaceOnUse">
      <stop offset="0" stop-color="#53DCFA"/>
      <stop offset="1" stop-color="#274CCC"/>
    </radialGradient>
    <radialGradient id="b" cx="154.689" cy="171.351" r="171.351" gradientUnits="userSpaceOnUse" gradientTransform="translate(17)">
      <stop offset="0" stop-color="#FFF" stop-opacity=".5"/>
      <stop offset=".328" stop-color="#FFF" stop-opacity=".336"/>
      <stop offset="1" stop-color="#FFF" stop-opacity="0"/>
    </radialGradient>
    <radialGradient id="c" cx="154.397" cy="170.766" r="189.561" gradientUnits="userSpaceOnUse" gradientTransform="translate(17)">
      <stop offset="0"/>
      <stop offset="1" stop-color="#FFF"/>
    </radialGradient>
    <linearGradient id="d" x1="137.582" x2="148.906" y1="102.937" y2="198.414" gradientUnits="userSpaceOnUse" gradientTransform="translate(34.633 35.843)">
      <stop offset="0" stop-color="#FFF" stop-opacity=".72"/>
      <stop offset="1" stop-color="#FFF" stop-opacity="0"/>
    </linearGradient>
    <linearGradient id="e" x1="97.708" x2="147.51" y1="51.595" y2="96.467" gradientUnits="userSpaceOnUse" gradientTransform="translate(34.633 35.843)">
      <stop offset="0" stop-color="#FFF" stop-opacity=".87"/>
      <stop offset="1" stop-color="#FFF" stop-opacity="0"/>
    </linearGradient>
    <linearGradient id="f" x1="175.636" x2="175.636" y1="311.957" y2="212.848" gradientUnits="userSpaceOnUse">
      <stop offset="0" stop-color="#FBE8C4"/>
      <stop offset="1" stop-color="#F7BF32"/>
    </linearGradient>
    <linearGradient id="g" x1="159.636" x2="159.636" y1="28.803" y2="99.381" gradientUnits="userSpaceOnUse" gradientTransform="translate(16 211.577)">
      <stop offset="0" stop-color="#FCEE21"/>
      <stop offset="1" stop-color="#F7931E"/>
    </linearGradient>
    <linearGradient id="h" x1="170.917" x2="167.775" y1="2.395" y2="59.698" gradientUnits="userSpaceOnUse" gradientTransform="translate(16 211.577)">
      <stop offset="0" stop-color="#FFF"/>
      <stop offset="1" stop-color="#FFF" stop-opacity="0"/>
    </linearGradient>
  </defs>
  <path fill="url(#a)" d="M238.467 315.675H105.584c-44.33 0-78.408-36.424-78.615-76.81l-.01-134.173c.06-39.536 31.25-72.54 70.35-76.255 12.99-1.238-21.07-.894 140.68-.894 40.67 0 76.86 33.68 76.96 77.047l.02.045.2 133.092-.01.735c0 40.727-32.44 77.213-76.71 77.213z"/>
  <path fill="url(#b)" d="M171.69 226.272l-10.78 116.43 3.896-116.863L139.518 340l18.513-115.454-39.39 110.092 32.84-112.223L98.59 326.7l46.643-107.222-65.53 96.835 59.717-100.53-77.16 87.857 71.845-92.253-87.56 77.494 82.84-82.52L32.8 272.27l92.53-71.49-104.08 53.29L122 194.74 12.06 234.56l107.4-46.234L5.397 214.05l112.346-32.407L1.353 192.87l115.524-18.07L0 171.35l116.877-3.448-115.523-18.07 116.388 11.228L5.394 128.653l114.063 25.726-107.4-46.24 109.94 39.82-100.76-59.33 104.08 53.28L32.79 70.43l96.582 65.91-82.84-82.52 87.562 77.494L62.25 39.062l77.158 87.857L79.694 26.39l65.537 96.833L98.59 16l52.884 104.287-32.84-112.223 39.397 110.092L139.52 2.702l25.288 114.16L160.91 0l10.78 116.43L182.47 0l-3.897 116.863L203.86 2.703l-18.51 115.452 39.394-110.09-32.837 112.222L244.79 16l-46.64 107.224 65.537-96.834-59.714 100.53 77.16-87.858-71.845 92.253 87.56-77.494-82.838 82.53 96.582-65.91-92.53 71.49 104.08-53.28-100.76 59.33 109.94-39.82-107.4 46.24 114.064-25.73-112.348 32.41 116.388-11.23-115.523 18.07 116.877 3.45-116.88 3.45 115.523 18.07-116.388-11.23 112.348 32.41-114.063-25.73 107.4 46.23-109.94-39.82 100.76 59.33-104.08-53.28 92.527 71.49-96.583-65.91 82.84 82.53-87.562-77.49 71.844 92.26-77.16-87.85 59.715 100.53-65.53-96.83 46.64 107.21-52.88-104.28 32.84 112.23-39.39-110.09 18.5 115.4-25.28-114.16 3.9 116.86z"/>
  <path fill="url(#c)" d="M238.392 315.786H105.508c-44.328 0-78.408-36.425-78.615-76.81l-.008-134.173c.063-39.537 31.256-72.54 70.35-76.256 12.99-1.237-21.07-.894 140.685-.894 40.672 0 76.86 33.68 76.966 77.047l.02.046.2 133.09-.008.736c0 40.727-32.436 77.214-76.706 77.214zm94.45-219.38l-.054.026c-.15-46.86-37.945-85.71-86.197-85.71-123.95 0-235.45-22.073-235.48 85.96l-.2-.094c0 152.563-12.43 201.133 52.82 228.82 21.92 9.3 24.78 7.01 182.87 7.01.9 0 1.78-.11 2.67-.138 44.83-1.368 83.54-38.506 83.54-86.262l-.02-.012.07-149.6z"/>
  <path fill="#FFF" d="M329.106 243.954V97.578c0-11.65-2.37-22.76-6.653-32.867-4.282-10.1-10.478-19.21-18.13-26.87-7.653-7.65-16.762-13.84-26.87-18.13-10.108-4.28-21.216-6.65-32.868-6.65H98.22c-11.652 0-22.76 2.37-32.868 6.65s-19.218 10.48-26.87 18.13c-7.652 7.66-13.848 16.77-18.13 26.87-4.284 10.11-6.654 21.22-6.654 32.87v146.38c0 11.65 2.37 22.76 6.653 32.87 4.29 10.11 10.48 19.22 18.14 26.87 7.65 7.65 16.76 13.85 26.87 18.13 10.11 4.29 21.22 6.66 32.87 6.66h146.36c11.65 0 22.76-2.37 32.87-6.65 10.11-4.28 19.22-10.48 26.87-18.13 7.65-7.65 13.85-16.76 18.13-26.86 4.29-10.11 6.66-21.22 6.66-32.87zM244.586.014c13.45 0 26.27 2.737 37.94 7.68 11.667 4.944 22.18 12.096 31.014 20.93 8.833 8.832 15.985 19.347 20.93 31.014 4.943 11.67 7.677 24.49 7.677 37.94v146.376c0 13.45-2.734 26.272-7.678 37.94-4.95 11.668-12.1 22.182-20.93 31.015-8.84 8.83-19.35 15.98-31.02 20.92-11.67 4.94-24.49 7.68-37.94 7.68H98.22c-13.45 0-26.273-2.74-37.942-7.68-11.67-4.95-22.184-12.1-31.02-20.93-8.833-8.83-15.987-19.35-20.93-31.02-4.945-11.67-7.68-24.49-7.68-37.94V97.58c0-13.45 2.735-26.27 7.68-37.94 4.943-11.667 12.097-22.182 20.93-31.015 8.836-8.833 19.35-15.985 31.02-20.928C71.948 2.75 84.77.015 98.218.015h146.367z"/>
  <path fill="#F00" d="M127.317 64.896c-4.053-5.317-11.616-6.315-16.89-2.23-5.277 4.084-6.268 11.706-2.215 17.023 4.053 5.31 11.615 6.31 16.89 2.23 5.277-4.09 6.268-11.71 2.215-17.03"/>
  <path fill="#4D4D4D" fill-opacity=".68" d="M117.756 60.152c-2.56 0-5.143.82-7.33 2.514-5.276 4.084-6.267 11.706-2.214 17.023 2.372 3.11 5.947 4.74 9.56 4.74 2.562 0 5.144-.82 7.33-2.52 5.278-4.09 6.27-11.71 2.215-17.03-2.372-3.11-5.947-4.75-9.56-4.75m0 .8c3.528 0 6.783 1.61 8.93 4.43 1.832 2.4 2.626 5.38 2.235 8.38-.39 3-1.918 5.67-4.302 7.52-1.984 1.54-4.352 2.35-6.847 2.35-3.53 0-6.785-1.62-8.932-4.43-1.83-2.41-2.62-5.38-2.23-8.39.39-3.01 1.92-5.68 4.3-7.52 1.99-1.54 4.35-2.35 6.85-2.35"/>
  <path fill="#4D4D4D" fill-opacity=".36" d="M117.716 81.754c-4.267 0-7.725-2.952-7.725-6.594 0-3.643 3.46-6.595 7.73-6.595s7.73 2.952 7.73 6.595c0 3.642-3.46 6.594-7.72 6.594"/>
  <path fill="#FFF" d="M117.716 81.754c-4.008 0-7.256-2.773-7.256-6.195s3.248-6.2 7.256-6.2 7.256 2.77 7.256 6.19c0 3.42-3.248 6.19-7.256 6.19"/>
  <path d="M117.124 74.428q.424 0 .73-.25.306-.247.306-.712 0-.354-.244-.61-.244-.255-.658-.255-.28 0-.463.08-.18.08-.287.21-.106.13-.2.33-.095.2-.173.38-.046.1-.166.15-.12.06-.28.06-.19 0-.34-.15-.16-.15-.16-.4 0-.24.14-.5t.42-.5q.27-.23.69-.38.41-.14.92-.14.44 0 .81.12.37.12.64.35.27.23.41.54.14.31.14.66 0 .46-.2.79t-.57.64q.36.2.6.44.25.25.37.55.13.31.13.66 0 .42-.17.81-.17.39-.5.7-.33.31-.78.48-.45.17-.99.17-.56 0-.99-.19-.44-.2-.72-.49-.29-.3-.43-.62-.15-.31-.15-.52 0-.26.17-.43.17-.16.43-.16.13 0 .25.08t.15.18q.24.64.52.95.27.31.77.31.28 0 .55-.14.26-.14.44-.41.17-.28.17-.64 0-.54-.3-.85-.3-.3-.82-.3-.09 0-.29.02-.2.02-.25.02-.26 0-.39-.12-.14-.13-.14-.35 0-.22.16-.36.16-.13.49-.13z"/>
  <path fill="#07DCC6" d="M232.326 31.716c-5.59-7.333-16.02-8.71-23.295-3.077-7.27 5.63-8.64 16.14-3.05 23.47 5.59 7.33 16.02 8.71 23.3 3.07 7.28-5.64 8.64-16.15 3.05-23.48"/>
  <path fill="#4D4D4D" fill-opacity=".68" d="M219.14 25.172c-3.532 0-7.09 1.13-10.11 3.467-7.274 5.63-8.642 16.14-3.052 23.47 3.272 4.29 8.202 6.54 13.186 6.54 3.532 0 7.092-1.13 10.11-3.47 7.276-5.64 8.642-16.15 3.052-23.48-3.272-4.29-8.2-6.55-13.186-6.55m0 1.1c4.868 0 9.357 2.22 12.32 6.11 5.212 6.84 3.933 16.67-2.853 21.93-2.737 2.12-6 3.24-9.443 3.24-4.867 0-9.357-2.23-12.318-6.12-5.214-6.84-3.934-16.68 2.852-21.93 2.735-2.12 6-3.24 9.442-3.24"/>
  <path fill="#4D4D4D" fill-opacity=".36" d="M219.085 54.965c-5.883 0-10.653-4.072-10.653-9.095 0-5.023 4.77-9.095 10.653-9.095 5.883 0 10.653 4.072 10.653 9.095 0 5.023-4.77 9.095-10.653 9.095"/>
  <path fill="#FFF" d="M219.085 54.965c-5.527 0-10.007-3.825-10.007-8.544 0-4.71 4.48-8.54 10.007-8.54 5.527 0 10.007 3.83 10.007 8.55 0 4.72-4.48 8.55-10.007 8.55"/>
  <path d="M216.734 42.42h4.227q.61 0 .89.19.28.192.28.63 0 .266-.32.704-.32.438-.73.968t-.84 1.317q-.43.78-.79 1.92-.15.5-.21.83-.06.33-.14.86-.07.52-.13.8-.13.65-.38.9-.24.25-.65.25-.39 0-.62-.27t-.23-.8q0-.41.18-1.11.17-.7.56-1.67.39-.98.97-2t1.38-2.04h-3.39q-.54 0-.8-.2t-.27-.61q0-.44.28-.57.28-.13.78-.13z"/>
  <path fill="#0086FF" d="M91.55 81.57c-3.594-4.71-10.296-5.597-14.972-1.976-4.676 3.62-5.554 10.375-1.962 15.087 3.592 4.72 10.295 5.6 14.97 1.98 4.676-3.62 5.555-10.37 1.963-15.08"/>
  <path fill="#4D4D4D" fill-opacity=".68" d="M83.075 77.366c-2.27 0-4.558.726-6.497 2.227-4.676 3.62-5.554 10.375-1.96 15.088 2.1 2.76 5.27 4.21 8.472 4.21 2.27 0 4.557-.72 6.496-2.22 4.677-3.62 5.555-10.37 1.962-15.08-2.1-2.75-5.27-4.2-8.473-4.2m0 .71c3.128 0 6.013 1.43 7.916 3.93 1.63 2.13 2.33 4.77 1.98 7.43-.34 2.66-1.7 5.03-3.81 6.67-1.76 1.36-3.85 2.08-6.07 2.08-3.12 0-6.01-1.43-7.91-3.93-1.62-2.12-2.32-4.76-1.98-7.43.35-2.66 1.7-5.02 3.81-6.66 1.76-1.36 3.86-2.08 6.07-2.08"/>
  <path fill="#4D4D4D" fill-opacity=".36" d="M83.04 96.512c-3.78 0-6.847-2.617-6.847-5.845 0-3.228 3.066-5.845 6.846-5.845 3.78 0 6.84 2.617 6.84 5.845 0 3.228-3.07 5.845-6.85 5.845"/>
  <path fill="#FFF" d="M83.04 96.512c-3.553 0-6.432-2.458-6.432-5.49 0-3.033 2.88-5.49 6.43-5.49 3.554 0 6.433 2.457 6.433 5.49 0 3.032-2.87 5.49-6.43 5.49"/>
  <path d="M79.983 93.148h2.13q.317 0 .484.13.168.13.168.355 0 .2-.133.34-.132.138-.402.138h-3.002q-.306 0-.477-.17-.17-.16-.17-.39 0-.14.11-.39.11-.24.24-.38.55-.56.98-.96.44-.4.63-.53.34-.23.56-.47.23-.24.34-.49.12-.25.12-.49 0-.26-.12-.47-.12-.2-.34-.32-.21-.11-.46-.11-.53 0-.84.47-.04.06-.13.34-.09.27-.21.42-.12.15-.35.15-.2 0-.34-.13-.13-.14-.13-.37 0-.28.13-.58.13-.3.38-.55.25-.25.64-.4.39-.15.91-.15.63 0 1.07.2.29.13.51.36.22.23.34.53.12.3.12.62 0 .51-.25.92-.25.42-.51.65-.26.23-.87.74-.61.5-.84.78-.1.11-.2.26zm4.964 0h2.13q.317 0 .485.13.167.13.167.355 0 .2-.14.34-.13.138-.4.138h-3q-.31 0-.48-.17-.17-.16-.17-.39 0-.14.11-.39.11-.24.24-.38.54-.56.98-.96.43-.4.62-.53.33-.23.55-.47.22-.24.34-.49.11-.25.11-.49 0-.26-.13-.47-.13-.2-.34-.32-.21-.11-.47-.11-.54 0-.84.47-.04.06-.14.34-.1.27-.22.42-.12.15-.35.15-.21 0-.34-.13-.14-.14-.14-.37 0-.28.12-.58.12-.3.37-.55.25-.25.63-.4.38-.15.9-.15.62 0 1.06.2.28.13.5.36.22.23.34.53.12.3.12.62 0 .51-.25.92-.26.42-.52.65-.26.23-.88.74-.62.5-.84.78-.1.11-.2.26z"/>
  <path fill="#D100FF" d="M272.542 104.57c-3.44-4.51-9.854-5.358-14.33-1.892-4.476 3.465-5.317 9.93-1.878 14.442 3.44 4.51 9.855 5.358 14.33 1.892 4.476-3.466 5.317-9.93 1.878-14.442"/>
  <path fill="#4D4D4D" fill-opacity=".68" d="M264.43 100.545c-2.172 0-4.362.695-6.218 2.133-4.475 3.465-5.317 9.93-1.878 14.442 2.013 2.64 5.045 4.024 8.11 4.024 2.174 0 4.364-.695 6.22-2.132 4.476-3.465 5.317-9.93 1.88-14.44-2.014-2.64-5.047-4.027-8.113-4.027m0 .68c3 0 5.76 1.37 7.58 3.76 1.56 2.036 2.23 4.562 1.9 7.11-.33 2.548-1.62 4.814-3.65 6.38-1.68 1.302-3.69 1.992-5.81 1.992-2.99 0-5.75-1.37-7.57-3.76-1.55-2.038-2.22-4.564-1.89-7.112.33-2.548 1.63-4.814 3.65-6.38 1.69-1.303 3.69-1.99 5.81-1.99"/>
  <path fill="#4D4D4D" fill-opacity=".36" d="M264.397 118.872c-3.62 0-6.553-2.505-6.553-5.595s2.934-5.595 6.553-5.595c3.62 0 6.553 2.506 6.553 5.595 0 3.09-2.934 5.595-6.553 5.595"/>
  <path fill="#FFF" d="M264.397 118.872c-3.4 0-6.156-2.353-6.156-5.255 0-2.903 2.76-5.256 6.16-5.256s6.16 2.36 6.16 5.26-2.75 5.26-6.15 5.26"/>
  <path d="M262.233 112.794q.36 0 .62-.21.26-.212.26-.606 0-.3-.208-.518-.207-.216-.558-.216-.24 0-.393.066-.154.066-.244.176-.09.11-.17.28-.08.173-.146.325-.04.09-.14.13-.102.05-.235.05-.16 0-.29-.12-.13-.12-.13-.33 0-.2.12-.43.12-.22.36-.42.23-.2.58-.32t.78-.12q.38 0 .69.11.31.11.54.3.23.2.34.45.12.26.12.56 0 .39-.17.67t-.49.55q.3.17.51.38.21.21.31.47t.1.56q0 .36-.14.69-.15.33-.42.59-.28.26-.66.41-.38.15-.84.15-.47 0-.84-.17t-.61-.42q-.24-.25-.37-.52-.12-.27-.12-.44 0-.22.14-.36.15-.14.36-.14.11 0 .21.07.1.07.13.16.2.55.43.81.23.27.65.27.24 0 .47-.12.22-.12.37-.35.14-.23.14-.54 0-.46-.25-.72-.25-.26-.7-.26-.08 0-.24.02-.17.01-.21.01-.22 0-.33-.11-.12-.11-.12-.3t.14-.3q.14-.12.42-.12zm4.32 2.92v-3.553q-.993.77-1.337.77-.164 0-.29-.13-.128-.13-.128-.3 0-.2.125-.29.125-.09.442-.24.472-.22.755-.46.283-.25.502-.55.218-.3.285-.38.066-.07.25-.07.207 0 .332.16.12.16.12.44v4.48q0 .79-.54.79-.24 0-.39-.16-.15-.16-.15-.47z"/>
  <path fill="#FF9700" d="M174.052 39.733c-4.668-6.124-13.378-7.273-19.454-2.57-6.075 4.704-7.217 13.482-2.55 19.605 4.67 6.123 13.378 7.273 19.454 2.57 6.076-4.705 7.217-13.482 2.55-19.605"/>
  <path fill="#4D4D4D" fill-opacity=".68" d="M163.04 34.27c-2.95 0-5.92.942-8.44 2.894-6.077 4.703-7.22 13.48-2.55 19.604 2.73 3.584 6.848 5.464 11.01 5.464 2.95 0 5.923-.944 8.442-2.895 6.076-4.704 7.218-13.48 2.55-19.604-2.733-3.584-6.85-5.464-11.012-5.464m0 .92c4.065 0 7.814 1.86 10.287 5.1 4.354 5.71 3.286 13.92-2.38 18.31-2.286 1.77-5.013 2.7-7.887 2.7-4.064 0-7.814-1.86-10.286-5.11-4.354-5.71-3.286-13.93 2.38-18.32 2.286-1.77 5.013-2.71 7.886-2.71"/>
  <path fill="#4D4D4D" fill-opacity=".36" d="M162.994 59.147c-4.913 0-8.895-3.4-8.895-7.594 0-4.195 3.98-7.595 8.89-7.595s8.89 3.4 8.89 7.595c0 4.194-3.99 7.594-8.9 7.594"/>
  <path fill="#FFF" d="M162.994 59.147c-4.615 0-8.356-3.194-8.356-7.134 0-3.94 3.74-7.135 8.356-7.135s8.357 3.194 8.357 7.135c0 3.94-3.74 7.134-8.35 7.134"/>
  <path d="M164.823 48.965h-2.518l-.302 1.717q.752-.402 1.39-.402.507 0 .95.19.443.19.776.528.33.336.52.798.19.46.19.99 0 .77-.35 1.4-.35.63-1 1.002-.65.37-1.5.37-.95 0-1.54-.35-.59-.35-.84-.802-.25-.453-.25-.792 0-.207.17-.393.17-.18.43-.18.44 0 .66.52.21.48.57.74t.8.26q.41 0 .71-.21t.47-.58q.17-.37.17-.84 0-.51-.18-.87t-.48-.54q-.3-.17-.67-.17-.46 0-.66.11t-.57.39q-.37.28-.61.28-.26 0-.46-.19t-.2-.43q0-.02.06-.36l.45-2.54q.07-.45.27-.66.2-.2.66-.2h2.8q.82 0 .82.63 0 .28-.2.45-.2.17-.59.17z"/>
  <path fill="#0BD310" d="M243.55 81.18c-4.36-5.72-12.495-6.794-18.17-2.4-5.677 4.395-6.743 12.594-2.383 18.314 4.36 5.72 12.497 6.794 18.173 2.4 5.676-4.395 6.742-12.594 2.38-18.314"/>
  <path fill="#4D4D4D" fill-opacity=".68" d="M233.265 76.076c-2.756 0-5.532.882-7.886 2.704-5.68 4.395-6.75 12.594-2.39 18.314 2.55 3.348 6.4 5.104 10.28 5.104 2.75 0 5.53-.882 7.88-2.704 5.67-4.394 6.74-12.594 2.38-18.314-2.55-3.348-6.4-5.104-10.29-5.104m0 .86c3.8 0 7.3 1.738 9.61 4.768 4.07 5.335 3.07 13.01-2.23 17.108-2.14 1.653-4.69 2.526-7.37 2.526-3.8 0-7.3-1.738-9.61-4.768-4.07-5.334-3.07-13.01 2.22-17.108 2.13-1.653 4.68-2.526 7.36-2.526"/>
  <path fill="#4D4D4D" fill-opacity=".36" d="M233.222 99.316c-4.59 0-8.31-3.176-8.31-7.094 0-3.92 3.72-7.095 8.31-7.095s8.31 3.176 8.31 7.095c0 3.918-3.72 7.094-8.31 7.094"/>
  <path fill="#FFF" d="M233.222 99.316c-4.31 0-7.807-2.984-7.807-6.664 0-3.68 3.496-6.665 7.807-6.665 4.31 0 7.807 2.984 7.807 6.665 0 3.68-3.5 6.664-7.81 6.664"/>
  <path d="M229.684 95.02v-4.504q-1.257.965-1.693.965-.2 0-.36-.16-.16-.16-.16-.38 0-.25.16-.37t.56-.3q.6-.28.96-.59t.64-.7q.28-.38.36-.47.09-.09.32-.09.27 0 .42.21.16.2.16.56v5.67q0 1-.68 1-.3 0-.48-.2t-.18-.6zm3.843-4.737q0-.495.27-.934.27-.44.792-.7.52-.27 1.22-.27.58 0 1.03.15.44.15.74.42t.44.61q.14.33.14.72 0 .48-.25.86t-.75.62q.42.16.7.43.27.26.42.61.14.35.14.77 0 .62-.3 1.13-.31.51-.89.79-.59.29-1.38.29-.83 0-1.41-.29-.59-.29-.88-.79-.3-.51-.3-1.13 0-1.34 1.26-1.83-1.02-.48-1.02-1.5zm3.55 3.278q0-.38-.16-.67-.157-.28-.444-.44-.287-.15-.644-.15-.51 0-.85.34-.34.34-.34.94 0 .39.16.68.16.3.44.46.27.16.62.16t.62-.16q.27-.16.43-.46.16-.29.16-.68zm-1.238-4.22q-.47 0-.75.29-.29.29-.29.75 0 .42.29.7.29.28.75.28.23 0 .42-.07.19-.07.32-.2t.21-.31q.07-.18.07-.4 0-.29-.13-.52-.13-.23-.37-.36-.24-.13-.55-.13z"/>
  <path fill="#FFF" d="M265.546 101.618l.445.037c2.09.433 3.92 1.535 5.27 3.18.22.205.13.094.27.33 1.03 1.012 1.65 2.306 1.87 3.72 0 1.724-2.29 2.388-3.16.77-.77-2.652-2.57-4.857-4.98-6.09-.33-.164-.54-.495-.54-.913.19-.79-.02-.395.84-1.034zm-6.837 2.015c-.56-.02-1.52.5-1.08 1.36.56 1.097 1.67.243 1.83-.398.07-.27-.01-.526-.15-.682-.13-.15-.36-.27-.62-.28zm4.16-2.314c-1.02.09-2.54.18-2.66 1.48.12 1.56 2.84.77 3.67-.01.34-.33.41-.68.3-.92-.11-.23-.43-.45-.9-.53l-.42-.04zM234.68 77.7c-1.09.81-.828.31-1.07 1.312 0 .53.26.95.686 1.157 3.048 1.56 5.342 4.36 6.316 7.72 1.107 2.05 4.01 1.2 4.01-.98-.153-1.81-1.14-3.43-2.36-4.72-.185-.3-.073-.16-.345-.42-1.713-2.09-4.027-3.48-6.676-4.03l-.56-.05zm-150.44.827c-.9.667-.68.256-.88 1.08 0 .44.214.783.564.954 2.51 1.29 4.4 3.59 5.202 6.37.912 1.69 3.305 1 3.305-.8-.12-1.48-.94-2.82-1.94-3.88-.15-.25-.06-.13-.28-.34-1.41-1.71-3.31-2.86-5.5-3.32l-.46-.04zm141.766 1.73c-.7-.027-1.922.634-1.363 1.722.718 1.39 2.12.31 2.33-.51.086-.34-.016-.67-.184-.87-.16-.19-.45-.35-.79-.36zm-148.912.375c-.576-.02-1.583.524-1.122 1.42.592 1.147 1.745.254 1.917-.415.07-.28-.01-.547-.15-.71-.13-.156-.37-.283-.65-.293zm4.346-2.418c-1.055.1-2.643.19-2.776 1.55.134 1.634 2.976.808 3.84-.002.363-.34.43-.707.312-.955-.113-.234-.443-.462-.935-.55l-.44-.04zm149.843-.893c-1.283.13-3.21.23-3.372 1.89.17 1.98 3.62.98 4.67 0 .44-.41.53-.85.38-1.15-.14-.28-.54-.56-1.13-.67l-.53-.05zM119.07 61.6c-1.01.753-.767.29-.99 1.22 0 .493.24.88.636 1.076 2.834 1.454 4.966 4.053 5.87 7.18 1.03 1.907 3.73 1.125 3.73-.907-.144-1.68-1.06-3.19-2.194-4.39-.174-.28-.068-.15-.324-.4-1.59-1.94-3.742-3.24-6.203-3.75l-.525-.05zm-8.06 2.376c-.65-.023-1.787.59-1.266 1.6.667 1.298 1.97.29 2.164-.465.08-.31-.014-.62-.17-.8-.15-.17-.418-.31-.727-.33zm4.904-2.727c-1.192.11-2.984.21-3.134 1.75.152 1.84 3.358.91 4.333-.01.41-.39.487-.8.353-1.08-.128-.27-.5-.52-1.056-.62l-.496-.05zm48.64-25.16c-1.164.86-.884.33-1.14 1.4 0 .56.278 1.01.733 1.24 3.262 1.67 5.717 4.66 6.76 8.27 1.184 2.19 4.294 1.29 4.294-1.05 0-2.01-3.06-8.36-10.04-9.82l-.6-.05zm56.763-8.56c-1.047.18-1.646.53-1.73 1.7 0 .68.332 1.21.88 1.48 3.905 2 6.846 5.59 8.093 9.9 1.42 2.62 5.143 1.54 5.143-1.26 0-2.4-3.667-10.01-12.026-11.76l-.36-.08zm-66.044 11.29c-.75-.03-2.06.68-1.46 1.84.77 1.49 2.27.33 2.493-.54.093-.37-.016-.72-.196-.93-.172-.21-.48-.37-.838-.38zm5.646-3.15c-1.38.13-3.44.24-3.61 2.01.17 2.12 3.86 1.05 4.99 0 .47-.44.56-.92.4-1.24-.15-.31-.58-.61-1.22-.72l-.57-.06zm48.91-4.86c-.9-.03-2.47.81-1.75 2.21.92 1.78 2.71.39 2.98-.65.11-.44-.02-.86-.24-1.11-.21-.24-.58-.44-1-.46zm6.76-3.76c-1.65.15-4.12.29-4.33 2.41.21 2.54 4.63 1.25 5.97-.01.56-.53.67-1.1.48-1.49-.18-.37-.69-.73-1.46-.86l-.69-.07z" opacity=".538"/>
  <path d="M208.007 130.253c-20.384 9.965-43.723 11.795-66.782 2.594-.04.548.314 6.38 1.017 8.596 21.584 5.64 52.708 7 64.6-2.598"/>
  <path fill="#FFC96F" d="M43.823 106.294c-2.04 4.73-2.876 4.893 1.41 9.936-.283-2.61-.87-6.307-1.41-9.936zm33.1 17.61c-1.728-2.885-6.172-7.1-12.85-12.193-1.08-.82-.995-5.39-4.78-4.7.22.53.546 1.21.7 1.54.504 1.06 1.748 5.35 2.195 6.34.276.44 3.628 3.61 4.01 4 .288.29.355.74.158 1.1-.224.41-.532.98-7.547-.58-1.32-.29-6.04-4.33-7.22-5.04-1.41-.84-3.12-9.5-3.13-9.58-.15-.92-1.53-6.42-1.54-6.95-.66-1.34-.11-2.7-2.43-2.57.09.92.31 2.71.56 6.57.25.57 2.51 16.89 2.3 17.94.34 3.07-.25 1.21 3.67 5.9 6.01 7.19 2.89 1.6 18.51 12.1 2.27 1.53 3.15 9.62 4.02 13.36l10.25-11.2c-9.69-6.47-2.71-9-6.91-16zm-25.774-27.1c-.58.265-1.64 1.25-2.16 1.622.01.063.4 1.974.59 2.814.78-1.233 1.68-2.183 1.7-2.2.23-.323.13-1.694-.14-2.237"/>
  <path d="M78.432 129.47c-.336-.77-.74-1.23-1.14-1.03-8.85 4.425-18.83 1.085-30.12-11.455.157 1.472.24 2.52.19 2.76.346 3.073-.25 1.213 3.67 5.902 6.015 7.185 2.895 1.6 18.516 12.1 1.27.852 2.102 3.743 2.743 6.78 1.75-2.606 5.07-7.435 6.23-8.417.23-.19.39-.497.5-.872-1.04-2-.61-3.736-.58-5.77" opacity=".1"/>
  <path d="M51.15 96.803c.27.543.372 1.914.14 2.238-.016.02-.914.97-1.7 2.2-.192-.84-.58-2.75-.593-2.81.52-.37 1.575-1.35 2.152-1.62m-5.92 19.43c-4.29-5.04-3.45-5.2-1.41-9.93.54 3.63 1.12 7.33 1.41 9.94m34.88 15.13c.87-6.64-1.7-10.98-14.75-20.97-1.01-2.12-1.95-6.57-7.43-4.93-1.44.44-.27 2.49.39 3.88.12.27.23.48.24.5.17.69 1.73 5.41 1.96 5.87.2.41.83 1.07 2.37 2.57-4.35-.7-3.46-.22-7.87-3.63-1.07-.82-1.92-1.48-2.42-1.79-.64-.95-2.25-7.34-2.36-8.42.21-1.44 1.39-3.15 2.31-4.07 1.11-1.12.74-4.45-.55-5.22-1.16-.69-2.56.53-3.62 1.43-.57-2.2-1.51-3.51-4.92-3.05-1.35.19-.7 1.42-.23 9.25-.27 1.04-2.79 6.28-2.98 7.65-.34 2.49 1.9 5.12 3.7 7.23 1.56 1.83 1.51 1.71 1.58 2.84.17 2.87.92 2.65 4.04 6.37 6.37 7.62 3.89 2.37 18.81 12.39 2.04 2.19 2.69 10.87 3.75 13.74.41 1.14 2.14.51 1.72-.63-1-2.73-1.79-12.84-4.36-14.57-15.62-10.5-12.5-4.92-18.52-12.1-3.92-4.69-3.33-2.83-3.67-5.9.21-1.05-2.05-17.37-2.3-17.94-.25-3.86-.47-5.65-.56-6.57 2.32-.13 1.77 1.23 2.43 2.58 0 .53 1.38 6.03 1.53 6.95.01.08 1.71 8.74 3.13 9.59 1.18.71 5.9 4.75 7.21 5.05 7.01 1.56 7.32 1 7.54.59.19-.36.13-.81-.16-1.1-.38-.38-3.74-3.56-4.01-3.99-.45-.99-1.69-5.28-2.2-6.34-.15-.32-.48-1-.7-1.53 3.79-.69 3.7 3.88 4.79 4.7 6.67 5.09 11.12 9.31 12.85 12.19 4.21 7.03-2.84 9.55 7 16.07.65.44 1.13.85 1.7.28 1.86-1.86-6.26-3.33-5.52-8.89"/>
  <path fill="#FFD6A1" d="M280.622 136.524c-.296.924-.956 2.12-2.276 3.627-4.408 5.03-6.826 9.29-7.186 12.66-.46 4.31-3.393 4.39-6.498 4.47-1.654.05-3.506.1-5.525.65.497 4.15 2.247 13.12 5.74 15.11.896.51 1.858.51 2.946 0 5.452-2.56 8.636-5.6 11.714-8.55 1.875-1.79 3.646-3.49 5.82-4.96 3.222-2.19 6.965-3.69 9.97-4.9 2.588-1.04 4.823-1.94 5.77-2.87.566-.55 1.116-.9 1.648-1.24 1.65-1.05 3.354-2.13 5.435-11.1.26-1.11 1.08-2.77 1.495-3.56-.105-.14-.23-.25-.368-.27-.432-.06-1.15.5-1.423.8-.097.11-.218.18-.35.23l-.206.4-.563 1.08-.594 1.13-.62 1.15-.66 1.14-.74 1.06-.59.74-.41.46-.41.41-.42.38-.21.17c-.08.1-.21.11-.28.02-.07-.09-.06-.24.02-.34l.13-.23.26-.49.25-.52.25-.53.38-.82.52-1.14.57-1.14.56-1.16.55-1.16.54-1.11.11-.22c-.35-.26-.71-.45-.89-.4-.06.02-.22.17-.36.63-.01.04-.03.08-.05.12-.02.08-.03.17-.07.25l-.28.61-.6 1.22-.64 1.21-.68 1.17-.74 1.13-.84 1.05-.94.96-1.02.85-.54.39c-.1.11-.25.11-.33.01-.08-.1-.06-.28.04-.383l.35-.59.66-1.152.62-1.13.6-1.11.61-1.09.58-1.11.55-1.15.53-1.19.13-.12c-.5-.54-.75-.38-.76-.38 0 0-.27-.1-.57.826-.01.04-.03-.04-.04 0l-.01.04-.1.25-.23.55-.26.546-.27.52-.43.73-.62.91-.67.87-.74.81-.82.78-.67.59-.47.4-.242.2c-.08.11-.215.13-.296.04-.08-.08-.09-.237-.01-.346l.15-.32.296-.62.45-.84.59-1.01.58-.89.556-.81.5-.817.34-.63.21-.43.19-.45.12-.32c-.31-.33-.59-.3-.7-.29-.45.057-.91.46-1.02.897-.37 1.39-7.47 11.55-12.68 14.09l.34.11.47.12.71.14.97.11.98.02.99-.05.98-.11.977-.17.95-.21.92-.252.877-.285.83-.3.76-.31.35-.157c.16-.07.27-.02.24.13-.03.15-.18.33-.34.4l-.38.19-.81.377-.87.36-.93.34-.98.32-1.015.28-1.05.23-1.065.17-1.08.11-1.07.03-1.06-.06-.78-.11-.51-.107-.51-.13-.49-.16-.48-.19-.47-.22-.46-.26-.44-.29-.424-.32-.09-.07-.125-.11-.19-.17-.19-.186c-.03-.02-.03-.06-.04-.1-.3-.35-.55-.76-.76-1.22-.7-1.58-.76-3.63-.14-4.77.2-.36.49-.74.83-1.19 1.35-1.75 2.38-3.33 1.34-4.98-.32-.51-.7-.95-1.07-1.32"/>
  <path d="M264.878 173.028c.895.508 1.856.506 2.945-.004 5.45-2.562 8.635-5.606 11.714-8.552 1.875-1.794 3.646-3.487 5.82-4.964 3.223-2.19 6.965-3.695 9.97-4.904 2.588-1.04 4.823-1.94 5.77-2.867.566-.556 1.116-.904 1.648-1.242 1.65-1.047 3.354-2.13 5.436-11.095.06-.254.15-.538.26-.832-.29.1-.78.64-.78.64s-.8 5.28-7.34 10.328c-2.12 1.635-18.59 5.622-35.68 16.867 0 0-1.24 2.7-1.47 4.926.52.74 1.1 1.34 1.73 1.69" opacity=".1"/>
  <path d="M308.18 139.4c-2.08 8.964-3.786 10.048-5.435 11.095-.532.337-1.082.686-1.65 1.242-.945.928-3.18 1.827-5.767 2.866-3.006 1.21-6.748 2.714-9.972 4.904-2.173 1.478-3.944 3.172-5.82 4.965-3.077 2.945-6.26 5.99-11.713 8.55-1.088.513-2.05.515-2.945.006-3.494-1.99-5.244-10.96-5.74-15.104 2.02-.555 3.87-.604 5.524-.648 3.105-.084 6.037-.163 6.497-4.47.36-3.37 2.77-7.63 7.18-12.655 1.32-1.5 1.98-2.7 2.27-3.62.37.37.75.82 1.07 1.32 1.04 1.65 0 3.23-1.34 4.98-.34.45-.64.83-.83 1.18-.63 1.14-.57 3.2.14 4.78.2.46.46.87.75 1.22.01.04.01.07.04.1l.19.19.19.17c.04.04.08.08.12.11l.09.08.42.32.44.29.45.26.47.22.48.19.49.16.5.13.51.1.78.11 1.05.06 1.07-.03 1.07-.11 1.06-.17 1.05-.23 1.02-.28.98-.31.93-.34.87-.36.8-.37.38-.18c.16-.08.31-.25.34-.4.02-.14-.09-.2-.25-.12l-.35.16-.76.31-.83.3-.88.28-.92.25-.95.22-.97.17-.99.11-.99.05-.98-.02-.97-.11-.71-.14-.46-.12-.35-.11c5.21-2.53 12.31-12.69 12.68-14.09.12-.43.58-.84 1.03-.9.1-.01.39-.04.7.29l-.12.32-.19.45-.21.43-.34.63-.5.81-.56.81-.58.89-.6 1.01-.45.84-.3.61-.15.33c-.08.11-.08.27 0 .35.08.09.21.07.29-.04l.25-.21.48-.4.66-.59.82-.78.74-.81.68-.87.62-.91.44-.73.27-.52.26-.55.23-.57.1-.27c.01-.03.01-.06.02-.09s.03.14.04.1c.3-.93.56-.83.56-.83.01 0 .26-.16.76.38l-.13.22-.53 1.14-.55 1.13-.58 1.11-.61 1.09-.6 1.11-.62 1.13-.66 1.15-.34.59c-.1.11-.12.29-.04.39.08.11.22.1.32 0l.55-.39 1.02-.86.94-.955.85-1.05.74-1.13.68-1.17.64-1.206.6-1.22.285-.61c.03-.08.04-.17.06-.25.02-.037.04-.07.05-.11.14-.467.3-.617.37-.63.19-.044.55.14.9.4l-.11.22-.53 1.12-.55 1.156-.56 1.16-.56 1.15-.52 1.14-.38.82-.24.53-.25.52-.26.497-.13.24c-.08.1-.09.25-.01.34.073.09.2.08.28-.02l.214-.17.42-.37.414-.412.41-.45.592-.73.74-1.05.66-1.14.62-1.15.594-1.13.56-1.08.205-.397c.13-.05.26-.12.35-.23.28-.3.99-.86 1.43-.8.14.02.266.13.37.27-.41.8-1.23 2.45-1.49 3.57m3.375-3.97c-.57-1.23-1.39-1.59-1.97-1.68-.92-.14-1.78.33-2.36.76-.63-.52-1.6-1.1-2.59-.88-.31.07-.67.224-1 .57-.55-.5-1.27-.946-2.09-.81-.58.09-1.06.43-1.46 1.03-.5-.31-1.08-.44-1.69-.36-1.18.15-2.26 1.09-2.56 2.224-.19.56-2.38 3.87-5.3 7.22-3.21 3.69-6.03 5.95-7.6 6.09-.38-.12-.67-.33-.92-.57l-.05-.05-.154-.17c-.21-.25-.37-.52-.48-.76-.56-1.25-.476-2.65-.21-3.14.13-.23.395-.58.68-.94 1.21-1.58 3.24-4.21 1.433-7.08-1.16-1.83-2.92-2.99-2.99-3.03-.38-.25-.87-.18-1.17.14-.29.305-.33.76-.11 1.11.12.317-.02 1.58-2.01 3.85-4.66 5.32-7.23 9.92-7.63 13.675-.28 2.59-1.36 2.74-4.72 2.83-1.88.05-4.21.12-6.76.96-.41.14-.67.535-.63.96.05.58 1.43 14.25 6.74 17.27.73.42 1.5.63 2.3.63.75 0 1.53-.19 2.33-.566 5.73-2.69 9.17-5.98 12.21-8.89 1.82-1.74 3.54-3.38 5.58-4.77 3.053-2.08 6.54-3.48 9.62-4.72 2.88-1.16 5.16-2.07 6.37-3.26.43-.42.87-.7 1.344-1 1.96-1.24 3.99-2.53 6.24-12.23.24-1.02 1.2-2.91 1.555-3.55.14-.25.15-.56.03-.83"/>
  <path fill="#FF3E00" d="M267.95 201.398c3.317-11.644 4.093-24.116 2.242-36.078-.434-6.548-4.837-11.077-10.763-8.043-6.48 3.315-29.95 11.147-46.01 11.268-.44.015-.86-.337-.92-.797-.24-1.772-.5-3.51-.76-5.227-17.08 6.52-56.62 9.25-69.81-3.07-.04.02-.06.05-.1.05-.08.02-7.05 1.48-12.01 5.23 6.54 2.41 14.99 6.02 14.76 14.31 0 .06-.01.4-.02.46l.01-.45c-.57-11.94-22.86-13.16-35.45-20.83 17.75 22.32 17.45 39.39 18.46 44.88h-.26c-2.41-26.54-23.79-48.1-24.19-49.01-7.29-5.5-9.88-8.09-17.32-13.43-1.47-1.05-2.73-1.89-4.22-3.13-10.32-8.58-28.02 70.35-4.29 67.63 8.5-.99 24.88-8.25 37.65-7.51l-.23.01c-4.83 1-1.03-.53-24.69 6.27 5.52 4.78 19.08 11.1 29.22 10.72 2.12-.04 17.14 28.96 19.4 51.98 10.4 3.93 19.43 7.02 27.59 9.48-2.02-4.86-6.78-14.16-10.45-25.29-.09-.17.29-.29-.62-.36v-.23c.91.2.56.39.62.59 1.23 2.3 7.53 14.03 12.49 25.96 7.36 2.15 14.14 3.77 20.47 5 10.37-17.5-1.34-38.28-4.9-45.78-.2-.33-.33-.83-.53-.83h.21v-.09c0 .24.23.49.36.76 9.32 15.88 15.45 29.87 6.6 46.25 4.84.9 9.52 1.58 14.18 2.11 3.83-8 8.69-22.86 14.87-30.81.21-.43.58-.86.58-1.31v.49h.36c-.3 0-.59.58-.87.95-8.38 17.18-6.46 16.75-13.25 30.92 9.25.97 18.57 1.33 29.3 1.68-.35-25.13-1.48-43.09-1.48-43.09-2.5-19.03 1.9-46.43-4.52-57.37-.04-.04-.07-.1-.1-.14l-.45-.21c-.25-.02-.77-.02.15-.02v-.06c0-.01.06-.03.04-.05.04-.2.07-.22.07.05.08.14.18.28.26.42 6.89 8.16 4.85 42.73 6.06 55.15 5.48-7.69 7.47-11.11 10.02-15.916.02-.117.07-.22.14-.327 1.15-1.71 1.22-3.02 2.42-3.66 4.33-6.77 10.7-19.58 12.37-27.864-.01-.21-.01.04-.03-.87h.16c-.04.91-.09.66-.13.87.43 8.16-4.76 18.61-9.05 25.88 8.31-5 12.29-10.137 16.24-17.45zM138.236 140.91c3.157 6.94 4.742 13.637 4.503 16.765 11.71 11.942 51.12 9.96 68.72 2.982-1.28-8.33-2.36-16.17-.12-24.457-15.44 13.95-51.1 12.023-73.11 4.71z"/>
  <path fill="#FFF" d="M91.33 174.084l-4.446-8.275-9.045-5.06 6.15-2.14-2.01-7.81 8.25 6.95 7.8.23-1.06 6.43 6.83 7.95-8.91-2.98-3.58 4.68zm52.9 26.733l-1.308-7.434-6.317-3.434 6.032-3.2.673-7.4 5.037 5.46 6.732-1.14-2.92 6.57 3.48 6.69-6.84-1.4-4.58 5.27zm15.448 52.656l6.44-7.214-1.555-9.09 8.003 3.53 7.974-5.19-1.494 9.39 6.484 5.87-8.926 2.27-3.967 8.82-4.023-7.99-8.936-.42zm94.852-95.652l.063 1.11 5.996 3.45-6.51 3.26-1.58 7.48-4.45-5.49-6.97 1.18 3.76-6.65-.23-.56c3.4-1 6.71-2.26 9.92-3.76zm-46.87 61.92l.007-9.88-6.606-5.33 7.64-3.35 2.29-9.56 4.71 7.8 8.02-.57-4.72 8.18 2.67 9.21-7.63-2.75-6.37 6.27zm24.037 34.11l3.78 6.31c-.13 9.36-.148 9.51-.168 9.69l-2.08.25-6.6 2.67.65-6.96-6.07-5.57 7.63-.27 2.84-6.1zm-47.234-101.18l5.51 7.37 11.456 1.02-8.4 5.76c-3.31 0-9.67 1.09-11.75 1.16l-11.02-7.89 9.52.11 4.67-7.51zm9.8 14.15l6.923 6.27-11.835-1.88-8.51 4.31v-7.27c14.41-.95 12.35-1.22 13.43-1.41zM98.51 206.48l1.232-5.877 6.08-1.836 2.035 4.27 5.582 4.04-4.78.597.07 4.903-4.68-5.09-5.54-1.006zm29.84 16.837l3.26-2.22-.352-6.15 3.546 4.96 3.885-.436-1.07 5.29 2.75 5.88-4.21-1.69-2.19 4.07-1.53-6.33-4.1-3.36zm113.488-10.74l-.35 6.15 3.26 2.22-4.103 3.36-1.53 6.334-2.185-4.07-2.216.89-.06-1.52c-.016-.98-.008-.39-.015-1.76l.83-1.78-1.07-5.28 3.88.44 3.54-4.96z"/>
  <path fill="url(#d)" d="M79.57 136.202c7.207 1.056 22.353 17.465 31.022 22.746 5.413 3.298 12.012 4.144 18.06 5.934 4.655-4.107 11.743-5.882 13.183-6.21 8.91 4.888 10.46 12.844 11.83 26.33 1.56-4.606 2.066-19.057.69-19.516 21.11 4.59 37.634 2.993 57.37-4.58 1.62 1.482.533 3.1.612 6.425 15.646-.11 40.543-7.49 47.122-10.86 5.26-2.69 9.54.01 11.28 4.81-.58.41-1.22.74-1.84 1.07-16.92 8.83-26.93 27.54-25.28 34.38.66 2.75 3.12 5.15 5.42 3.51 5.59-3.97 13.85-16.82 14.5-29.21.5 17.21-5.1 31.49-12.12 39.24-6.66 7.35-17.9 19.97-18.29-1.53.85 21.73-13.7 43.5-23.48 64.14 2.25-17.85-3.47-36.57-15.32-50.11.72 12.95.42 25.97-.92 38.87-7.23-26.28-20.66-50.84-38.89-71.11-.75 14.03 1.81 28.22 7.43 41.09-4.7-2.88-8.04-7.88-8.9-13.33.52 18 4.93 35.88 12.83 52.06-23.62-38.66-36.38-92.25-55.76-107.16 7.3 10.74 18.2 28.45 17.13 40.21-4.91-11.75-21.21-12.13-26.6-19.77-5.4-7.64-8.3-16.8-9.79-26.04.34 3.44-14.64-15.28-25.84 32.46-.24 1.02-.42-12.7-.86-11.75 1.12-11.2 10.44-43.19 15.36-42.04"/>
  <path d="M267.95 201.398c-3.96 7.31-7.94 12.562-16.244 17.566 4.293-7.276 9.49-17.597 9.05-25.766-1.663 8.282-8.035 20.854-12.364 27.627-1.207.636-1.27 1.95-2.423 3.653-.08.106-.12.21-.15.328-2.56 4.802-4.54 8.223-10.03 15.915-1.21-12.41.85-46.98-6.05-55.14 6.42 10.94 2.01 38.34 4.51 57.36 0 0 1.13 17.96 1.47 43.08-10.73-.34-20.05-.74-29.3-1.7 6.79-14.17 4.87-13.81 13.24-30.99-6.18 7.96-11.11 22.81-14.94 30.81-4.67-.52-9.34-1.2-14.18-2.1 8.84-16.38 2.72-30.37-6.6-46.24 3.55 7.5 15.31 28.44 4.95 45.94-6.34-1.23-13-2.85-20.37-5-4.96-11.92-11.04-23.66-12.28-25.96 3.66 11.14 8 20.44 10.01 25.29-8.16-2.45-17.19-5.54-27.59-9.47-2.26-23.01-17.28-52.01-19.4-51.97-10.14.38-23.7-5.94-29.22-10.72 23.66-6.8 19.86-5.26 24.69-6.26h.22c-12.76-.73-29.14 6.55-37.64 7.54-23.72 2.72-6.03-76.19 4.29-67.6 1.48 1.24 2.75 2.15 4.21 3.2 7.44 5.34 10.03 7.8 17.32 13.31.4.92 21.77 22.47 24.18 49.02h.26c-1.01-5.49-.71-22.56-18.46-44.88 12.58 7.68 34.88 8.77 35.44 20.71.23-8.29-8.22-11.84-14.76-14.24 4.95-3.75 11.93-5.18 12-5.19.04-.01.06-.02.1-.04 13.18 12.32 52.72 9.59 69.8 3.08.26 1.72.52 3.46.76 5.23.06.46.47.82.91.8 16.06-.12 39.52-7.95 46-11.26 5.93-3.03 10.33 1.5 10.76 8.04 1.85 11.96 1.08 24.44-2.24 36.08m-129.7-60.5c22 7.32 57.67 9.24 73.1-4.71-2.24 8.29-1.15 16.13.13 24.46-17.6 6.98-57.01 8.96-68.73-2.98.24-3.13-1.35-9.82-4.51-16.76M272 165.12c-.51-7.86-6.344-13.1-13.42-9.47-6.07 3.104-28.85 10.682-44.37 11.054-1.705-12.413-4.415-22.48.204-33.914.394-.988-.937-1.75-1.583-.9-13.1 17.17-53.36 14.81-76.06 6.576-.78-.283-1.5.536-1.13 1.275 2.66 5.31 5.53 13.1 5.18 18.12-2.05.5-8.33 2.25-12.83 6-23.82-7.26-20.5-9.83-41.06-24.59-1.43-1.03-2.68-1.92-4.11-3.12-13.81-11.5-32.25 73.97-5.25 70.84 4.26-.49 7.43-1.1 11.06-1.93 5.64 5.04 19.43 11.59 30.23 11.41 6.65 9.98 16.47 32.83 18.08 50.87.03.35.26.73.59.85 35.36 13.41 60.71 19.87 99.16 19.87.4 0 .93-.44.92-1.04-.29-21.86-.67-28.61-1.42-41.77.38-.44.2-.59-.02-1.84 9.64-13.36 8.26-12.96 13.53-21.2 10.71-5.74 15.46-11.71 19.93-19.99.5-.92 5.42-17.6 2.41-37.06"/>
  <path fill="#FF3E00" d="M133.207 117.68c-1.07 2.235-1.148 4.5-.235 6.924 4.538 9.733 26.53 15.656 49.01 13.132 15.453-1.733 27.908-7.252 31.728-14.058 1.428-2.542 1.555-5.11.38-7.636-3.414-6.48-9.983-8.735-16.013-10.548.942 5.54 2.387 10.27 4.506 13.616.276.434.157 1.01-.27 1.3-7.854 5.34-17.79 7.655-27.583 7.655-11.77 0-23.334-3.34-30.84-8.785-.338-.246-.477-.68-.344-1.077 1.28-3.81 2.655-7.5 4.092-11.086-4.256 1.623-11.847 5.167-14.43 10.562zm17.173-12.26c.012.286-.092.562-.303.75-1.584 3.858-3.094 7.843-4.496 11.97 13.2 9.1 38.92 11.452 54.91 1.188-2.11-3.703-3.54-8.73-4.46-14.512-.32-.23-.48-.64-.36-1.04.04-.116.1-.216.17-.306-3.4-23.833 1.35-59.358 2.85-69.456-7.1 6.683-31.83 31.768-48.29 71.405z"/>
  <path fill="url(#e)" d="M158.5 137.366c-12.667-1.91-22.637-6.563-25.527-12.762-.914-2.424-.836-4.69.234-6.925 2.585-5.4 10.176-8.94 14.432-10.57-1.44 3.58-2.82 7.27-4.1 11.08-.13.39 0 .83.34 1.07 4.25 3.08 9.8 5.49 15.96 7-.56 3.72-1.01 7.42-1.35 11.08zm1.65-13.037c-5.577-1.36-10.63-3.48-14.57-6.19 1.403-4.13 2.913-8.12 4.497-11.97.21-.19.315-.47.303-.75 14.334-34.53 34.944-58.01 44.718-67.91-11.16 15.77-20.535 34.28-27.206 54.81-3.488 10.73-6.053 21.46-7.74 32.01z"/>
  <path fill="#FFF" d="M158.575 124.062c-2.15-.79-5.057-1.907-6.885-2.334l-5.6-6.125 9.278 1.31 5.736-4.822 2.317 6.83 7.58 1.68-8.96 3.71c.21.02.42.03.63.05v5.92l-6.93-3.5-9.64 1.54 5.64-5.1c.76.14-.39.32 6.84.87zm27.317-57.28l4.47 4.843 4.188-.707v3.722l-.803 1.81.803 1.54v3.932l-3.78-.77-4.062 4.68-1.16-6.6-5.608-3.048 5.355-2.838.597-6.565z"/>
  <path d="M213.71 123.68c-3.82 6.805-16.276 12.323-31.73 14.057-22.477 2.523-44.47-3.4-49.008-13.133-.913-2.424-.836-4.69.235-6.925 2.585-5.4 10.176-8.94 14.432-10.57-1.44 3.58-2.82 7.27-4.1 11.08-.13.39 0 .83.34 1.07 7.5 5.44 19.07 8.78 30.84 8.78 9.79 0 19.73-2.32 27.58-7.66.42-.29.54-.87.27-1.3-2.12-3.35-3.57-8.08-4.51-13.62 6.03 1.81 12.59 4.07 16.01 10.55 1.17 2.52 1.05 5.09-.38 7.63M198.66 34c-1.495 10.1-6.246 45.624-2.845 69.457-.07.09-.13.19-.16.306-.12.4.04.81.363 1.04.92 5.785 2.347 10.81 4.463 14.514-16 10.266-41.71 7.915-54.91-1.186 1.41-4.12 2.92-8.11 4.5-11.97.21-.18.32-.46.31-.75 16.46-39.63 41.19-64.72 48.29-71.4m17.13 81.18c-3.96-7.54-11.74-9.91-18.04-11.79-3.89-27.21 3.13-71.21 3.21-71.75.07-.39-.12-.79-.47-.98-.34-.19-.78-.15-1.08.11-.34.29-31.31 27.05-50.79 73.97-3.78 1.3-13.86 5.31-17.12 12.12-1.29 2.7-1.39 5.53-.27 8.49 4.15 8.91 21.27 14.87 40.56 14.87 3.43 0 6.92-.19 10.42-.58 16.29-1.83 29.01-7.58 33.18-15.02 1.72-3.06 1.88-6.31.42-9.42"/>
  <path fill="#FF3E00" d="M220.21 322.018c-4.834-.132-9.404-1.184-13.644-3.092-4.172-1.842-7.882-4.407-10.995-7.564-3.11-3.157-5.49-6.84-7.22-10.985-1.65-4.012-2.45-8.222-2.45-12.694-.92.065-1.85.13-2.78.13h-1.06c-3.97-.13-7.68-.986-11.13-2.498-.92 1.052-1.39 2.302-2.05 3.552-1.92 3.815-4.5 7.235-7.61 10.063-3.18 2.83-6.89 5.065-11.06 6.578-3.77 1.38-7.75 2.04-11.92 2.04h-1.26c-4.63-.133-9-1.12-13.04-2.96-2.32-1.053-4.5-2.303-6.49-3.75-.19.197-.33.394-.53.592-1.72 1.776-4.1 2.828-6.62 2.894 0 0-22.32.395-22.39.395-5.17 0-9.34-4.08-9.47-9.21l-.26-12.63c-1.39.79-2.98 1.25-4.63 1.25s-3.04-.33-4.37-.99l.27 12.49c.06 2.5-.93 4.93-2.65 6.71-1.72 1.77-4.11 2.83-6.63 2.89 0 0-22.32.39-22.39.39-5.16 0-9.34-4.08-9.47-9.21L22.2 215.5c-.065-2.5.93-4.94 2.65-6.71 1.72-1.78 4.107-2.83 6.624-2.9 0 0 27.09 4.27 27.154 4.27 2.918 0 5.7 1.31 7.488 3.613l6.49 8.35 6.29-4.41c1.726-2.37 4.508-3.815 7.488-3.88 0 0 22.32 1.446 22.386 1.446 5.17 0 9.34 4.07 9.47 9.21l.53 23.42c2.252-1.52 4.636-2.7 7.286-3.69 3.774-1.45 7.815-2.11 12.054-2.11h1.26c4.57.13 9.01 1.18 13.05 3.02 1.59.72 3.114 1.58 4.57 2.5 1.657-3.22 3.777-6.05 6.426-8.35 2.65-2.37 5.83-4.21 9.274-5.53 3.244-1.18 6.69-1.84 10.265-1.84H184c3.91.14 7.683.99 11.127 2.57 3.445 1.51 6.425 3.62 8.942 6.18 2.58 2.56 4.57 5.66 5.96 9.08.73 1.77 1.26 3.61 1.59 5.46 3.04-.86 6.29-1.25 9.6-1.25h1.32c4.76.13 9.4 1.18 13.64 3.15 4.17 1.91 7.35 3.96 6.62-2.83l-1.46-17.43c-.2-2.5.59-4.93 2.18-6.84 1.59-1.91 3.91-3.09 6.42-3.29l25.57-2.1c5.69-.07 9.8 3.62 10.2 8.55l.06.46c1.32-.72 2.78-1.38 4.24-1.97 3.24-1.19 6.69-1.84 10.26-1.84h1.06c3.91.13 7.68.98 11.13 2.56 3.44 1.52 6.42 3.62 8.94 6.19 2.58 2.56 4.57 5.66 5.96 9.08 1.46 3.55 2.12 7.3 1.99 11.11-.13 3.95-1.06 7.63-2.78 11.05-1.66 3.29-3.84 6.19-6.56 8.55-2.71 2.44-5.89 4.34-9.47 5.59-3.25 1.19-6.62 1.78-10.13 1.78h-1.06c-3.77-.13-7.41-.92-10.79-2.37-.33 1.64-.73 3.22-1.26 4.8-1.53 4.47-3.85 8.55-6.83 12.03-2.98 3.49-6.62 6.45-10.79 8.68-4.31 2.31-9.01 3.69-14.11 4.15l-6.82.59c-1.73 0-2.65-.13-3.51-.4-3.32 2.89-7.16 5.19-11.46 6.77-3.78 1.25-7.95 1.98-12.26 1.98h-1.32z"/>
  <path fill="none" stroke="#000" stroke-width="2" d="M220.21 322.018c-4.834-.132-9.404-1.184-13.644-3.092-4.172-1.842-7.882-4.407-10.995-7.564-3.11-3.157-5.49-6.84-7.22-10.985-1.65-4.012-2.45-8.222-2.45-12.694-.92.065-1.85.13-2.78.13h-1.06c-3.97-.13-7.68-.986-11.13-2.498-.92 1.052-1.39 2.302-2.05 3.552-1.92 3.815-4.5 7.235-7.61 10.063-3.18 2.83-6.89 5.065-11.06 6.578-3.77 1.38-7.75 2.04-11.92 2.04h-1.26c-4.63-.133-9-1.12-13.04-2.96-2.32-1.053-4.5-2.303-6.49-3.75-.19.197-.33.394-.53.592-1.72 1.776-4.1 2.828-6.62 2.894 0 0-22.32.395-22.39.395-5.17 0-9.34-4.08-9.47-9.21l-.26-12.63c-1.39.79-2.98 1.25-4.63 1.25s-3.04-.33-4.37-.99l.27 12.49c.06 2.5-.93 4.93-2.65 6.71-1.72 1.77-4.11 2.83-6.63 2.89 0 0-22.32.39-22.39.39-5.16 0-9.34-4.08-9.47-9.21L22.2 215.5c-.065-2.5.93-4.94 2.65-6.71 1.72-1.78 4.107-2.83 6.624-2.9 0 0 27.09 4.27 27.154 4.27 2.918 0 5.7 1.31 7.488 3.613l6.49 8.35 6.29-4.41c1.726-2.37 4.508-3.815 7.488-3.88 0 0 22.32 1.446 22.386 1.446 5.17 0 9.34 4.07 9.47 9.21l.53 23.42c2.252-1.52 4.636-2.7 7.286-3.69 3.774-1.45 7.815-2.11 12.054-2.11h1.26c4.57.13 9.01 1.18 13.05 3.02 1.59.72 3.114 1.58 4.57 2.5 1.657-3.22 3.777-6.05 6.426-8.35 2.65-2.37 5.83-4.21 9.274-5.53 3.244-1.18 6.69-1.84 10.265-1.84H184c3.91.14 7.683.99 11.127 2.57 3.445 1.51 6.425 3.62 8.942 6.18 2.58 2.56 4.57 5.66 5.96 9.08.73 1.77 1.26 3.61 1.59 5.46 3.04-.86 6.29-1.25 9.6-1.25h1.32c4.76.13 9.4 1.18 13.64 3.15 4.17 1.91 7.35 3.96 6.62-2.83l-1.46-17.43c-.2-2.5.59-4.93 2.18-6.84 1.59-1.91 3.91-3.09 6.42-3.29l25.57-2.1c5.69-.07 9.8 3.62 10.2 8.55l.06.46c1.32-.72 2.78-1.38 4.24-1.97 3.24-1.19 6.69-1.84 10.26-1.84h1.06c3.91.13 7.68.98 11.13 2.56 3.44 1.52 6.42 3.62 8.94 6.19 2.58 2.56 4.57 5.66 5.96 9.08 1.46 3.55 2.12 7.3 1.99 11.11-.13 3.95-1.06 7.63-2.78 11.05-1.66 3.29-3.84 6.19-6.56 8.55-2.71 2.44-5.89 4.34-9.47 5.59-3.25 1.19-6.62 1.78-10.13 1.78h-1.06c-3.77-.13-7.41-.92-10.79-2.37-.33 1.64-.73 3.22-1.26 4.8-1.53 4.47-3.85 8.55-6.83 12.03-2.98 3.49-6.62 6.45-10.79 8.68-4.31 2.31-9.01 3.69-14.11 4.15l-6.82.59c-1.73 0-2.65-.13-3.51-.4-3.32 2.89-7.16 5.19-11.46 6.77-3.78 1.25-7.95 1.98-12.26 1.98h-1.32z"/>
  <path fill="none" stroke="#000" stroke-width="1.53" d="M220.21 322.018c-4.834-.132-9.404-1.184-13.644-3.092-4.172-1.842-7.882-4.407-10.995-7.564-3.11-3.157-5.49-6.84-7.22-10.985-1.65-4.012-2.45-8.222-2.45-12.694-.92.065-1.85.13-2.78.13h-1.06c-3.97-.13-7.68-.986-11.13-2.498-.92 1.052-1.39 2.302-2.05 3.552-1.92 3.815-4.5 7.235-7.61 10.063-3.18 2.83-6.89 5.065-11.06 6.578-3.77 1.38-7.75 2.04-11.92 2.04h-1.26c-4.63-.133-9-1.12-13.04-2.96-2.32-1.053-4.5-2.303-6.49-3.75-.19.197-.33.394-.53.592-1.72 1.776-4.1 2.828-6.62 2.894 0 0-22.32.395-22.39.395-5.17 0-9.34-4.08-9.47-9.21l-.26-12.63c-1.39.79-2.98 1.25-4.63 1.25s-3.04-.33-4.37-.99l.27 12.49c.06 2.5-.93 4.93-2.65 6.71-1.72 1.77-4.11 2.83-6.63 2.89 0 0-22.32.39-22.39.39-5.16 0-9.34-4.08-9.47-9.21L22.2 215.5c-.065-2.5.93-4.94 2.65-6.71 1.72-1.78 4.107-2.83 6.624-2.9 0 0 27.09 4.27 27.154 4.27 2.918 0 5.7 1.31 7.488 3.613l6.49 8.35 6.29-4.41c1.726-2.37 4.508-3.815 7.488-3.88 0 0 22.32 1.446 22.386 1.446 5.17 0 9.34 4.07 9.47 9.21l.53 23.42c2.252-1.52 4.636-2.7 7.286-3.69 3.774-1.45 7.815-2.11 12.054-2.11h1.26c4.57.13 9.01 1.18 13.05 3.02 1.59.72 3.114 1.58 4.57 2.5 1.657-3.22 3.777-6.05 6.426-8.35 2.65-2.37 5.83-4.21 9.274-5.53 3.244-1.18 6.69-1.84 10.265-1.84H184c3.91.14 7.683.99 11.127 2.57 3.445 1.51 6.425 3.62 8.942 6.18 2.58 2.56 4.57 5.66 5.96 9.08.73 1.77 1.26 3.61 1.59 5.46 3.04-.86 6.29-1.25 9.6-1.25h1.32c4.76.13 9.4 1.18 13.64 3.15 4.17 1.91 7.35 3.96 6.62-2.83l-1.46-17.43c-.2-2.5.59-4.93 2.18-6.84 1.59-1.91 3.91-3.09 6.42-3.29l25.57-2.1c5.69-.07 9.8 3.62 10.2 8.55l.06.46c1.32-.72 2.78-1.38 4.24-1.97 3.24-1.19 6.69-1.84 10.26-1.84h1.06c3.91.13 7.68.98 11.13 2.56 3.44 1.52 6.42 3.62 8.94 6.19 2.58 2.56 4.57 5.66 5.96 9.08 1.46 3.55 2.12 7.3 1.99 11.11-.13 3.95-1.06 7.63-2.78 11.05-1.66 3.29-3.84 6.19-6.56 8.55-2.71 2.44-5.89 4.34-9.47 5.59-3.25 1.19-6.62 1.78-10.13 1.78h-1.06c-3.77-.13-7.41-.92-10.79-2.37-.33 1.64-.73 3.22-1.26 4.8-1.53 4.47-3.85 8.55-6.83 12.03-2.98 3.49-6.62 6.45-10.79 8.68-4.31 2.31-9.01 3.69-14.11 4.15l-6.82.59c-1.73 0-2.65-.13-3.51-.4-3.32 2.89-7.16 5.19-11.46 6.77-3.78 1.25-7.95 1.98-12.26 1.98h-1.32z"/>
  <path fill="#81010F" d="M222.235 264.606c3.755.14 7.25.907 10.437 2.322 3.223 1.43 6.04 3.34 8.456 5.74 2.4 2.455 4.232 5.208 5.51 8.347 1.335 3.278 1.93 6.578 1.796 10.085-.143 3.692-.952 7.025-2.487 10.006-1.53 3.106-3.54 5.767-6.053 7.993-2.444 2.22-5.386 3.95-8.81 5.19-3.373 1.23-6.88 1.77-10.578 1.64-3.812-.14-7.307-.91-10.503-2.33-3.25-1.44-6.065-3.36-8.39-5.74-2.35-2.4-4.205-5.21-5.508-8.34-1.33-3.2-1.935-6.57-1.798-10.09.142-3.6.94-6.93 2.42-9.94 1.53-3.11 3.54-5.77 6.053-8 2.427-2.21 5.36-3.94 8.732-5.2 3.418-1.29 6.926-1.85 10.722-1.71zm6.984 10.287c-1.01 0-1.94.174-2.81.522-.99.39-1.71.802-2.33 1.36-.53.425-.96 1.002-1.48 1.87-.38.692-.54 1.38-.54 2.22 0 .707.19 1.475.54 2.22.39.72.9 1.36 1.47 1.872.71.575 1.46 1.008 2.26 1.274.94.32 1.9.48 2.86.48 1 0 1.93-.17 2.81-.52.98-.39 1.7-.8 2.32-1.36.58-.47 1.1-1.14 1.47-1.87.36-.67.54-1.42.54-2.22 0-.8-.18-1.55-.57-2.27-.32-.69-.81-1.3-1.45-1.81-.71-.57-1.47-1.01-2.27-1.27-.95-.31-1.9-.48-2.87-.48zm44.03-39.686l-19.68 1.71h.01c-2.21.176-3.84 2.12-3.56 4.28l.98 11.47c.17 2.192 2.05 3.784 4.25 3.61 1.06-.09 2.01.708 2.1 1.78l1.72 19.542c.05.96-.06 1.88-.35 2.75-.4.98-.82 1.74-1.34 2.37-.6.71-1.3 1.28-2.16 1.73-.84.47-1.76.75-2.71.8l-.88.06-.77.06-.14.76-2.85 16.24c-.45 2.56 1.68 4.85 4.26 4.58l2.97-.26c3.88-.35 7.45-1.39 10.72-3.15 3.24-1.74 5.99-3.98 8.36-6.74 2.31-2.78 4.08-5.93 5.22-9.35 1.23-3.44 1.66-7.13 1.31-11.06l-3.24-37.62c-.18-2.19-2.05-3.79-4.26-3.61zm-129.28 30.607c1.04.002 1.91.17 2.8.524.8.32 1.51.752 2.25 1.36.57.466 1.03 1.055 1.39 1.778.29.58.42 1.254.42 2.115 0 .65-.2 1.34-.59 2-.39.66-.89 1.23-1.56 1.77-.64.46-1.42.86-2.27 1.14-.97.32-1.89.47-2.74.41-1.05 0-1.92-.17-2.81-.52-.82-.35-1.59-.82-2.16-1.33-.61-.49-1.07-1.08-1.43-1.81-.35-.6-.49-1.24-.49-2.11 0-.65.2-1.33.59-1.99.39-.65.89-1.23 1.56-1.77.64-.46 1.41-.86 2.26-1.14.97-.32 1.88-.46 2.74-.41zm-5.09-12.785c-3.48-.07-6.85.45-9.95 1.5-3.19 1.17-5.95 2.81-8.3 4.94-2.4 2.1-4.27 4.57-5.73 7.53-1.39 2.96-2.15 6.11-2.29 9.41-.07 3.44.5 6.66 1.73 9.57 1.23 2.92 3.01 5.59 5.24 7.87 2.15 2.2 4.81 4 7.92 5.41 2.97 1.34 6.25 2.05 9.91 2.19 3.6.07 6.89-.44 9.98-1.58 3.17-1.17 5.93-2.81 8.28-4.94 2.34-2.06 4.22-4.57 5.72-7.53 1.38-2.9 2.15-6.06 2.29-9.42.07-3.36-.5-6.51-1.73-9.5-1.21-2.93-2.97-5.55-5.25-7.88-2.39-2.31-5.02-4.1-7.99-5.42-2.95-1.34-6.24-2.05-9.84-2.19h-.02zm-104.6-36.19h-.12c-2.22.09-3.97 1.87-3.88 4.06l6.31 75.1c.08 2.16 1.88 3.9 4.08 3.81l16.27-.33c2.24-.09 3.98-1.88 3.89-4.07l-.59-27.54c-.05-1.86 2.37-2.69 3.5-1.21l6.36 8.16c1.67 2.09 4.85 2.03 6.38-.1l6.16-8.55c1.09-1.53 3.51-.79 3.55 1.08l.59 27.69c.09 2.22 1.89 3.96 4.08 3.87l16.28-.33c2.23-.09 3.98-1.88 3.89-4.07l-1.53-64.18v.02c0-2.12-1.73-3.82-3.93-4.08l-17.85-1.51h-.15c-1.11.2-2.24.56-2.94 1.53l-10.53 10.2-.11.11c-.81 1.07-2.4 1.1-3.18.06l-10.94-13.95c-.8-.84-1.77-1.5-2.98-1.49v-.01l-22.52-4.28-.11-.03zM179 253.24c.747 0 1.436.112 2.137.344.624.207 1.186.52 1.757.96.458.353.833.82 1.11 1.37.293.64.423 1.146.423 1.72l.005.083c.05.61-.05 1.147-.296 1.637-.22.54-.57 1.02-1.07 1.518-.4.396-.928.73-1.63 1.05-.64.29-1.293.438-1.972.438-.748 0-1.437-.112-2.14-.345-.56-.2-1.132-.527-1.69-.96-.46-.35-.833-.82-1.11-1.37-.35-.637-.49-1.13-.49-1.72-.054-.646.053-1.246.29-1.72.308-.61.65-1.096 1.07-1.515.398-.396.928-.733 1.63-1.05.638-.288 1.293-.437 1.97-.437zm4.595-10.55c-2.87-.068-5.506.334-8.16 1.236-2.443.875-4.68 2.223-6.634 3.946-1.91 1.757-3.43 3.767-4.6 6.087-1.19 2.38-1.82 4.89-1.89 7.59-.07 2.66.41 5.23 1.4 7.7.99 2.45 2.4 4.59 4.2 6.38 1.79 1.78 3.94 3.23 6.39 4.34 2.62 1.08 5.26 1.66 8.01 1.73 2.7.13 5.32-.29 8.04-1.24 2.58-.9 4.82-2.22 6.71-3.96 1.9-1.74 3.42-3.75 4.59-6.07 1.19-2.28 1.83-4.86 1.9-7.6.07-2.61-.41-5.18-1.4-7.64-.98-2.45-2.39-4.59-4.2-6.39-1.84-1.84-3.94-3.27-6.39-4.35-2.47-1.12-5.12-1.73-7.93-1.8zm121.92 5.485c.746 0 1.426.113 2.043.336.606.2 1.08.48 1.714.97.446.39.8.82 1.043 1.3.29.58.424 1.08.424 1.59 0 .63-.12 1.13-.36 1.49l-.1.18c-.19.47-.54.94-.99 1.33-.43.37-1 .72-1.68 1.03-.7.25-1.27.38-1.91.38-.75 0-1.43-.11-2.05-.33-.6-.21-1.16-.54-1.61-.93-.49-.42-.85-.85-1.09-1.34-.29-.57-.43-1.07-.43-1.58 0-.6.11-1.1.35-1.59.31-.61.64-1.07 1.02-1.4.43-.37 1-.72 1.67-1.03.69-.24 1.27-.37 1.91-.37zm-4.48-7.985c-2.828-.066-5.53.344-8.164 1.24-2.44.873-4.68 2.222-6.63 3.944-1.91 1.76-3.43 3.77-4.6 6.09-1.19 2.376-1.82 4.89-1.89 7.593-.07 2.663.41 5.234 1.4 7.7.99 2.447 2.4 4.595 4.2 6.387 1.79 1.78 3.94 3.234 6.39 4.346 2.62 1.086 5.26 1.668 8.01 1.734 2.7.13 5.33-.29 8.04-1.24 2.58-.895 4.82-2.215 6.71-3.953 1.9-1.74 3.42-3.75 4.59-6.07 1.18-2.28 1.82-4.86 1.9-7.59.07-2.61-.4-5.18-1.39-7.64-.98-2.44-2.39-4.59-4.19-6.38-1.84-1.83-3.94-3.26-6.39-4.35-2.46-1.12-5.12-1.72-7.93-1.79z"/>
  <path fill="url(#f)" d="M222.235 260.606c3.755.14 7.25.908 10.437 2.322 3.223 1.43 6.04 3.34 8.456 5.74 2.4 2.455 4.232 5.208 5.51 8.347 1.335 3.278 1.93 6.58 1.796 10.085-.143 3.692-.952 7.025-2.487 10.006-1.53 3.106-3.54 5.767-6.053 7.994-2.444 2.224-5.386 3.95-8.81 5.198-3.373 1.23-6.88 1.775-10.578 1.64-3.812-.14-7.307-.904-10.503-2.323-3.25-1.442-6.065-3.362-8.39-5.74-2.35-2.402-4.205-5.208-5.508-8.34-1.33-3.194-1.935-6.564-1.798-10.092.142-3.593.94-6.93 2.42-9.94 1.53-3.106 3.54-5.767 6.053-7.993 2.427-2.21 5.36-3.94 8.732-5.195 3.418-1.29 6.926-1.846 10.722-1.71zm6.984 10.287c-1.01 0-1.94.174-2.81.522-.99.39-1.71.802-2.33 1.36-.53.425-.96 1.002-1.48 1.87-.38.692-.54 1.38-.54 2.22 0 .707.19 1.475.54 2.22.39.72.9 1.36 1.47 1.872.71.575 1.46 1.008 2.26 1.274.94.32 1.9.48 2.86.48 1 0 1.93-.17 2.81-.52.98-.39 1.7-.8 2.32-1.36.58-.47 1.1-1.14 1.47-1.87.36-.67.54-1.42.54-2.22 0-.8-.18-1.55-.57-2.27-.32-.69-.81-1.3-1.45-1.81-.71-.57-1.47-1.01-2.27-1.27-.95-.31-1.9-.48-2.87-.48zm44.03-39.686l-19.68 1.71h.01c-2.21.176-3.84 2.12-3.56 4.28l.98 11.47c.17 2.192 2.05 3.784 4.25 3.61 1.06-.09 2.01.708 2.1 1.78l1.72 19.542c.05.96-.06 1.88-.35 2.75-.4.98-.82 1.74-1.34 2.37-.6.71-1.3 1.28-2.16 1.73-.84.47-1.76.75-2.71.8l-.88.06-.77.06-.14.76-2.85 16.24c-.45 2.56 1.68 4.85 4.26 4.58l2.97-.26c3.88-.35 7.45-1.39 10.72-3.14 3.24-1.75 5.99-3.98 8.36-6.75 2.31-2.78 4.08-5.93 5.22-9.35 1.23-3.44 1.66-7.13 1.31-11.06l-3.24-37.62c-.18-2.19-2.05-3.79-4.26-3.61zm-129.28 30.607c1.04.002 1.91.17 2.8.524.8.32 1.51.752 2.25 1.36.57.466 1.03 1.055 1.39 1.778.29.58.42 1.254.42 2.115 0 .65-.2 1.34-.59 2-.39.66-.89 1.23-1.56 1.77-.64.46-1.42.86-2.27 1.14-.97.32-1.89.47-2.74.41-1.05 0-1.92-.17-2.81-.52-.82-.35-1.59-.82-2.16-1.33-.61-.49-1.07-1.08-1.43-1.81-.35-.6-.49-1.24-.49-2.11 0-.65.2-1.33.59-1.99.39-.65.89-1.23 1.56-1.77.64-.46 1.41-.86 2.26-1.14.97-.32 1.88-.46 2.74-.41zm-5.09-12.785c-3.48-.07-6.85.45-9.95 1.5-3.19 1.17-5.95 2.81-8.3 4.94-2.4 2.1-4.27 4.57-5.73 7.53-1.39 2.96-2.15 6.11-2.29 9.41-.07 3.44.5 6.66 1.73 9.57 1.23 2.92 3.01 5.59 5.24 7.87 2.15 2.2 4.81 4 7.92 5.41 2.97 1.34 6.25 2.05 9.91 2.19 3.6.07 6.89-.44 9.98-1.58 3.17-1.17 5.93-2.81 8.28-4.94 2.34-2.06 4.22-4.57 5.72-7.53 1.38-2.9 2.15-6.06 2.29-9.42.07-3.36-.5-6.52-1.73-9.5-1.21-2.93-2.97-5.55-5.25-7.88-2.39-2.31-5.02-4.1-7.99-5.42-2.95-1.34-6.24-2.05-9.84-2.19h-.02zm-104.6-36.19h-.12c-2.22.09-3.97 1.87-3.88 4.06l6.31 75.1c.08 2.16 1.88 3.9 4.08 3.81l16.27-.33c2.24-.09 3.98-1.88 3.89-4.07l-.59-27.54c-.05-1.86 2.37-2.69 3.5-1.21l6.36 8.16c1.67 2.09 4.85 2.03 6.38-.1l6.16-8.55c1.09-1.53 3.51-.79 3.55 1.08l.59 27.69c.09 2.22 1.89 3.96 4.08 3.87l16.28-.33c2.23-.09 3.98-1.88 3.89-4.07l-1.53-64.18v.02c0-2.12-1.73-3.82-3.93-4.08l-17.85-1.51h-.15c-1.11.2-2.24.56-2.94 1.53l-10.53 10.2-.11.11c-.81 1.07-2.4 1.1-3.18.06l-10.94-13.95c-.8-.84-1.77-1.5-2.98-1.49v-.01l-22.52-4.28-.11-.03zM179 249.24c.747 0 1.436.112 2.137.344.624.207 1.186.52 1.757.96.458.353.833.82 1.11 1.37.293.64.423 1.146.423 1.72l.005.083c.05.61-.05 1.147-.296 1.637-.22.54-.57 1.02-1.07 1.518-.4.396-.928.73-1.63 1.05-.64.29-1.293.438-1.972.438-.748 0-1.437-.112-2.14-.345-.56-.2-1.132-.527-1.69-.96-.46-.35-.833-.82-1.11-1.37-.35-.637-.49-1.13-.49-1.72-.054-.646.053-1.246.29-1.72.308-.61.65-1.096 1.07-1.515.398-.396.928-.733 1.63-1.05.638-.288 1.293-.437 1.97-.437zm4.595-10.55c-2.87-.068-5.506.334-8.16 1.236-2.443.875-4.68 2.223-6.634 3.946-1.91 1.757-3.43 3.767-4.6 6.087-1.19 2.38-1.82 4.89-1.89 7.59-.07 2.66.41 5.23 1.4 7.7.99 2.45 2.4 4.59 4.2 6.38 1.79 1.78 3.94 3.23 6.39 4.34 2.62 1.08 5.26 1.66 8.01 1.73 2.7.13 5.32-.29 8.04-1.24 2.58-.9 4.82-2.22 6.71-3.96 1.9-1.75 3.42-3.76 4.59-6.08 1.19-2.28 1.83-4.86 1.9-7.59.07-2.61-.41-5.18-1.4-7.64-.98-2.45-2.39-4.59-4.2-6.39-1.84-1.84-3.94-3.27-6.39-4.35-2.47-1.12-5.12-1.73-7.93-1.8zm121.92 5.485c.746 0 1.426.113 2.043.336.606.2 1.08.48 1.714.97.446.39.8.82 1.043 1.3.29.58.424 1.08.424 1.59 0 .63-.12 1.13-.36 1.49l-.1.18c-.19.47-.54.94-.99 1.33-.43.37-1 .72-1.68 1.03-.7.25-1.27.38-1.91.38-.75 0-1.43-.11-2.05-.33-.6-.21-1.16-.54-1.61-.93-.49-.42-.85-.85-1.09-1.34-.29-.57-.43-1.07-.43-1.58 0-.6.11-1.1.35-1.59.31-.61.64-1.07 1.02-1.4.43-.37 1-.72 1.67-1.03.69-.24 1.27-.37 1.91-.37zm-4.48-7.985c-2.828-.066-5.53.344-8.164 1.24-2.44.873-4.68 2.222-6.63 3.944-1.91 1.76-3.43 3.77-4.6 6.09-1.19 2.375-1.82 4.89-1.89 7.592-.07 2.663.41 5.234 1.4 7.7.99 2.447 2.4 4.595 4.2 6.387 1.79 1.78 3.94 3.236 6.39 4.348 2.62 1.09 5.26 1.67 8.01 1.74 2.7.13 5.33-.29 8.04-1.24 2.58-.9 4.82-2.22 6.71-3.96 1.9-1.74 3.42-3.75 4.59-6.07 1.18-2.28 1.82-4.86 1.9-7.59.07-2.61-.4-5.18-1.39-7.64-.98-2.45-2.39-4.59-4.19-6.39-1.84-1.83-3.94-3.26-6.39-4.35-2.46-1.12-5.12-1.72-7.93-1.79z"/>
  <path fill="url(#g)" d="M108.536 226.284l1.524 64.197c.066 1.65-1.26 2.96-2.915 3.03l-16.294.33c-1.65.07-2.98-1.25-3.04-2.89l-.59-27.69c-.06-2.82-3.71-3.94-5.36-1.64l-6.16 8.55c-1.12 1.58-3.51 1.65-4.77.07l-6.36-8.15c-1.72-2.24-5.36-.99-5.3 1.84l.6 27.56c.07 1.65-1.26 2.96-2.91 3.03l-16.29.33c-1.65.07-2.98-1.25-3.04-2.89l-6.29-75.05c-.06-1.64 1.26-2.96 2.92-3.03l22.52 4.28c.93 0 1.85.4 2.38 1.12l10.93 13.95c1.19 1.58 3.58 1.52 4.77-.06l10.53-10.2c.53-.72 1.39-1.18 2.32-1.25l17.82 1.52c1.66.2 3.05 1.45 3.05 3.09zm75.046 13.418c2.716.066 5.233.658 7.55 1.71 2.386 1.053 4.373 2.434 6.095 4.144 1.722 1.71 3.047 3.75 3.974 6.052.93 2.302 1.4 4.736 1.33 7.235-.06 2.565-.66 5-1.79 7.17-1.12 2.236-2.58 4.144-4.37 5.788-1.79 1.65-3.91 2.9-6.36 3.75-2.45.86-4.96 1.32-7.68 1.19-2.71-.06-5.23-.66-7.61-1.64-2.32-1.05-4.37-2.43-6.09-4.14-1.72-1.71-3.04-3.75-3.97-6.05-.93-2.3-1.39-4.73-1.32-7.3.07-2.56.67-4.93 1.79-7.17 1.13-2.23 2.59-4.14 4.37-5.78 1.79-1.58 3.91-2.89 6.3-3.75 2.52-.85 5.03-1.25 7.82-1.18zm1.855 13.945c0-.79-.2-1.447-.53-2.17-.33-.66-.795-1.25-1.39-1.71-.597-.46-1.26-.856-2.054-1.12-.795-.262-1.59-.394-2.45-.394-.862 0-1.657.198-2.385.526-.73.32-1.39.72-1.92 1.25-.53.52-.93 1.11-1.26 1.77-.33.66-.463 1.44-.397 2.17 0 .79.2 1.45.6 2.17.33.66.8 1.25 1.39 1.71.6.46 1.26.85 1.99 1.12.8.26 1.59.39 2.45.39.86 0 1.66-.2 2.39-.53.73-.33 1.39-.73 1.92-1.25.53-.53 1-1.12 1.26-1.78.33-.66.47-1.38.4-2.17zm115.583-16.444c2.715.066 5.232.658 7.55 1.71 2.385 1.052 4.372 2.434 6.094 4.144 1.723 1.71 3.047 3.75 3.975 6.05.92 2.303 1.39 4.737 1.32 7.237-.07 2.565-.66 5-1.79 7.17-1.13 2.236-2.59 4.143-4.37 5.787-1.79 1.65-3.91 2.9-6.36 3.75-2.45.86-4.97 1.32-7.69 1.19-2.72-.06-5.24-.66-7.62-1.64-2.32-1.05-4.38-2.43-6.1-4.14-1.73-1.71-3.05-3.75-3.98-6.05-.93-2.3-1.39-4.73-1.33-7.3.07-2.56.66-4.93 1.79-7.17 1.12-2.23 2.58-4.14 4.37-5.78 1.79-1.58 3.91-2.89 6.29-3.75 2.52-.85 5.1-1.25 7.81-1.18zm10.73 11.182c0-.724-.2-1.382-.53-2.04-.33-.657-.795-1.183-1.325-1.644-.596-.46-1.192-.85-1.987-1.11-.728-.26-1.523-.39-2.384-.39-.86 0-1.59.2-2.32.46-.727.33-1.39.73-1.92 1.19-.53.46-.927 1.05-1.258 1.71-.33.66-.464 1.32-.464 2.04 0 .73.2 1.38.53 2.04.33.66.795 1.19 1.325 1.65.53.46 1.192.86 1.92 1.12.73.27 1.524.4 2.385.4.86 0 1.59-.19 2.32-.46.727-.33 1.39-.72 1.92-1.18.53-.46.993-1.05 1.258-1.71.397-.59.53-1.31.53-2.04zm-172.877 1.644c3.378.13 6.557.78 9.472 2.1 2.98 1.31 5.497 3.09 7.683 5.19 2.12 2.17 3.842 4.67 5.034 7.56 1.192 2.89 1.722 5.92 1.656 9.07-.133 3.22-.86 6.25-2.186 9.01-1.39 2.76-3.18 5.19-5.498 7.23-2.252 2.04-4.9 3.62-7.948 4.73-3.047 1.11-6.226 1.58-9.604 1.51-3.445-.14-6.624-.79-9.538-2.11-2.915-1.31-5.498-3.03-7.617-5.2-2.12-2.17-3.842-4.74-5.034-7.57-1.193-2.83-1.723-5.92-1.656-9.14.132-3.16.86-6.19 2.185-9.02 1.39-2.83 3.18-5.2 5.498-7.24 2.252-2.04 4.902-3.62 7.948-4.74 2.915-.99 6.16-1.51 9.605-1.45zm12.982 17.56c0-.92-.132-1.78-.53-2.57-.397-.79-.927-1.52-1.656-2.11-.73-.59-1.53-1.12-2.52-1.52-1-.4-1.99-.59-3.12-.59-1.06-.07-2.12.13-3.12.46s-1.86.79-2.59 1.31c-.73.59-1.33 1.25-1.79 2.04-.46.79-.73 1.64-.73 2.5 0 .92.13 1.77.6 2.56.39.79.92 1.51 1.65 2.1.66.59 1.52 1.12 2.45 1.51.99.39 1.99.59 3.11.59 1.06.06 2.12-.13 3.11-.46.99-.33 1.85-.79 2.58-1.32.73-.59 1.32-1.25 1.79-2.04.46-.79.73-1.65.73-2.5zm70.343-5.99c3.577.13 6.955.85 10.068 2.23 3.113 1.38 5.83 3.22 8.147 5.52 2.252 2.3 4.04 4.93 5.3 8.02 1.258 3.09 1.854 6.25 1.72 9.67-.13 3.42-.86 6.64-2.383 9.6-1.457 2.96-3.378 5.52-5.83 7.69-2.384 2.17-5.232 3.81-8.477 5-3.246 1.18-6.624 1.71-10.2 1.58-3.644-.14-7.022-.86-10.135-2.24-3.113-1.38-5.83-3.22-8.08-5.53-2.253-2.31-4.04-5-5.3-8.03-1.258-3.02-1.854-6.25-1.722-9.67.133-3.36.86-6.58 2.318-9.54 1.458-2.96 3.38-5.53 5.83-7.7 2.384-2.17 5.232-3.82 8.41-5 3.313-1.25 6.69-1.78 10.334-1.65zm15.168 15.13c0-.92-.198-1.84-.662-2.7-.397-.86-.994-1.58-1.722-2.17-.73-.59-1.59-1.12-2.583-1.45-1-.33-2.06-.53-3.18-.53-1.13 0-2.19.19-3.18.59-1 .39-1.86.85-2.59 1.51-.73.59-1.26 1.38-1.72 2.17-.47.85-.67 1.71-.67 2.7 0 .92.26 1.84.66 2.69.46.85 1.06 1.57 1.72 2.17.73.59 1.59 1.11 2.58 1.44.99.33 2.05.52 3.18.52 1.12 0 2.18-.2 3.18-.59.99-.4 1.85-.86 2.58-1.51.73-.59 1.32-1.38 1.72-2.17.46-.86.66-1.78.66-2.7zm16.295-42.82l19.68-1.71c1.66-.13 3.05 1.05 3.18 2.69l3.25 37.62c.33 3.75-.06 7.3-1.26 10.65-1.12 3.35-2.84 6.38-5.03 9.01-2.25 2.63-4.9 4.8-8.08 6.51-3.18 1.71-6.62 2.7-10.33 3.03l-2.98.26c-1.92.2-3.51-1.51-3.18-3.42l2.85-16.25.86-.07c1.13-.07 2.19-.4 3.12-.93 1-.53 1.79-1.19 2.45-1.98.67-.79 1.13-1.71 1.53-2.7.33-.99.47-2.04.4-3.16l-1.72-19.54c-.13-1.65-1.59-2.83-3.18-2.7-1.65.13-3.04-1.05-3.18-2.7l-.99-11.51c-.19-1.58 1-3.03 2.65-3.16z"/>
  <path fill="url(#h)" d="M151.988 270.222c.198-.592.33-1.25.33-1.907.067-.987-.132-1.973-.53-2.894-.397-.92-.926-1.71-1.655-2.36-.73-.66-1.524-1.25-2.517-1.64-.994-.39-1.987-.65-3.113-.72-1.06-.06-2.12.13-3.113.46-.994.33-1.855.86-2.583 1.52-.73.66-1.325 1.38-1.79 2.24-.463.86-.727 1.84-.727 2.83v.86c-7.22-.92-14.175-2.04-20.93-3.42.264-.59.53-1.25.794-1.84 1.39-2.82 3.245-5.19 5.497-7.23 2.26-2.04 4.91-3.55 7.95-4.73 2.98-1.12 6.23-1.64 9.67-1.51 3.38.13 6.56.86 9.48 2.17 2.98 1.32 5.5 3.1 7.62 5.27s3.78 4.67 4.97 7.56c.8 1.91 1.26 3.88 1.53 5.92-3.57 0-7.28-.26-10.86-.53zm80.742-6.183c-3.113-1.39-6.49-2.17-10.068-2.31-3.643-.13-7.02.39-10.2 1.58-3.18 1.18-6.028 2.82-8.413 5-.8.66-1.46 1.38-2.12 2.17 12.18-.79 23.84-2.24 34.9-4.21-1.33-.86-2.65-1.58-4.11-2.24zm68.886-26.45c-2.716-.07-5.3.33-7.684 1.18-2.384.92-4.504 2.17-6.358 3.75-1.79 1.58-3.312 3.55-4.372 5.79-.86 1.77-1.39 3.61-1.656 5.52 10.664-4.28 19.937-9.21 27.422-14.6-2.318-.99-4.77-1.58-7.352-1.65zm-192.483-11.51c0-1.65-1.39-2.9-3.047-2.9l-17.818-1.52c-.927 0-1.788.46-2.318 1.18l-10.532 10.2c-1.192 1.58-3.51 1.64-4.77.06l-10.86-13.95c-.597-.72-1.458-1.19-2.385-1.12l-22.683-4.09c-3.02 0-3.02 2.44-3.02 4.09V222c11.06 18.088 40.406 33.685 78.227 42.038l-.794-37.954zm69.747 45.18c-3.18 0-6.36-.07-9.538-.13-.067-.07-.133-.13-.2-.13-1.72-1.78-3.046-3.75-3.973-6.06-.93-2.31-1.4-4.74-1.26-7.3.06-2.57.66-4.94 1.79-7.17 1.12-2.24 2.58-4.15 4.37-5.79 1.79-1.58 3.9-2.83 6.36-3.75 2.38-.92 4.96-1.32 7.68-1.19 2.71.06 5.23.66 7.55 1.71 2.38 1.05 4.37 2.43 6.09 4.21 1.72 1.71 3.04 3.75 3.97 6.05.92 2.3 1.39 4.73 1.32 7.23-.07 2.56-.66 5-1.79 7.17-.87 1.71-1.92 3.22-3.18 4.6-6.3.33-12.72.52-19.21.52zm-1.79-12.37c.73.33 1.458.52 2.253.52.795 0 1.524-.07 2.252-.4.73-.26 1.325-.66 1.92-1.12.53-.46.995-1.06 1.326-1.71.34-.66.47-1.38.53-2.17 0-.79-.06-1.52-.39-2.17-.26-.66-.66-1.32-1.19-1.78-.53-.53-1.12-.92-1.78-1.25-.73-.33-1.46-.53-2.25-.53s-1.52.06-2.25.39c-.73.26-1.32.66-1.85 1.12-.53.46-.99 1.05-1.32 1.71-.33.66-.53 1.38-.53 2.17s.14 1.51.4 2.17c.27.66.66 1.31 1.19 1.77.4.52 1 .92 1.72 1.25zm100.018-23.68c-.132-1.65-1.59-2.83-3.18-2.7l-19.67 1.64c-1.657.13-2.85 1.58-2.717 3.15l1 11.51c.13 1.64 1.59 2.83 3.18 2.7 1.66-.14 3.05 1.05 3.18 2.69l.6 6.9c6.83-1.84 13.25-3.95 19.28-6.25l-1.65-19.67z"/>
</svg>
