<svg xmlns="http://www.w3.org/2000/svg" width="784" height="152" viewBox="0 0 784 152">
  <g fill="#FFF" fill-rule="evenodd">
    <path d="M10.463.274l2.493.354c7.7 1.363 15.49 2.928 23.467 2.013 4.085-.35 7.82.78 11.763 1.61.893.03 1.963.67 2.838 1.2 1.655.96 2.893 2.49 2.625 4.47-.36 1.78-1.69 2.73-3.2 3.27-2.22 1.02-4.7.93-6.98.85L22.16 12.7c-3.664-.328-4.177.152-3.61 3.852.162 1 .323 2.1.586 3.105 1.116 5.014.246 7.173 7.873 7.737 2.57.19 5.13.877 7.36 2.348 1.56.95 1.48 3.236-.04 3.98-2.63 1.4-5.42 1.6-8.41 1.894-3.99.36-5.01 1.22-4.86 5.5.35 7.078.89 14.16.45 21.308-.08 2.088-.15 4.274-.52 6.35-.29 2.477-1.94 4.21-4.26 5.224C8.69 77.284.72 72.23.82 63.58c.127-9.25.648-18.483.97-27.724l-.39-.016.797-22.854c.06-1.69.015-3.282.17-4.868.384-2.944.95-6.503 4.27-7.567C7.853.16 9.185.37 10.462.28zm99.223 39.265c3.145-.09 5.508 1.12 7.768 3.15 2.397 2.47 2.913 4.77 1.416 7.81-2.766 5.27-6.774 9.11-12.78 10.49-.702.17-1.4.25-2.1.42-.802.17-1.223.85-1.346 1.54-.58 2.36-.16 4.57 1.057 6.7.94 1.52 2.52 1.97 4.23 1.24 2.93-1.29 5.38-3.4 7.75-5.6 1.34-1.25 8.73-8.25 10.06-9.4.62-.68 1.52-.84 2.51-.81.69.12 1.65 1.25 1.42 1.94-.12.69-.34 1.38-.76 1.96-3.31 3.76-12.97 13.08-17.43 15.61-2.22 1.21-4.63 1.82-6.91 1.64-6.7-.37-11.72-4.68-12.13-11.53-3.33 3.22-6.83 6.29-10.71 8.84-2.23 1.21-4.63 1.83-6.91 1.65-6.74-.37-11.72-4.71-12.13-11.57-5.84 6.46-3.09 3.82-8 8.18-2.76 2.29-6.18 3.66-8.77 3.67-5.92-1.01-9.54-2.72-10.54-8.23-.42-2.01-.06-3.88.8-5.74 1.29-2.74 2.68-5.48 4.06-8.22.86-1.86.97-2.06-.87-3.52-2.81-2.09-3.12-4.59-2.12-7.64.77-2.26 2.6-3.29 4.46-2.63 2.06.77 2.79 2.48 1.92 4.84-.22.68-.73 1.16-.86 1.86-.22.69.27.9.86 1.02.99.04 1.71-.54 2.52-1.01 1.22-.76 2.34-1.61 3.65-2.16 1.42-.65 2.8-.3 3.95.83 1.15 1.23 1 2.62.36 3.99-.53 1.17-1.17 2.24-1.9 3.21-2.84 4.68-4.9 9.58-6.86 14.58-.65 1.47-1.91 3.52.13 4.88 1.65 1.05 3.39-.28 4.81-1.22 1.22-.85 2.25-1.81 3.28-2.87 2.38-2.6 4.75-5.31 7.13-8.01.93-1.06 1.87-2.12 2.99-3.08l.04-.02c1.25-6.95 5.98-12.01 11.35-16.19 2.55-1.48.97-.76 4.9-1.72 3.15-.09 5.51 1.12 7.77 3.15 2.4 2.47 2.91 4.78 1.42 7.81-2.76 5.28-6.77 9.12-12.78 10.5-.7.17-1.4.25-2.1.42-.8.17-1.22.85-1.34 1.54-.58 2.37-.16 4.57 1.06 6.7.94 1.52 2.52 1.98 4.23 1.24 2.92-1.29 5.38-3.39 7.74-5.6 2.54-2.38 5.06-4.78 7.61-7.14 1.27-6.81 6.01-11.78 11.27-15.87 2.55-1.48.97-.76 4.89-1.72zm-28.268 5.57c-.787-.23-1.392.05-1.906.53-2.46 2.2-4.14 4.83-5.046 7.98-.328.88-.36 1.77.516 2.3.776.52 1.67.55 2.58.09 3.034-1.59 4.807-4.01 4.832-7.59.02-.6.04-1.1-.043-1.6-.07-.7-.14-1.5-.93-1.73zm29.758 1.04c-.786-.23-1.392.05-1.905.53-2.46 2.2-4.14 4.83-5.04 7.98-.33.88-.36 1.78.52 2.3.78.52 1.67.55 2.58.09 3.04-1.59 4.81-4.01 4.84-7.59.02-.6.04-1.1-.04-1.6-.07-.7-.14-1.5-.93-1.73z"/>
    <path d="M130.178 85.64c-.732.2-1.445.74-2.017 1.547-.45.715-.75 1.583-1.13 2.296-.68 1.032-2.17 1.215-2.97.444-.64-.773-1.28-1.625-1.84-2.4-.88-1.32-2-2.398-3.49-2.764-2.12-.513-4.33-1.26-6.38-2.322-1.42-.83-2.82-.34-4.05.86-1.23 1.28-2.14 2.71-2.9 4.37-.95 2.37-.68 1.39-1.02 2.85-2.29 2.54-1.16 1.13-3.31 4.29-1.52 2.46-3.13 4.84-4.89 7.15-.99 1.36-2.15 2.63-3.7 3.44-.62.25-1.57-.21-1.5-.91-.01-.78.05-1.65.19-2.51 1.15-5.98 2.3-11.97 3.61-17.95 1.1-4.65.29-5.97 6.87-6 .63-.01 1.33-.02 1.96-.19.86-.25 1.64-.5 2.41-.9 1.17-.49 1.94-1.36 1.99-2.7-.02-1.33-.9-2.18-1.93-2.87-1.03-.61-2.21-.98-3.38-.88-4.93.24-5.58-.85-5.57-5.01-.01-.39-.09-.7-.17-1.01-.51-2.19-2.25-3.41-4.52-3.22-1.56.11-2.88.91-3.8 2.19-.92 1.43-1.75 2.94-2.35 4.52-.83 1.98-2.14 2.86-4.34 2.9-1.49-.05-3.05-.02-4.54.24-1.72.19-3.36.61-4.99 1.03-.78.25-1.47.89-1.53 1.83.02.94.66 1.56 1.45 1.94 1.66.91 3.55 1.04 5.35 1.4 1.65.28 3.68-.46 4.88.86 1.44 1.62.06 3.61-.15 5.34L80.1 99.15c.045 2.59.64 5.09 1.93 7.34 2.91 4.97 7.86 5.9 11.82 3.87 3.95-2.3 7.644-4.96 10.033-8.98 1.63 4.2 6.53 5.73 10.67 5.57 3.13-.13 6.466-2.15 8.19-6.58.22-.78.6-1.65.74-2.52.27-2.59 1.27-4.02 4.24-4.07.48-.03.97-.11 1.45-.25.266 4.29.535 8.57.78 11.57-.28 9.14.3 17.04-.68 24.64-.39 3.02-.115 6.13-.065 9.03.54 5.56 3.49 8.85 9.07 9.87 3.68.71 6.32-1 6.587-4.8.41-2.23.15-4.46.11-6.68.148-4.35.07-8.58 0-12.81.187-2.01.95-2.69 2.737-2.5 2.79.4 5.108-.53 7.88-.8 3.66-.62 6.18-2.78 7.68-6.04 1.49-3.81 2.54-7.614 2.91-11.63.15-4.016-1.02-7.67-3.302-10.974-3.87-5.17-11.61-8.93-18.715-1.68-3.82 4.08-4.16 3.86-6.47-1-.58-1.33-1.28-2.87-2.74-3.96-1.36-.85-.53-.46-2.58-.95-.95.26-1.626.457-2.12.92zm-12.543 1.96l-.902.18c-1.712.657-3.418 1.628-4.09 3.524-.972 2.685-1.395 5.36-1.346 8.184.103 1.41.896 1.947 2.376 1.45 3.584-1.083 6.334-5.133 6.333-9.684-.087-.47-.1-1.176-.346-1.878-.702-1.435-.147-.73-2.025-1.775zm70.982-46.068c2.407.222 3.38 1.433 3.806 3.653.61 11.926-4.54 23.684-10.655 33.85-.456 4.568-.778 9.133-.966 13.697-.414 6.98-1.398 19.605.517 21.986 1.91 2.38 16.8-11.29 19.55-15.094.38-.498 1.79-2.117 1.87-.31 5.09-7.912 2.56-4.608 7.26-10.16 1.53-1.587 3.51-2.736 5.61-3.33 4.86-1.533 9.58.947 10.78 5.828.83 3.105 1.22 6.33 1.47 7.884-.12 5.795-.16 10.03-.31 14.265.02 1.23.04 2.45.17 3.57.14 1.45.38 3 1.95 3.53 1.9.64 2.99-.83 3.85-2.07 1.3-1.8 2.49-3.72 3.57-5.63l.19-.32c-.81-2.33-.59-1.24-.82-3.23-.21-5.56 1.04-10.49 2.96-15.31.64-1.46 1.62-2.7 2.82-3.72 1.09-.91 2.3-1.6 3.86-1.74 2.56-.04 4.03 1.61 3.51 3.95-.63 2.13-1.27 3.81-2.02 5.72-.84 2.91-1.57 5.71-1.52 8.61.02 1.34.04 2.34.17 3.56.59 2.22 2.95 3.29 4.71 2.15 2.96-2.06 5.48-4.22 5.86-8.46.41-2.01.48-4.02.77-6.36.3-1.67 1.06-3.13 2.15-4.27 1.42-1.25 2.87-1.16 3.89.16.91 1.1 1.37 2.43 1.62 3.99.24 1.33.27 2.78.29 4.23-.09 1.45-.06 2.9-.15 4.46-.21 1.11-.3 2.34-.28 3.46.01.33.12.77.35 1.1.45.33.78-.01 1.11-.35 1.2-1.02 2.4-2.38 3.6-3.52.87-.79 1.64-1.47 2.63-2.27.44-.23 1.32-.47 1.77-.47 1.22-.02 1.91 1.31 1.59 2.09-.64 1.68-1.85 2.37-2.84 3.28-2.2 1.71-4.16 3.86-6.24 5.68-1.86 1.82-2.71 4.17-2.78 6.51.04 2.34-.15 4.46-.1 6.91.31 5.12-.38 10.03-1.41 15.07-.7 4.47-2.89 6.52-7.1 7.26-4.32.97-8.02-.64-10.2-4.16-1.26-2.1-1.29-3.99-.66-6.12 1.36-4.59 3.4-8.75 6.46-12.37l3.27-3.85c.87-1.01 1.3-2.02 1.72-3.37.29-2.23-.5-3.11-2.72-2.96-2.11.37-3.89.4-5.89.44-2.23.04-3.9-.6-5.59-1.35l-1.3-.8c-1.03 2.8-3.09 4.89-5.27 6.83-4.93 3.98-10.83 3.98-15.24-.4-2.49-2.41-4.39-2.93-7.37-1.43-1.65.81-3.55.62-5.33.31-5.13-.91-7.73-3.65-8.16-8.88-.06-5.38-.3-2.81.62-7.72l-.37.49c-4.2 4.9-17.19 19.88-22.83 18.64-6.19-1.37-10-12.97-9.83-18.07.8-15.97 3.87-31.72 8.42-46.95 1.77-5.93 4.32-13.35 9.61-16.93 1.81-1 .7-.53 3.47-1.1zm67.843 90.48c-3.292 2.51-4.9 5.99-5.836 9.683-.322.674-.304 1.676-.067 2.563.12.555.576 1.104 1.354 1.09.56.214 1.23-.02 1.55-.472.99-.686 1.31-1.805 1.4-2.92.72-3.355 1-6.59 1.61-9.944zm-39.107-35.97c-3.372 4.293-6.18 9.02-7.643 14.506-.314 1.12-.18 2.342-.16 3.567.02 1.114.482 2.11 1.596 2.2.67.1 1.554-.138 2.213-.595 2.19-1.932 3.36-4.515 3.76-7.307.49-3.574.87-7.145 1.26-10.717.1-.56.09-1.116-1.03-1.653zm-28.6-51.366c-.807.723-.47.303-1.003 1.262-.387.81-.64 1.62-1.028 2.432-1.268 4.045-1.997 8.35-2.727 12.52-.848 5.11-1.426 10.352-2.006 15.46 2.96-6.76 5.78-13.648 6.73-20.907.3-3.218.89-6.506.51-9.748-.05-.373-.32-.68-.48-1.02zm-38.19 49.302l-.853.572c-2.518 2.272-4.47 5.09-5.643 8.008-1.383 3.59-.872 7.368.635 10.907.576 1.104 2.358 1.295 3.232.39.433-.677 1.095-1.023 1.524-1.922 1.703-4.374 3.182-8.856 3.307-14.428-.228-.33-.022-1.225-.256-1.89-.24-.664-.47-1.106-.92-1.543l-1.03-.094zM524.056 57.01c1.313 0 2.387.958 2.984 2.153.955 1.913 1.55 4.065 1.55 6.217.12 2.99 0 5.978 0 9.087h.48c-.36 3.586-.598 7.293-.956 10.88-.12 1.793-.597 3.467.24 5.14 2.028 3.707 4.057 7.533 6.92 10.88.36.478.837.957 1.314 1.315 4.177 3.587 7.758 2.87 10.503-1.913.84-1.56 1.44-3.23 2.15-4.79.48-.96.96-1.92 1.67-2.75s1.79-1.2 2.87-.96c1.43.48 2.03 1.55 2.15 2.99-.02.81.02.44-.09 1.12 2.43 1.12 1.88 3.28 1.52 5.21-.24.83-.83 1.43-.95 2.27-.23.84.36 1.07 1.08 1.19 1.2 0 2.03-.72 2.99-1.32 1.44-.96 2.75-2.03 4.3-2.75 1.67-.84 3.34-.48 4.77.84 1.43 1.43 1.32 3.11.6 4.78-.59 1.43-1.31 2.75-2.15 3.94-3.22 5.74-5.49 11.72-7.63 17.81-.71 1.79-2.15 4.3.36 5.86 2.03 1.19 4.06-.48 5.73-1.68 1.43-1.08 2.63-2.27 3.82-3.59 2.75-3.23 5.49-6.58 8.24-9.92 1.08-1.32 2.15-2.63 3.46-3.83l.05-.03c1.21-8.41 6.69-14.69 12.97-19.94 3-1.88 1.14-.95 5.81-2.27 3.77-.24 6.67 1.12 9.47 3.46 2.99 2.87 3.7 5.62 2.03 9.32-3.1 6.46-7.76 11.24-14.92 13.15-.83.24-1.67.36-2.5.6-.95.24-1.43 1.08-1.55 1.91-.6 2.87 0 5.5 1.55 8.01 1.2 1.79 3.11 2.27 5.14 1.31 3.46-1.68 6.33-4.31 9.07-7.06 2.95-2.97 5.88-5.96 8.85-8.91 1.24-8.24 6.72-14.41 12.87-19.55 3-1.88 1.14-.95 5.81-2.27 3.78-.23 6.67 1.12 9.47 3.46 2.98 2.87 3.7 5.62 2.03 9.33-3.1 6.46-7.76 11.24-14.92 13.16-.84.24-1.67.36-2.51.59-.96.24-1.43 1.08-1.55 1.91-.6 2.87 0 5.5 1.55 8.01 1.19 1.79 3.1 2.27 5.13 1.31 3.46-1.68 6.32-4.31 9.07-7.06 1.55-1.55 10.14-10.28 11.69-11.72.72-.838 1.79-1.07 2.99-1.07.84.12 2.03 1.44 1.79 2.27-.12.84-.36 1.68-.84 2.4-3.82 4.66-15.03 16.26-20.29 19.49-2.62 1.55-5.49 2.39-8.23 2.27-8.08-.17-14.29-5.13-15.07-13.34-3.88 4.02-7.95 7.85-12.51 11.07-2.63 1.56-5.49 2.39-8.24 2.27-8.12-.16-14.29-5.16-15.07-13.39-6.75 8.02-3.55 4.73-9.28 10.17-3.22 2.87-7.28 4.66-10.39 4.78-7.16-.96-11.57-2.87-13.01-9.45-.59-2.39-.24-4.66.72-6.936 1.43-3.35 2.98-6.7 4.53-10.04.96-2.28 1.08-2.51-1.19-4.19-1.52-1.21-.86-.53-2.01-2.03-2.02 2.64-5.52 2.94-8.49 3.35-.6 0-1.2-.12-1.91 0-1.55.12-2.27.95-1.91 2.63.95 3.82.95 7.65 1.07 11.47.24 5.98-1.91 11-5.01 15.78-2.39 3.7-5.85 5.02-10.03 4.3-5.49-1.195-9.91-4.065-12.41-9.325-1.67-3.47-2.63-7.18-2.75-11.24-.12-5.14.36-10.28 1.55-15.307 3.46-14.47 5.61-29.17 8.47-43.76.36-1.67.72-3.35 1.44-4.9.597-1.56 1.91-2.39 3.58-2.278zm1.67 44.118c-.476.957-.834 1.435-.954 2.033-2.148 6.94-2.626 14.23-3.342 21.52-.238 2.87.597 5.5 1.552 8.13.24.72.835 1.44 1.313 2.16 1.67 1.92 4.177 1.68 5.37-.36.597-1.19 1.194-2.39 1.552-3.58 1.67-5.86 1.67-11.83.358-17.69-.955-4.42-2.864-8.37-5.848-12.19zm77.102-.24c-.955-.238-1.67.12-2.268.718-2.864 2.75-4.774 5.978-5.728 9.804-.36 1.076-.36 2.152.716 2.75.954.598 2.03.598 3.103 0 3.58-2.033 5.61-5.022 5.49-9.326 0-.717 0-1.315-.11-1.913-.12-.83-.24-1.79-1.19-2.03zm35.805 0c-.954-.238-1.67.12-2.267.718-2.865 2.75-4.774 5.978-5.73 9.804-.357 1.076-.357 2.152.717 2.75.955.598 2.03.598 3.103 0 3.58-2.033 5.61-5.022 5.49-9.326 0-.717 0-1.315-.12-1.913-.118-.83-.238-1.79-1.192-2.03z"/>
    <path d="M654.362 70.552c-1.14-.657-2.506-.116-3.455 1.222-.42.657-.695 1.455-1.043 2.11-.632.95-1.997 1.117-2.73.41-.588-.712-1.178-1.496-1.694-2.208-.814-1.212-1.84-2.204-3.213-2.54-1.953-.472-3.98-1.157-5.87-2.134-1.31-.77-2.598-.316-3.73.786-1.133 1.174-1.974 2.487-2.668 4.014-.88 2.173-.63 1.277-.95 2.62-2.11 2.33-1.07 1.03-3.05 3.942-1.4 2.26-2.88 4.45-4.5 6.57-.92 1.243-1.98 2.415-3.4 3.162-.58.226-1.45-.192-1.39-.842-.02-.72.04-1.515.17-2.31 1.05-5.502 2.11-11.003 3.31-16.506 1-4.273.26-5.487 6.31-5.52.58-.01 1.22-.022 1.8-.176.78-.23 1.5-.46 2.21-.832 1.07-.452 1.78-1.257 1.83-2.485-.03-1.225-.83-2.005-1.78-2.638-.95-.56-2.03-.902-3.11-.81-4.53.222-5.13-.777-5.12-4.6-.01-.36-.09-.648-.16-.935-.47-2.012-2.07-3.138-4.16-2.957-1.44.097-2.65.84-3.5 2.008-.85 1.313-1.61 2.697-2.16 4.15-.76 1.816-1.97 2.63-3.99 2.666-1.37-.05-2.81-.03-4.18.21-1.58.17-3.09.56-4.59.94-.72.23-1.36.81-1.41 1.68.01.86.6 1.43 1.32 1.78 1.53.84 3.26.95 4.92 1.28 1.51.26 3.37-.42 4.48.78 1.32 1.49.05 3.31-.13 4.9l-2.12 14.4c.04 2.38.58 4.68 1.77 6.75 2.67 4.57 7.22 5.43 10.86 3.56 3.63-2.11 7.03-4.56 9.22-8.26 1.49 3.86 6 5.27 9.8 5.11 2.88-.13 5.94-1.98 7.53-6.05.2-.73.55-1.53.68-2.32.24-2.39 1.16-3.7 3.89-3.75.2-.02.41-.04.61-.07-.9 4.69-1.18 9.49-.97 14.28.07 3.87.13 7.62.85 11.48.72 4.51 3.23 7.82 6.76 10.47 4.44 3.28 10.37 2.92 14.3-1.15 1.26-1.31 2.4-2.76 3.54-4.2 1.26-1.7 2.67-2.24 4.74-1.37 4.42 2.12 8.28 1.02 11.17-2.91l.51-.4c1.9-1.84 2.41-1.98 4.63-.34 2.87 2.02 5.87 3.77 9.11 4.88 3.52.81 1.75.64 5.3.55 2.02 2.19.79 1.31 3.78 2.52 4.79 1.2 9.82.99 13.76-2.57 5.87-6.37 2.62-2.39 9.05-12.47.74 2.28.16.56 2.04 5.04 1.35 3.33 4.22 5.35 7.85 6.19 2.46.47 4.78.56 6.55-1.54 1.64-1.97.83-4.02-.24-6.07-1.07-2.18-1.88-4.23-1.8-6.82.13-7.5 3.11-14.14 6.61-20.66.12-.27.38-.27.51-.27.63-.66 1.93-.29 2.2.48.15 1.16.42 2.19.44 3.09.11 6.46.48 12.65-.45 18.87-.47 2.59-.43 5.05.14 7.75 1.11 4.63 8.39 7.61 12.58 3.79 4.82-4.35 7.31-9.82 9.91-15.68l-.02-1.16c-.02-1.16-.424-2.19-1.59-2.56-1.17-.5-2.194.04-2.694.95-.746 1.44-1.36 3.13-1.85 4.82-.73 2.21-1.6 4.42-3.634 6-.27-.77-.66-1.15-.67-1.41.94-5.44-.18-10.72-1.05-16.13-.59-4.51-2.86-8.61-6.01-11.91-3.28-3.31-6.256-3.64-9.81-.61-2.67 2.24-5.86 4.23-7.61 7.62-.38.65-.89 1.05-1.67.55-.26-.13-.66-.64-.66-.9-.58-3.35-1.02-6.45-1.72-9.67-.15-1.42-.82-2.83-1.878-3.97-2.36-1.8-.96-1.22-4.32-1.41-1.82 1.24-1.187.53-2.12 1.91-.63 1.17-1.12 2.35-1.49 3.51-.356 1.54-.89 3.06-1.06 4.63-.75 6.87-.676 13.77 1.795 20.313-2.06 2.822-1.25 1.495-2.553 3.9-1.63 2.483-3.26 5.095-5.023 7.58-1.26 1.7-2.79 3.02-4.84 3.7-1.41.54-2.97-.21-3.25-1.62-.43-2.45-.08-4.65.52-6.99 1.56-6.49 3.25-13.11 5.46-19.48.98-3.12 1.83-6.236 2.42-9.48.34-2.46-1.37-4.5-3.83-5.105-4.02-.837-7.22.382-9.21 4.422-4.62 9-8.07 18.36-7.76 28.692.25 4.26.09 2.59.35 5.02-2.34-1.24-3.47-3.87-4.25-6.24-1.36-4.11-2.47-8.23-2.54-12.49-.05-2.85-.23-5.69-.41-8.52-.18-3.1-1.14-6.06-2.98-8.48-1.328-2.18-4.17-2.39-5.68-.42-2.27 3.14-4.278 6.28-4.98 10.29-.95 4.8-.35 9.31 1.013 13.81 1.37 4.5-.25 7.89-2.77 11.16-.88 1.18-2.43.95-3.1-.2-.8-1.67-1.22-3.47-1.51-5.276-.44-2.96-1-5.926-1.443-9.02-.29-1.546-.7-3.09-2.14-4.1-1.44-1.134-3.622-.58-3.98 1.11-.23 1.55-.46 3.24-.303 4.783.754 6.19-1.085 11.65-4.09 16.87-1 1.7-1.6 4.55-3.926 4.21-2.72-.47-2.13-3.58-2.29-5.64-.53-7.74-.92-15.36-1.44-23.1-.157-1.42-.05-2.85-.336-4.26-.28-1.29-.69-2.71-1.36-3.99-.8-1.54-2.24-2.42-4.04-2.26-.47.05-.89.18-1.26.38zm-13.13 1.603l-.83.163c-1.573.605-3.142 1.498-3.76 3.24-.892 2.468-1.28 4.927-1.236 7.524.095 1.296.823 1.79 2.183 1.332 3.29-.995 5.82-4.718 5.82-8.902-.08-.432-.09-1.08-.32-1.726-.65-1.32-.14-.67-1.86-1.63zm84.964-23.497c3.367.717 5.862 3.258 6.036 5.84.025 1.42-.597 2.724-1.742 3.648-3.184 2.382-8.095 1.82-10.6-1.236-1.316-1.528-1.606-3.332-.735-5.156 1.967-2.706.562-1.35 4.897-3.21l2.144.114z"/>
  </g>
</svg>
