<svg xmlns="http://www.w3.org/2000/svg" width="292" height="48" viewBox="0 0 292 48">
  <path fill="#FFF" fill-rule="evenodd" d="M62.48 2.7l.526.004c1.266.18 1.967.91 2.324 2.096.05.2.1.4.1.65-.05 2.65.35 3.35 3.5 3.25.75-.05 1.5.2 2.15.6.65.45 1.2 1 1.2 1.85-.05.85-.55 1.4-1.3 1.7-.5.25-1 .4-1.55.55-.4.1-.85.1-1.25.1-4.2-.05-3.7.8-4.45 3.75-.9 3.8-1.7 7.6-2.5 11.4-.1.55-.15 1.1-.15 1.6-.05.45.55.75.95.6 1-.5 1.75-1.3 2.4-2.15 1.15-1.45 2.2-2.95 3.2-4.5.68-1.1 1.5-2.087 2.43-2.98.8-2.32.264-.957 1.77-4.02.8-1.55 2.05-2 3.6-1.65.95.25 1.6 1.05 1.45 2-.25 1.25-.6 2.45-1 3.65-.9 2.45-1.6 5-2.25 7.5-.25.9-.4 1.75-.25 2.7.1.55.7.85 1.25.65.8-.25 1.4-.75 1.9-1.4.7-.95 1.35-1.95 2-2.9.52-.922.198-.413 1.017-1.492-.914-2.55-.897-5.22-.56-7.872.078-.608.295-1.19.443-1.786.15-.45.35-.9.6-1.35.55-1 1.75-1.05 2.5-.15.4.45.65 1 .7 1.55.25 1.25.4 2.45.6 3.75 0 .1.15.3.25.35.3.2.5.05.65-.2.7-1.3 1.95-2.05 3-2.9 1.4-1.15 2.55-1 3.8.3 1.2 1.3 2.05 2.9 2.25 4.65.3 2.1.7 4.15.3 6.25 0 .1.15.25.25.55.8-.6 1.15-1.45 1.45-2.3.2-.65.45-1.3.75-1.85.248-.403.584-.463 1.01-.36.516-1.977 1.722-3.59 2.99-5.14 1-1.2 2.4-1.65 3.95-1.8 1.35-.2 2.75.05 4.1.55 1.85.55 2.85 1.8 3 3.75.2 2 .1 4 0 5.95-.05.45-.05 1-.15 1.9 2.35-1.1 4.3-2 6.3-2.85.45-.15.8-.35 1.35-.55.4-.15.85-.1 1.1.3.3.45-.1.8-.45 1-.65.35-1.25.65-2 .9-1.85.75-3.55 1.75-5.2 2.85-.85.65-1.2 1.45-1.4 2.45-.45 3.6-1.1 7.05-2.3 10.35-.45 1.1-1.05 1.85-2 2.4-1.35.8-2.65.8-3.9-.1-1.3-.95-1.65-2.3-1.4-3.75.2-.75.55-1.55.85-2.3.6-1.3 1.55-2.4 2.35-3.5.45-.55.9-1.15 1.3-1.8.25-.35.35-.9.35-1.4-.1-.45-.45-.8-.9-.7-.45.1-.9.35-1.4.45-1.65.25-3.1.1-4.55-.75-1.45-.9-2.2-2.2-2.4-3.85l-.046-.76c-1.906 3.06-.89 1.824-2.854 3.86-1.65 1.45-4.45.25-4.85-1.55-.2-1.05-.2-2 0-3 .4-2.4.3-4.8.3-7.3 0-.35-.1-.75-.15-1.2-.1-.3-.6-.45-.85-.2-.05 0-.15 0-.2.1-1.4 2.5-2.6 5.05-2.7 7.95-.05 1 .25 1.8.65 2.65.4.8.7 1.6.05 2.35-.7.8-1.6.75-2.55.55-1.4-.35-2.5-1.15-3-2.45-.7-1.744-.484-1.076-.758-1.965-2.558 3.858-1.272 2.34-3.592 4.765-1.55 1.35-3.5 1.4-5.35.9-1.3-.35-2.2-1.35-2.4-2.7-.154-1.677-.117-.998-.16-2.03-1.403 2.18-3.63 3.548-5.84 4.78-2.55 1.25-5.7.6-7.5-2.6-.672-1.447-.422-.716-.774-2.186-1.942 2.93-.913 1.68-2.976 3.836-1.55 1.35-3.5 1.4-5.35.9-1.197-.508-.68-.138-1.55-1.113-.908 1.052-.435.587-1.4 1.413-2.25 1.75-4.9 1.7-6.85-.3-1.1-1.1-1.95-1.35-3.3-.7-.75.35-1.6.25-2.4.1-2.3-.45-3.45-1.7-3.6-4.05-.1-1.25 0-2.5.4-3.75.9-2.7 2.6-4.9 4.5-6.95.7-.7 1.6-1.2 2.55-1.45 2.2-.65 4.3.5 4.8 2.7.35 1.4.5 2.85.6 3.55-.1 2.6-.15 4.5-.25 6.4 0 .55 0 1.1.05 1.6.05.65.15 1.35.85 1.6.85.3 1.35-.35 1.75-.9 1.037-1.48.598-.806 1.344-2.007-.077-.84-.027-.228-.094-1.843-.05-4 1.35-7.6 3.2-11.05.788-1.43 1.492-1.665 3.033-1.743l.567.093c.95.25 1.6 1.05 1.45 2-.25 1.25-.6 2.45-1 3.65-.9 2.45-1.6 5-2.25 7.5-.25.9-.4 1.75-.25 2.7.1.55.7.85 1.25.65.8-.25 1.4-.75 1.9-1.4.7-.95 1.35-1.95 2-2.9.42-.746.198-.413.652-1.01l-.002-.04 1.65-9.95c.15-1.1 1.05-2.35.15-3.4-.765-.752-1.852-.51-2.83-.58-.233.465-.08.252-.47.63-1.25.9-3.15.65-4.1-.55-.5-.6-.6-1.3-.25-2 .245-.332.154-.217.264-.354.054-.568.508-.886.986-1.096 1.05-.25 2.1-.5 3.2-.6.95-.15 1.95-.15 2.9-.1 1.4 0 2.25-.55 2.8-1.8.4-1 .95-1.95 1.55-2.85.6-.8 1.45-1.3 2.45-1.35zm42.548 38.297c-.495.492-.34.238-.548.703-.3.65-.55 1.4-.85 2.05-.15.45-.15 1 .1 1.45.2.15.35.35.55.45.3.1.55-.1.65-.35.35-1.1.65-2.2.65-3.5 0-.2.05-.65-.2-.75l-.352-.053zm2.204-20.817c-1.283.243-.748.01-1.652.57-.4.4-.85.65-1 1.1-1.4 1.95-2.5 4.15-2.4 6.6.1.55.1 1.2.1 1.75.1.55.25 1.1.9 1.35.65.2 1.1-.15 1.55-.55 1.1-.9 1.55-2.1 1.65-3.45.3-1.85.65-3.75 1.1-5.6.1-.45.55-1 .1-1.55l-.348-.22zM35.28 21.75c-1.55 1.9-2.85 4-3.55 6.45-.15.5-.1 1.05-.1 1.6 0 .5.2.95.7 1 .3.05.7-.05 1-.25 1-.85 1.55-2 1.75-3.25.25-1.6.45-3.2.65-4.8.05-.25.05-.5-.45-.75zm176.274-7.262c.802.38.497.145.976.612.4.45.65 1 .7 1.55.25 1.25.4 2.45.6 3.75 0 .1.15.3.25.35.3.2.5.05.65-.2.7-1.3 1.95-2.05 3-2.9 1.4-1.15 2.55-1 3.8.3 1.2 1.3 2.05 2.9 2.25 4.65.3 2.1.7 4.15.3 6.25 0 .1.15.25.25.55.8-.6 1.15-1.45 1.45-2.3.2-.65.45-1.3.75-1.85l.18-.224c-.484-3.365-.67-3.12-.222-6.64.077-.608.294-1.19.442-1.786.15-.45.35-.9.6-1.35.55-1 1.75-1.05 2.5-.15.4.45.65 1 .7 1.55.25 1.25.4 2.45.6 3.75 0 .1.15.3.25.35.3.2.5.05.65-.2.7-1.3 1.95-2.05 3-2.9 1.4-1.15 2.55-1 3.8.3 1.2 1.3 2.05 2.9 2.25 4.65.3 2.1.7 4.15.3 6.25 0 .1.15.25.25.55.8-.6 1.15-1.45 1.45-2.3.375-1.07.194-.654.483-1.276.475-4.16 2.635-7.21 5.767-9.824 1.95-1.5 4.7-1.2 6.4.5 1.25 1.2 1.55 2.35.85 3.9-1.3 2.7-3.25 4.7-6.25 5.5-.35.1-.7.15-1.05.25-.4.1-.6.45-.65.8-.25 1.2 0 2.3.65 3.35.5.75 1.3.95 2.15.55 1.45-.7 2.65-1.8 3.8-2.95.65-.65 4.25-4.3 4.9-4.9.708-.46.333-.327 1.11-.43-.232-.908.007-.537-.71-1.12-1.45-1-1.65-2.25-1.2-3.8.35-1.15 1.25-1.7 2.2-1.4 1.05.35 1.45 1.2 1.05 2.4-.1.35-.35.6-.4.95-.1.35.15.45.45.5.5 0 .85-.3 1.25-.55.6-.4 1.15-.85 1.8-1.15.7-.35 1.4-.2 2 .35.6.6.55 1.3.25 2-.25.6-.55 1.15-.9 1.65-1.35 2.4-2.3 4.9-3.2 7.45-.3.75-.9 1.8.15 2.45.85.5 1.7-.2 2.4-.7.6-.45 1.1-.95 1.6-1.5 1.15-1.35 2.3-2.75 3.45-4.15.898-1.07.438-.564 1.373-1.522-1.366-1.89-.263-4.173.727-5.928 1.35-2.1 3.4-3.05 5.75-3.4.75-.1 1.4.1 2.05.45 2 1.15 1.8 2.45.55 3.55-.6.45-1.15.9-1.7 1.35-.55.45-1.05.95-1.4 1.5-1.3 2.25-1.2 3.15.9 4.7.35.3.65.55 1.05.8 2.15 1.35 2.05 2.25 5.55 1.4 1.6-.4.4-.35 2.05-.5.85-.1 1.65 0 2.35.4.3.15.6.4.6.75 0 .45-.3.7-.65.8-.45.15-1 .2-1.5.25-.85.05-1.6.05-.45.05 1 0-.95.15-1.9.4-1.45.4-1.55.75-1.2 2.05.2.6.45 1.2.6 1.75.9 3.9-1.6 5.6-4.35 5.85-.25.05-.55 0-.9 0-1.65.1-3.25-.35-4.35-1.8-1.25-1.65-1.3-3.3-.1-4.9.45-.55.95-1.1 1.45-1.55 2.2-2.15 2.2-2.45-.4-3.85-.75-.45-1.5-.95-2.3-1.4-.15-.1-.25-.25-.35-.35l-.878-.746c-1.562 2.262-3.382 4.308-5.372 6.196-1.35 1.2-3.05 1.95-4.35 2-3-.4-4.85-1.2-5.45-3.95-.273-.98-.03-1.962.297-2.89-1.812 1.89-3.704 3.726-5.847 5.24-1.1.65-2.3 1-3.45.95-2.094-.048-4.037-.796-5.317-2.542-.354-.483-.463-1.106-.694-1.66-1.345 2.153-.576 1.173-2.29 2.952-1.65 1.45-4.45.25-4.85-1.55-.2-1.05-.2-2 0-3 .4-2.4.3-4.8.3-7.3 0-.35-.1-.75-.15-1.2-.1-.3-.6-.45-.85-.2-.05 0-.15 0-.2.1-1.4 2.5-2.6 5.05-2.7 7.95-.05 1 .25 1.8.65 2.65.4.8.7 1.6.05 2.35-.7.8-1.6.75-2.55.55-1.4-.35-2.5-1.15-3-2.45-.77-1.917-.487-1.076-.925-2.498-.702 1.91-1.938 3.21-3.278 4.598-1.65 1.45-4.45.25-4.85-1.55-.2-1.05-.2-2 0-3 .4-2.4.3-4.8.3-7.3 0-.35-.1-.75-.15-1.2-.1-.3-.6-.45-.85-.2-.05 0-.15 0-.2.1-1.4 2.5-2.6 5.05-2.7 7.95-.05 1 .25 1.8.65 2.65.4.8.7 1.6.05 2.35-.7.8-1.6.75-2.55.55-1.4-.35-2.5-1.15-3-2.45-.7-1.744-.485-1.076-.76-1.965-2.557 3.858-1.27 2.34-3.59 4.765-1.55 1.35-3.5 1.4-5.35.9-1.15-.488-.68-.138-1.45-1-1.374.008-.69.088-2.05-.25-1.25-.45-2.4-1.15-3.5-1.95-.85-.65-1.05-.6-1.8.1l-.2.15c-1.15 1.5-2.65 1.9-4.35 1.05-.8-.35-1.35-.15-1.85.5-.45.55-.9 1.1-1.4 1.6-1.55 1.55-3.85 1.65-5.55.35-1.35-1.05-2.3-2.35-2.55-4.1-.25-1.5-.25-2.95-.25-4.45-.05-1.9.1-3.8.5-5.65.15-.6.35-1.2.55-1.75.25-.55.65-.95 1.25-1 .7-.05 1.25.3 1.55.9.25.5.4 1.05.5 1.55.1.55.05 1.1.1 1.65.15 3 .25 5.95.4 8.95.05.8-.2 2 .85 2.2.9.15 1.15-.95 1.55-1.6 1.2-2 1.95-4.1 1.7-6.5-.05-.6.05-1.25.15-1.85.15-.65 1-.85 1.55-.4.55.4.7 1 .8 1.6.15 1.2.35 2.35.5 3.5.1.7.25 1.4.55 2.05.25.45.85.55 1.2.1 1-1.25 1.65-2.55 1.15-4.3s-.7-3.5-.3-5.35c.3-1.55 1.1-2.75 2-3.95l.525-.405c1.43.13.926-.182 1.674.605.7.95 1.05 2.1 1.1 3.3.05 1.1.1 2.2.1 3.3 0 1.65.4 3.25.9 4.85.283.925.706 1.95 1.602 2.444-.087-.942-.036-.295-.104-1.944-.05-4 1.35-7.6 3.2-11.05.787-1.43 1.49-1.665 3.032-1.743l.567.093c.95.25 1.6 1.05 1.45 2-.25 1.25-.6 2.45-1 3.65-.9 2.45-1.6 5-2.25 7.5-.25.9-.4 1.75-.25 2.7.1.55.7.85 1.25.65.8-.25 1.4-.75 1.9-1.4.7-.95 1.35-1.95 2-2.9.52-.922.197-.413 1.016-1.492-.914-2.55-.897-5.22-.56-7.872.08-.608.296-1.19.443-1.786.15-.45.35-.9.6-1.35.404-.69.79-.722 1.523-.762zM280.63 34.05c-.6-.2-1.5.55-2 1.8-.1.25-.1.5-.1.6 0 .6.5 1 .95.85.95-.35 1.75-1.5 1.65-2.7-.05-.2-.3-.45-.5-.55zm-27.8-15.7c-.4-.1-.7.05-.95.3-1.2 1.15-2 2.5-2.4 4.1-.15.45-.15.9.3 1.15.4.25.85.25 1.3 0 1.5-.85 2.35-2.1 2.3-3.9 0-.3 0-.55-.05-.8-.05-.35-.1-.75-.5-.85zM130.33 0l.392.07c.745.562.492.255.858.83.4.8.65 1.7.65 2.6.05 1.25 0 2.5 0 3.8h.2c-.15 1.5-.25 3.05-.4 4.55-.05.75-.25 1.45.1 2.15.85 1.55 1.7 3.15 2.9 4.55.15.2.35.4.55.55 1.75 1.5 3.25 1.2 4.4-.8.35-.65.6-1.35.9-2 .2-.4.4-.8.7-1.15.3-.35.75-.5 1.2-.4.6.2.85.65.9 1.25 0 .2 0 .35-.05.55-.29 1-.134.627-.372 1.15l.622-.75c.8-.75 1.7-1.05 2.6-.5 1.3.7 2.7 1.2 4.05 1.55.95.25 1.65.95 2.2 1.8.35.5.75 1.05 1.15 1.55.5.5 1.45.4 1.9-.25.366-.746.228-.488.39-.786-.622-.782-.296-1.826-.14-2.664.35-1.15 1.25-1.7 2.2-1.4 1.05.35 1.45 1.2 1.05 2.4l-.15.323c.345.222.71.547.744.978.34-.09.084-.01.706-.4.6-.4 1.15-.85 1.8-1.15.7-.35 1.4-.2 2 .35.6.6.55 1.3.25 2-.25.6-.55 1.15-.9 1.65-1.35 2.4-2.3 4.9-3.2 7.45-.3.75-.9 1.8.15 2.45.85.5 1.7-.2 2.4-.7.6-.45 1.1-.95 1.6-1.5 1.15-1.35 2.3-2.75 3.45-4.15.45-.55.9-1.1 1.45-1.6.35-.3.85-.35 1.25-.05s.4.75.2 1.2c-.05.15-.15.3-.25.45-1.65 2.25-3.35 4.5-5.45 6.3-1.35 1.2-3.05 1.95-4.35 2-3-.4-4.85-1.2-5.45-3.95-.25-1-.1-1.95.3-2.9 1.226-2.762.61-1.402 1.845-4.08-.857.487-.355.29-1.545.48-1.9 0-2.55.9-2.75 2.55-.1.55-.35 1.1-.5 1.6-1.15 2.8-3.3 4.05-5.3 4.1-4 .25-7.85-2.45-7.1-6.8.228-1.753.627-3.483 1.317-5.115-.89 1.356-2.484 1.666-3.967 1.868-.25 0-.5-.05-.8 0-.65.05-.95.4-.8 1.1.4 1.6.4 3.2.45 4.8.1 2.5-.8 4.6-2.1 6.6-1 1.55-2.45 2.1-4.2 1.8-2.3-.5-4.15-1.7-5.2-3.9-.7-1.45-1.1-3-1.15-4.7-.05-2.15.15-4.3.65-6.4 1.45-6.05 2.35-12.2 3.55-18.3.15-.7.3-1.4.6-2.05.248-.67.844-.9 1.5-.95zm.7 18.45c-.2.4-.35.6-.4.85-.9 2.9-1.1 5.95-1.4 9-.1 1.2.25 2.3.65 3.4.1.3.35.6.55.9.7.8 1.75.7 2.25-.15.25-.5.5-1 .65-1.5.7-2.45.7-4.95.15-7.4-.4-1.85-1.2-3.5-2.45-5.1zm18.777 1.347l-.577.103c-1.1.4-2.2 1-2.65 2.2-.65 1.7-.95 3.4-.95 5.2.05.9.55 1.25 1.5.95 2.3-.65 4.1-3.2 4.15-6.1-.05-.3-.05-.75-.2-1.2-.432-.922-.086-.466-1.273-1.153zM26.184 1.045c1.275.063.735-.066 1.646.255 1 .35 1.65 1.1 2.15 1.95.9 1.55 1.35 3.25 1.4 5.2-.35 4.35-1.6 8.65-4.1 12.35-1.5 2.25-3.05 4.35-4.2 6.85-.6 1.4-1.7 2.1-3.3 2-1.25-.05-2.25-.6-2.8-1.8-.55-1.2-1-2.35-1.55-3.5-.4-.85-1-.9-1.65-.35-1.15 1.05-1.95 2.25-1.45 3.95 0 .1 0 .2.05.25.6 2.3-.75 3.95-3.45 3.85-.4-.05-.8-.05-1.2-.15-1.85-.35-2.65-1.2-3-3.1-.6-3.4-1.15-6.8-1.75-10.15-.45-2.6-1-5.05-1.85-7.5-.5-1.5-.9-3.05-1.1-4.6C-.22 4.65 1.13 3.6 2.98 4c1 .2 1.8.8 2.35 1.7 2.05 3.55 4.3 7.05 5 11.25.2 1.2.5 2.3.8 3.45.15.35.4.8.8.75.6-.1.8-.55.85-1.05 0-.1-.05-.2-.05-.3-.15-.75-.15-1.35.5-1.85.6-.45 1.3-.5 2-.4.95.1 1.65.6 2.3 1.25.45.5.85 1.1 1.35 1.55.45.5 1.1.45 1.45-.15 1.4-2.45 2.3-5.05 2.7-7.8.4-2.1.75-4.25.7-6.4-.05-1.15.15-2.2.55-3.2.38-1.056.934-1.344 1.904-1.755zM205.25 9.64l.83.06c1.3.3 2.25 1.3 2.3 2.3 0 .55-.25 1.05-.7 1.4-1.25.9-3.15.65-4.1-.55-.5-.6-.6-1.3-.25-2 .78-1.034.226-.52 1.92-1.21zm-130 0l.83.06c1.3.3 2.25 1.3 2.3 2.3 0 .55-.25 1.05-.7 1.4-1.25.9-3.15.65-4.1-.55-.5-.6-.6-1.3-.25-2 .78-1.034.227-.52 1.92-1.21z"/>
</svg>
