<svg xmlns="http://www.w3.org/2000/svg" width="544" height="399" viewBox="0 0 544 399">
  <path fill="#FFF" fill-rule="evenodd" d="M408.057 79.678c-.974 1.463-2.027 2.862-3.022 4.032-.128.018-.247.077-.338.17-.78 1.57-2.825 3.323-3.674 3.774-.847.452-1.243 1.016-1.64 1.467-.394.46-.62.12-1.073.06-.45-.05-2.297-1.6-3.502-2.31-.59-.31-1.035-.83-1.244-1.46.123-1.95.067-3.91-.17-5.86-.31-1.43-.536-2.88-.678-4.34-.04-1.09-.232-2.17-.566-3.21-.58-1.22-1.412-2.14-3.333-2.31-1.97-2.42-7.008-4.17-8.42-4.11-1.413.06-2.715.62-4.013 1.13-1.814.72-2.734 1.45-4.803 3.33-1.33 1.22-2.14 2.09-3.16 4.4-1.08 1.76-1.69 5.86-1.69 5.97 0 .12-1.07 2.99-1.13 2.99-.05 0-1.13-.06-1.69 0-.89.2-1.92 1.69-1.98 1.92-.05.23-1.01 2.48-1.13 2.54-.11.06-1.39.62-2.14.68-1.43-.23-3.39.46-3.22 2.94-.82-1.48-1.84-2.89-2.99-4.16 1.95-1.77 3.97-3.42 5.86-4.79 2.83-2.47 4.91-4.32 6.27-9.7.97-3.78.17-11.27.12-11.5-.03-.13-.73-4.29-2.16-9.86.39-.34.58-.88.71-1.48.98-1.25 2.88-2.53 3.79-2.93 1.13-.17 1.92-1.13 1.92-1.18 0-.05 1.24-1.69 2.43-2.2.52-.66 1.09-1.28 1.7-1.86.52-.41 1.13-.67 1.86-.73.17-.48.29-.73-.05-1.52 1.58-2.18 2.8-4.6 3.62-7.16.06-.35-.11-.79-.39-1.01-.28-.23-.66-.05-.96.11-1.26 1.53-2.43 3.33-3.27 4.96-.65-.15-1.58 1.19-1.58 1.24 0 .06-1.4 1.41-2.2.79.12-1.2.14-2.4.06-3.61-.06-.48-.28-.93-.62-1.29-.29-.16-.62-.26-.96-.28-.95.17-1.13.28-2.88.12.04-1.39.23-3.33.34-4.17.16-.32-.34-.9-.56-.9-.22 0-.68.03-.96.22-.24.35-.41.73-.51 1.13-.16 3.14-1.24 6.16-3.1 8.68-.65.49-1.28 1.07-1.86 1.72-.19-.52-.39-1.03-.59-1.54.28-.26.47-.59.56-.96-.18-3.41-3.5-8.28-4.58-9.18-.37-.79-.45-1.01-1.24-2.31.8.2 1.63-.24 1.92-1.01-.27-.71-.39-1.07-1.24-1.92-.65-1.23-3.28-1.52-4.07-.96.03.33-.62.73-.67.73-.06 0-1.13-.55-1.75-.67-.67-.01-1.35.28-1.64 1.18-.34-.27-1.01-.22-1.3.23-.05 0-.68 1.07-.45 2.43-.21.72-.13 1.49.23 2.14.33.27.38.75.12 1.07-1.18.1-2.65-.62-3.28-1.35-.62-.73-1.76-1.47-2.6-2.25-.65-.67-1.25-1.39-1.8-2.14-.38-.6-1.42-.9-2.09-.4-.68.51.32 1.83.84 2.59.85.69 1.63 1.46 2.32 2.31.74 1.14.73 1.47 2.82 2.94 1.66 1.45 3.05 2.93 4.47 4.85-.6.27-1.26.39-1.92.34-1.02-.33-1.91.78-1.36 1.69.74-.13 1.5.01 2.15.4.72.91 1.47 1.52 2.94 1.86 1.08 1.03 1.87 1.64 3.96 2.09 1.01 3.63 1.48 7.38 1.38 11.13-7.45 9.73-12.67 19.75-14.84 25.87l-.17.15c-2.8 1.03-6.1 2.2-8.42 2.99-2.32.79-4.36 1.04-6.56 1.47-2.57.42-5.14 1.69-7.01 3.44-.69-.12-1.38-.22-2.09-.28-1-.04-2.01.03-2.99.23-1.67.53-2.48.5-4.07 3.32.12-2.72.46-5.02 1.42-8.06 2.6.17 2.77-2.59 2.71-2.65-.06-.05.22-2.82.22-2.87 0-.06.2-1.53-.39-2.03-.39-.01-.69-.34-.68-.73.37-.33.67-.71.91-1.13.91-2.54.96-6.15.57-8.07.67-.51.39-3.1.33-3.1-.05 0-.56-1.36-1.24-1.75.04-.79.34-1.13-1.01-2.15-.96-1.96-2.77-3.38-4.91-3.83-.6.15-1.41-.17-1.75-.62-.71-.45-1.5-.75-2.32-.9-1.09.03-2.09-.11-3.22-.5-1.05-.17-2.1-.3-3.16-.4-1.21-.06-1.98-.06-3.51.96-1.25.56-2.37 1.8-2.83 2.99-.41.31-.77.67-1.07 1.07-.48.87-.74 1.58-.74 2.88-.78 1.25-.96 3.5-.79 4.34.01.06-.17 3.2-.39 4.79-.16 1.1-.23 2.31-.06 3.33.1.59-.79 1.01-.62 1.69.08.31-.47.43-.56.73-.24.72-.08 1.52-.28 2.26-.15.51-.34.79-.34 1.58s.45 1.32.9 1.86c.36.44 1.07.38 1.58.11.16-.08.65-.93.51.17-.28 2.14.62 6.82 1.13 8.91.34 1.37.74 3.72.62 5.02-.65-.16-1.18-.17-1.98.33-1.01.11-.87.47-1.35.33-.71-.69-1.58-1.86-1.86-2.31-.28-.46-2.05-.15-3.05.05-.55.22-1.36.85-1.47.96-.12.12-.12.45-.74.17-.34-.45-.9.06-.9.12 0 .05-.31.67-.68.56-.24-.77-1.92-1.01-2.37-.51-4.18-.76-6.21-1.29-12.71 1.13.11-.16.21-.33.32-.49-.15-.02-.3-.05-.44-.11.32-.24.14-.81-.23-.99-.37-.17-.8-.09-1.19.01l-1.94.45c-.18.04-.38.1-.45.27-.06.12-.03.27-.07.39-.08.18-.3.25-.49.3l-2.17.56 2.61-3.07c.26-.3.52-.61.73-.95.15-.23.28-.49.52-.63.15-.09.33-.13.44-.25.36-.37-.03-1.25.47-1.36.29.01.58.03.86.04.01-.86-.52-1.7-1.29-2.07l-1.73 2.4c-.33.46-.67.93-1.15 1.22-.47.3-1.13.39-1.59.06.18-.39.3-.81.36-1.24-.6-.25-1.34-.11-1.81.34l.17.9-.93.18c.2.78-.92 1.49-1.54.98-.28-.52-.12-1.23.35-1.59.28-.21.64-.29.93-.49.31-.21.52-.53.71-.84l2.64-4.18.18-1.52c.14-1.16.29-2.32.55-3.45-.66-.02-1.02.75-1.18 1.39-.25 1.04-.43 2.1-.52 3.16-.08-.33-.57-.46-.81-.22.2.36.32.78.34 1.19l-.93.29c-.04 1.27-1.09 2.26-2.05 3.09-.33.28-.83.55-1.13.25-.28-.73.48-1.4.72-2.14.28-.87-.26-1.87-1.09-2.24.37.92.01 2.07-.82 2.62-.33.22-.76.38-.89.76-.1.31.02.67-.13.95-.34.63-1.47.1-1.96.62.31.55-.11 1.34-.73 1.4.34-.7.04-1.65-.64-2.03-.29.42-.4.96-.3 1.46l-1.11-.07c-.13.41-.48.74-.9.85-.29-.23-.1-.7.11-1 1.51-2.14 3.3-4.09 5.31-5.77.31-.26.61-.8.24-.98-1.69.67-2.6 2.69-4.34 3.2-.17.05-.36.1-.49.23-.17.18-.16.47-.24.71-.08.24-.42.44-.57.24-.15-.68.26-1.44.92-1.68-.18-.73-.26-1.48-.23-2.23.91.28 1.85-.89 1.39-1.71-.07.46-.43.86-.87 1-.22.06-.45.07-.63.19-.6.37-.27 1.44-.84 1.86-.21.15-.5.18-.68.36-.25.27-.16.71-.32 1.03-.34.67-1.57.57-1.72 1.3-.08.35.17.68.28 1.02.11.34-.04.85-.39.8l-.54-1.23c-.26-.62-.41-1.54.22-1.78l-.94-.41c.5-.94 1-1.88 1.49-2.82-.36-.3-.89.12-1.07.55-.18.43-.27.97-.69 1.18-.22.12-.49.11-.73.2-.76.29-.75 1.4-.42 2.148.33.74.84 1.53.6 2.31-.05.19-.16.37-.17.56-.02.32.19.61.3.91.38 1.09-.56 2.15-1.42 2.923l-.77-3.5c-.06-.24-.11-.5-.05-.74.1-.426.51-.69.81-1 .31-.316.51-.86.19-1.16-.5.19-.93.53-1.23.98.2-.56-.56-.91-1.06-1.23-.56-.36-.93-1-.95-1.66-.02-.52.16-1.05.01-1.54-.15-.5-.92-.8-1.17-.35 0 1.75.36 3.504 1.06 5.11.08.19.17.39.12.58-.04.17-.19.3-.27.46-.23.46.13.98.44 1.39.31.41.55 1.04.17 1.39-.31-1.5-2.99-1.07-3.64-2.45-.3-.64-.03-1.38.17-2.05.2-.68.27-1.53-.29-1.96-.62.73-.97 1.69-.96 2.66-.28.04-.53.22-.66.48-.33-.22-.61-.53-.8-.88l-.33.4c0-.53-.2-1.05-.55-1.45l-.71.52c-.39-.11-.62-.5-.68-.91-.22.33-.46.65-.66.98 1.02-2.76-.23-4.11-2.09-5.91.84-.79 1.61-1.77 2.31-2.26l-2.54-3.16c5.26-5.75 11.25-13.7 14.13-17.76.64-.51 1.16-1.14 1.53-1.86.86-3.27 1.19-6.82.96-10.09.79-.77 1.41-1.58 1.98-2.65.54-.58.67-1.43.34-2.15-.52-.31-.4-.51-1.75-.45.06-1.18.22-2.34.45-3.5.36-1.28.9-2.82 1.3-3.78s.64-2.34.28-3.5c-.17-.224-.49-.27-.73-.114-.13.59-.22.96-.39 1.75-1 1.04-1.93 2.71-2.26 3.67-.27.08-.56-.01-.74-.225-.05-.53-.01-1.07.12-1.58.38-.86.56-1.24.73-2.71.43-.45.87-.9 1.3-1.35.5-.56.62-1.58.17-2.26.79-.96.73-2.2.33-2.42-.4-.23-1.1.255-1.53.62-.19.32-.44.605-.73.84-2.55 1.47-4.92 5.81-5.2 7.11-.28 1.29-1.2 4.15-2.03 6.14-.4.77-.64 1.61-.73 2.48.35 4.13-.05 8.29-1.19 12.29-3.03 6.14-13.17 12.29-15.94 13.02-.92-4.05-1.19-8.47-.56-12.57.25-.73.29-1.51.11-2.26-.76-1.31-1.22-2.78-1.36-4.29.15-1.13-.51-2.53-1.35-3.15-.84-.62-1.38-2.27-1.92-3.49-.1-.3-.33-.55-.62-.67-1.53 0-3.22-.79-4.18-1.86.1.47-.05.95-.39 1.29-.63.19-1.86-.12-1.98-.17-.11-.06-1-1.57-1.64-2.26-.5-.43-1.1-.72-1.75-.84-.2.01-.38.15-.45.34.44 1.91 2.15 4.17 3.17 4.96.01.5-.11 1.01-.4 1.46-.28.45-1.13.34-1.36.85-.22.508.08 3.05-.11 4.568-.19.82.22 1.86 1.02 2.31.79.45 2.27 2.55 3.39 3.83.52.59.88 1.31 1.02 2.088-.1 1.23-.02 2.46.23 3.66 1.08 2.99 1.41 7.44 1.24 9.47-2.46 1.01-4.27 2.78-5.87 4.9-.25.63-1.4.22-1.47-.45.49-.18.39-1.47.34-1.52-.06-.05-.71-.04-.91-.34.02-.3-.17-.58-.45-.68-.33.11-.96.17-1.02.17-.05 0-.9-.69-1.18-1.18-.34-1.33-1.24-3.32-1.53-3.83 0-.06-.57-.38-.74-.68-.24-1.3-.76-2.53-1.53-3.6-.52-.47-.78-1.16-.68-1.86.15-.2.1-.48-.11-.62-.39.1-.77.23-1.13.4-.18.1-.39.1-.57 0-.8-1.37-1.71-2.67-2.71-3.89-1.23-1.29-2.47-2.57-3.73-3.84-.27-.27-.6-.48-.96-.62-.42-.07-.84.08-1.13.394-.07.28-.05.57.06.84.49.6 1 1.18 1.53 1.75 1.07 1.06 1.95 2.3 2.6 3.66.25.86.34 1.07.51 2.65-.86-.62-2.2-.79-3.16-.45-.55-.4-1.58-.34-1.97.5-.43.55-.82 1.11-1.19 1.69-.32.57-.61 1.15-.85 1.75-.23.69-.11 1.45.34 2.03.47.214.91.5 1.3.843.46.54 1.3.84 2.03.68.37.12.7.33.96.62 1.37 2.64 3.95 5.75 5.42 7.1-.21 1.06.06 2.82 1.47 2.82-.56.73 2.2 1.47 4.52.51.23.53.79 1.07 1.41 1.63-2.14-.03-4.97 2.71-5.31 3.61-.05 0-1.92 1.02-2.2 1.69-.06 0-2.32 2.93-2.49 3.1-.17.17-1.64.45-2.55.68-.47-.92-1.7-1.8-2.49-1.86-.37-.02-.49-.54-.79-.73-.68-.42-1.53-.44-2.32-.45-1.78-.03-3.73.17-5.32-.23-1.63-.41 3.39-2.99 4.18-2.82.38.08.69.29.85-.06.39-.87-1.7-1.29-2.54-1.35-.23-.01-.2-.4-.4-.51-1.44-.71-3.28-.05-4.8-.11-.69-.02-1.2-.68-1.86-.5-.92.25-1.54 1.11-2.49 1.24-.74.1-.28-.79-2.2.39-.915.56.505-2.08.847-3.1.2-.6.33-1.23.28-1.86-.09-1.09-.89-2.01-1.64-2.82-.81-.88-2.88-.35-.62-3.55 3.6-5.09 7.29-9.93 13.96-12.78.91-1.14 2.24-1.93 3.68-2.14-4.07.37-8.06 1.77-11.47 4.02 3.87-3.82 9.1-6.23 12.34-10.6-1.64-.66-3.54-.68-5.193-.04-.15-.47-.59-.84-1.09-.91-.14-.45.42-.78.89-.9 2.6-.67 5.37-.66 7.97.03-1.44-1.03-3.29-1.47-5.04-1.2-1.6.24-3.12 1.06-4.75 1-1.03-.04-2.03-.42-3.06-.5-1.03-.08-2.23.27-2.64 1.22-.37-.76-1.33-1.19-2.14-.94.11-.62.6-1.09 1.09-1.48 3.63-2.82 8.61-3 13.2-2.8-4.56-1.36-9.67-.79-13.82 1.56-1.09.62-2.27 1.38-3.5 1.12.11-.92.8-1.66 1.47-2.29 2.12-2 4.53-3.71 7.13-5.04-1.76.97-3.53 1.93-5.29 2.9-.9.49-1.82 1-2.51 1.76-.72.8-1.23 1.9-2.25 2.23 1.35-3.813 2.89-7.89 6.23-10.18l-2.66 1.72-.03-1.91c.13 1.08-.55 2.08-1.19 2.96-1.11 1.52-2.21 3.04-3.32 4.56.63-2.1.95-4.3.94-6.49l-1.03 4.9c-.23 1.1-.46 2.22-.98 3.22-.46.87-1.11 1.62-1.58 2.48-1.2 2.22-1.12 5.16-3 6.84-.18-2.77 2.05-5.37 1.53-8.1l-1.8 5.304c-.17-1.82-.3-3.81.71-5.334.63-.95 1.67-1.64 2.07-2.71L151 47.44c1.65-2.55 1.05-5.99 2.36-8.72.48-.993 1.23-1.98 1.07-3.07-3.51 4.4-4 10.75-7.87 14.85-.26-1.18-1-2.24-2-2.903l1.78-.92c.3-.15.65-.42.54-.74-.05-.15-.2-.25-.35-.32-1.29-.6-2.77.17-3.97.95-1.19.78-2.61 1.62-3.95 1.14.22-.42.64-.67 1.06-.93-.67.22-1.37.39-2.09.49-3.55-2.79-9.72-3.72-13.28-2.81-3.79.44-5.99.62-10.23 5.13-4.98 3.19-8.7 10.71-8.98 15.28-1.53 3.78 0 9.98 1.64 12.12-1 2.15.5 5.81 3.27 6.31 1.92 2.99 5.26 5.47 8.48 6.48.05 1.18-.16 2.36-.62 3.44-.18.24-.44.41-.74.45-2.81-.67-6.67-1.63-8.42-2.08-.19-.45-.59-.77-1.07-.845-.42.16-.89.14-1.3-.05-.51-.55-.62-.85-1.98-1.07-1.91-1.47-3.16-2.31-6.44-3.27-.82-2.32-4.91-4.115-6.21-4-1.3.11-1.86-1-2.71-1.64-1.827-1.36-3.66-2.7-5.82-3.44-1.14-.38-1.69-.05-3.28-1.52-2.37-2.19-4.65-2.2-4.63-2.25.9-2.93-1.13-3.55-3.73-4.17-.43-.73-1.08-1.31-1.87-1.63-1.16-.08-1.19-.34-3.45.5 0-.35-.198-.674-.508-.84-1.12.04-1.3-.17-3.22.9-1.64-1.26-3.53-2.14-5.54-2.59-.06 0-5.69-2.23-8.54-3.15-3.17-1-7.06-2.707-9.21-3.83.21-.71.04-1.48-.45-2.03-.56-.2-1.16-.3-1.75-.28-.69.15-2.04.22-2.09.22-.06 0-2.38-.865-3.22-1.81-1.13-2.69-1.52-5.625-1.14-8.51.11-.26.17-.79.17-.84 0-.06-.363-.78-.68-1.07-1.02-.56-1.97-1.24-2.822-2.03-.43-.51-1.13-.69-1.75-.45-.153.24-.27.51-.34.79-.05.85 1.7 1.86 1.757 1.86.06 0 .32.73.34 1.13-.15.79-.62 1.483-1.3 1.92-1.02.17-1.64.28-3.05-.62-.344-.898-.95-2.178-1.35-3.048-.45-.89-.916-1.72-1.47-2.59-.29-.39-.506-.68-1.354-.56-.84.11-.9 1.52-.45 2.7-.02 1.08.28 2.137.85 3.05.45.386.76.896.91 1.46-.1 2.32.73 4.74 2.37 6.54-1.42 1.56-.73 5.58-.11 6.315.08.08 1.06.62 1.53 1.01.417.35.748.79 1.13 1.18.41.42.95.69 1.528.79.6.11 1.07-.11 1.81-.11.06 0 .36.74.51 1.13.15.43.43.8.79 1.07.34.12.85.11 1.08.06.23-.06.89.41 1.36.56 1.1.27 2.16.67 3.17 1.18 6.56 4.37 18.82 8.74 21.7 9.41 1.03-.54 3.05 1.97 3.05 2.03 0 .05.21 1.69.34 2.53.15.74.48 1.44.96 2.03 1.49 1.08 2.83 1.69 5.32 1.52.99.79 1.88 1.7 2.65 2.7.62 1.04 1.64 1.77 2.82 2.03 1.53-.32 3.13.01 4.41.9.88 1.4 1.92 2.68 3.11 3.83.99.75 1.86 1.18 3.61.96 1.04 1.71 2.4 3.21 4.01 4.4 1.02.48 1.7.73 3.34.56 2.52 1.86 5.7 4.02 8.48 5.47 4.62 1.95 9.05 4.33 13.23 7.1 3.95 3.19 7.04 7.32 8.99 12 .59 4.04.48 8.16-.34 12.17-.48 1.22-1.04 2.41-1.69 3.55-1.22 1.8.79 5.75 2.03 6.2.04.61-.06 1.23-.28 1.8-1.04 1.58-1.92 4.56-2.04 5.29-1.63.4-2.03 4.17-1.47 4.79.57.62.68 1.69.57 3.49-.12 1.8-1.22 2.72-1.98 4-1.38 1.95-2.91 3.8-4.58 5.52-.97.86-1.85 1.8-2.65 2.82-.65.99-1.53 1.91-2.43 2.59-.91.68-3.11-.34-3.17-.34-.06 0-2.54 1.07-3.05 1.69-.51.62-.17.05-.23.05-.05 0-.85.11-2.82.85h2.54c.06 0-.96 1.29-2.03 2.25.58-.26 1.81-.4 1.87-.4.06 0-1.8 1.35-3.39 1.74 2.94.22 3.34-.45 3.39-.45.06 0 3.62-2.82 3.68-2.82.06 0 .42-.15.51.05-6.57 9.28-17.18 21.08-22.15 25.93-4.97 4.85-7.79 9.35-11.81 13.92-.23.26-.64.29-.9.06-.48-5.31-1.92-12.18-2.94-15.73-1.01-3.55-4.68-8.43-7.91-12.01-6.78-5.54-17.01-17.59-18.08-19.05-1.08-1.47-.65-1.66-.51-2.54.89-1.61 2.12-3 3.62-4.06 1.03-.43 1.75-.79 2.94-1.63 1.18-.85.04-2.44-.57-3.5-2.89-2.36-4.47-3.61-9.72-5.53s-10.65-4.93-15.65-8c-3.19-2.32-6.6-4.34-10.17-6.03-2.44-.88-6.22-.96-7.74-.7-1.53.25-1.81 1.47-1.87 2.62-.09 1.52 3.81 6.6 6.78 9.05 0 .33 1.36 1.6 1.44 2.96-1.35 1.18-.08 2.03-.08 2.11 0 .08.52 1.09.85 1.6.58.75.98 1.62 1.19 2.54 0 1.59.88 3.05 2.29 3.8.75-.04 1.44-.26 2.12-.76-.08.71 1.35 1.6 1.44 1.6.08 0 .41-.02.59.08 6.98 8.57 12.72 18.08 17.04 28.24 1.87 6.97 4.36 13.77 7.46 20.29 3.62 6.14 6.27 14.12 7.2 20.13 3.04 5.77 7.77 10.49 13.56 13.53 4.08.74 8.28.45 12.21-.85 1.82-1.17 3.63-2.35 5.43-3.55 15.22-10.39 37.13-28.67 43.32-34.33 3.05-2.29 2.27.43 3.31-.09.79-.4 1.28-1.23 2.12-1.52 1.01-.36 3.05-.08 3.22-.08.17 0 1.78 1.02 1.86 1.02.09 0 .59 1.7.59 1.78 0 .09 1.35-.28 1.87.17.36.31.47.82.93.93.55.13 1.4-.2 1.53.34 2.86 11.89 8.16 34.23 9.75 51.75.24 2.6.25 5.22.77 7.78.69 3.4 1.16 6.58-.17 10.4-5 14.37-2.89 27.73-2.89 28.07 0 .33 1.56 7.88 2.29 11.83 1.31 7.44.59 17.33-.68 22.66-1.44 4.31-4.15 5.41-5.42 6.59-1.27 1.18-.75 2.77-.34 4.14 1.31 1.68 2.82 3.22 4.49 4.56.46.29.94.55 1.44.76 4.01 1.37 6.85 4.94 7.29 9.13-2.5 5 11.7 11.93 11.87 11.84.17-.08 4.47 1.18 6.36-.17.33-.91.51-2.7.51-2.87 0-.17-2.04-6.09-3.39-8.79 0-.08-3-4.98-4.24-7.61-.67-1.71-1.02-5.32-1.02-5.41 0-.08.01-1.5-.43-2.11-.93-.54-1.65-1.37-2.04-2.37-.33-9.86.18-19.73 1.52-29.51 1.05-4.64 1.52-6.34 2.12-14.12 1.47-7.49 2.23-15.11 2.29-22.74-.16-1.87.01-3.76.51-5.58 1.49-3.11 2.27-6.52 2.29-9.97-.27-1.25-.38-2.53-.34-3.8.27-1.63.51-3.39.68-4.91.68-.14 1.19-.25 2.04-.42.85-.17 1.01.55 1.44.93 1.15 1.36 1.52 1.95 4.15 3.38 1.92 4.14 3.26 8.52 3.98 13.02.77 4.77 3.56 11.84 5 13.62.05.07 3.39 5.5 4.15 6.94.04.07 2.03 2.7 2.12 2.7.09 0 5.58 5.15 11.7 3.64 8.22-2.03 7.95-7.86 10.76-12.68 3.09-8.42 6.87-23.76 7.29-25.87.42-2.11 2.53-8.61 3.99-12.85.07-.21.32-.29.51-.17.59 5.23 1.32 10.45 2.2 15.64 1.26 6.33 1.94 12.75 2.04 19.2-.34 4.45.01 8.92 1.02 13.27 1.27 3.15 1.78 5.84.76 10.15-1.02 4.31-1.62 7.85-2.04 11.84-.11 3.01.43 6.51 1.19 8.96 0 2.29 1.44 22.58 1.69 25.2.25 2.62-1 4.99-1.95 7.36-.82 2.04-2.02 3.9-2.88 5.92-.8 1.87-1.78 2.2.59 6.09.05.07 1.7 3.38 1.7 3.46 0 .08-12.21.25-11.1 2.2.04.07 1.95 2.11 2.03 2.11.09 0 5.06 2.62 7.29 4.39 1.92 1.53 3.41 3.54 5.09 5.32 1.69 1.79 3.56 2.95 6.79 2.95.34 0 9.58-2.11 11.02-3.63 0-.09-1.35.4-1.86-.09-.05-.45-.1-.9-.17-1.35-.16-.99-2.2-1.95-2.29-1.95-.09 0-2.62-1.76-3.22-3.22.02-3.89-.17-8.03-.51-11.67-1.36-2.11-1.93-4.62-1.61-7.1.55-1.08.87-2.26.93-3.47-.286-1.76-.344-3.55-.17-5.33 1.31-5.65 2.665-11.3 4.07-16.94 1.72-6.67 3.22-18.82 3.33-20.4.11-1.58-.12-7.18-.23-10.77-.115-2.83-.095-5.67.06-8.51.34-3.33.506-9.98.506-10.03 0-.05 1.14-8.13 1.41-12.23.06-3.51.34-7.01.85-10.49 1.17-5.53 1.81-10.6 1.92-16.85 0 2.7 9.44 8.17 13.73 9.08 0 .05 7.63 3.21 8.71 5.07-1.22 1.54-2.39 3.12-3.51 4.73-.4.63-.85 1.21-1.36 1.75-.83.75-1.42 1.73-1.69 2.82.04.65-.17 1.29-.57 1.81-.42.26-.79.61-1.07 1.02-.247.59-.227 1.46.905 1.69-.68.52-.85 2.08.39 2.53-.56.08-.56 1.69.12 1.69-.16.44-.05 1.19.85 1.13-.08.67-.17 1.18.91 1.8-.51 2.48 1.41 3.38 1.41 3.44.79.11 2.96-1.23 3.62-2.71-.13-1.22.28-2.48 1.41-3.38 0-.06 3.11-5.98 3.11-6.04 0-.06 4.05-8.66 7.46-12.01 1.12-.67 2.09-2.2 2.32-3.15.22-.96-.15-2.12-.34-3.16-.46-1.71-3.28-2.98-4.75-2.42-1.47-1.28-2.43-2.42-3.28-4.85-.06-.05-.41-2.43-.79-3.6-.9-2.04-2.38-3.95-4.07-5.3 0-.06.33-1.13 1.18-1.13.72-.84 1.13-1.75 1.02-3.16.8-1.3 1.3-2.7 1.47-4.34 1.13-1.51 2.03-3.1 2.77-4.96 2.29-2.42 4.01-6.87 4.29-9.02 1.1-1.06 1.47-1.29 2.83-3.6 2.32-1.58 2.29-3.18 3.67-4.57.63-.51 1.25-1.02 1.87-1.53.58-.48 1.35-.67 2.09-.51 1.05.85 1.88 1.93 2.43 3.16.24 1.29.79 2.65 1.41 3.66-.36 1.91-.06 4.45.39 5.81.64.8 1.15 1.69 1.53 2.65.42 1.89.45 3.84.11 5.75-.23.57-.23 1.19 0 1.75.19.2.3.46.33.73-.06.3-.04.62.06.91.69.98 1.53 1.75 2.77 2.31.73 1.58 1.6 3.09 2.6 4.51 1.79 2.1 3.3 4.43 4.46 6.93.84 2.68 1.18 5.48 1.02 8.28-.32 1.35-.11 2.77 1.13 4.01-.05 3.84.34 4.29.34 4.34 0 .06.81 2.26 1.02 3.44l.51 7.95c.06.92.23 1.83.51 2.71.48 1.03.73 3.27.73 3.32 0 .05.18 1.22.4 1.8.35.63.74 1.23 1.19 1.8.55.59 1.35.86 2.15.73.76-.6 1.3-1.3 1.58-2.43.5.04 1-.03 1.47-.23.44-.33.96-.79 1.24-1.07.33.1.68.12 1.02.05.63-.3 1.02-1.3.79-1.92.39.14.83.09 1.19-.11.53-.74.85-1.24.68-2.65.38.21.84.19 1.19-.06.39-.9.28-2.14-.17-2.93-.45-.79-.45-2.29-.68-3.44-.16-.81-.44-1.59-.84-2.31-.75-.96-1.27-2.08-1.52-3.27.02-1.56.05-2.48-1.58-4.4-1.01-2.59-1.36-3.33-2.66-7.895 4.4-5.11 6.83-12.23 6.27-19.22-.01-.17 1.02-.56 1.24-1.01.25-.97.19-1.994-.17-2.93-.13-.16-.19-.36-.17-.57.35-.69.24-1.52-.28-2.09-.51-.11-.94-.44-1.18-.9-.04-.65.07-1.31.34-1.91.67-.91.39-2.77-.17-3.39-.04-4.68-.06-12.51-.06-14.03.59-.81.62-2.15 0-2.99-.28-1.72-.28-3.47 0-5.19.29-.86.31-1.78.05-2.65-.45-.68-.62-1.51-.45-2.31.54-.8.67-1.8.34-2.71-.57-.53-.78-1.34-.56-2.08.54-.48.96-1.07.34-2.14.33-1.56-.45-3.72-1.3-4.62-.1-.63-.12-1.27-.06-1.91.15-.7.45-.67-.23-2.14.07-2.12-.74-4.9-1.41-6.2-.06 0-.78-.4-1.13-.677-.48-.49-.71-1.18-.62-1.86 1.72-2.6 2.94-.45 2.43-9.02-.75-4.73-1.41-7.61-2.6-14.15 1.15-5.22-.06-13.75-.79-16.01.06-1.69-.06-3.55-.28-5.07.55-1.51.05-3.89-.51-4.79.07-.91.22-1.29-.74-2.65.97-4.94 1.64-10.6 1.86-15.44.23-4.85 2.28-4.766 4.24-6.54 0 0 3.69-1.91 7.71-4.26 2.87 5.38 6.35 10.36 8.51 12.73-.36 1.364.1 2.81 1.18 3.72.33.04.6.275.68.59-.45 1.38-.25 3.044.59 4.31.28.67.37 1.4.26 2.11-1.15 2.58-1.02 6.35-.17 8.46-2.23 5.13-3.14 13.36-2.96 16.49-.32.32-.58.69-.76 1.1-.37 1.46-.5 3.13-.42 4.48-.68.51-.89 1.34-.68 2.12.15.13.18.34.09.51-.78.31-1.37.97-1.61 1.774.12.694-.14 1.4-.68 1.86-1.04.2-1.95.76-2.37 2.11-.42 1.945 1.61 1.03 1.87 1.945-.22 1.02-.25 1.27-.76 3.05.93 1.525 5.85.34 6.19.34.34 0 .83-.97 1.44-1.18 1.55 0 2.458 0 4.66-.09-.49 8.31-1.02 22.07-1.1 24.94-.09.09-1.102-.17-1.02-.17.08 0-1.44 4.99-1.44 4.99.17.11.248.32.17.51-6.56 3.46-11.7 9.47-9.41 20.13-1.46 2.08-2.29 7.19-2.29 7.27 0 .08-.08 2.05-.34 3.04-.54 1.27-.94 2.61-1.19 3.97-.11 1.52-.36 3.02-.762 4.48-2.39 6.19-3.3 17.68-3.22 19.62.42.27 1.36.42 1.44.42.09 0-.95 4.93-1.01 7.44.23 2.75 1.43 5.33 3.39 7.28 3.4 1.56 7.88 7.44 8.05 7.78.17.34 5.81 7.32 9.24 10.49 5.24 3.9 10.94 12.43 12.21 15.3 0 .17.34 1.57.34 2.37-.36 2.48-.51 4.31-.34 7.52-.96 1.88-1.44 4.06-1.36 6.17-.45.28-.34-.26-1.1 1.18s-.05 1.52 0 2.29c.09.7 0 .84.68 2.03-.21 2.62.92 3.94 2.12 5.58.96 1.3 2.95 1.31 4.49.84 2.27-.69 3.25-3.44 4.67-5.33 1.62-2.17 2.54-5.5 2.88-7.61.34-2.11 3.17-7.76 5.51-11.25 1.44-2.16 2.71-4.42 2.8-7.02.04-1.4-1.11-2.36-2.72-3.21-1.61-.84-3.16-1.41-5.65.06-3.95-2.65-7.716-10.3-9.436-13.47-1.02-1.89-1.82-3.9-2.37-5.98-.94-6.61-9.04-14.77-11.92-16.12.12-1.57.34-2.71 1.36-4.51 1.43.05 2.85-.1 4.24-.45.64-.26 1.15-.77 1.41-1.41-.02-2.26.4-4.5 1.24-6.595.75-1.17 1.38-2.414 1.86-3.72.91-3.64 2.6-7.72 4.13-10.48 2.066-.67 3.94-1.81 5.48-3.33.21-.32.64-.42.96-.22.13.53.28 1.06.456 1.575.36.92.45 1.3 1.53 2.54.32 1.55.904 3.16 1.58 4.45 0 .23 1.41 2.18 1.86 3.39.44 2.1 1.09 4.16 1.92 6.14 1.15 2.16 1.29 4.72.39 6.99-.31.3-.36.78-.11 1.13 1.19.31 2.21.57 3.56.9.16 1.23.43 2.44.79 3.61 1.4 3.4 2.8 6.8 4.18 10.2.84 2.06 1.37 4.22 1.59 6.43-.28 6.04.7 12.07 2.88 17.7 1.05 1.62 1.64 5.47 1.64 5.53 0 .06 1.46 6.56 2.48 9.76 1.12 2.89 1.36 6.82.96 9.24-.77.55-1.3 1.19-1.52 2.37-.06 0 .22 3.89 1.75 5.41 0 .06.45.39.51.62.05.23-.06 3.54-.23 5.3-.44 2.92-.91.28-.4 8.85s2.545 8.68 2.6 8.74c.057.05 3.347.44 5.03.34 2.82-.53 5.29-2.21 6.84-4.62.2-1.19.31-2.4.34-3.61-.165-3.79-.97-7.53-2.374-11.05-.44-.73-.84-1.48-1.19-2.25-.29-.78-.44-1.6-.45-2.43.2-1.2-.11-2.53-.9-3.55-.1-.96-.09-1.92.06-2.87.3-1.06.24-2.19-.17-3.21-.33-.38-.58-.82-.74-1.3-.25-2.15-.29-4.32-.12-6.48.35-1.94.61-3.9.79-5.86.08-1.7.21-3.39.4-5.08.85-5.914 1.25-11.89 1.19-17.87-.35-3.96-1.3-7.84-2.83-11.5-.79-1.3-1.34-2.74-1.63-4.23-.03-2.13-.11-4.4-.23-6.37 1.29-.03 2.71-.79 3.45-1.75-.6-.913-.96-1.96-1.07-3.04.18-1.32.14-2.65-.11-3.95-.37-1.004-.56-3.1-.56-3.16 0-.052 1.04-5.94.96-8.96-.11-.71-.17-2.083-.17-2.14 0-.06.59-9.45-.96-13.92-.9-1.34-1.05-3.04-.4-4.51.85-.63 1.49-1.494 1.87-2.48.11-1.58.22-2.6-1.76-4.4-.29-3.54-2.49-7.73-4.41-9.7-.28-2.98-.91-6.484-1.59-7.22l-.79-.45.11-2.76c-.12 0-.23-.07-.28-.17.33-7.68-.4-16.4-1.64-23 4.07.42 5.76-5.06 2.14-6.99-.13.16-.302.28-.502.338-.64 0-1.16-.54-1.13-1.18.53-.47 1-1.01 1.42-1.62v.01c.37.48 1.1 1.35 1.19 1.35.08 0 .55.28.76.51.55.59.95 1.3 1.61 1.77 1.03.73 1.53-.93 2.46 2.87 1.09 4.45 3.77 8.35 6.95 11.67 2.79 2.91 7.28 5.92 9.07 8.03 1.36 1.61 6.78 7.44 11.53 9.72.27 2.36-.55 6.26-.85 7.06 0 .047-.48.32-.72.47-.17.1-.28.27-.3.47.22.49.18 1.06-.09 1.52-1.047.664-.85 3.295-.51 3.674.34.38 0 .54-.086.8-.16.28-.22.61-.17.93.12.22.17.47.13.72-.27.5-.37 1.08-.3 1.64.23.49.32 1.03.25 1.56-.19.452-.28.95-.25 1.44.15.502.33 1 .55 1.48.23.41.14.92-.21 1.23-.26.01-.51.13-.68.33-.08.31-.08.59.22.93-.14.88-.5 1.71-1.06 2.41-.19.14-.31.353-.34.59.06.19.09.39.09.59-.06.34-.76.68-.81.68-.04 0-.59.68-.21.97-.3 1.35-.34 3.26-.26 4.15-.44-.01-.88.02-1.31.08-.18.04-.35.15-.46.3-.06.2.01.42.17.55.63.05 1.27.08 1.91.08-.044.2 0 .4.13.55.61.27 1.28.4 1.95.38.8-.2 1.64.14 2.076.85-.84 9.77-1.2 19.58-1.06 29.38.44 6.79 1.75 13.5 3.9 19.955.86 1.78 2.31 3.2 4.11 4.02 1.05.08 3.1.13 3.14.13.04 0 3.28-.84 4.66-1.82 1.21-1.42 2.01-3.15 2.29-4.99-.18-1.44 2.76-3.26 2.89-3.26.12 0 2-3.42 2.79-5.24 2.04-5.89 1.74-14.71.68-18.69-.15-1.37.12-3.36.19-3.8.09-.25 1.1-3.92 1.29-6.68 1.36-1.82 2.58-3.63 3.81-5.66.13 3.05.33 6.09.59 9.13.24 2.23.154 4.48-.25 6.68-2.19 6.4-1.19 18.9-.85 20.25.36.71.89 2.07.93 2.2.04.13 1.61 3.89 1.61 3.94 0 .04.68 2.66.68 2.79 0 .12 1.44 2.72 2.54 3.8.68.43 1.4.77 2.16 1.02 2.126.4 4.3.46 6.44.17 2.076-.62 4.03-3.63 4.2-4.94.62-1.04 1.26-2.07 1.91-3.09.54-.83.94-1.75 1.19-2.71.06-.7.16-1.39.29-2.07 1.19-4.67 1.93-9.44 2.2-14.25-.19-4.95-.06-9.91.38-14.84.67-4.26 1.23-10.53 1.36-12.86-.25-1.37-.04-2.78.597-4.02.59-.58 2.21-.93 2.29-.93.09 0 3.27-1.65 3.82-2.837-.463-1.56-1.06-1.65-1.1-1.65-.04 0-2.46-2.24-5.55-1.06-.18-3.69-.935-7.32-2.25-10.78-.16-.29-.28-.6-.34-.93-.01-1.83-1.1-4.23-1.86-5.16.63-.47.21-2.32.17-2.37-.04-.04-.38-.01-.55-.08-.43-.19-.64-.69-.77-1.14-.35-1.27-.33-2.61-1.1-3.68-.2-.28-.463-.59-.21-1.01.25-.42.11-1.07 0-1.6-.524-2.55-1.4-6.94-1.36-7.7.007-.09.44-1.87.93-2.7 2.45-4.15 3.18-12.15 2.2-14.29-.4-.87-.58-1.83-.51-2.79.94-2.87 1.37-5.89 1.27-8.92-.35-1.65.34-4.56.55-5.03 0-.04 1.27-11.08 1.19-12.13.13-.62.38-1.225.3-1.99.76-.67 1.64-3.3 2.54-4.9 1.07-1.73 2.42-3.27 3.99-4.56 2.96-1.715 5.97-6.216 6.57-7.866.48.14 1.31-.68 1.31-.72 0-.04.2-1.09.64-1.44 1.3-1.03 2.37-2.23 1.35-3.55-.184-.23-.59-.09-.77-.33-.22-.31.04-.76.21-1.1 1.51-2.85 4.79-7.23 5.13-8.2.15-.43.72-1.14.76-1.14.05 0 .52-.52.98-1.06 2.84-3.308 4.37-6.21 7.34-10.82 2.7-4.198 5.5-8.91 7.5-13.49.84-2.67 2.13-5.19 3.81-7.44.36-.34.78-.63 1.23-.84 1.25-.36 2.84-.67 3.81-.8.38-.38.25-.9.55-1.27 1.42-.98 2.88-1.91 4.37-2.78.73-.4 1.52-.67 2.336-.81.45 0 .86-.29 1.01-.72-.12-.41-.3-.72-.81-.97.13-.29.08-.61-.12-.85-.685-.21-1.19-.3-2.12.29-.04 0-.286.25-.466.3-.54 0-1.08.06-1.61.17-1.49.482-2.98.99-4.45 1.52-1.4.53-4.37.802-4.41.802-.04 0-.35.23-.55.17-.4-.5-.98-.82-1.61-.89-.25.07-.51.07-.76 0-.34-.213-.59-1.02-.59-1.06 0-.04-.79-.67-1.27-.844-.25-.03-.5.05-.68.21-.33.72-.51 2.28-.51 2.32 0 .04-.34.58-.55.84-.32.32-.34 1.02.04 1.35 0 .04.83.37 1.06.76.15 1.58-1.57 4.44-1.61 4.48-.05.04-4.39 6.61-6.91 9.68-3.13 3.32-6.05 6.84-8.73 10.53-1.33 2.08-3.61 6.34-3.65 6.43-.04.09-.26.83-.51 1.18-2.5 2.45-5.59 5.79-7.2 7.65-.93-.76-1.49-.45-2.16-.25-.35.27-.57.67-.6 1.1.27.7-.05 1.49-.72 1.82-.41-.12-.98.13-1.15.55-.17.42-.04.63 1.02 1.44-.62.07-1.27.63-1.44 1.224-1.01-.17-1.06.29-1.57.51-.81.43-1.39 1.44-1.18 2.49-.5-.08-1.01.06-1.4.38-.31.64-.42.72-.68 2.03-2.3 1.02-6.19 4.23-6.23 4.27-.04.04-1.65-.38-1.65-.34 0 .04-1.06 1.48-1.06 1.69 0 .21-.34.95-.85.93-.58-.72-.93-1.61-.98-2.53.45-1.73.31-3.57-.42-5.2-.51-.54-.49-1.39.04-1.91.44 0 .93-.88.93-.93 0-.04.18-5.3-.55-7.86-.34-.65-.61-1.33-.8-2.03-.48-2.82-4.367-5.96-5.81-6.34-.04-.04-3.07-3.01-6.69-3.38-.47.04-.95.06-1.42.09-.38.02-.85.14-.92.52-.02.1 0 .2-.03.29-.1.31-.55.28-.86.18 0-.33.28-.62.61-.64-.19-1.03.06-2.13.66-2.98-.56.11-1.04.55-1.19 1.1-.1.38-.05.79-.19 1.15-.15.36-.63.64-.92.38.05.61-.04 1.24-.27 1.81-.8-.5-1.38-1.35-1.55-2.27-.09-.5-.1-1.07-.47-1.4-.48-.43-1.22-.21-1.81.03-.08.03-.16.06-.2.13-.06.1-.01.23.05.34l.81 1.6c.21.42.42.88.3 1.32-.13.45-.77.74-1.07.38-.06-.41-.34-.78-.72-.95-.29-.13-.71-.24-.7-.56.01-.4.76-.64.53-.97-.3.09-.6-.13-.87-.3-.27-.16-.67-.26-.86-.01-.17.22-.05.53.07.77.32.63.64 1.26 1.13 1.76.26.26.59.55.55.92-.16 0-.3.13-.33.29-.1.07-.27.03-.33-.08-.06-.1-.03-.23-.06-.345-.09-.37-.62-.36-.99-.27-.04-.36-.24-.83-.59-.74-.16.04-.27.19-.37.32-.17.22-.38.39-.62.53-.02.18-.06.37-.07.55-.04.04-.9.15-1.31.34-.5.34-.85 1.52-.85 1.61 0 .08.04.38 0 .38s-.93.71-.59 1.86c-.24 1.44-1.36 2.59-2.8 2.87-2.29-1-6.27 4.06-6.27 4.1 0 .04-1.61 2.16-5 3.76-.14-.34.17-1.02.21-1.06.04-.04-.65-.02-.98.04-.27.1-.55-.13-.51-.42.43-.173.7-.6.68-1.06-.22-.29-.49-.55-.8-.76-.77-.35.26-.67-2.5-.42-2.01-3.28-4.79-7.563-6.23-9.72 0-1.18-.29-3.67-.63-4.6 0-.02-.1-.31-.26-.78 3.28-4.99 6.03-10.31 8.18-15.89.54-2.3 1.44-4.51 2.65-6.54.63-.77 1.14-1.62 1.52-2.54.25-1.02.42-2.06.51-3.1.09-11.14-5.37-31.004-6.11-32.864-.21-.99-.23-2.48-.17-3.04.34-.13.62-.39.62-.9 0-.5-.39-.29-.51-.5l-.23-.9c-.12-.46-.1-.96.053-1.41.85-1.2 1.37-2.6 1.526-4.06-.11-.77-.08-1.55.12-2.31.39-.82.77-1.64 1.13-2.48 1.13-2.8 2.11-5.66 2.93-8.57.11-.51-.23-1.18-.79-1.35-.57-.17-.86.45-1.13.85-.32 1.04-.69 2.05-1.14 3.04-.75 1.42-1.81 3.5-2.2 4.29-.31-.08-.79-.28-.9-.34-.12-.05 1.01-2.64.45-3.94-.72-.54-1.68-.63-2.49-.22-.18.3-.85.51-.907.51-.05 0-.17-1.28-.62-1.75-.44-.18-1.3-.28-1.41-.28-.11 0-1.18.66-1.52 1.24-.18 1.07-.28 1.92-.34 3.22-.06 0-.84.22-1.13-.11.07-2.05.11-6.09.11-6.15 0-.06.43-2.09.28-3.16-.15-.41-.56-.74-1.06-.74s-1.48-1.15-2.21 5.5c-.26 1.24-.39 3.72-.39 3.78 0 .06-.23 3.83-.68 5.41-.61-.54-1.16-1.14-1.64-1.8-.54-.97-1.27-1.83-2.14-2.54-.66-.34-1.41-.48-2.15-.39-.44.2-.82.54-1.07.96-.09.38.07.76.4.96.58-.04 1.15.24 1.47.73.03.7.17 1.25.96 1.87.28.59.49 1.21.62 1.86.08.91-.34 1.12 1.3 2.42 1 1.167 2.01 2.31 3.05 3.44.75.78 1.3 1.747 1.58 2.82-.73.17-.59.69-.73 1.13-.03.46.05 1.01.96 1.01-.36.1-.68.45-.68.9s.4.34 1.02.45c0 .05.56 5.02.56 5.24 0 .22.8 4.45.96 6.71.01 3.96.23 9.43.46 14.04-1.25 0-2.52.55-3.4 1.86-.09.04-.43.67-.64.71-.21.04-.42.21-.47.25-.05.04-1.7.03-2.33.04-.49.04-.98-.08-1.4-.33-.83-.95-1.78-1.82-2.8-2.54-.5-1.34-1.91-2.62-3.01-3.04-.61-.67-1.44-1.1-2.33-1.23-.37.076-.72.3-.68.89-.34-.37-1.82-1.01-2.08-.72-.26.3-.29.68-.17.93-.75-.06-1.5.53-.89 1.35.88 1.2 2.38 3.64 2.38 3.77 0 .13.08.76.08.803 0 .05-.59.21-.64.21-.04 0-4.07-1.94-4.75-2.07-.67-.12-.44.39-.72.47 0 0 .06.52.21.72.94.58 1.88 1.17 2.8 1.78.58.39 1.1.88 1.53 1.44.85 1.58 2.03 2.97 3.47 4.05.7.32 1.15 1.01 1.18 1.78-.43.76-.25 1.72.42 2.28.35 0 .61.34.51.68-.51.18-.43 1.52.17 1.6-.45.3-.68 1.27.17 1.61.38 2.49.79 4.99 1.23 7.47zm6.657-9.51c.17-.208.34-.415.51-.62-.11.012-.195.02-.222.035-.058.027-.233.316-.288.585zm1.203-1.444c.196-.23.393-.457.59-.685 1.013-.98 3.222-2.65 3.278-2.65.056 0 1.308-1.27.904-1.81-.08-.88-.25-3.71-.44-7.25-.26.17-.48.38-.55.6-.3.46-1.19 1.1-1.19 1.14 0 .04-.59 1.49-1.27 1.69-.38.84-1.41 1.97-2.46 2.45-.05.21.12.4.34.38.61.38.89 1.13.68 1.82-.03.15-.05.31-.05.46.16.23.44.35.72.29.17.42-.35.78-.68.46 0 .67-.29 1.53-.77 2.11-.03.13 0 .27.08.38.24.22.5.42.79.58zm-1.21 33.67c-.734 1.13-2.27 3.273-3.512 4.54-.114 1.577-.19 3.757-.17 5.637-.4.86-1.17 1.48-2.09 1.7-.057 1.47-.228 2.99-.51 4.46-.215.76-.498 1.49-.846 2.2-.4 1.28-.59 2.61-.57 3.95-.23 1.61-.71 3.17-1.41 4.63.05 2.15.34 7.95.39 7.95.11 1.02.5 6.92.34 10.09.04.2.08.4.11.6.98-1.21 2.38-3.3 2.41-3.37.59-1.52.39-3.33.25-4.99-.09-1.08-.22-2.28.34-3.21 1.1-1.86 2.73-3.3 4.49-4.56.93-.67 1.89-1.33 2.63-2.2 2.1-2.49 4.55-4.92 5.51-8.03-.26-1.1-.15-1.91.17-2.79-.11-.44-.85-.84-.94-.84-.09 0-1.27.26-1.44-.25-.17-.51-.13-1.06.08-1.52-.13-.86-.77-1.56-1.61-1.77-.87-.76-1.31-1.89-1.19-3.04.25-.44.69-.75 1.18-.84-1.04-2.04-2.33-4.95-3.64-8.28zm59.346 6.656c-.083.025-.152-.063-.19-.138-1.255-2.4-2.264-4.92-3.36-7.393-.268-.61-.542-1.22-.816-1.82-.353-.78-.71-1.57-1.2-2.28-.185-.27-.39-.52-.59-.77.783.07 1.742-.19 2.235.43.14.17.21.38.287.59.32.89.78 1.74 1.36 2.51.3.4.65.82.67 1.32.01.42-.21.87-.01 1.25.09.18.26.3.4.45.39.39.57.95.7 1.49.33 1.36.49 2.76.47 4.15l-.02.08c.02-.09.13.07.05.09zm-197.77 70.102c-.33.796-1.754 2.31-1.92 1.466-1.018-5.186-4.07-13.755-4.07-13.755.107-.077-.565-2.366.114-.337.677 2.03 3.754 3.87 5.877 5.524.955.744 1.567 1.842 1.695 3.044l-1.7 4.058zm-7.91-24.915c0 .225-2.713 3.156-2.827 3.156-.112 0-2.46-3.767-4.295-5.073-.8-.313-1.46-2.03-1.46-2.143 0-.11 2.71-1.915 5.31-4.622-6.14-1.74-7.91-2.366-18.64-4.395.72.028 1.41.007 2.09-.052-.04-.105-.06-.214-.02-.32.12-.35.52-.523.88-.593.32-.06.66-.072.95.054.21.08.38.23.59.31.1.04.21.03.31.04.24-.07.49-.13.73-.21.25-.17.46-.39.58-.66.26-.61.16-1.32 0-1.96-.32-1.25-.86-2.65-.19-3.76.63-.04.95.73 1.04 1.35.09.61.28 1.38.89 1.5.09-.55.18-1.13.53-1.57.35-.44 1.04-.66 1.48-.32.18.14.31.35.52.45.17.08.38.06.57.04.66-.07 1.33-.13 1.99-.19.01-.02.03-.03.04-.05.09-.47.24-1 .68-1.17.08-.03.16-.03.24-.04.39-.57.76-1.15 1.09-1.75-.07-.25-.18-.47-.38-.63-.34-.27-.83-.26-1.19-.5-.51-.34-.59-1.07-.48-1.67.11-.61.36-1.2.32-1.81-.03-.62-.51-1.28-1.12-1.21.25-.2.16-.6-.05-.84-.2-.24-.49-.4-.66-.67-.16-.27-.11-.72.19-.78.45.18.76.64.77 1.12.85.41 1.91.36 2.72-.11.14-.08.28-.18.35-.33.19-.43-.33-.85-.79-.97-.46-.13-1.03-.26-1.15-.71-.1-.38.19-.76.52-.96.34-.2.73-.29 1.06-.51.87-.59.94-1.9.44-2.81-.5-.91-1.4-1.51-2.28-2.07-.27-.18-.56-.36-.73-.64-.17-.28-.19-.68.05-.91.28-.26.72-.16 1.1-.18.65-.04 1.21-.47 1.83-.64.13-.04.28-.06.43-.05.57-.76 4.21.55 4.05 1.25-.6 2.66.51 11.06 1.02 28.63.04 1.42.73 2.76.91 4.17.24 1.9.12 5.52.12 5.75zm-5.44 58.867c-.24.473-.626.872-.776 1.38-.34 1.156.65 2.42.235 3.55-.182.5-.618.887-.757 1.4-.128.476.02.98-.03 1.47-.136 1.32-1.67 2.404-1.262 3.666-.416-.453-.84-.92-1.08-1.49-.235-.568-.25-1.27.122-1.76.106-.14.24-.262.304-.425.15-.406-.2-.82-.52-1.116.63-.26 1.04-.9 1.2-1.56.16-.67.1-1.36.07-2.04-.08-1.6-.06-3.21.05-4.8h-.02l.02-.11-.01.1 1.49.08c.27.01.56.03.78.19.43.31.39.97.15 1.45zm-60.227 19.373c-.288 2.243-.364 4.507-.225 6.764-.37.62-1.1.94-1.8.79-.67.86.91 2.15 1.02 2.15-.34 8.46-1.31 18.49-2.82 27.62-.39.39-1.09.82-1.58.57-1.35-1.58-5.93-6.44-9.49-8.79-1.24-2.25-.15-6.63 2.26-8 .07-.16.03-.34-.11-.45 1.7-.11 2.41-1.31 2.49-2.48-3.47-4.45-9.73-5.62-14.57-2.7-1.73.66-5.49 1.67-5.43 1.01.57-5.63.45-29.98 0-43.51-.06-1.85 3.24-1.75 4.75-.67 1.59-2.48-3.85-4.42-4.74-2.82-1.02-1.12-.04-3.78 1.36-4.05.59-1.08.05-2.44-1.13-2.82.23-1.24.31-2.56.23-3.83-.1-.76-.25-1.51-.45-2.25-.07-.56-.9-1.01 0-1.69.91-.67.88-1.68.45-2.37-.46-1.78-.38-3.67.23-5.41 0-2.14.15-3.92.45-5.86 2.15-4.06 2.81-7.56 2.71-11.5.91-3.15.85-4.11.8-6.2 1.81.68 7.16 3.29 10.29 5.64.59.86 1.36 1.24.79 2.93-.56 1.69 1.93 6.88 1.81 7.1 4.75 16.8 14 27.12 26.45 34.61-7.68 8.46-11.5 16.64-13.67 26.27zm-25.204-98.646c.39-4.84.452-9.93.904-14.54.382-3.87 9.608-9.24 15.177-13.18 3.283-2.32 6.637-4.74 9.69-7.55.86-.79 1.905 1.37 2.258 2.48.55 1.73-.33 5.08-.33 5.41 0 .34.12 3.95 0 4.06-.11.12.91 11.62 1.36 13.76.1.46-.21 1.13-.67 1.13-7.34 0-21.92 7.22-25.88 16.12-.04.11-1.92 3.09-3.6 3.83.04.11.05.24.1.35l-.11-.34.02-.01c-.98-2.96.81-7.69 1.12-11.49zm262.646-25.39c-.958.95-1.462 2.06-2.19 3.2-.287.45-.55 1.13-.678 1.24-.33.28-.416.83-.53 1.25-.15.53-.77 1.41-1.334 1.24-.34-.39-.15-1.41-.61-1.87-.392-.39-.868-.82-1.42-.75.934-.25 1.47-1.2 2.11-1.92.345-.38.74-.72 1.132-1.06 1.514-1.3 3.03-2.6 4.55-3.89l.22.4c.112.87-.628 1.58-1.25 2.2z"/>
</svg>
